<?xml version="1.0" encoding="UTF-8"?>
<svg id="Layer_1" data-name="Layer 1" xmlns="http://www.w3.org/2000/svg" xmlns:xlink="http://www.w3.org/1999/xlink" version="1.1" viewBox="0 0 1920 1080">
  <defs>
    <style>
      .cls-1 {
        clip-path: url(#clippath);
      }

      .cls-2 {
        stroke-width: 0px;
      }

      .cls-2, .cls-3, .cls-4, .cls-5 {
        fill: none;
      }

      .cls-3 {
        stroke-width: 4px;
      }

      .cls-3, .cls-4, .cls-6 {
        stroke: #000;
      }

      .cls-3, .cls-5 {
        stroke-linecap: round;
        stroke-linejoin: round;
      }

      .cls-4 {
        stroke-dasharray: 0 0 5 5;
      }

      .cls-6 {
        fill: #fff;
        stroke-miterlimit: 4;
        stroke-width: 4px;
      }

      .cls-5 {
        stroke: #ff8577;
        stroke-width: 48px;
      }
    </style>
    <clipPath id="clippath">
      <rect class="cls-2" y="-45" width="1945" height="1125.24"/>
    </clipPath>
  </defs>
  <g class="cls-1">
    <g>
      <line class="cls-4" x1="75.77" y1="-36.27" x2="75.77" y2="1088.97"/>
      <line class="cls-4" x1="143.3" y1="-36.27" x2="143.3" y2="1086.77"/>
      <line class="cls-4" x1="210.84" y1="-36.27" x2="210.84" y2="1088.97"/>
      <line class="cls-4" x1="279.72" y1="-36.27" x2="279.72" y2="1088.97"/>
      <line class="cls-4" x1="347.26" y1="-36.27" x2="347.26" y2="1088.97"/>
      <line class="cls-4" x1="414.79" y1="-36.27" x2="414.79" y2="1086.77"/>
      <line class="cls-4" x1="493.33" y1="-32.27" x2="493.33" y2="1092.97"/>
      <line class="cls-4" x1="562.21" y1="-32.27" x2="562.21" y2="1092.97"/>
      <line class="cls-4" x1="629.75" y1="-32.27" x2="629.75" y2="1092.97"/>
      <line class="cls-4" x1="697.28" y1="-32.27" x2="697.28" y2="1092.97"/>
      <line class="cls-4" x1="764.82" y1="-32.27" x2="764.82" y2="1090.77"/>
      <line class="cls-4" x1="832.35" y1="-32.27" x2="832.35" y2="1092.97"/>
      <line class="cls-4" x1="901.24" y1="-32.27" x2="901.24" y2="1092.97"/>
      <line class="cls-4" x1="968.77" y1="-32.27" x2="968.77" y2="1092.97"/>
      <line class="cls-4" x1="1036.31" y1="-32.27" x2="1036.31" y2="1090.77"/>
      <line class="cls-4" x1="1103.84" y1="-32.27" x2="1103.84" y2="1092.97"/>
      <line class="cls-4" x1="1172.73" y1="-32.27" x2="1172.73" y2="1092.97"/>
      <line class="cls-4" x1="1240.26" y1="-32.27" x2="1240.26" y2="1092.97"/>
      <line class="cls-4" x1="1309.15" y1="-34.47" x2="1309.15" y2="1090.77"/>
      <line class="cls-4" x1="1376.68" y1="-34.47" x2="1376.68" y2="1088.57"/>
      <line class="cls-4" x1="1444.22" y1="-34.47" x2="1444.22" y2="1090.77"/>
      <line class="cls-4" x1="1513.1" y1="-34.47" x2="1513.1" y2="1090.77"/>
      <line class="cls-4" x1="1580.64" y1="-34.47" x2="1580.64" y2="1090.77"/>
      <line class="cls-4" x1="1648.17" y1="-34.47" x2="1648.17" y2="1088.57"/>
      <line class="cls-4" x1="1715.71" y1="-34.47" x2="1715.71" y2="1090.77"/>
      <line class="cls-4" x1="1784.59" y1="-34.47" x2="1784.59" y2="1090.77"/>
      <line class="cls-4" x1="1917.98" y1="-32.54" x2="1917.98" y2="1092.7"/>
      <line class="cls-4" x1="1847.74" y1="-35.84" x2="1847.74" y2="1089.41"/>
      <line class="cls-4" x1="-15.4" y1="17.02" x2="1929.6" y2="17.02"/>
      <line class="cls-4" x1="142.3" y1="16.76" x2="2087.3" y2="16.76"/>
      <line class="cls-4" x1="-15.4" y1="71.96" x2="1929.6" y2="71.96"/>
      <line class="cls-4" x1="-15.4" y1="128.01" x2="1929.6" y2="128.01"/>
      <line class="cls-4" x1="-15.4" y1="182.95" x2="1929.6" y2="182.95"/>
      <line class="cls-4" x1="-15.4" y1="237.89" x2="1929.6" y2="237.89"/>
      <line class="cls-4" x1="-4.4" y1="297.94" x2="1940.6" y2="297.94"/>
      <line class="cls-4" x1="-4.4" y1="352.88" x2="1940.6" y2="352.88"/>
      <line class="cls-4" x1="-4.4" y1="407.82" x2="1940.6" y2="407.82"/>
      <line class="cls-4" x1="-4.4" y1="462.77" x2="1940.6" y2="462.77"/>
      <line class="cls-4" x1="-4.4" y1="517.71" x2="1940.6" y2="517.71"/>
      <line class="cls-4" x1="-4.4" y1="572.65" x2="1940.6" y2="572.65"/>
      <line class="cls-4" x1="-4.4" y1="628.7" x2="1940.6" y2="628.7"/>
      <line class="cls-4" x1="-4.4" y1="683.64" x2="1940.6" y2="683.64"/>
      <line class="cls-4" x1="-4.4" y1="738.58" x2="1940.6" y2="738.58"/>
      <line class="cls-4" x1="-4.4" y1="794.62" x2="1940.6" y2="794.62"/>
      <line class="cls-4" x1="-4.4" y1="849.57" x2="1940.6" y2="849.57"/>
      <line class="cls-4" x1="-4.4" y1="904.51" x2="1940.6" y2="904.51"/>
      <line class="cls-4" x1="-4.4" y1="959.46" x2="1940.6" y2="959.46"/>
      <line class="cls-4" x1="-4.4" y1="1017.4" x2="1940.6" y2="1017.4"/>
      <g>
        <path class="cls-5" d="M-111.53,599.04c93.13-21.2,195.82,43.94,226.9,130.77,5.99,16.74,7.93,41.82,6.77,59.72-.3,4.63,4.79,1.15,7.09.22,7.96-3.21,16.47-4.08,25.03-2.75,32.98,5.11,45.92,58.59,51.14,83.83,8.26,39.93,9.94,80.8,16.29,121.03,1.19,7.56,7.23.83,11.58-1.36,19.58-9.85,46.85,4.3,62.06,16.72,17.64,14.39,34.95,31.64,46.64,51.14,4,6.67,5.53,13.55,6.93,21.07.55,2.99.03,10.95,2.27,13.25,1.96,2.02,10.86-11.5,12.22-12.98,7.57-8.3,13.95-8.05,25.25-5.29,28.42,6.93,39.68,24.68,54.22,48.4,9.33,15.21,20.92,30.34,22.37,48.49"/>
        <path class="cls-3" d="M-116.82,602.11c92.65-23.16,196.73,39.81,229.7,125.97,6.36,16.61,8.84,41.64,8.07,59.57-.2,4.63,4.82,1.05,7.09.07,7.89-3.37,16.38-4.43,24.97-3.28,33.08,4.42,47.18,57.62,52.95,82.73,9.13,39.75,11.7,80.58,18.92,120.66,1.36,7.54,7.24.68,11.54-1.6,19.36-10.26,46.94,3.32,62.41,15.41,17.95,14.02,35.63,30.9,47.74,50.15,4.14,6.58,5.83,13.43,7.38,20.92.62,2.98.27,10.95,2.55,13.2,2,1.98,10.61-11.72,11.93-13.23,7.39-8.46,13.77-8.34,25.13-5.82,28.57,6.33,40.2,23.84,55.27,47.25,9.66,15.01,21.58,29.89,23.43,48.01"/>
        <path class="cls-6" d="M127.68,776.61c4.25,2.4,5.71,7.73,3.26,11.91s-7.88,5.6-12.12,3.2c-4.25-2.4-5.71-7.73-3.26-11.91,2.45-4.17,7.88-5.6,12.12-3.2Z"/>
        <path class="cls-6" d="M231.54,981.45c4.25,2.4,5.71,7.73,3.26,11.91-2.45,4.17-7.88,5.6-12.12,3.2s-5.71-7.73-3.26-11.91c2.45-4.17,7.88-5.6,12.12-3.2Z"/>
      </g>
    </g>
  </g>
</svg>