<svg width="357" height="152" viewBox="0 0 357 152" fill="none" xmlns="http://www.w3.org/2000/svg">
<rect x="6.56641" y="22.0261" width="109.33" height="24.0596" rx="12.0298" fill="#E6E6E6" stroke="black" stroke-width="2"/>
<path d="M38.8262 41.0179C37.3507 41.0179 36.204 40.5423 35.3862 39.5912C34.5685 38.6401 34.1596 37.3156 34.1596 35.6179C34.1596 33.9201 34.564 32.5956 35.3729 31.6445C36.1907 30.6934 37.3374 30.2179 38.8129 30.2179C39.684 30.2179 40.4351 30.3823 41.0662 30.7112C41.6974 31.0401 42.1907 31.4979 42.5462 32.0845C42.9107 32.6712 43.1285 33.3512 43.1996 34.1245H41.3196C41.2396 33.369 40.9774 32.769 40.5329 32.3245C40.0974 31.8801 39.524 31.6579 38.8129 31.6579C37.924 31.6579 37.244 32.0045 36.7729 32.6979C36.3107 33.3912 36.0796 34.369 36.0796 35.6312C36.0796 36.9112 36.3151 37.889 36.7862 38.5645C37.2662 39.2401 37.9374 39.5779 38.7996 39.5779C39.5462 39.5779 40.1374 39.3468 40.5729 38.8845C41.0085 38.4223 41.2574 37.8312 41.3196 37.1112H43.1996C43.1285 37.8756 42.9107 38.5556 42.5462 39.1512C42.1907 39.7379 41.6974 40.1956 41.0662 40.5245C40.444 40.8534 39.6974 41.0179 38.8262 41.0179ZM44.6837 40.8179V32.8179H46.3104V34.2312H46.6304C46.6837 33.9912 46.7815 33.7556 46.9237 33.5245C47.066 33.2934 47.2837 33.1068 47.5771 32.9645C47.8793 32.8134 48.2882 32.7379 48.8037 32.7379H49.1504V34.3912H48.6571C47.8837 34.3912 47.3282 34.5912 46.9904 34.9912C46.6526 35.3912 46.4837 36.0001 46.4837 36.8179V40.8179H44.6837ZM53.4931 41.0179C52.2753 41.0179 51.3465 40.6401 50.7065 39.8845C50.0665 39.1201 49.7465 38.0934 49.7465 36.8045C49.7465 35.9512 49.8887 35.2134 50.1731 34.5912C50.4576 33.969 50.8753 33.4845 51.4265 33.1379C51.9865 32.7912 52.6665 32.6179 53.4665 32.6179C54.6131 32.6179 55.4887 32.9779 56.0931 33.6979C56.6976 34.409 56.9998 35.4534 56.9998 36.8312V37.2579H51.5065C51.5509 37.9868 51.7376 38.5734 52.0665 39.0179C52.4042 39.4623 52.8798 39.6845 53.4931 39.6845C53.9553 39.6845 54.3242 39.5512 54.5998 39.2845C54.8842 39.0179 55.0798 38.6756 55.1865 38.2579H56.9065C56.8087 38.7734 56.622 39.2401 56.3465 39.6579C56.0798 40.0668 55.7109 40.3956 55.2398 40.6445C54.7687 40.8934 54.1865 41.0179 53.4931 41.0179ZM51.5198 36.0579H55.2398C55.2042 35.3734 55.0309 34.8445 54.7198 34.4712C54.4176 34.0979 53.9953 33.9112 53.4531 33.9112C52.8931 33.9112 52.4487 34.0934 52.1198 34.4579C51.7909 34.8223 51.5909 35.3556 51.5198 36.0579ZM61.2521 40.9912C60.541 40.9912 59.9454 40.8179 59.4654 40.4712C58.9854 40.1156 58.621 39.6223 58.3721 38.9912C58.1321 38.3601 58.0121 37.6312 58.0121 36.8045C58.0121 35.969 58.1321 35.2401 58.3721 34.6179C58.621 33.9956 58.9854 33.5112 59.4654 33.1645C59.9543 32.8179 60.5543 32.6445 61.2654 32.6445C61.8432 32.6445 62.3099 32.7601 62.6654 32.9912C63.0299 33.2223 63.2965 33.5112 63.4654 33.8579H63.7854V32.8179H65.4254V40.8179H63.7854V39.7779H63.4654C63.2965 40.1068 63.0299 40.3912 62.6654 40.6312C62.3099 40.8712 61.8387 40.9912 61.2521 40.9912ZM61.6654 39.6312C62.2699 39.6312 62.7499 39.3779 63.1054 38.8712C63.461 38.3556 63.6387 37.6712 63.6387 36.8179C63.6387 35.9645 63.461 35.2845 63.1054 34.7779C62.7499 34.2623 62.2699 34.0045 61.6654 34.0045C61.0965 34.0045 60.6565 34.2445 60.3454 34.7245C60.0343 35.2045 59.8787 35.9023 59.8787 36.8179C59.8787 37.7334 60.0343 38.4312 60.3454 38.9112C60.6565 39.3912 61.0965 39.6312 61.6654 39.6312ZM68.6521 40.8179C68.4476 40.5779 68.2832 40.289 68.1587 39.9512C68.0432 39.6134 67.9854 39.1068 67.9854 38.4312V34.1379H66.8921V32.8179H68.0121V30.8179H69.7721V32.8179H71.0921V34.1379H69.7854V38.2045C69.7854 38.9156 69.861 39.4579 70.0121 39.8312C70.1721 40.1956 70.3632 40.4979 70.5854 40.7379V40.8179H68.6521ZM72.5587 40.8179V32.8179H74.3587V40.8179H72.5587ZM73.4654 31.8045C73.1365 31.8045 72.8832 31.7156 72.7054 31.5379C72.5276 31.3512 72.4387 31.1112 72.4387 30.8179C72.4387 30.5245 72.5276 30.289 72.7054 30.1112C72.8832 29.9245 73.1365 29.8312 73.4654 29.8312C73.8032 29.8312 74.0565 29.9245 74.2254 30.1112C74.4032 30.289 74.4921 30.5245 74.4921 30.8179C74.4921 31.1112 74.4032 31.3512 74.2254 31.5379C74.0565 31.7156 73.8032 31.8045 73.4654 31.8045ZM77.9896 40.8179L75.6296 32.8979V32.8179H77.4429L79.3096 39.3379H79.6296L81.5096 32.8179H83.1629V32.8979L80.8029 40.8179H77.9896ZM87.6337 41.0179C86.416 41.0179 85.4871 40.6401 84.8471 39.8845C84.2071 39.1201 83.8871 38.0934 83.8871 36.8045C83.8871 35.9512 84.0293 35.2134 84.3137 34.5912C84.5982 33.969 85.016 33.4845 85.5671 33.1379C86.1271 32.7912 86.8071 32.6179 87.6071 32.6179C88.7537 32.6179 89.6293 32.9779 90.2337 33.6979C90.8382 34.409 91.1404 35.4534 91.1404 36.8312V37.2579H85.6471C85.6915 37.9868 85.8782 38.5734 86.2071 39.0179C86.5449 39.4623 87.0204 39.6845 87.6337 39.6845C88.096 39.6845 88.4649 39.5512 88.7404 39.2845C89.0249 39.0179 89.2204 38.6756 89.3271 38.2579H91.0471C90.9493 38.7734 90.7626 39.2401 90.4871 39.6579C90.2204 40.0668 89.8515 40.3956 89.3804 40.6445C88.9093 40.8934 88.3271 41.0179 87.6337 41.0179ZM85.6604 36.0579H89.3804C89.3449 35.3734 89.1715 34.8445 88.8604 34.4712C88.5582 34.0979 88.136 33.9112 87.5937 33.9112C87.0337 33.9112 86.5893 34.0934 86.2604 34.4579C85.9315 34.8223 85.7315 35.3556 85.6604 36.0579Z" fill="black"/>
<rect x="4.56055" y="21.6193" width="112.388" height="25.9392" stroke="#9747FF" stroke-width="2"/>
<rect x="1" y="19" width="4.13813" height="2.72973" fill="white" stroke="#9747FF" stroke-width="2"/>
<rect x="116.397" y="19" width="4.13813" height="2.72973" fill="white" stroke="#9747FF" stroke-width="2"/>
<rect x="116.397" y="49.2703" width="4.13813" height="2.72973" fill="white" stroke="#9747FF" stroke-width="2"/>
<rect x="1" y="49.2703" width="4.13813" height="2.72973" fill="white" stroke="#9747FF" stroke-width="2"/>
<rect x="87.3501" y="77.0261" width="105.001" height="25.2948" rx="12.6474" fill="#E6E6E6" stroke="black" stroke-width="2"/>
<path d="M109.183 95.8579V86.1079H115.633V87.5204H110.921V89.9704H114.596V91.3079H110.921V94.4454H115.708V95.8579H109.183ZM117.334 95.8579V88.3579H118.871V89.4829H119.171C119.305 89.0996 119.53 88.7871 119.846 88.5454C120.163 88.2954 120.596 88.1704 121.146 88.1704C121.671 88.1704 122.105 88.2871 122.446 88.5204C122.796 88.7537 123.055 89.0746 123.221 89.4829H123.521C123.671 89.0912 123.909 88.7746 124.234 88.5329C124.567 88.2912 125.009 88.1704 125.559 88.1704C126.376 88.1704 126.976 88.4371 127.359 88.9704C127.742 89.4954 127.934 90.1954 127.934 91.0704V95.8579H126.246V91.3829C126.246 90.8079 126.151 90.3621 125.959 90.0454C125.776 89.7287 125.476 89.5704 125.059 89.5704C124.551 89.5704 124.159 89.7871 123.884 90.2204C123.617 90.6537 123.484 91.1829 123.484 91.8079V95.8579H121.784V91.3829C121.784 90.8079 121.692 90.3621 121.509 90.0454C121.326 89.7287 121.026 89.5704 120.609 89.5704C120.101 89.5704 119.709 89.7871 119.434 90.2204C119.159 90.6537 119.021 91.1829 119.021 91.8079V95.8579H117.334ZM129.829 98.3579V88.3579H131.367V89.3329H131.667C131.825 89.0246 132.071 88.7579 132.404 88.5329C132.746 88.3079 133.2 88.1954 133.767 88.1954C134.425 88.1954 134.975 88.3621 135.417 88.6954C135.867 89.0204 136.204 89.4787 136.429 90.0704C136.662 90.6537 136.779 91.3371 136.779 92.1204C136.779 92.8954 136.662 93.5787 136.429 94.1704C136.204 94.7537 135.867 95.2079 135.417 95.5329C134.975 95.8579 134.429 96.0204 133.779 96.0204C133.279 96.0204 132.871 95.9287 132.554 95.7454C132.237 95.5621 131.992 95.3121 131.817 94.9954H131.517V98.3579H129.829ZM133.354 94.7454C133.887 94.7454 134.3 94.5204 134.592 94.0704C134.883 93.6204 135.029 92.9662 135.029 92.1079C135.029 91.2496 134.883 90.5954 134.592 90.1454C134.3 89.6954 133.887 89.4704 133.354 89.4704C132.787 89.4704 132.337 89.7121 132.004 90.1954C131.671 90.6704 131.504 91.3079 131.504 92.1079C131.504 92.9079 131.671 93.5496 132.004 94.0329C132.337 94.5079 132.787 94.7454 133.354 94.7454ZM140.792 96.0204C140.125 96.0204 139.567 95.8579 139.117 95.5329C138.667 95.1996 138.325 94.7371 138.092 94.1454C137.867 93.5537 137.754 92.8704 137.754 92.0954C137.754 91.3121 137.867 90.6287 138.092 90.0454C138.325 89.4621 138.667 89.0079 139.117 88.6829C139.575 88.3579 140.137 88.1954 140.804 88.1954C141.346 88.1954 141.783 88.3037 142.117 88.5204C142.458 88.7371 142.708 89.0079 142.867 89.3329H143.167V88.3579H144.704V95.8579H143.167V94.8829H142.867C142.708 95.1912 142.458 95.4579 142.117 95.6829C141.783 95.9079 141.342 96.0204 140.792 96.0204ZM141.179 94.7454C141.746 94.7454 142.196 94.5079 142.529 94.0329C142.862 93.5496 143.029 92.9079 143.029 92.1079C143.029 91.3079 142.862 90.6704 142.529 90.1954C142.196 89.7121 141.746 89.4704 141.179 89.4704C140.646 89.4704 140.233 89.6954 139.942 90.1454C139.65 90.5954 139.504 91.2496 139.504 92.1079C139.504 92.9662 139.65 93.6204 139.942 94.0704C140.233 94.5204 140.646 94.7454 141.179 94.7454ZM147.729 95.8579C147.537 95.6329 147.383 95.3621 147.267 95.0454C147.158 94.7287 147.104 94.2537 147.104 93.6204V89.5954H146.079V88.3579H147.129V86.4829H148.779V88.3579H150.017V89.5954H148.792V93.4079C148.792 94.0746 148.862 94.5829 149.004 94.9329C149.154 95.2746 149.333 95.5579 149.542 95.7829V95.8579H147.729ZM151.392 95.8579V85.8579H153.079V89.2954H153.379C153.554 88.9537 153.796 88.6829 154.104 88.4829C154.412 88.2746 154.817 88.1704 155.317 88.1704C156.167 88.1704 156.792 88.4371 157.192 88.9704C157.6 89.4954 157.804 90.1954 157.804 91.0704V95.8579H156.117V91.3829C156.117 90.7996 156.012 90.3537 155.804 90.0454C155.596 89.7287 155.267 89.5704 154.817 89.5704C154.267 89.5704 153.837 89.7871 153.529 90.2204C153.229 90.6454 153.079 91.1746 153.079 91.8079V95.8579H151.392ZM159.697 95.8579V88.3579H161.385V95.8579H159.697ZM160.547 87.4079C160.239 87.4079 160.001 87.3246 159.835 87.1579C159.668 86.9829 159.585 86.7579 159.585 86.4829C159.585 86.2079 159.668 85.9871 159.835 85.8204C160.001 85.6454 160.239 85.5579 160.547 85.5579C160.864 85.5579 161.101 85.6454 161.26 85.8204C161.426 85.9871 161.51 86.2079 161.51 86.4829C161.51 86.7579 161.426 86.9829 161.26 87.1579C161.101 87.3246 160.864 87.4079 160.547 87.4079ZM166.301 96.0454C165.176 96.0454 164.322 95.6912 163.739 94.9829C163.164 94.2662 162.876 93.3079 162.876 92.1079C162.876 90.8662 163.176 89.8996 163.776 89.2079C164.385 88.5162 165.23 88.1704 166.314 88.1704C167.247 88.1704 167.989 88.4246 168.539 88.9329C169.089 89.4412 169.422 90.1454 169.539 91.0454H167.876C167.81 90.5371 167.643 90.1412 167.376 89.8579C167.118 89.5746 166.772 89.4329 166.339 89.4329C165.764 89.4329 165.335 89.6704 165.051 90.1454C164.768 90.6121 164.626 91.2662 164.626 92.1079C164.626 92.9496 164.768 93.6079 165.051 94.0829C165.335 94.5496 165.76 94.7829 166.326 94.7829C166.768 94.7829 167.118 94.6412 167.376 94.3579C167.643 94.0746 167.81 93.6787 167.876 93.1704H169.539C169.414 94.0704 169.072 94.7746 168.514 95.2829C167.964 95.7912 167.226 96.0454 166.301 96.0454Z" fill="black"/>
<rect x="85.4221" y="76.6193" width="107.94" height="25.9392" stroke="#9747FF" stroke-width="2"/>
<rect x="82" y="74" width="3.89948" height="2.72973" fill="white" stroke="#9747FF" stroke-width="2"/>
<rect x="192.91" y="74" width="3.89948" height="2.72973" fill="white" stroke="#9747FF" stroke-width="2"/>
<rect x="192.91" y="104.27" width="3.89948" height="2.72973" fill="white" stroke="#9747FF" stroke-width="2"/>
<rect x="82" y="104.27" width="3.89948" height="2.72973" fill="white" stroke="#9747FF" stroke-width="2"/>
<rect x="204.677" y="121.414" width="111.532" height="24.9231" rx="12.4615" fill="#E6E6E6" stroke="black" stroke-width="2"/>
<path d="M217.027 137.385V128.285H220.142C221.736 128.285 222.891 128.685 223.607 129.486C224.322 130.28 224.68 131.396 224.68 132.835C224.68 134.273 224.322 135.393 223.607 136.195C222.891 136.988 221.736 137.385 220.142 137.385H217.027ZM218.672 136.078H220.025C220.709 136.078 221.269 135.969 221.705 135.751C222.148 135.533 222.475 135.187 222.685 134.713C222.895 134.238 223 133.612 223 132.835C223 132.057 222.895 131.431 222.685 130.956C222.475 130.482 222.148 130.136 221.705 129.918C221.269 129.7 220.709 129.591 220.025 129.591H218.672V136.078ZM228.829 137.56C227.763 137.56 226.95 137.229 226.39 136.568C225.83 135.899 225.55 135.001 225.55 133.873C225.55 133.126 225.675 132.481 225.924 131.936C226.173 131.392 226.538 130.968 227.02 130.665C227.51 130.361 228.105 130.21 228.805 130.21C229.809 130.21 230.575 130.525 231.104 131.155C231.633 131.777 231.897 132.691 231.897 133.896V134.27H227.09C227.129 134.907 227.293 135.421 227.58 135.81C227.876 136.198 228.292 136.393 228.829 136.393C229.233 136.393 229.556 136.276 229.797 136.043C230.046 135.81 230.217 135.51 230.31 135.145H231.815C231.73 135.596 231.566 136.004 231.325 136.37C231.092 136.727 230.769 137.015 230.357 137.233C229.945 137.451 229.435 137.56 228.829 137.56ZM227.102 133.22H230.357C230.326 132.621 230.174 132.158 229.902 131.831C229.638 131.505 229.268 131.341 228.794 131.341C228.304 131.341 227.915 131.501 227.627 131.82C227.339 132.138 227.164 132.605 227.102 133.22ZM234.218 137.385C234.039 137.175 233.895 136.922 233.786 136.626C233.685 136.331 233.634 135.887 233.634 135.296V131.54H232.678V130.385H233.658V128.635H235.198V130.385H236.353V131.54H235.209V135.098C235.209 135.72 235.275 136.195 235.408 136.521C235.548 136.84 235.715 137.105 235.909 137.315V137.385H234.218ZM239.993 137.536C239.37 137.536 238.849 137.385 238.429 137.081C238.009 136.77 237.69 136.338 237.473 135.786C237.263 135.234 237.158 134.596 237.158 133.873C237.158 133.142 237.263 132.504 237.473 131.96C237.69 131.415 238.009 130.991 238.429 130.688C238.857 130.385 239.382 130.233 240.004 130.233C240.51 130.233 240.918 130.334 241.229 130.536C241.548 130.738 241.782 130.991 241.929 131.295H242.209V130.385H243.644V137.385H242.209V136.475H241.929C241.782 136.762 241.548 137.011 241.229 137.221C240.918 137.431 240.506 137.536 239.993 137.536ZM240.354 136.346C240.883 136.346 241.303 136.125 241.614 135.681C241.925 135.23 242.081 134.631 242.081 133.885C242.081 133.138 241.925 132.543 241.614 132.1C241.303 131.648 240.883 131.423 240.354 131.423C239.857 131.423 239.472 131.633 239.199 132.053C238.927 132.473 238.791 133.083 238.791 133.885C238.791 134.686 238.927 135.296 239.199 135.716C239.472 136.136 239.857 136.346 240.354 136.346ZM245.511 137.385V130.385H247.086V137.385H245.511ZM246.304 129.498C246.017 129.498 245.795 129.42 245.639 129.265C245.484 129.101 245.406 128.891 245.406 128.635C245.406 128.378 245.484 128.172 245.639 128.016C245.795 127.853 246.017 127.771 246.304 127.771C246.6 127.771 246.822 127.853 246.969 128.016C247.125 128.172 247.203 128.378 247.203 128.635C247.203 128.891 247.125 129.101 246.969 129.265C246.822 129.42 246.6 129.498 246.304 129.498ZM249.493 137.385C249.299 137.151 249.151 136.883 249.05 136.58C248.956 136.276 248.91 135.848 248.91 135.296V128.051H250.496V135.11C250.496 135.716 250.562 136.183 250.695 136.51C250.827 136.828 250.998 137.097 251.208 137.315V137.385H249.493ZM252.112 134.421V133.115H255.052V134.421H252.112ZM259.436 137.56C258.331 137.56 257.503 137.229 256.951 136.568C256.406 135.899 256.134 135.005 256.134 133.885C256.134 132.765 256.406 131.874 256.951 131.213C257.503 130.544 258.331 130.21 259.436 130.21C260.556 130.21 261.388 130.544 261.933 131.213C262.477 131.874 262.749 132.765 262.749 133.885C262.749 135.005 262.477 135.899 261.933 136.568C261.388 137.229 260.556 137.56 259.436 137.56ZM259.448 136.416C260.023 136.416 260.443 136.198 260.708 135.763C260.98 135.32 261.116 134.693 261.116 133.885C261.116 133.076 260.98 132.453 260.708 132.018C260.443 131.575 260.023 131.353 259.448 131.353C258.864 131.353 258.436 131.575 258.164 132.018C257.9 132.453 257.768 133.076 257.768 133.885C257.768 134.693 257.9 135.32 258.164 135.763C258.436 136.198 258.864 136.416 259.448 136.416ZM264.132 137.385V130.385H265.555V131.621H265.835C265.882 131.411 265.968 131.205 266.092 131.003C266.217 130.801 266.407 130.637 266.664 130.513C266.928 130.381 267.286 130.315 267.737 130.315H268.04V131.761H267.609C266.932 131.761 266.446 131.936 266.15 132.286C265.855 132.636 265.707 133.169 265.707 133.885V137.385H264.132ZM269.327 137.385V130.385H270.902V137.385H269.327ZM270.121 129.498C269.833 129.498 269.611 129.42 269.456 129.265C269.3 129.101 269.222 128.891 269.222 128.635C269.222 128.378 269.3 128.172 269.456 128.016C269.611 127.853 269.833 127.771 270.121 127.771C270.416 127.771 270.638 127.853 270.786 128.016C270.941 128.172 271.019 128.378 271.019 128.635C271.019 128.891 270.941 129.101 270.786 129.265C270.638 129.42 270.416 129.498 270.121 129.498ZM275.573 137.56C274.507 137.56 273.694 137.229 273.134 136.568C272.574 135.899 272.294 135.001 272.294 133.873C272.294 133.126 272.419 132.481 272.668 131.936C272.917 131.392 273.282 130.968 273.764 130.665C274.254 130.361 274.849 130.21 275.549 130.21C276.553 130.21 277.319 130.525 277.848 131.155C278.377 131.777 278.641 132.691 278.641 133.896V134.27H273.834C273.873 134.907 274.037 135.421 274.324 135.81C274.62 136.198 275.036 136.393 275.573 136.393C275.977 136.393 276.3 136.276 276.541 136.043C276.79 135.81 276.961 135.51 277.054 135.145H278.559C278.474 135.596 278.311 136.004 278.069 136.37C277.836 136.727 277.513 137.015 277.101 137.233C276.689 137.451 276.179 137.56 275.573 137.56ZM273.846 133.22H277.101C277.07 132.621 276.918 132.158 276.646 131.831C276.382 131.505 276.012 131.341 275.538 131.341C275.048 131.341 274.659 131.501 274.371 131.82C274.083 132.138 273.908 132.605 273.846 133.22ZM280.005 137.385V130.385H281.44V131.435H281.72C281.86 131.069 282.082 130.773 282.385 130.548C282.696 130.322 283.12 130.21 283.657 130.21C284.458 130.21 285.045 130.458 285.419 130.956C285.8 131.446 285.99 132.1 285.99 132.916V137.385H284.415V133.208C284.415 132.663 284.318 132.247 284.124 131.96C283.929 131.664 283.622 131.516 283.202 131.516C282.689 131.516 282.288 131.718 282 132.123C281.72 132.52 281.58 133.013 281.58 133.605V137.385H280.005ZM288.714 137.385C288.535 137.175 288.391 136.922 288.282 136.626C288.181 136.331 288.13 135.887 288.13 135.296V131.54H287.174V130.385H288.154V128.635H289.694V130.385H290.849V131.54H289.705V135.098C289.705 135.72 289.772 136.195 289.904 136.521C290.044 136.84 290.211 137.105 290.405 137.315V137.385H288.714ZM294.932 137.56C293.867 137.56 293.054 137.229 292.494 136.568C291.934 135.899 291.654 135.001 291.654 133.873C291.654 133.126 291.778 132.481 292.027 131.936C292.276 131.392 292.642 130.968 293.124 130.665C293.614 130.361 294.209 130.21 294.909 130.21C295.912 130.21 296.678 130.525 297.207 131.155C297.736 131.777 298 132.691 298 133.896V134.27H293.194C293.233 134.907 293.396 135.421 293.684 135.81C293.979 136.198 294.395 136.393 294.932 136.393C295.337 136.393 295.659 136.276 295.9 136.043C296.149 135.81 296.32 135.51 296.414 135.145H297.919C297.833 135.596 297.67 136.004 297.429 136.37C297.195 136.727 296.873 137.015 296.46 137.233C296.048 137.451 295.539 137.56 294.932 137.56ZM293.205 133.22H296.46C296.429 132.621 296.278 132.158 296.005 131.831C295.741 131.505 295.372 131.341 294.897 131.341C294.407 131.341 294.018 131.501 293.73 131.82C293.443 132.138 293.268 132.605 293.205 133.22ZM301.686 137.536C301.072 137.536 300.555 137.385 300.135 137.081C299.722 136.77 299.407 136.338 299.19 135.786C298.98 135.234 298.875 134.596 298.875 133.873C298.875 133.142 298.98 132.504 299.19 131.96C299.407 131.415 299.722 130.991 300.135 130.688C300.555 130.385 301.068 130.233 301.675 130.233C302.141 130.233 302.522 130.318 302.818 130.49C303.113 130.661 303.343 130.894 303.506 131.19H303.786V128.051H305.361V137.385H303.926V136.475H303.646C303.498 136.762 303.265 137.011 302.946 137.221C302.635 137.431 302.215 137.536 301.686 137.536ZM302.071 136.346C302.6 136.346 303.02 136.125 303.331 135.681C303.642 135.23 303.798 134.631 303.798 133.885C303.798 133.138 303.642 132.543 303.331 132.1C303.02 131.648 302.6 131.423 302.071 131.423C301.573 131.423 301.188 131.633 300.916 132.053C300.644 132.473 300.508 133.083 300.508 133.885C300.508 134.686 300.644 135.296 300.916 135.716C301.188 136.136 301.573 136.346 302.071 136.346Z" fill="black"/>
<rect x="202.631" y="120.619" width="114.65" height="25.9392" stroke="#9747FF" stroke-width="2"/>
<rect x="199" y="118" width="4.25953" height="2.72973" fill="white" stroke="#9747FF" stroke-width="2"/>
<rect x="316.679" y="118" width="4.25953" height="2.72973" fill="white" stroke="#9747FF" stroke-width="2"/>
<rect x="316.679" y="148.27" width="4.25953" height="2.72973" fill="white" stroke="#9747FF" stroke-width="2"/>
<rect x="199" y="148.27" width="4.25953" height="2.72973" fill="white" stroke="#9747FF" stroke-width="2"/>
<path d="M205.717 15.5539C205.165 15.5578 204.72 16.0089 204.723 16.5615C204.725 17.1141 205.175 17.5589 205.727 17.555L205.717 15.5539ZM116.992 38.9534C116.687 39.4147 116.813 40.0353 117.273 40.3397L124.768 45.2995C125.228 45.6039 125.848 45.4767 126.154 45.0155C126.459 44.5543 126.333 43.9336 125.873 43.6293L119.21 39.2205L123.63 32.5394C123.935 32.0782 123.809 31.4575 123.349 31.1532C122.889 30.8488 122.269 30.976 121.964 31.4372L116.992 38.9534ZM205.727 17.555C206.08 17.5525 206.324 17.5726 206.471 17.6004C206.545 17.6144 206.562 17.6244 206.544 17.6161C206.535 17.6121 206.41 17.5575 206.299 17.3974C206.161 17.1974 206.128 16.9533 206.18 16.748C206.201 16.6626 206.232 16.6027 206.252 16.5702C206.262 16.5533 206.271 16.5412 206.276 16.5338C206.282 16.5263 206.285 16.5225 206.286 16.5221C206.286 16.522 206.277 16.5315 206.255 16.5501C206.234 16.5685 206.204 16.5928 206.162 16.6227C206.078 16.6833 205.961 16.7583 205.803 16.8473C204.478 17.5963 201.224 18.8361 195.052 20.6431C182.774 24.2375 159.302 29.9792 117.627 38.5243L118.023 40.4847C159.711 31.9371 183.249 26.182 195.608 22.5637C201.755 20.7643 205.227 19.4688 206.783 18.5894C207.167 18.3721 207.523 18.1328 207.768 17.8609C207.891 17.7244 208.047 17.5135 208.118 17.2309C208.2 16.9042 208.148 16.552 207.944 16.2566C207.768 16.0013 207.53 15.8642 207.366 15.7904C207.193 15.7123 207.011 15.6651 206.847 15.634C206.519 15.5719 206.129 15.5509 205.717 15.5539L205.727 17.555Z" fill="#4ACFFF"/>
<path d="M175.735 23.9201C176.944 23.6532 178.41 24.5646 178.797 26.3164C179.184 28.0682 178.237 29.5121 177.028 29.779C175.819 30.046 174.353 29.1346 173.966 27.3828C173.579 25.631 174.526 24.187 175.735 23.9201Z" fill="#FFFDFD" stroke="#4ACFFF" stroke-width="2"/>
<path d="M264.927 13.2807C264.455 13.5678 264.305 14.1835 264.591 14.6561C264.878 15.1287 265.492 15.2791 265.964 14.9921L264.927 13.2807ZM199.081 80.034C199.054 80.5862 199.479 81.0557 200.03 81.0826L209.009 81.5208C209.56 81.5477 210.029 81.1218 210.056 80.5696C210.083 80.0174 209.658 79.5479 209.107 79.521L201.125 79.1314L201.515 71.132C201.542 70.5797 201.117 70.1102 200.566 70.0833C200.015 70.0564 199.546 70.4823 199.519 71.0346L199.081 80.034ZM265.964 14.9921C266.273 14.8038 266.499 14.6915 266.645 14.6372C266.719 14.61 266.741 14.6092 266.723 14.6114C266.716 14.6122 266.58 14.6314 266.4 14.5502C266.172 14.4477 266.016 14.2489 265.956 14.0411C265.931 13.9553 265.928 13.8873 265.929 13.85C265.929 13.8305 265.931 13.816 265.932 13.8072C265.932 13.8027 265.933 13.7993 265.933 13.7972C265.934 13.795 265.934 13.7939 265.934 13.7939C265.934 13.7939 265.934 13.7948 265.933 13.7968C265.933 13.7987 265.932 13.8015 265.931 13.8052C265.929 13.8127 265.925 13.8233 265.921 13.8371C265.911 13.8651 265.896 13.9029 265.875 13.9513C265.831 14.0492 265.766 14.1766 265.672 14.3371C264.888 15.6839 262.663 18.4657 258.172 23.2649C249.236 32.8136 231.584 50.0906 199.408 79.3412L200.75 80.8241C232.936 51.565 250.636 34.2441 259.629 24.6345C264.101 19.8547 266.483 16.9174 267.398 15.3461C267.624 14.958 267.812 14.5684 267.888 14.2093C267.926 14.0299 267.956 13.7671 267.875 13.485C267.78 13.1564 267.552 12.8744 267.219 12.7241C266.933 12.5953 266.656 12.6022 266.478 12.6242C266.289 12.6476 266.108 12.7014 265.951 12.7601C265.634 12.8777 265.285 13.0628 264.927 13.2807L265.964 14.9921Z" fill="#4ACFFF"/>
<path d="M243.275 35.1566C244.224 34.2681 245.977 34.3096 247.188 35.6033C248.399 36.897 248.325 38.6481 247.376 39.5365C246.427 40.425 244.675 40.3835 243.464 39.0898C242.253 37.7961 242.327 36.0451 243.275 35.1566Z" fill="#FFFDFD" stroke="#4ACFFF" stroke-width="2"/>
<path d="M268.046 25.1297C267.928 25.6688 268.269 26.203 268.808 26.3228C269.348 26.4426 269.881 26.1026 270 25.5635L268.046 25.1297ZM270.762 118.854C271.143 119.255 271.776 119.273 272.176 118.893L278.7 112.708C279.1 112.328 279.116 111.695 278.736 111.294C278.355 110.893 277.723 110.876 277.322 111.255L271.523 116.753L266.012 110.942C265.632 110.541 264.999 110.523 264.598 110.903C264.198 111.282 264.182 111.915 264.562 112.316L270.762 118.854ZM270 25.5635C270.077 25.2098 270.153 24.9685 270.215 24.8254C270.245 24.7537 270.26 24.7372 270.249 24.7517C270.245 24.757 270.165 24.8691 269.982 24.943C269.75 25.0366 269.499 25.012 269.307 24.9116C269.228 24.8702 269.177 24.8253 269.15 24.7991C269.136 24.7853 269.127 24.7743 269.121 24.7674C269.118 24.7639 269.116 24.7612 269.115 24.7594C269.114 24.7577 269.113 24.7567 269.113 24.7567C269.113 24.7567 269.114 24.7575 269.115 24.7592C269.116 24.7609 269.117 24.7633 269.119 24.7667C269.123 24.7734 269.129 24.7831 269.135 24.7961C269.149 24.8224 269.166 24.8591 269.186 24.9082C269.227 25.0073 269.274 25.1426 269.325 25.3211C269.756 26.8187 270.227 30.35 270.591 36.9128C271.314 49.97 271.595 74.6685 270.487 118.139L272.487 118.194C273.595 74.7111 273.315 49.9472 272.588 36.8067C272.226 30.2706 271.75 26.5191 271.247 24.7718C271.123 24.3403 270.971 23.935 270.764 23.6318C270.661 23.4803 270.492 23.2766 270.232 23.1404C269.929 22.9817 269.568 22.9515 269.229 23.0885C268.938 23.206 268.752 23.4109 268.644 23.5546C268.531 23.7075 268.444 23.8753 268.378 24.0299C268.244 24.3398 268.136 24.7203 268.046 25.1297L270 25.5635Z" fill="#4ACFFF"/>
<path d="M269.038 38.5612C269.052 37.2613 270.294 36.024 272.066 36.0431C273.838 36.0622 275.052 37.326 275.038 38.6259C275.024 39.9258 273.783 41.1632 272.011 41.1441C270.239 41.125 269.024 39.8611 269.038 38.5612Z" fill="#FFFDFD" stroke="#4ACFFF" stroke-width="2"/>
<rect x="177.5" y="1.5" width="164" height="32" rx="16" fill="#FFDE2E" stroke="black" stroke-width="3"/>
<path d="M195.472 24.473V14.073H199.499C200.832 14.073 201.801 14.353 202.406 14.913C203.019 15.4641 203.326 16.2064 203.326 17.1397C203.326 18.073 203.019 18.8197 202.406 19.3797C201.801 19.9397 200.832 20.2197 199.499 20.2197H197.326V24.473H195.472ZM197.326 18.7664H199.299C200.019 18.7664 200.557 18.6419 200.912 18.393C201.268 18.1441 201.446 17.7308 201.446 17.153C201.446 16.5752 201.268 16.1575 200.912 15.8997C200.557 15.6419 200.019 15.513 199.299 15.513H197.326V18.7664ZM208.039 24.673C206.821 24.673 205.892 24.2952 205.252 23.5397C204.612 22.7752 204.292 21.7486 204.292 20.4597C204.292 19.6064 204.434 18.8686 204.719 18.2464C205.003 17.6241 205.421 17.1397 205.972 16.793C206.532 16.4464 207.212 16.273 208.012 16.273C209.159 16.273 210.034 16.633 210.639 17.353C211.243 18.0641 211.545 19.1086 211.545 20.4864V20.913H206.052C206.096 21.6419 206.283 22.2286 206.612 22.673C206.95 23.1175 207.425 23.3397 208.039 23.3397C208.501 23.3397 208.87 23.2064 209.145 22.9397C209.43 22.673 209.625 22.3308 209.732 21.913H211.452C211.354 22.4286 211.167 22.8952 210.892 23.313C210.625 23.7219 210.256 24.0508 209.785 24.2997C209.314 24.5486 208.732 24.673 208.039 24.673ZM206.065 19.713H209.785C209.75 19.0286 209.576 18.4997 209.265 18.1264C208.963 17.753 208.541 17.5664 207.999 17.5664C207.439 17.5664 206.994 17.7486 206.665 18.113C206.336 18.4775 206.136 19.0108 206.065 19.713ZM213.104 24.473V16.473H214.731V17.8864H215.051C215.104 17.6464 215.202 17.4108 215.344 17.1797C215.486 16.9486 215.704 16.7619 215.998 16.6197C216.3 16.4686 216.709 16.393 217.224 16.393H217.571V18.0464H217.078C216.304 18.0464 215.749 18.2464 215.411 18.6464C215.073 19.0464 214.904 19.6552 214.904 20.473V24.473H213.104ZM221.842 24.673C221.024 24.673 220.362 24.5397 219.855 24.273C219.357 23.9975 218.984 23.6464 218.735 23.2197C218.495 22.793 218.362 22.3575 218.335 21.913H220.068C220.104 22.1619 220.193 22.3975 220.335 22.6197C220.486 22.8419 220.691 23.0197 220.948 23.153C221.206 23.2864 221.531 23.353 221.922 23.353C222.366 23.353 222.699 23.2686 222.922 23.0997C223.144 22.9219 223.255 22.6908 223.255 22.4064C223.255 22.1664 223.162 21.9619 222.975 21.793C222.788 21.6152 222.495 21.4552 222.095 21.313L221.135 20.993C220.691 20.833 220.282 20.6597 219.908 20.473C219.544 20.2775 219.251 20.033 219.028 19.7397C218.815 19.4375 218.708 19.0552 218.708 18.593C218.708 17.8997 218.966 17.3397 219.482 16.913C219.997 16.4864 220.717 16.273 221.642 16.273C222.308 16.273 222.855 16.3841 223.282 16.6064C223.717 16.8197 224.046 17.113 224.268 17.4864C224.491 17.8508 224.619 18.2597 224.655 18.713H222.988C222.944 18.3841 222.806 18.1086 222.575 17.8864C222.353 17.6641 222.019 17.553 221.575 17.553C221.193 17.553 220.899 17.633 220.695 17.793C220.499 17.953 220.402 18.1664 220.402 18.433C220.402 18.6997 220.499 18.9219 220.695 19.0997C220.899 19.2686 221.206 19.4241 221.615 19.5664L222.562 19.873C223.006 20.0241 223.411 20.1975 223.775 20.393C224.139 20.5797 224.424 20.8241 224.628 21.1264C224.842 21.4197 224.948 21.7975 224.948 22.2597C224.948 22.9797 224.682 23.5619 224.148 24.0064C223.624 24.4508 222.855 24.673 221.842 24.673ZM229.675 24.673C228.412 24.673 227.466 24.2952 226.835 23.5397C226.212 22.7752 225.901 21.753 225.901 20.473C225.901 19.193 226.212 18.1752 226.835 17.4197C227.466 16.6552 228.412 16.273 229.675 16.273C230.955 16.273 231.906 16.6552 232.528 17.4197C233.15 18.1752 233.461 19.193 233.461 20.473C233.461 21.753 233.15 22.7752 232.528 23.5397C231.906 24.2952 230.955 24.673 229.675 24.673ZM229.688 23.3664C230.346 23.3664 230.826 23.1175 231.128 22.6197C231.439 22.113 231.595 21.3975 231.595 20.473C231.595 19.5486 231.439 18.8375 231.128 18.3397C230.826 17.833 230.346 17.5797 229.688 17.5797C229.021 17.5797 228.532 17.833 228.221 18.3397C227.919 18.8375 227.768 19.5486 227.768 20.473C227.768 21.3975 227.919 22.113 228.221 22.6197C228.532 23.1175 229.021 23.3664 229.688 23.3664ZM235.042 24.473V16.473H236.682V17.673H237.002C237.162 17.2552 237.415 16.9175 237.762 16.6597C238.117 16.4019 238.602 16.273 239.215 16.273C240.131 16.273 240.802 16.5575 241.228 17.1264C241.664 17.6864 241.882 18.433 241.882 19.3664V24.473H240.082V19.6997C240.082 19.0775 239.971 18.6019 239.748 18.273C239.526 17.9352 239.175 17.7664 238.695 17.7664C238.108 17.7664 237.651 17.9975 237.322 18.4597C237.002 18.913 236.842 19.4775 236.842 20.153V24.473H235.042ZM246.594 24.6464C245.883 24.6464 245.288 24.473 244.808 24.1264C244.328 23.7708 243.963 23.2775 243.714 22.6464C243.474 22.0152 243.354 21.2864 243.354 20.4597C243.354 19.6241 243.474 18.8952 243.714 18.273C243.963 17.6508 244.328 17.1664 244.808 16.8197C245.297 16.473 245.897 16.2997 246.608 16.2997C247.186 16.2997 247.652 16.4152 248.008 16.6464C248.372 16.8775 248.639 17.1664 248.808 17.513H249.128V16.473H250.768V24.473H249.128V23.433H248.808C248.639 23.7619 248.372 24.0464 248.008 24.2864C247.652 24.5264 247.181 24.6464 246.594 24.6464ZM247.008 23.2864C247.612 23.2864 248.092 23.033 248.448 22.5264C248.803 22.0108 248.981 21.3264 248.981 20.473C248.981 19.6197 248.803 18.9397 248.448 18.433C248.092 17.9175 247.612 17.6597 247.008 17.6597C246.439 17.6597 245.999 17.8997 245.688 18.3797C245.377 18.8597 245.221 19.5575 245.221 20.473C245.221 21.3886 245.377 22.0864 245.688 22.5664C245.999 23.0464 246.439 23.2864 247.008 23.2864ZM253.514 24.473C253.292 24.2064 253.123 23.8997 253.008 23.553C252.901 23.2064 252.848 22.7175 252.848 22.0864V13.8064H254.661V21.873C254.661 22.5664 254.737 23.0997 254.888 23.473C255.039 23.8375 255.234 24.1441 255.474 24.393V24.473H253.514ZM262.751 24.6464C262.04 24.6464 261.444 24.473 260.964 24.1264C260.484 23.7708 260.12 23.2775 259.871 22.6464C259.631 22.0152 259.511 21.2864 259.511 20.4597C259.511 19.6241 259.631 18.8952 259.871 18.273C260.12 17.6508 260.484 17.1664 260.964 16.8197C261.453 16.473 262.053 16.2997 262.764 16.2997C263.342 16.2997 263.808 16.4152 264.164 16.6464C264.528 16.8775 264.795 17.1664 264.964 17.513H265.284V16.473H266.924V24.473H265.284V23.433H264.964C264.795 23.7619 264.528 24.0464 264.164 24.2864C263.808 24.5264 263.337 24.6464 262.751 24.6464ZM263.164 23.2864C263.768 23.2864 264.248 23.033 264.604 22.5264C264.96 22.0108 265.137 21.3264 265.137 20.473C265.137 19.6197 264.96 18.9397 264.604 18.433C264.248 17.9175 263.768 17.6597 263.164 17.6597C262.595 17.6597 262.155 17.8997 261.844 18.3797C261.533 18.8597 261.377 19.5575 261.377 20.473C261.377 21.3886 261.533 22.0864 261.844 22.5664C262.155 23.0464 262.595 23.2864 263.164 23.2864ZM270.151 24.473C269.946 24.233 269.782 23.9441 269.657 23.6064C269.542 23.2686 269.484 22.7619 269.484 22.0864V17.793H268.391V16.473H269.511V14.473H271.271V16.473H272.591V17.793H271.284V21.8597C271.284 22.5708 271.36 23.113 271.511 23.4864C271.671 23.8508 271.862 24.153 272.084 24.393V24.473H270.151ZM275.151 24.473C274.946 24.233 274.782 23.9441 274.657 23.6064C274.542 23.2686 274.484 22.7619 274.484 22.0864V17.793H273.391V16.473H274.511V14.473H276.271V16.473H277.591V17.793H276.284V21.8597C276.284 22.5708 276.36 23.113 276.511 23.4864C276.671 23.8508 276.862 24.153 277.084 24.393V24.473H275.151ZM279.057 24.473V16.473H280.857V24.473H279.057ZM279.964 15.4597C279.635 15.4597 279.382 15.3708 279.204 15.193C279.026 15.0064 278.937 14.7664 278.937 14.473C278.937 14.1797 279.026 13.9441 279.204 13.7664C279.382 13.5797 279.635 13.4864 279.964 13.4864C280.302 13.4864 280.555 13.5797 280.724 13.7664C280.902 13.9441 280.991 14.1797 280.991 14.473C280.991 14.7664 280.902 15.0064 280.724 15.193C280.555 15.3708 280.302 15.4597 279.964 15.4597ZM284.088 24.473C283.884 24.233 283.719 23.9441 283.595 23.6064C283.479 23.2686 283.422 22.7619 283.422 22.0864V17.793H282.328V16.473H283.448V14.473H285.208V16.473H286.528V17.793H285.222V21.8597C285.222 22.5708 285.297 23.113 285.448 23.4864C285.608 23.8508 285.799 24.153 286.022 24.393V24.473H284.088ZM290.568 24.673C289.653 24.673 288.977 24.3886 288.542 23.8197C288.106 23.2508 287.888 22.5041 287.888 21.5797V16.473H289.688V21.2464C289.688 21.8597 289.799 22.3352 290.022 22.673C290.244 23.0108 290.595 23.1797 291.075 23.1797C291.67 23.1797 292.128 22.9486 292.448 22.4864C292.768 22.0241 292.928 21.4597 292.928 20.793V16.473H294.728V24.473H293.115V23.273H292.795C292.653 23.6908 292.399 24.0286 292.035 24.2864C291.67 24.5441 291.182 24.673 290.568 24.673ZM299.508 24.6464C298.805 24.6464 298.214 24.473 297.734 24.1264C297.263 23.7708 296.903 23.2775 296.654 22.6464C296.414 22.0152 296.294 21.2864 296.294 20.4597C296.294 19.6241 296.414 18.8952 296.654 18.273C296.903 17.6508 297.263 17.1664 297.734 16.8197C298.214 16.473 298.801 16.2997 299.494 16.2997C300.028 16.2997 300.463 16.3975 300.801 16.593C301.139 16.7886 301.401 17.0552 301.588 17.393H301.908V13.8064H303.708V24.473H302.068V23.433H301.748C301.579 23.7619 301.312 24.0464 300.948 24.2864C300.592 24.5264 300.112 24.6464 299.508 24.6464ZM299.948 23.2864C300.552 23.2864 301.032 23.033 301.388 22.5264C301.743 22.0108 301.921 21.3264 301.921 20.473C301.921 19.6197 301.743 18.9397 301.388 18.433C301.032 17.9175 300.552 17.6597 299.948 17.6597C299.379 17.6597 298.939 17.8997 298.628 18.3797C298.316 18.8597 298.161 19.5575 298.161 20.473C298.161 21.3886 298.316 22.0864 298.628 22.5664C298.939 23.0464 299.379 23.2864 299.948 23.2864ZM309.054 24.673C307.836 24.673 306.908 24.2952 306.268 23.5397C305.628 22.7752 305.308 21.7486 305.308 20.4597C305.308 19.6064 305.45 18.8686 305.734 18.2464C306.019 17.6241 306.436 17.1397 306.988 16.793C307.548 16.4464 308.228 16.273 309.028 16.273C310.174 16.273 311.05 16.633 311.654 17.353C312.259 18.0641 312.561 19.1086 312.561 20.4864V20.913H307.068C307.112 21.6419 307.299 22.2286 307.628 22.673C307.965 23.1175 308.441 23.3397 309.054 23.3397C309.516 23.3397 309.885 23.2064 310.161 22.9397C310.445 22.673 310.641 22.3308 310.748 21.913H312.468C312.37 22.4286 312.183 22.8952 311.908 23.313C311.641 23.7219 311.272 24.0508 310.801 24.2997C310.33 24.5486 309.748 24.673 309.054 24.673ZM307.081 19.713H310.801C310.765 19.0286 310.592 18.4997 310.281 18.1264C309.979 17.753 309.556 17.5664 309.014 17.5664C308.454 17.5664 308.01 17.7486 307.681 18.113C307.352 18.4775 307.152 19.0108 307.081 19.713ZM316.92 24.673C316.102 24.673 315.44 24.5397 314.933 24.273C314.435 23.9975 314.062 23.6464 313.813 23.2197C313.573 22.793 313.44 22.3575 313.413 21.913H315.147C315.182 22.1619 315.271 22.3975 315.413 22.6197C315.564 22.8419 315.769 23.0197 316.027 23.153C316.284 23.2864 316.609 23.353 317 23.353C317.444 23.353 317.778 23.2686 318 23.0997C318.222 22.9219 318.333 22.6908 318.333 22.4064C318.333 22.1664 318.24 21.9619 318.053 21.793C317.867 21.6152 317.573 21.4552 317.173 21.313L316.213 20.993C315.769 20.833 315.36 20.6597 314.987 20.473C314.622 20.2775 314.329 20.033 314.107 19.7397C313.893 19.4375 313.787 19.0552 313.787 18.593C313.787 17.8997 314.044 17.3397 314.56 16.913C315.075 16.4864 315.795 16.273 316.72 16.273C317.387 16.273 317.933 16.3841 318.36 16.6064C318.795 16.8197 319.124 17.113 319.347 17.4864C319.569 17.8508 319.698 18.2597 319.733 18.713H318.067C318.022 18.3841 317.884 18.1086 317.653 17.8864C317.431 17.6641 317.098 17.553 316.653 17.553C316.271 17.553 315.978 17.633 315.773 17.793C315.578 17.953 315.48 18.1664 315.48 18.433C315.48 18.6997 315.578 18.9219 315.773 19.0997C315.978 19.2686 316.284 19.4241 316.693 19.5664L317.64 19.873C318.084 20.0241 318.489 20.1975 318.853 20.393C319.218 20.5797 319.502 20.8241 319.707 21.1264C319.92 21.4197 320.027 21.7975 320.027 22.2597C320.027 22.9797 319.76 23.5619 319.227 24.0064C318.702 24.4508 317.933 24.673 316.92 24.673Z" fill="black"/>
<path d="M349.616 39.9623C349.639 39.9952 349.655 40.03 349.665 40.067C349.665 40.0842 349.663 40.1104 349.651 40.1449L349.646 40.1583L349.641 40.1718C349.622 40.2277 349.588 40.2919 349.531 40.3563L347.495 42.2222L347.495 42.2221L347.485 42.2311C347.401 42.3099 347.286 42.3771 347.15 42.4181L347.15 42.418L347.141 42.4209C347.055 42.4475 346.968 42.4628 346.884 42.4679C346.65 42.4741 346.48 42.4038 346.388 42.3363L340.699 37.9688L339.249 36.8549L338.405 38.2854L335.227 43.6742C335.164 43.7735 335.054 43.8761 334.895 43.9497C334.738 44.0227 334.563 44.0532 334.399 44.0434C334.24 44.0257 334.123 43.9744 334.048 43.9231C333.975 43.8724 333.942 43.8214 333.927 43.7812L333.916 43.7528L333.904 43.7247L325.834 24.7155C325.816 24.667 325.806 24.6059 325.819 24.5319C325.834 24.4727 325.875 24.391 325.964 24.3086L325.972 24.3014L325.979 24.2941C326.075 24.2029 326.208 24.1265 326.366 24.0841C326.518 24.0433 326.668 24.0403 326.797 24.0638L349.988 29.3284C350.125 29.363 350.22 29.4201 350.278 29.4721L350.282 29.4753C350.324 29.5131 350.346 29.5514 350.357 29.5937C350.364 29.6319 350.364 29.6907 350.333 29.7659C350.29 29.8502 350.218 29.9393 350.114 30.0191L343.906 33.1331L341.957 34.1103L343.797 35.5166L349.457 39.8444L349.512 39.8868L349.571 39.9247C349.603 39.9454 349.614 39.9601 349.614 39.9601L349.616 39.9623Z" fill="black" stroke="black" stroke-width="3"/>
</svg>
