<?xml version="1.0" encoding="UTF-8"?>
<svg id="Layer_1" data-name="Layer 1" xmlns="http://www.w3.org/2000/svg" xmlns:xlink="http://www.w3.org/1999/xlink" version="1.1" viewBox="0 0 1841.5 999.5">
  <defs>
    <style>
      .cls-1 {
        clip-path: url(#clippath);
      }

      .cls-2 {
        stroke-width: 0px;
      }

      .cls-2, .cls-3 {
        fill: none;
      }

      .cls-3 {
        stroke: #000;
        stroke-dasharray: 0 0 5 5;
      }
    </style>
    <clipPath id="clippath">
      <rect class="cls-2" x="-75.75" y="-62.27" width="1945" height="1125.24"/>
    </clipPath>
  </defs>
  <g class="cls-1">
    <g>
      <line class="cls-3" x1=".02" y1="-53.54" x2=".02" y2="1071.7"/>
      <line class="cls-3" x1="67.55" y1="-53.54" x2="67.55" y2="1069.5"/>
      <line class="cls-3" x1="135.09" y1="-53.54" x2="135.09" y2="1071.7"/>
      <line class="cls-3" x1="203.97" y1="-53.54" x2="203.97" y2="1071.7"/>
      <line class="cls-3" x1="271.51" y1="-53.54" x2="271.51" y2="1071.7"/>
      <line class="cls-3" x1="339.04" y1="-53.54" x2="339.04" y2="1069.5"/>
      <line class="cls-3" x1="417.58" y1="-49.54" x2="417.58" y2="1075.7"/>
      <line class="cls-3" x1="486.46" y1="-49.54" x2="486.46" y2="1075.7"/>
      <line class="cls-3" x1="554" y1="-49.54" x2="554" y2="1075.7"/>
      <line class="cls-3" x1="621.53" y1="-49.54" x2="621.53" y2="1075.7"/>
      <line class="cls-3" x1="689.07" y1="-49.54" x2="689.07" y2="1073.5"/>
      <line class="cls-3" x1="756.6" y1="-49.54" x2="756.6" y2="1075.7"/>
      <line class="cls-3" x1="825.49" y1="-49.54" x2="825.49" y2="1075.7"/>
      <line class="cls-3" x1="893.02" y1="-49.54" x2="893.02" y2="1075.7"/>
      <line class="cls-3" x1="960.56" y1="-49.54" x2="960.56" y2="1073.5"/>
      <line class="cls-3" x1="1028.09" y1="-49.54" x2="1028.09" y2="1075.7"/>
      <line class="cls-3" x1="1096.98" y1="-49.54" x2="1096.98" y2="1075.7"/>
      <line class="cls-3" x1="1164.51" y1="-49.54" x2="1164.51" y2="1075.7"/>
      <line class="cls-3" x1="1233.4" y1="-51.74" x2="1233.4" y2="1073.5"/>
      <line class="cls-3" x1="1300.93" y1="-51.74" x2="1300.93" y2="1071.31"/>
      <line class="cls-3" x1="1368.47" y1="-51.74" x2="1368.47" y2="1073.5"/>
      <line class="cls-3" x1="1437.35" y1="-51.74" x2="1437.35" y2="1073.5"/>
      <line class="cls-3" x1="1504.89" y1="-51.74" x2="1504.89" y2="1073.5"/>
      <line class="cls-3" x1="1572.42" y1="-51.74" x2="1572.42" y2="1071.31"/>
      <line class="cls-3" x1="1639.96" y1="-51.74" x2="1639.96" y2="1073.5"/>
      <line class="cls-3" x1="1708.84" y1="-51.74" x2="1708.84" y2="1073.5"/>
      <line class="cls-3" x1="1842.23" y1="-49.81" x2="1842.23" y2="1075.44"/>
      <line class="cls-3" x1="1771.99" y1="-53.1" x2="1771.99" y2="1072.14"/>
      <line class="cls-3" x1="-91.15" y1="-.25" x2="1853.85" y2="-.25"/>
      <line class="cls-3" x1="66.55" y1="-.51" x2="2011.55" y2="-.51"/>
      <line class="cls-3" x1="-91.15" y1="54.7" x2="1853.85" y2="54.7"/>
      <line class="cls-3" x1="-91.15" y1="110.74" x2="1853.85" y2="110.74"/>
      <line class="cls-3" x1="-91.15" y1="165.68" x2="1853.85" y2="165.68"/>
      <line class="cls-3" x1="-91.15" y1="220.63" x2="1853.85" y2="220.63"/>
      <line class="cls-3" x1="-80.15" y1="280.67" x2="1864.85" y2="280.67"/>
      <line class="cls-3" x1="-80.15" y1="335.61" x2="1864.85" y2="335.61"/>
      <line class="cls-3" x1="-80.15" y1="390.56" x2="1864.85" y2="390.56"/>
      <line class="cls-3" x1="-80.15" y1="445.5" x2="1864.85" y2="445.5"/>
      <line class="cls-3" x1="-80.15" y1="500.44" x2="1864.85" y2="500.44"/>
      <line class="cls-3" x1="-80.15" y1="555.39" x2="1864.85" y2="555.39"/>
      <line class="cls-3" x1="-80.15" y1="611.43" x2="1864.85" y2="611.43"/>
      <line class="cls-3" x1="-80.15" y1="666.37" x2="1864.85" y2="666.37"/>
      <line class="cls-3" x1="-80.15" y1="721.32" x2="1864.85" y2="721.32"/>
      <line class="cls-3" x1="-80.15" y1="777.36" x2="1864.85" y2="777.36"/>
      <line class="cls-3" x1="-80.15" y1="832.3" x2="1864.85" y2="832.3"/>
      <line class="cls-3" x1="-80.15" y1="887.25" x2="1864.85" y2="887.25"/>
      <line class="cls-3" x1="-80.15" y1="942.19" x2="1864.85" y2="942.19"/>
      <line class="cls-3" x1="-80.15" y1="1000.13" x2="1864.85" y2="1000.13"/>
    </g>
  </g>
</svg>