<?xml version="1.0" encoding="UTF-8"?>
<svg id="Layer_1" data-name="Layer 1" xmlns="http://www.w3.org/2000/svg" xmlns:xlink="http://www.w3.org/1999/xlink" version="1.1" viewBox="0 0 1920 1080">
  <defs>
    <style>
      .cls-1 {
        clip-path: url(#clippath);
      }

      .cls-2 {
        stroke-width: 0px;
      }

      .cls-2, .cls-3, .cls-4, .cls-5, .cls-6 {
        fill: none;
      }

      .cls-3 {
        stroke: #65a90f;
      }

      .cls-3, .cls-4, .cls-5 {
        stroke-linecap: round;
        stroke-linejoin: round;
      }

      .cls-3, .cls-5 {
        stroke-width: 48px;
      }

      .cls-4 {
        stroke-width: 4px;
      }

      .cls-4, .cls-6, .cls-7, .cls-8 {
        stroke: #000;
      }

      .cls-5 {
        stroke: #7795ff;
      }

      .cls-6 {
        stroke-dasharray: 0 0 5 5;
      }

      .cls-7 {
        stroke-miterlimit: 4;
        stroke-width: 4px;
      }

      .cls-7, .cls-8 {
        fill: #fff;
      }

      .cls-8 {
        stroke-miterlimit: 4;
        stroke-width: 4px;
      }
    </style>
    <clipPath id="clippath">
      <rect class="cls-2" y="-45" width="1945" height="1125.24"/>
    </clipPath>
  </defs>
  <g class="cls-1">
    <g>
      <line class="cls-6" x1="75.77" y1="-36.27" x2="75.77" y2="1088.97"/>
      <line class="cls-6" x1="143.3" y1="-36.27" x2="143.3" y2="1086.77"/>
      <line class="cls-6" x1="210.84" y1="-36.27" x2="210.84" y2="1088.97"/>
      <line class="cls-6" x1="279.72" y1="-36.27" x2="279.72" y2="1088.97"/>
      <line class="cls-6" x1="347.26" y1="-36.27" x2="347.26" y2="1088.97"/>
      <line class="cls-6" x1="414.79" y1="-36.27" x2="414.79" y2="1086.77"/>
      <line class="cls-6" x1="493.33" y1="-32.27" x2="493.33" y2="1092.97"/>
      <line class="cls-6" x1="562.21" y1="-32.27" x2="562.21" y2="1092.97"/>
      <line class="cls-6" x1="629.75" y1="-32.27" x2="629.75" y2="1092.97"/>
      <line class="cls-6" x1="697.28" y1="-32.27" x2="697.28" y2="1092.97"/>
      <line class="cls-6" x1="764.82" y1="-32.27" x2="764.82" y2="1090.77"/>
      <line class="cls-6" x1="832.35" y1="-32.27" x2="832.35" y2="1092.97"/>
      <line class="cls-6" x1="901.24" y1="-32.27" x2="901.24" y2="1092.97"/>
      <line class="cls-6" x1="968.77" y1="-32.27" x2="968.77" y2="1092.97"/>
      <line class="cls-6" x1="1036.31" y1="-32.27" x2="1036.31" y2="1090.77"/>
      <line class="cls-6" x1="1103.84" y1="-32.27" x2="1103.84" y2="1092.97"/>
      <line class="cls-6" x1="1172.73" y1="-32.27" x2="1172.73" y2="1092.97"/>
      <line class="cls-6" x1="1240.26" y1="-32.27" x2="1240.26" y2="1092.97"/>
      <line class="cls-6" x1="1309.15" y1="-34.47" x2="1309.15" y2="1090.77"/>
      <line class="cls-6" x1="1376.68" y1="-34.47" x2="1376.68" y2="1088.57"/>
      <line class="cls-6" x1="1444.22" y1="-34.47" x2="1444.22" y2="1090.77"/>
      <line class="cls-6" x1="1513.1" y1="-34.47" x2="1513.1" y2="1090.77"/>
      <line class="cls-6" x1="1580.64" y1="-34.47" x2="1580.64" y2="1090.77"/>
      <line class="cls-6" x1="1648.17" y1="-34.47" x2="1648.17" y2="1088.57"/>
      <line class="cls-6" x1="1715.71" y1="-34.47" x2="1715.71" y2="1090.77"/>
      <line class="cls-6" x1="1784.59" y1="-34.47" x2="1784.59" y2="1090.77"/>
      <line class="cls-6" x1="1917.98" y1="-32.54" x2="1917.98" y2="1092.7"/>
      <line class="cls-6" x1="1847.74" y1="-35.84" x2="1847.74" y2="1089.41"/>
      <line class="cls-6" x1="-15.4" y1="17.02" x2="1929.6" y2="17.02"/>
      <line class="cls-6" x1="142.3" y1="16.76" x2="2087.3" y2="16.76"/>
      <line class="cls-6" x1="-15.4" y1="71.96" x2="1929.6" y2="71.96"/>
      <line class="cls-6" x1="-15.4" y1="128.01" x2="1929.6" y2="128.01"/>
      <line class="cls-6" x1="-15.4" y1="182.95" x2="1929.6" y2="182.95"/>
      <line class="cls-6" x1="-15.4" y1="237.89" x2="1929.6" y2="237.89"/>
      <line class="cls-6" x1="-4.4" y1="297.94" x2="1940.6" y2="297.94"/>
      <line class="cls-6" x1="-4.4" y1="352.88" x2="1940.6" y2="352.88"/>
      <line class="cls-6" x1="-4.4" y1="407.82" x2="1940.6" y2="407.82"/>
      <line class="cls-6" x1="-4.4" y1="462.77" x2="1940.6" y2="462.77"/>
      <line class="cls-6" x1="-4.4" y1="517.71" x2="1940.6" y2="517.71"/>
      <line class="cls-6" x1="-4.4" y1="572.65" x2="1940.6" y2="572.65"/>
      <line class="cls-6" x1="-4.4" y1="628.7" x2="1940.6" y2="628.7"/>
      <line class="cls-6" x1="-4.4" y1="683.64" x2="1940.6" y2="683.64"/>
      <line class="cls-6" x1="-4.4" y1="738.58" x2="1940.6" y2="738.58"/>
      <line class="cls-6" x1="-4.4" y1="794.62" x2="1940.6" y2="794.62"/>
      <line class="cls-6" x1="-4.4" y1="849.57" x2="1940.6" y2="849.57"/>
      <line class="cls-6" x1="-4.4" y1="904.51" x2="1940.6" y2="904.51"/>
      <line class="cls-6" x1="-4.4" y1="959.46" x2="1940.6" y2="959.46"/>
      <line class="cls-6" x1="-4.4" y1="1017.4" x2="1940.6" y2="1017.4"/>
    </g>
  </g>
  <path class="cls-5" d="M1988.66,144.06c-67.9,53.02-177.01,37.82-236-22.63-11.37-11.65-22.66-31.79-28.63-47.13-1.55-3.96-4.36.86-5.88,2.51-5.26,5.69-11.88,9.65-19.39,11.8-28.93,8.27-60.19-31.32-74.21-50.33-22.2-30.09-39.38-63.47-60.13-94.54-3.9-5.84-6.23,2.05-8.93,5.53-12.19,15.63-39.95,14.21-57.18,9.66-19.98-5.28-40.8-13.05-57.89-24.84-5.84-4.03-9.76-9.17-13.81-14.91-1.61-2.28-4.26-9.1-6.98-10.17-2.38-.94-4.43,13.69-4.96,15.44-2.97,9.79-8.29,12-18.58,14-25.91,5.03-41.97-5.46-63.03-19.68-13.51-9.12-28.83-17.3-37.04-31.85"/>
  <path class="cls-4" d="M1988.66,144.06c-67.9,53.02-177.01,37.82-236-22.63-11.37-11.65-22.66-31.79-28.63-47.13-1.55-3.96-4.36.86-5.88,2.51-5.26,5.69-11.88,9.65-19.39,11.8-28.93,8.27-60.19-31.32-74.21-50.33-22.2-30.09-39.38-63.47-60.13-94.54-3.9-5.84-6.23,2.05-8.93,5.53-12.19,15.63-39.95,14.21-57.18,9.66-19.98-5.28-40.8-13.05-57.89-24.84-5.84-4.03-9.76-9.17-13.81-14.91-1.61-2.28-4.26-9.1-6.98-10.17-2.38-.94-4.43,13.69-4.96,15.44-2.97,9.79-8.29,12-18.58,14-25.91,5.03-41.97-5.46-63.03-19.68-13.51-9.12-28.83-17.3-37.04-31.85"/>
  <circle class="cls-7" cx="1829.8" cy="166.74" r="8"/>
  <circle class="cls-7" cx="1723.33" cy="73.79" r="8"/>
  <circle class="cls-7" cx="1626.58" cy="40.17" r="8"/>
  <path class="cls-3" d="M-90.8,866.16c79.2-49.8,191.41-23.02,244.24,47.02,10.18,13.5,19.01,36.02,22.98,52.92,1.03,4.37,4.71-.49,6.55-2.09,6.38-5.54,13.91-9.11,22.12-10.67,31.59-5.99,58.46,39.17,70.33,60.76,18.78,34.17,31.8,71.34,48.92,106.41,3.22,6.59,6.84-1.58,10.2-5.01,15.14-15.44,44.05-11.24,61.45-4.72,20.17,7.56,40.85,17.85,57.02,32.06,5.53,4.86,8.87,10.71,12.26,17.2,1.35,2.58,3.11,10.1,5.8,11.49,2.36,1.23,6.7-14.14,7.52-15.95,4.59-10.12,10.49-11.95,21.6-13.08,27.94-2.83,43.21,9.89,63.19,27.06,12.81,11.01,27.66,21.21,34.09,37.48"/>
  <path class="cls-4" d="M-90.8,866.16c79.2-49.8,191.41-23.02,244.24,47.02,10.18,13.5,19.01,36.02,22.98,52.92,1.03,4.37,4.71-.49,6.55-2.09,6.38-5.54,13.91-9.11,22.12-10.67,31.59-5.99,58.46,39.17,70.33,60.76,18.78,34.17,31.8,71.34,48.92,106.41,3.22,6.59,6.84-1.58,10.2-5.01,15.14-15.44,44.05-11.24,61.45-4.72,20.17,7.56,40.85,17.85,57.02,32.06,5.53,4.86,8.87,10.7,12.26,17.2,1.35,2.58,3.11,10.1,5.8,11.49,2.36,1.23,6.7-14.14,7.52-15.95,4.59-10.12,10.49-11.95,21.6-13.08,27.94-2.83,43.21,9.89,63.19,27.06,12.81,11.01,27.66,21.21,34.09,37.48"/>
  <ellipse class="cls-8" cx="79.3" cy="857.48" rx="8.73" ry="8.29" transform="translate(-622.64 358.65) rotate(-49.32)"/>
  <ellipse class="cls-8" cx="177.08" cy="966.71" rx="8.73" ry="8.29" transform="translate(-671.44 470.82) rotate(-49.32)"/>
  <ellipse class="cls-8" cx="273.56" cy="1011.88" rx="8.73" ry="8.29" transform="translate(-672.1 559.71) rotate(-49.32)"/>
</svg>