<?xml version="1.0" encoding="UTF-8"?>
<svg id="Layer_1" data-name="Layer 1" xmlns="http://www.w3.org/2000/svg" xmlns:xlink="http://www.w3.org/1999/xlink" version="1.1" viewBox="0 0 1920 1080">
  <defs>
    <style>
      .cls-1 {
        clip-path: url(#clippath);
      }

      .cls-2, .cls-3, .cls-4 {
        stroke-width: 0px;
      }

      .cls-2, .cls-5, .cls-6, .cls-7, .cls-8, .cls-9 {
        fill: none;
      }

      .cls-3 {
        fill: #0f43f8;
      }

      .cls-5 {
        stroke: #2e5cff;
      }

      .cls-5, .cls-6, .cls-7 {
        stroke-linecap: round;
      }

      .cls-5, .cls-7 {
        stroke-width: 48px;
      }

      .cls-6, .cls-7 {
        stroke-linejoin: round;
      }

      .cls-6, .cls-8, .cls-9, .cls-10, .cls-11 {
        stroke: #000;
      }

      .cls-6, .cls-9 {
        stroke-width: 4px;
      }

      .cls-7 {
        stroke: #fca566;
      }

      .cls-12 {
        clip-path: url(#clippath-1);
      }

      .cls-4 {
        fill: #000;
      }

      .cls-8 {
        stroke-dasharray: 0 0 5 5;
      }

      .cls-10 {
        stroke-miterlimit: 4;
        stroke-width: 4px;
      }

      .cls-10, .cls-11 {
        fill: #fff;
      }

      .cls-11 {
        stroke-miterlimit: 4;
        stroke-width: 4px;
      }
    </style>
    <clipPath id="clippath">
      <rect class="cls-2" y="-45" width="1945" height="1125.24"/>
    </clipPath>
    <clipPath id="clippath-1">
      <rect class="cls-2" x="498" y="755" width="114" height="114"/>
    </clipPath>
  </defs>
  <g class="cls-1">
    <g>
      <line class="cls-8" x1="75.77" y1="-36.27" x2="75.77" y2="1088.97"/>
      <line class="cls-8" x1="143.3" y1="-36.27" x2="143.3" y2="1086.77"/>
      <line class="cls-8" x1="210.84" y1="-36.27" x2="210.84" y2="1088.97"/>
      <line class="cls-8" x1="279.72" y1="-36.27" x2="279.72" y2="1088.97"/>
      <line class="cls-8" x1="347.26" y1="-36.27" x2="347.26" y2="1088.97"/>
      <line class="cls-8" x1="414.79" y1="-36.27" x2="414.79" y2="1086.77"/>
      <line class="cls-8" x1="493.33" y1="-32.27" x2="493.33" y2="1092.97"/>
      <line class="cls-8" x1="562.21" y1="-32.27" x2="562.21" y2="1092.97"/>
      <line class="cls-8" x1="629.75" y1="-32.27" x2="629.75" y2="1092.97"/>
      <line class="cls-8" x1="697.28" y1="-32.27" x2="697.28" y2="1092.97"/>
      <line class="cls-8" x1="764.82" y1="-32.27" x2="764.82" y2="1090.77"/>
      <line class="cls-8" x1="832.35" y1="-32.27" x2="832.35" y2="1092.97"/>
      <line class="cls-8" x1="901.24" y1="-32.27" x2="901.24" y2="1092.97"/>
      <line class="cls-8" x1="968.77" y1="-32.27" x2="968.77" y2="1092.97"/>
      <line class="cls-8" x1="1036.31" y1="-32.27" x2="1036.31" y2="1090.77"/>
      <line class="cls-8" x1="1103.84" y1="-32.27" x2="1103.84" y2="1092.97"/>
      <line class="cls-8" x1="1172.73" y1="-32.27" x2="1172.73" y2="1092.97"/>
      <line class="cls-8" x1="1240.26" y1="-32.27" x2="1240.26" y2="1092.97"/>
      <line class="cls-8" x1="1309.15" y1="-34.47" x2="1309.15" y2="1090.77"/>
      <line class="cls-8" x1="1376.68" y1="-34.47" x2="1376.68" y2="1088.57"/>
      <line class="cls-8" x1="1444.22" y1="-34.47" x2="1444.22" y2="1090.77"/>
      <line class="cls-8" x1="1513.1" y1="-34.47" x2="1513.1" y2="1090.77"/>
      <line class="cls-8" x1="1580.64" y1="-34.47" x2="1580.64" y2="1090.77"/>
      <line class="cls-8" x1="1648.17" y1="-34.47" x2="1648.17" y2="1088.57"/>
      <line class="cls-8" x1="1715.71" y1="-34.47" x2="1715.71" y2="1090.77"/>
      <line class="cls-8" x1="1784.59" y1="-34.47" x2="1784.59" y2="1090.77"/>
      <line class="cls-8" x1="1917.98" y1="-32.54" x2="1917.98" y2="1092.7"/>
      <line class="cls-8" x1="1847.74" y1="-35.84" x2="1847.74" y2="1089.41"/>
      <line class="cls-8" x1="-15.4" y1="17.02" x2="1929.6" y2="17.02"/>
      <line class="cls-8" x1="142.3" y1="16.76" x2="2087.3" y2="16.76"/>
      <line class="cls-8" x1="-15.4" y1="71.96" x2="1929.6" y2="71.96"/>
      <line class="cls-8" x1="-15.4" y1="128.01" x2="1929.6" y2="128.01"/>
      <line class="cls-8" x1="-15.4" y1="182.95" x2="1929.6" y2="182.95"/>
      <line class="cls-8" x1="-15.4" y1="237.89" x2="1929.6" y2="237.89"/>
      <line class="cls-8" x1="-4.4" y1="297.94" x2="1940.6" y2="297.94"/>
      <line class="cls-8" x1="-4.4" y1="352.88" x2="1940.6" y2="352.88"/>
      <line class="cls-8" x1="-4.4" y1="407.82" x2="1940.6" y2="407.82"/>
      <line class="cls-8" x1="-4.4" y1="462.77" x2="1940.6" y2="462.77"/>
      <line class="cls-8" x1="-4.4" y1="517.71" x2="1940.6" y2="517.71"/>
      <line class="cls-8" x1="-4.4" y1="572.65" x2="1940.6" y2="572.65"/>
      <line class="cls-8" x1="-4.4" y1="628.7" x2="1940.6" y2="628.7"/>
      <line class="cls-8" x1="-4.4" y1="683.64" x2="1940.6" y2="683.64"/>
      <line class="cls-8" x1="-4.4" y1="738.58" x2="1940.6" y2="738.58"/>
      <line class="cls-8" x1="-4.4" y1="794.62" x2="1940.6" y2="794.62"/>
      <line class="cls-8" x1="-4.4" y1="849.57" x2="1940.6" y2="849.57"/>
      <line class="cls-8" x1="-4.4" y1="904.51" x2="1940.6" y2="904.51"/>
      <line class="cls-8" x1="-4.4" y1="959.46" x2="1940.6" y2="959.46"/>
      <line class="cls-8" x1="-4.4" y1="1017.4" x2="1940.6" y2="1017.4"/>
    </g>
  </g>
  <path class="cls-5" d="M-100.36,1387.88c-116.58-170.7-86.18-420.78,67.9-558.57,154.08-137.79,373.5-111.12,490.08,59.58"/>
  <path class="cls-9" d="M-100.36,1387.88c-116.58-170.7-86.18-420.78,67.9-558.57,154.08-137.79,373.5-111.12,490.08,59.58"/>
  <ellipse class="cls-10" cx="461.46" cy="890.45" rx="8" ry="7.02" transform="translate(-478.16 1241.08) rotate(-83.07)"/>
  <g class="cls-12">
    <g>
      <path class="cls-4" d="M575.13,767.23c1.62-1.62,3.54-2.9,5.65-3.78,2.11-.88,4.38-1.33,6.67-1.33s4.55.45,6.67,1.32c2.11.88,4.03,2.16,5.65,3.78,1.62,1.62,2.9,3.54,3.78,5.65.88,2.11,1.33,4.38,1.33,6.67,0,2.29-.45,4.55-1.33,6.67-.88,2.11-2.16,4.03-3.77,5.65l-3.21,3.21.98.98c1.16,1.16,2.08,2.53,2.7,4.04.63,1.51.95,3.13.95,4.77s-.32,3.26-.95,4.77c-.63,1.51-1.54,2.89-2.7,4.04l-7.95,7.95c-.67.65-1.57,1.01-2.51,1-.93,0-1.83-.38-2.49-1.04s-1.04-1.55-1.04-2.49.35-1.83,1-2.51l7.95-7.95c.5-.5.89-1.09,1.16-1.73.27-.65.41-1.34.41-2.05s-.14-1.4-.41-2.05c-.27-.65-.66-1.24-1.16-1.73l-.98-.98-53.36,53.37c-1.8,1.8-4.07,3.04-6.56,3.57l-22.16,4.75c-.58.13-1.19.1-1.76-.07-.57-.17-1.09-.48-1.51-.9-.42-.42-.73-.94-.9-1.51-.17-.57-.19-1.18-.07-1.76l4.75-22.16c.53-2.48,1.77-4.76,3.57-6.56l61.61-61.61Z"/>
      <path class="cls-3" d="M506.68,868.36c-3.97,1.97-8.35-1.82-6.97-6.04l6.87-20.92c1.11-3.39,5.32-4.56,8.02-2.22l12.86,11.14c2.7,2.34,2.15,6.67-1.05,8.26l-19.73,9.78Z"/>
    </g>
  </g>
  <path class="cls-7" d="M2012.03,249.68c-83.29,42.61-192.69,6.02-239.13-68.41-8.95-14.35-15.75-37.56-18.21-54.74-.64-4.44-4.73.08-6.71,1.51-6.84,4.96-14.66,7.85-22.97,8.67-32,3.17-54.77-44.18-64.68-66.73-15.69-35.7-25.38-73.87-39.33-110.31-2.62-6.85-6.95.97-10.61,4.09-16.44,14.04-44.87,7.3-61.63-.73-19.43-9.31-39.11-21.39-53.97-36.97-5.08-5.33-7.89-11.45-10.69-18.21-1.11-2.69-2.21-10.33-4.76-11.96-2.24-1.43-7.92,13.49-8.9,15.22-5.46,9.68-11.51,10.98-22.67,11.12-28.08.35-42.17-13.67-60.55-32.54-11.79-12.1-25.68-23.57-30.65-40.35"/>
  <path class="cls-6" d="M2012.03,249.68c-83.29,42.61-192.69,6.02-239.13-68.41-8.95-14.35-15.75-37.56-18.21-54.74-.64-4.44-4.73.08-6.71,1.51-6.84,4.96-14.66,7.85-22.97,8.67-32,3.17-54.77-44.18-64.68-66.73-15.69-35.7-25.38-73.87-39.33-110.31-2.62-6.85-6.95.97-10.61,4.09-16.44,14.04-44.87,7.3-61.63-.73-19.43-9.31-39.11-21.39-53.97-36.97-5.08-5.32-7.89-11.45-10.69-18.21-1.11-2.69-2.21-10.33-4.76-11.96-2.24-1.43-7.92,13.49-8.9,15.22-5.46,9.68-11.51,10.98-22.67,11.12-28.08.35-42.17-13.67-60.55-32.54-11.79-12.1-25.68-23.57-30.65-40.35"/>
  <ellipse class="cls-11" cx="1841.83" cy="243.3" rx="8.73" ry="8.29" transform="translate(352.74 1354.22) rotate(-44.25)"/>
  <ellipse class="cls-11" cx="1754.09" cy="125.86" rx="8.73" ry="8.29" transform="translate(409.79 1259.67) rotate(-44.25)"/>
  <ellipse class="cls-11" cx="1661.98" cy="72.34" rx="8.73" ry="8.29" transform="translate(421 1180.21) rotate(-44.25)"/>
</svg>