<?xml version="1.0" encoding="utf-8"?>
<!-- Generator: Adobe Illustrator 27.9.4, SVG Export Plug-In . SVG Version: 9.03 Build 54784)  -->
<svg version="1.1" id="Layer_1" xmlns="http://www.w3.org/2000/svg" xmlns:xlink="http://www.w3.org/1999/xlink" x="0px" y="0px"
	 viewBox="0 0 94 94" style="enable-background:new 0 0 94 94;" xml:space="preserve">
<style type="text/css">
	.st0{fill:#FFFFFF;stroke:#000000;stroke-miterlimit:10;}
	.st1{fill:none;stroke:#000000;stroke-width:3;}
</style>
<circle class="st0" cx="47" cy="47" r="46.5"/>
<g>
	<path d="M26.1,53.1c-0.8,0.8-0.7,2.1,0.1,2.8l2.2,2.1c0.8,0.8,2.1,0.7,2.8-0.1l12.9-13.7c0.8-0.8,2-0.8,2.8-0.1L60.8,57
		c0.8,0.8,2.1,0.7,2.8-0.1l2.1-2.2c0.8-0.8,0.7-2.1-0.1-2.8L46.7,34.1c-0.8-0.8-2.1-0.7-2.8,0.1L26.1,53.1z"/>
	<path class="st1" d="M25.2,57l1-1.1L25.2,57l2.2,2.1c1.4,1.3,3.6,1.3,4.9-0.2l12.9-13.7c0.2-0.2,0.5-0.2,0.7,0l13.8,12.9
		c1.4,1.3,3.6,1.3,4.9-0.2l-1.1-1l1.1,1l2.1-2.2c1.3-1.4,1.3-3.6-0.2-4.9L47.7,33c-1.4-1.3-3.6-1.3-4.9,0.2L25,52l1.1,1L25,52
		C23.7,53.5,23.8,55.7,25.2,57z"/>
</g>
</svg>
