<?xml version="1.0" encoding="utf-8"?>
<!-- Generator: Adobe Illustrator 27.9.4, SVG Export Plug-In . SVG Version: 9.03 Build 54784)  -->
<svg version="1.1" id="Layer_1" xmlns="http://www.w3.org/2000/svg" xmlns:xlink="http://www.w3.org/1999/xlink" x="0px" y="0px"
	 viewBox="0 0 94 94" style="enable-background:new 0 0 94 94;" xml:space="preserve">
<style type="text/css">
	.st0{fill:#FFFFFF;stroke:#000000;stroke-miterlimit:10;}
	.st1{fill:none;stroke:#000000;stroke-width:3;}
</style>
<circle class="st0" cx="47" cy="47" r="46.5"/>
<g>
	<path d="M41.9,26.3c-0.8-0.8-2.1-0.7-2.8,0.1L37,28.6c-0.8,0.8-0.7,2.1,0.1,2.8l13.7,12.9c0.8,0.8,0.8,2,0.1,2.8L38,60.9
		c-0.8,0.8-0.7,2.1,0.1,2.8l2.2,2.1c0.8,0.8,2.1,0.7,2.8-0.1l17.7-18.9c0.8-0.8,0.7-2.1-0.1-2.8L41.9,26.3z"/>
	<path class="st1" d="M37.9,25.3l1.1,1L37.9,25.3l-2.1,2.2c-1.3,1.4-1.3,3.6,0.2,4.9l13.7,12.9c0.2,0.2,0.2,0.5,0,0.7L36.9,59.9
		c-1.3,1.4-1.3,3.6,0.2,4.9l1-1.1l-1,1.1l2.2,2.1c1.4,1.3,3.6,1.3,4.9-0.2l17.7-18.9c1.3-1.4,1.3-3.6-0.2-4.9L42.9,25.2l-1,1.1
		l1-1.1C41.5,23.9,39.3,23.9,37.9,25.3z"/>
</g>
</svg>
