<svg width="39" height="56" viewBox="0 0 39 56" fill="none" xmlns="http://www.w3.org/2000/svg">
<g filter="url(#filter0_d_595_1111)">
<path d="M13.1622 3.83234C12.3838 3.04867 11.1175 3.04443 10.3338 3.82285L8.18453 5.95779C7.40147 6.73561 7.39654 8.00074 8.17351 8.78465L21.4484 22.1781C22.2248 22.9614 22.2206 24.2253 21.439 25.0034L8.07452 38.3075C7.29231 39.0862 7.28876 40.3513 8.06658 41.1344L10.2015 43.2837C10.9799 44.0673 12.2463 44.0716 13.0299 43.2932L31.4076 25.0384C32.1912 24.2599 32.1955 22.9936 31.417 22.21L13.1622 3.83234Z" fill="black"/>
<path d="M7.00237 42.1915L8.06658 41.1344L7.00237 42.1915L9.1373 44.3408C10.4995 45.7122 12.7156 45.7196 14.087 44.3574L32.4646 26.1026C33.8361 24.7403 33.8435 22.5243 32.4812 21.1529L14.2264 2.77524L13.1622 3.83234L14.2264 2.77524C12.8642 1.40383 10.6481 1.3964 9.27673 2.75864L7.12743 4.89358C5.75707 6.25477 5.74845 8.46875 7.10814 9.84059L20.3831 23.234C20.5772 23.4298 20.5761 23.7458 20.3807 23.9403L7.01626 37.2445C5.64739 38.6071 5.64118 40.8211 7.00237 42.1915Z" stroke="black" stroke-width="3"/>
</g>
<defs>
<filter id="filter0_d_595_1111" x="0.485529" y="0.241699" width="38.5126" height="55.6326" filterUnits="userSpaceOnUse" color-interpolation-filters="sRGB">
<feFlood flood-opacity="0" result="BackgroundImageFix"/>
<feColorMatrix in="SourceAlpha" type="matrix" values="0 0 0 0 0 0 0 0 0 0 0 0 0 0 0 0 0 0 127 0" result="hardAlpha"/>
<feOffset dy="5"/>
<feGaussianBlur stdDeviation="2"/>
<feComposite in2="hardAlpha" operator="out"/>
<feColorMatrix type="matrix" values="0 0 0 0 0 0 0 0 0 0 0 0 0 0 0 0 0 0 0.25 0"/>
<feBlend mode="normal" in2="BackgroundImageFix" result="effect1_dropShadow_595_1111"/>
<feBlend mode="normal" in="SourceGraphic" in2="effect1_dropShadow_595_1111" result="shape"/>
</filter>
</defs>
</svg>
