<svg width="76" height="76" viewBox="0 0 76 76" fill="none" xmlns="http://www.w3.org/2000/svg">
<circle cx="37.5225" cy="37.5225" r="35.5" transform="rotate(-178.372 37.5225 37.5225)" fill="#FFDE2E" stroke="black" stroke-width="2"/>
<path d="M37.0039 55.7651L40.355 52.6813L27.9943 39.5338L55.7003 40.3214L55.8299 35.7607L28.1239 34.9731L41.2094 22.6266L38.0411 19.2798L19.2798 37.0039L37.0039 55.7651Z" fill="black"/>
<path d="M38.43 5.59796C44.7441 5.77746 50.8632 7.82527 56.0134 11.4824C61.1637 15.1396 65.1138 20.2419 67.3643 26.144C69.6147 32.0462 70.0645 38.4831 68.6566 44.6409C67.2487 50.7986 64.0465 56.4006 59.4548 60.7384C54.8632 65.0762 49.0883 67.955 42.8605 69.0108C36.6327 70.0666 30.2317 69.2519 24.467 66.6697C18.7022 64.0876 13.8326 59.854 10.4739 54.5043C7.11523 49.1546 5.41836 42.9291 5.59786 36.615C5.84813 28.1513 9.44539 20.1325 15.6005 14.3177C21.7555 8.5029 29.9658 5.367 38.43 5.59796ZM36.7446 64.8865C42.1566 65.0404 47.4928 63.5859 52.0782 60.707C56.6637 57.8282 60.2925 53.6542 62.5058 48.713C64.719 43.7718 65.4173 38.2852 64.5124 32.9471C63.6074 27.609 61.1399 22.6591 57.4218 18.7234C53.7036 14.7877 48.9019 12.0429 43.6239 10.8362C38.3458 9.62943 32.8284 10.0149 27.7694 11.9439C22.7104 13.8729 18.3371 17.2587 15.2024 21.6732C12.0676 26.0877 10.3124 31.3326 10.1585 36.7447C9.96072 43.9997 12.6487 51.0369 17.6328 56.3127C22.6168 61.5884 29.49 64.6718 36.7446 64.8865Z" fill="black"/>
</svg>
