<svg width="73" height="73" viewBox="0 0 73 73" fill="none" xmlns="http://www.w3.org/2000/svg">
<circle cx="36.5" cy="36.5" r="35.5" fill="#FFDE2E" stroke="black" stroke-width="2"/>
<path d="M36.5 18.25L33.2378 21.4278L45.9672 34.2188H18.25V38.7812H45.9672L33.2378 51.4947L36.5 54.75L54.75 36.5L36.5 18.25Z" fill="black"/>
<path d="M36.5 68.4375C30.1834 68.4375 24.0086 66.5644 18.7565 63.0551C13.5044 59.5457 9.41089 54.5578 6.99361 48.722C4.57634 42.8862 3.94387 36.4646 5.17618 30.2693C6.4085 24.0741 9.45025 18.3833 13.9168 13.9168C18.3833 9.45025 24.0741 6.4085 30.2693 5.17618C36.4646 3.94387 42.8862 4.57634 48.722 6.99361C54.5578 9.41089 59.5457 13.5044 63.0551 18.7565C66.5644 24.0086 68.4375 30.1834 68.4375 36.5C68.4279 44.9674 65.0599 53.0852 59.0726 59.0726C53.0852 65.0599 44.9674 68.4279 36.5 68.4375ZM36.5 9.12501C31.0858 9.12501 25.7931 10.7305 21.2913 13.7385C16.7895 16.7465 13.2808 21.0219 11.2088 26.0241C9.13686 31.0262 8.59475 36.5304 9.65102 41.8406C10.7073 47.1508 13.3145 52.0286 17.143 55.8571C20.9714 59.6855 25.8492 62.2927 31.1594 63.349C36.4696 64.4053 41.9738 63.8632 46.976 61.7912C51.9781 59.7193 56.2535 56.2105 59.2615 51.7087C62.2695 47.207 63.875 41.9143 63.875 36.5C63.8666 29.2423 60.9797 22.2843 55.8477 17.1523C50.7158 12.0203 43.7577 9.13347 36.5 9.12501Z" fill="black"/>
</svg>
