<svg width="40" height="57" viewBox="0 0 40 57" fill="none" xmlns="http://www.w3.org/2000/svg">
<g filter="url(#filter0_d_595_1104)">
<path d="M27.4859 43.9549C28.2908 44.7114 29.5565 44.6722 30.313 43.8673L32.3877 41.6598C33.1436 40.8555 33.1051 39.591 32.3016 38.8342L18.5746 25.9045C17.7718 25.1484 17.7326 23.885 18.4871 23.0806L31.3868 9.32537C32.1418 8.52029 32.1019 7.25578 31.2976 6.49989L29.0902 4.42517C28.2853 3.6687 27.0196 3.70795 26.2631 4.51282L8.52316 23.3879C7.76669 24.1928 7.80594 25.4585 8.61081 26.215L27.4859 43.9549Z" fill="black"/>
<path d="M31.406 44.8946L30.313 43.8673L31.406 44.8946L33.4807 42.6871C34.8035 41.2796 34.7361 39.0667 33.3301 37.7423L19.6031 24.8126C19.4024 24.6236 19.3926 24.3078 19.5812 24.1067L32.4809 10.3515C33.8022 8.94257 33.7324 6.72968 32.3249 5.40688L31.2976 6.49989L32.3249 5.40687L30.1174 3.33215C28.7089 2.00833 26.4939 2.07701 25.1701 3.48554L7.43015 22.3606C6.10632 23.7692 6.17499 25.9842 7.58353 27.308L26.4586 45.0479L27.4859 43.9549L26.4586 45.0479C27.8672 46.3718 30.0822 46.3031 31.406 44.8946Z" stroke="black" stroke-width="3"/>
</g>
<defs>
<filter id="filter0_d_595_1104" x="0.980507" y="0.882568" width="38.9499" height="55.615" filterUnits="userSpaceOnUse" color-interpolation-filters="sRGB">
<feFlood flood-opacity="0" result="BackgroundImageFix"/>
<feColorMatrix in="SourceAlpha" type="matrix" values="0 0 0 0 0 0 0 0 0 0 0 0 0 0 0 0 0 0 127 0" result="hardAlpha"/>
<feOffset dy="5"/>
<feGaussianBlur stdDeviation="2"/>
<feComposite in2="hardAlpha" operator="out"/>
<feColorMatrix type="matrix" values="0 0 0 0 0 0 0 0 0 0 0 0 0 0 0 0 0 0 0.25 0"/>
<feBlend mode="normal" in2="BackgroundImageFix" result="effect1_dropShadow_595_1104"/>
<feBlend mode="normal" in="SourceGraphic" in2="effect1_dropShadow_595_1104" result="shape"/>
</filter>
</defs>
</svg>
