<?xml version="1.0" encoding="UTF-8"?>
<svg id="Layer_1" data-name="Layer 1" xmlns="http://www.w3.org/2000/svg" version="1.1" viewBox="0 0 59 53">
  <defs>
    <style>
      .cls-1 {
        fill: #000;
        stroke-width: 0px;
      }
    </style>
  </defs>
  <path class="cls-1" d="M54.08,0H4.92C2.21,0,0,2.65,0,5.89v41.22c0,3.24,2.21,5.89,4.92,5.89h49.17c2.7,0,4.89-2.65,4.89-5.89l.02-41.22c0-3.24-2.21-5.89-4.92-5.89ZM19.67,8.83c4.08,0,7.38,3.95,7.38,8.83s-3.29,8.83-7.38,8.83-7.38-3.95-7.38-8.83,3.29-8.83,7.38-8.83ZM34.42,44.17H4.92v-2.94c0-5.89,9.83-9.13,14.75-9.13s14.75,3.24,14.75,9.13v2.94ZM43.88,32.39h3.42c.39,0,.74.21.98.59l2.7,4.27c.37.59.32,1.41-.12,1.91l-3.34,4c-.44.53-1.18.59-1.65.12-2.81-2.86-4.85-6.67-5.85-10.92-.92-3.84-.92-7.91,0-11.75.99-4.26,3.03-8.07,5.85-10.92.49-.5,1.2-.41,1.65.12l3.34,4c.44.53.49,1.35.12,1.91l-2.7,4.27c-.11.19-.26.34-.43.44-.17.1-.36.15-.55.15h-3.42c-.54,1.86-.86,3.83-.86,5.89s.32,4.06.86,5.92Z"/>
</svg>