<svg width="50" height="52" viewBox="0 0 50 52" fill="none" xmlns="http://www.w3.org/2000/svg">
<path d="M4.34831 42.25C4.34831 45.2292 6.2994 47.6667 8.69614 47.6667C9.21035 47.6556 9.71714 47.5421 10.1866 47.3328C10.6561 47.1235 11.0788 46.8226 11.4298 46.4479C11.8066 46.0508 12.3171 45.806 12.8636 45.7606C13.41 45.7151 13.9542 45.8721 14.3918 46.2015C14.6293 46.3888 14.8249 46.6235 14.966 46.8905C15.1072 47.1576 15.1908 47.4511 15.2116 47.7522C15.2323 48.0534 15.1897 48.3555 15.0864 48.6392C14.9831 48.923 14.8215 49.1821 14.6119 49.4C13.8559 50.2125 12.941 50.8624 11.9237 51.3095C10.9063 51.7566 9.80798 51.9916 8.69614 52C3.89994 52 0.000488285 47.626 0.000488284 42.25C0.000488284 36.874 3.89994 32.5 8.69614 32.5C9.78205 32.5083 10.8554 32.7327 11.853 33.1601C12.8507 33.5876 13.7527 34.2093 14.5059 34.989C14.9084 35.3749 15.152 35.8966 15.1892 36.452C15.2263 37.0074 15.0544 37.5567 14.707 37.9925C14.5105 38.2252 14.267 38.4141 13.9924 38.5468C13.7178 38.6795 13.4182 38.7531 13.1132 38.7628C12.8082 38.7726 12.5045 38.7181 12.222 38.6031C11.9394 38.4882 11.6843 38.3152 11.4733 38.0954C11.1208 37.7079 10.6928 37.3961 10.2153 37.1791C9.73774 36.9621 9.22083 36.8444 8.69614 36.8333C6.2994 36.8333 4.34831 39.2708 4.34831 42.25ZM25.9787 39.8965C24.8918 39.5823 23.7668 39.26 23.1391 38.8565C22.7967 38.6371 22.8048 38.5856 22.8347 38.3419C22.8388 38.1449 22.8903 37.9518 22.9849 37.7789C23.0795 37.6059 23.2144 37.4581 23.3782 37.3479C24.6282 36.5029 27.5494 36.8794 28.7668 37.1962C29.3246 37.3424 29.9178 37.2618 30.416 36.972C30.9141 36.6822 31.2764 36.2071 31.423 35.6511C31.5697 35.0952 31.4888 34.5039 31.198 34.0074C30.9073 33.511 30.4306 33.1499 29.8728 33.0037C29.2967 32.8548 24.1662 31.59 20.9516 33.7512C20.2708 34.2059 19.6988 34.8044 19.2761 35.5042C18.8535 36.2039 18.5905 36.9878 18.5059 37.8002C17.9624 42.101 22.2124 43.3279 24.7559 44.0592C28.0358 45.0044 28.3239 45.3917 28.2288 46.1148C28.1445 46.7675 27.8864 47.0194 27.6472 47.1792C26.3972 48.0079 23.5249 47.6017 22.3347 47.2767C21.7821 47.1305 21.194 47.2073 20.6977 47.4903C20.2015 47.7732 19.837 48.2397 19.6834 48.7885C19.5297 49.3374 19.5992 49.9245 19.8767 50.4227C20.1543 50.9209 20.6176 51.29 21.1662 51.4502C22.5131 51.8021 23.8989 51.9841 25.2912 51.9919C26.8755 51.9919 28.6336 51.721 30.044 50.784C30.7401 50.3229 31.325 49.714 31.7568 49.0007C32.1886 48.2875 32.4565 47.4879 32.5412 46.6592C33.1527 41.9792 28.6635 40.671 25.9787 39.8965ZM43.3701 39.8965C42.2831 39.5823 41.1581 39.26 40.5304 38.8565C40.1907 38.6371 40.1961 38.5856 40.226 38.3419C40.2301 38.1449 40.2816 37.9518 40.3762 37.7789C40.4708 37.6059 40.6057 37.4581 40.7695 37.3479C42.0195 36.5029 44.938 36.8794 46.1554 37.1962C46.7132 37.3424 47.3064 37.2618 47.8046 36.972C48.3027 36.6822 48.665 36.2071 48.8116 35.6511C48.9583 35.0952 48.8774 34.5039 48.5866 34.0074C48.2959 33.511 47.8192 33.1499 47.2614 33.0037C46.688 32.8548 41.5548 31.59 38.3402 33.7512C37.6623 34.2078 37.0932 34.8069 36.673 35.5065C36.2528 36.2061 35.9917 36.9891 35.9081 37.8002C35.3646 42.101 39.6173 43.3279 42.1581 44.0592C45.4353 45.0044 45.7233 45.3917 45.6309 46.1148C45.5467 46.7675 45.2885 47.0194 45.0467 47.1792C43.7967 48.0079 40.9271 47.6017 39.7369 47.2767C39.1805 47.1222 38.5854 47.1944 38.0824 47.4773C37.5794 47.7602 37.2098 48.2307 37.0548 48.7852C36.8999 49.3397 36.9723 49.9329 37.2562 50.4342C37.54 50.9355 38.012 51.3039 38.5684 51.4583C39.9162 51.8101 41.3029 51.9921 42.6961 52C44.2777 52 46.0385 51.7292 47.4489 50.7921C48.1446 50.3309 48.7291 49.7218 49.1605 49.0086C49.5918 48.2954 49.8592 47.4958 49.9434 46.6673C50.544 41.9792 46.0548 40.671 43.3673 39.8965L43.3701 39.8965ZM2.1744 24.9167L2.1744 4.33333C2.1744 3.18406 2.63247 2.08186 3.44785 1.2692C4.26323 0.456547 5.36911 6.69526e-07 6.52223 6.6944e-07L32.6092 6.67478e-07C32.8948 -0.000223138 33.1776 0.0556309 33.4415 0.164372C33.7054 0.273113 33.9452 0.43261 34.1472 0.633751L49.3646 15.8004C49.5664 16.0018 49.7265 16.2408 49.8356 16.5038C49.9447 16.7668 50.0007 17.0487 50.0005 17.3333L50.0005 24.9167C50.0005 25.204 49.886 25.4795 49.6821 25.6827C49.4783 25.8859 49.2018 26 48.9135 26L3.26136 26C2.97308 26 2.69661 25.8859 2.49276 25.6827C2.28892 25.4795 2.1744 25.204 2.1744 24.9167ZM32.6092 17.3333L44.5657 17.3333L32.6092 5.41667L32.6092 17.3333Z" fill="black"/>
</svg>
