<svg width="351" height="144" viewBox="0 0 351 144" fill="none" xmlns="http://www.w3.org/2000/svg">
<rect x="6.56641" y="4.02612" width="109.33" height="24.0596" rx="12.0298" fill="#E6E6E6" stroke="black" stroke-width="2"/>
<path d="M41.1986 21.8179V12.0679H44.5361C46.2445 12.0679 47.482 12.497 48.2486 13.3554C49.0153 14.2054 49.3986 15.4012 49.3986 16.9429C49.3986 18.4845 49.0153 19.6845 48.2486 20.5429C47.482 21.3929 46.2445 21.8179 44.5361 21.8179H41.1986ZM42.9611 20.4179H44.4111C45.1445 20.4179 45.7445 20.3012 46.2111 20.0679C46.6861 19.8345 47.0361 19.4637 47.2611 18.9554C47.4861 18.447 47.5986 17.7762 47.5986 16.9429C47.5986 16.1095 47.4861 15.4387 47.2611 14.9304C47.0361 14.422 46.6861 14.0512 46.2111 13.8179C45.7445 13.5845 45.1445 13.4679 44.4111 13.4679H42.9611V20.4179ZM53.8438 22.0054C52.7021 22.0054 51.8313 21.6512 51.2313 20.9429C50.6313 20.2262 50.3313 19.2637 50.3313 18.0554C50.3313 17.2554 50.4646 16.5637 50.7313 15.9804C50.9979 15.397 51.3896 14.9429 51.9063 14.6179C52.4312 14.2929 53.0688 14.1304 53.8188 14.1304C54.8938 14.1304 55.7146 14.4679 56.2813 15.1429C56.8479 15.8095 57.1313 16.7887 57.1313 18.0804V18.4804H51.9812C52.0229 19.1637 52.1979 19.7137 52.5063 20.1304C52.8229 20.547 53.2688 20.7554 53.8438 20.7554C54.2771 20.7554 54.6229 20.6304 54.8813 20.3804C55.1479 20.1304 55.3313 19.8095 55.4313 19.4179H57.0438C56.9521 19.9012 56.7771 20.3387 56.5188 20.7304C56.2688 21.1137 55.9229 21.422 55.4812 21.6554C55.0396 21.8887 54.4938 22.0054 53.8438 22.0054ZM51.9937 17.3554H55.4812C55.4479 16.7137 55.2854 16.2179 54.9938 15.8679C54.7104 15.5179 54.3146 15.3429 53.8063 15.3429C53.2813 15.3429 52.8646 15.5137 52.5563 15.8554C52.2479 16.197 52.0604 16.697 51.9937 17.3554ZM61.2178 22.0054C60.4511 22.0054 59.8303 21.8804 59.3553 21.6304C58.8886 21.372 58.5386 21.0429 58.3053 20.6429C58.0803 20.2429 57.9553 19.8345 57.9303 19.4179H59.5553C59.5886 19.6512 59.6719 19.872 59.8053 20.0804C59.9469 20.2887 60.1386 20.4554 60.3803 20.5804C60.6219 20.7054 60.9261 20.7679 61.2928 20.7679C61.7094 20.7679 62.0219 20.6887 62.2303 20.5304C62.4386 20.3637 62.5428 20.147 62.5428 19.8804C62.5428 19.6554 62.4553 19.4637 62.2803 19.3054C62.1053 19.1387 61.8303 18.9887 61.4553 18.8554L60.5553 18.5554C60.1386 18.4054 59.7553 18.2429 59.4053 18.0679C59.0636 17.8845 58.7886 17.6554 58.5803 17.3804C58.3803 17.097 58.2803 16.7387 58.2803 16.3054C58.2803 15.6554 58.5219 15.1304 59.0053 14.7304C59.4886 14.3304 60.1636 14.1304 61.0303 14.1304C61.6553 14.1304 62.1678 14.2345 62.5678 14.4429C62.9761 14.6429 63.2844 14.9179 63.4928 15.2679C63.7011 15.6095 63.8219 15.9929 63.8553 16.4179H62.2928C62.2511 16.1095 62.1219 15.8512 61.9053 15.6429C61.6969 15.4345 61.3844 15.3304 60.9678 15.3304C60.6094 15.3304 60.3344 15.4054 60.1428 15.5554C59.9594 15.7054 59.8678 15.9054 59.8678 16.1554C59.8678 16.4054 59.9594 16.6137 60.1428 16.7804C60.3344 16.9387 60.6219 17.0845 61.0053 17.2179L61.8928 17.5054C62.3094 17.647 62.6886 17.8095 63.0303 17.9929C63.3719 18.1679 63.6386 18.397 63.8303 18.6804C64.0303 18.9554 64.1303 19.3095 64.1303 19.7429C64.1303 20.4179 63.8803 20.9637 63.3803 21.3804C62.8886 21.797 62.1678 22.0054 61.2178 22.0054ZM65.5361 21.8179V14.3179H67.2236V21.8179H65.5361ZM66.3861 13.3679C66.0778 13.3679 65.8403 13.2845 65.6736 13.1179C65.507 12.9429 65.4236 12.7179 65.4236 12.4429C65.4236 12.1679 65.507 11.947 65.6736 11.7804C65.8403 11.6054 66.0778 11.5179 66.3861 11.5179C66.7028 11.5179 66.9403 11.6054 67.0986 11.7804C67.2653 11.947 67.3486 12.1679 67.3486 12.4429C67.3486 12.7179 67.2653 12.9429 67.0986 13.1179C66.9403 13.2845 66.7028 13.3679 66.3861 13.3679ZM72.2275 24.5054C71.6109 24.5054 71.1025 24.4262 70.7025 24.2679C70.3025 24.1179 69.9859 23.922 69.7525 23.6804C69.5275 23.447 69.3609 23.2012 69.2525 22.9429C69.1525 22.6845 69.09 22.447 69.065 22.2304H70.7275C70.7775 22.4887 70.915 22.722 71.14 22.9304C71.3734 23.147 71.7442 23.2554 72.2525 23.2554C72.8025 23.2554 73.2234 23.097 73.515 22.7804C73.815 22.4637 73.965 21.9804 73.965 21.3304V20.4679H73.665C73.54 20.8095 73.315 21.0887 72.99 21.3054C72.6734 21.5137 72.2484 21.6179 71.715 21.6179C70.765 21.6179 70.0275 21.2804 69.5025 20.6054C68.9775 19.9304 68.715 19.0137 68.715 17.8554C68.715 17.1137 68.8317 16.4637 69.065 15.9054C69.2984 15.347 69.6359 14.9137 70.0775 14.6054C70.5275 14.2887 71.0775 14.1304 71.7275 14.1304C72.2692 14.1304 72.6942 14.2387 73.0025 14.4554C73.3192 14.6637 73.5525 14.9304 73.7025 15.2554H74.0025V14.3179H75.54V21.3304C75.54 22.347 75.2609 23.1304 74.7025 23.6804C74.1525 24.2304 73.3275 24.5054 72.2275 24.5054ZM72.0775 20.3429C72.6442 20.3429 73.0817 20.1179 73.39 19.6679C73.7067 19.2095 73.865 18.6095 73.865 17.8679C73.865 17.1262 73.7067 16.5304 73.39 16.0804C73.0817 15.6304 72.6484 15.4054 72.09 15.4054C71.565 15.4054 71.1567 15.6179 70.865 16.0429C70.5734 16.4595 70.4275 17.0679 70.4275 17.8679C70.4275 18.6845 70.5734 19.3012 70.865 19.7179C71.1567 20.1345 71.5609 20.3429 72.0775 20.3429ZM77.5332 21.8179V14.3179H79.0707V15.4429H79.3707C79.5207 15.0512 79.7582 14.7345 80.0832 14.4929C80.4165 14.2512 80.8707 14.1304 81.4457 14.1304C82.304 14.1304 82.9332 14.397 83.3332 14.9304C83.7415 15.4554 83.9457 16.1554 83.9457 17.0304V21.8179H82.2582V17.3429C82.2582 16.7595 82.154 16.3137 81.9457 16.0054C81.7374 15.6887 81.4082 15.5304 80.9582 15.5304C80.4082 15.5304 79.979 15.747 79.6707 16.1804C79.3707 16.6054 79.2207 17.1345 79.2207 17.7679V21.8179H77.5332Z" fill="black"/>
<rect x="4.56055" y="3.61938" width="112.388" height="25.9392" stroke="#9747FF" stroke-width="2"/>
<rect x="1" y="1" width="4.13813" height="2.72973" fill="white" stroke="#9747FF" stroke-width="2"/>
<rect x="116.397" y="1" width="4.13813" height="2.72973" fill="white" stroke="#9747FF" stroke-width="2"/>
<rect x="116.397" y="31.2703" width="4.13813" height="2.72973" fill="white" stroke="#9747FF" stroke-width="2"/>
<rect x="1" y="31.2703" width="4.13813" height="2.72973" fill="white" stroke="#9747FF" stroke-width="2"/>
<rect x="78.5381" y="66.0261" width="108.763" height="24.193" rx="12.0965" fill="#E6E6E6" stroke="black" stroke-width="2"/>
<path d="M92.0736 83.8579V74.1079H95.4111C97.1195 74.1079 98.357 74.5371 99.1236 75.3954C99.8903 76.2454 100.274 77.4412 100.274 78.9829C100.274 80.5246 99.8903 81.7246 99.1236 82.5829C98.357 83.4329 97.1195 83.8579 95.4111 83.8579H92.0736ZM93.8361 82.4579H95.2861C96.0195 82.4579 96.6195 82.3412 97.0861 82.1079C97.5611 81.8746 97.9111 81.5037 98.1361 80.9954C98.3611 80.4871 98.4736 79.8162 98.4736 78.9829C98.4736 78.1496 98.3611 77.4787 98.1361 76.9704C97.9111 76.4621 97.5611 76.0912 97.0861 75.8579C96.6195 75.6246 96.0195 75.5079 95.2861 75.5079H93.8361V82.4579ZM104.719 84.0454C103.577 84.0454 102.706 83.6912 102.106 82.9829C101.506 82.2662 101.206 81.3037 101.206 80.0954C101.206 79.2954 101.34 78.6037 101.606 78.0204C101.873 77.4371 102.265 76.9829 102.781 76.6579C103.306 76.3329 103.944 76.1704 104.694 76.1704C105.769 76.1704 106.59 76.5079 107.156 77.1829C107.723 77.8496 108.006 78.8287 108.006 80.1204V80.5204H102.856C102.898 81.2037 103.073 81.7537 103.381 82.1704C103.698 82.5871 104.144 82.7954 104.719 82.7954C105.152 82.7954 105.498 82.6704 105.756 82.4204C106.023 82.1704 106.206 81.8496 106.306 81.4579H107.919C107.827 81.9412 107.652 82.3787 107.394 82.7704C107.144 83.1537 106.798 83.4621 106.356 83.6954C105.915 83.9287 105.369 84.0454 104.719 84.0454ZM102.869 79.3954H106.356C106.323 78.7537 106.16 78.2579 105.869 77.9079C105.585 77.5579 105.19 77.3829 104.681 77.3829C104.156 77.3829 103.74 77.5537 103.431 77.8954C103.123 78.2371 102.935 78.7371 102.869 79.3954ZM110.736 83.8579L108.523 76.4329V76.3579H110.223L111.973 82.4704H112.273L114.036 76.3579H115.586V76.4329L113.373 83.8579H110.736ZM119.777 84.0454C118.636 84.0454 117.765 83.6912 117.165 82.9829C116.565 82.2662 116.265 81.3037 116.265 80.0954C116.265 79.2954 116.398 78.6037 116.665 78.0204C116.932 77.4371 117.323 76.9829 117.84 76.6579C118.365 76.3329 119.002 76.1704 119.752 76.1704C120.827 76.1704 121.648 76.5079 122.215 77.1829C122.782 77.8496 123.065 78.8287 123.065 80.1204V80.5204H117.915C117.957 81.2037 118.132 81.7537 118.44 82.1704C118.757 82.5871 119.202 82.7954 119.777 82.7954C120.211 82.7954 120.557 82.6704 120.815 82.4204C121.082 82.1704 121.265 81.8496 121.365 81.4579H122.977C122.886 81.9412 122.711 82.3787 122.452 82.7704C122.202 83.1537 121.857 83.4621 121.415 83.6954C120.973 83.9287 120.427 84.0454 119.777 84.0454ZM117.927 79.3954H121.415C121.382 78.7537 121.219 78.2579 120.927 77.9079C120.644 77.5579 120.248 77.3829 119.74 77.3829C119.215 77.3829 118.798 77.5537 118.49 77.8954C118.182 78.2371 117.994 78.7371 117.927 79.3954ZM125.101 83.8579C124.893 83.6079 124.735 83.3204 124.626 82.9954C124.526 82.6704 124.476 82.2121 124.476 81.6204V73.8579H126.176V81.4204C126.176 82.0704 126.247 82.5704 126.389 82.9204C126.531 83.2621 126.714 83.5496 126.939 83.7829V83.8579H125.101ZM131.257 84.0454C130.074 84.0454 129.187 83.6912 128.595 82.9829C128.012 82.2662 127.72 81.3079 127.72 80.1079C127.72 78.9079 128.012 77.9537 128.595 77.2454C129.187 76.5287 130.074 76.1704 131.257 76.1704C132.457 76.1704 133.349 76.5287 133.932 77.2454C134.516 77.9537 134.807 78.9079 134.807 80.1079C134.807 81.3079 134.516 82.2662 133.932 82.9829C133.349 83.6912 132.457 84.0454 131.257 84.0454ZM131.27 82.8204C131.887 82.8204 132.337 82.5871 132.62 82.1204C132.912 81.6454 133.057 80.9746 133.057 80.1079C133.057 79.2412 132.912 78.5746 132.62 78.1079C132.337 77.6329 131.887 77.3954 131.27 77.3954C130.645 77.3954 130.187 77.6329 129.895 78.1079C129.612 78.5746 129.47 79.2412 129.47 80.1079C129.47 80.9746 129.612 81.6454 129.895 82.1204C130.187 82.5871 130.645 82.8204 131.27 82.8204ZM136.289 86.3579V76.3579H137.827V77.3329H138.127C138.285 77.0246 138.531 76.7579 138.864 76.5329C139.206 76.3079 139.66 76.1954 140.227 76.1954C140.885 76.1954 141.435 76.3621 141.877 76.6954C142.327 77.0204 142.664 77.4787 142.889 78.0704C143.122 78.6537 143.239 79.3371 143.239 80.1204C143.239 80.8954 143.122 81.5787 142.889 82.1704C142.664 82.7537 142.327 83.2079 141.877 83.5329C141.435 83.8579 140.889 84.0204 140.239 84.0204C139.739 84.0204 139.331 83.9287 139.014 83.7454C138.697 83.5621 138.452 83.3121 138.277 82.9954H137.977V86.3579H136.289ZM139.814 82.7454C140.347 82.7454 140.76 82.5204 141.052 82.0704C141.343 81.6204 141.489 80.9662 141.489 80.1079C141.489 79.2496 141.343 78.5954 141.052 78.1454C140.76 77.6954 140.347 77.4704 139.814 77.4704C139.247 77.4704 138.797 77.7121 138.464 78.1954C138.131 78.6704 137.964 79.3079 137.964 80.1079C137.964 80.9079 138.131 81.5496 138.464 82.0329C138.797 82.5079 139.247 82.7454 139.814 82.7454ZM144.727 83.8579V76.3579H146.264V77.4829H146.564C146.697 77.0996 146.922 76.7871 147.239 76.5454C147.556 76.2954 147.989 76.1704 148.539 76.1704C149.064 76.1704 149.497 76.2871 149.839 76.5204C150.189 76.7537 150.447 77.0746 150.614 77.4829H150.914C151.064 77.0912 151.302 76.7746 151.627 76.5329C151.96 76.2912 152.402 76.1704 152.952 76.1704C153.768 76.1704 154.368 76.4371 154.752 76.9704C155.135 77.4954 155.327 78.1954 155.327 79.0704V83.8579H153.639V79.3829C153.639 78.8079 153.543 78.3621 153.352 78.0454C153.168 77.7287 152.868 77.5704 152.452 77.5704C151.943 77.5704 151.552 77.7871 151.277 78.2204C151.01 78.6537 150.877 79.1829 150.877 79.8079V83.8579H149.177V79.3829C149.177 78.8079 149.085 78.3621 148.902 78.0454C148.718 77.7287 148.418 77.5704 148.002 77.5704C147.493 77.5704 147.102 77.7871 146.827 78.2204C146.552 78.6537 146.414 79.1829 146.414 79.8079V83.8579H144.727ZM160.222 84.0454C159.08 84.0454 158.209 83.6912 157.609 82.9829C157.009 82.2662 156.709 81.3037 156.709 80.0954C156.709 79.2954 156.843 78.6037 157.109 78.0204C157.376 77.4371 157.768 76.9829 158.284 76.6579C158.809 76.3329 159.447 76.1704 160.197 76.1704C161.272 76.1704 162.093 76.5079 162.659 77.1829C163.226 77.8496 163.509 78.8287 163.509 80.1204V80.5204H158.359C158.401 81.2037 158.576 81.7537 158.884 82.1704C159.201 82.5871 159.647 82.7954 160.222 82.7954C160.655 82.7954 161.001 82.6704 161.259 82.4204C161.526 82.1704 161.709 81.8496 161.809 81.4579H163.422C163.33 81.9412 163.155 82.3787 162.897 82.7704C162.647 83.1537 162.301 83.4621 161.859 83.6954C161.418 83.9287 160.872 84.0454 160.222 84.0454ZM158.372 79.3954H161.859C161.826 78.7537 161.663 78.2579 161.372 77.9079C161.088 77.5579 160.693 77.3829 160.184 77.3829C159.659 77.3829 159.243 77.5537 158.934 77.8954C158.626 78.2371 158.438 78.7371 158.372 79.3954ZM164.971 83.8579V76.3579H166.508V77.4829H166.808C166.958 77.0912 167.196 76.7746 167.521 76.5329C167.854 76.2912 168.308 76.1704 168.883 76.1704C169.742 76.1704 170.371 76.4371 170.771 76.9704C171.179 77.4954 171.383 78.1954 171.383 79.0704V83.8579H169.696V79.3829C169.696 78.7996 169.592 78.3537 169.383 78.0454C169.175 77.7287 168.846 77.5704 168.396 77.5704C167.846 77.5704 167.417 77.7871 167.108 78.2204C166.808 78.6454 166.658 79.1746 166.658 79.8079V83.8579H164.971ZM174.301 83.8579C174.11 83.6329 173.956 83.3621 173.839 83.0454C173.731 82.7287 173.676 82.2537 173.676 81.6204V77.5954H172.651V76.3579H173.701V74.4829H175.351V76.3579H176.589V77.5954H175.364V81.4079C175.364 82.0746 175.435 82.5829 175.576 82.9329C175.726 83.2746 175.906 83.5579 176.114 83.7829V83.8579H174.301Z" fill="black"/>
<rect x="76.5425" y="65.6194" width="111.805" height="25.9392" stroke="#9747FF" stroke-width="2"/>
<rect x="73" y="63" width="4.10687" height="2.72973" fill="white" stroke="#9747FF" stroke-width="2"/>
<rect x="187.809" y="63" width="4.10687" height="2.72973" fill="white" stroke="#9747FF" stroke-width="2"/>
<rect x="187.809" y="93.2703" width="4.10687" height="2.72973" fill="white" stroke="#9747FF" stroke-width="2"/>
<rect x="73" y="93.2703" width="4.10687" height="2.72973" fill="white" stroke="#9747FF" stroke-width="2"/>
<rect x="192.677" y="110.707" width="111.532" height="27.2306" rx="13.6153" fill="#E6E6E6" stroke="black" stroke-width="2"/>
<rect x="190.631" y="109.844" width="114.65" height="28.3338" stroke="#9747FF" stroke-width="2"/>
<rect x="187" y="107" width="4.25953" height="3.1351" fill="white" stroke="#9747FF" stroke-width="2"/>
<rect x="304.679" y="107" width="4.25953" height="3.1351" fill="white" stroke="#9747FF" stroke-width="2"/>
<rect x="304.679" y="139.865" width="4.25953" height="3.1351" fill="white" stroke="#9747FF" stroke-width="2"/>
<rect x="187" y="139.865" width="4.25953" height="3.1351" fill="white" stroke="#9747FF" stroke-width="2"/>
<path d="M216.557 124V115.55H219.829C220.912 115.55 221.699 115.777 222.19 116.232C222.689 116.68 222.938 117.283 222.938 118.042C222.938 118.8 222.689 119.407 222.19 119.862C221.699 120.317 220.912 120.544 219.829 120.544H218.063V124H216.557ZM218.063 119.363H219.666C220.251 119.363 220.688 119.262 220.977 119.06C221.266 118.858 221.41 118.522 221.41 118.052C221.41 117.583 221.266 117.244 220.977 117.034C220.688 116.825 220.251 116.72 219.666 116.72H218.063V119.363ZM224.167 124V117.5H225.489V118.648H225.749C225.792 118.453 225.871 118.262 225.987 118.074C226.103 117.886 226.279 117.735 226.518 117.619C226.763 117.496 227.096 117.435 227.514 117.435H227.796V118.778H227.395C226.767 118.778 226.316 118.941 226.041 119.266C225.767 119.591 225.629 120.086 225.629 120.75V124H224.167ZM231.346 124.163C230.321 124.163 229.552 123.856 229.039 123.242C228.533 122.621 228.28 121.79 228.28 120.75C228.28 119.71 228.533 118.883 229.039 118.269C229.552 117.648 230.321 117.338 231.346 117.338C232.386 117.338 233.159 117.648 233.665 118.269C234.17 118.883 234.423 119.71 234.423 120.75C234.423 121.79 234.17 122.621 233.665 123.242C233.159 123.856 232.386 124.163 231.346 124.163ZM231.357 123.101C231.892 123.101 232.282 122.899 232.527 122.494C232.78 122.082 232.906 121.501 232.906 120.75C232.906 119.999 232.78 119.421 232.527 119.017C232.282 118.605 231.892 118.399 231.357 118.399C230.815 118.399 230.418 118.605 230.165 119.017C229.92 119.421 229.797 119.999 229.797 120.75C229.797 121.501 229.92 122.082 230.165 122.494C230.418 122.899 230.815 123.101 231.357 123.101ZM235.881 124V118.572H234.95V117.5H235.881V117.099C235.881 116.745 235.943 116.435 236.065 116.167C236.188 115.9 236.39 115.691 236.672 115.539C236.961 115.387 237.355 115.312 237.853 115.312C238.033 115.312 238.203 115.322 238.362 115.344V116.406C238.275 116.384 238.16 116.373 238.015 116.373C237.734 116.373 237.542 116.438 237.441 116.568C237.347 116.698 237.3 116.886 237.3 117.132V117.5H238.362V118.572H237.3V124H235.881ZM242.154 124.163C241.164 124.163 240.41 123.856 239.89 123.242C239.37 122.621 239.11 121.786 239.11 120.739C239.11 120.046 239.225 119.446 239.456 118.941C239.687 118.435 240.027 118.042 240.475 117.76C240.93 117.478 241.482 117.338 242.132 117.338C243.064 117.338 243.775 117.63 244.266 118.215C244.757 118.793 245.003 119.641 245.003 120.761V121.107H240.54C240.576 121.7 240.727 122.176 240.995 122.537C241.269 122.899 241.655 123.079 242.154 123.079C242.529 123.079 242.829 122.971 243.053 122.754C243.284 122.537 243.443 122.259 243.53 121.92H244.927C244.848 122.339 244.696 122.718 244.472 123.057C244.255 123.39 243.956 123.657 243.573 123.859C243.19 124.061 242.717 124.163 242.154 124.163ZM240.55 120.132H243.573C243.544 119.576 243.403 119.147 243.15 118.843C242.905 118.54 242.562 118.388 242.121 118.388C241.666 118.388 241.305 118.536 241.038 118.832C240.771 119.129 240.608 119.562 240.55 120.132ZM248.544 124.163C247.88 124.163 247.342 124.054 246.93 123.837C246.526 123.614 246.223 123.328 246.02 122.982C245.825 122.635 245.717 122.281 245.695 121.92H247.104C247.133 122.122 247.205 122.314 247.32 122.494C247.443 122.675 247.609 122.819 247.819 122.927C248.028 123.036 248.292 123.09 248.609 123.09C248.971 123.09 249.241 123.021 249.422 122.884C249.603 122.74 249.693 122.552 249.693 122.321C249.693 122.126 249.617 121.96 249.465 121.822C249.314 121.678 249.075 121.548 248.75 121.432L247.97 121.172C247.609 121.042 247.277 120.902 246.974 120.75C246.678 120.591 246.439 120.392 246.259 120.154C246.085 119.909 245.999 119.598 245.999 119.222C245.999 118.659 246.208 118.204 246.627 117.857C247.046 117.511 247.631 117.338 248.382 117.338C248.924 117.338 249.368 117.428 249.714 117.608C250.068 117.782 250.336 118.02 250.516 118.323C250.697 118.619 250.801 118.952 250.83 119.32H249.476C249.44 119.053 249.328 118.829 249.14 118.648C248.96 118.468 248.689 118.377 248.328 118.377C248.017 118.377 247.779 118.442 247.613 118.572C247.454 118.702 247.374 118.876 247.374 119.093C247.374 119.309 247.454 119.49 247.613 119.634C247.779 119.771 248.028 119.898 248.36 120.013L249.129 120.263C249.491 120.385 249.819 120.526 250.115 120.685C250.411 120.837 250.643 121.035 250.809 121.281C250.982 121.519 251.069 121.826 251.069 122.202C251.069 122.787 250.852 123.26 250.419 123.621C249.993 123.982 249.368 124.163 248.544 124.163ZM254.562 124.163C253.898 124.163 253.36 124.054 252.948 123.837C252.543 123.614 252.24 123.328 252.038 122.982C251.843 122.635 251.735 122.281 251.713 121.92H253.121C253.15 122.122 253.222 122.314 253.338 122.494C253.461 122.675 253.627 122.819 253.836 122.927C254.046 123.036 254.309 123.09 254.627 123.09C254.988 123.09 255.259 123.021 255.44 122.884C255.62 122.74 255.71 122.552 255.71 122.321C255.71 122.126 255.635 121.96 255.483 121.822C255.331 121.678 255.093 121.548 254.768 121.432L253.988 121.172C253.627 121.042 253.295 120.902 252.991 120.75C252.695 120.591 252.457 120.392 252.276 120.154C252.103 119.909 252.016 119.598 252.016 119.222C252.016 118.659 252.226 118.204 252.645 117.857C253.063 117.511 253.648 117.338 254.4 117.338C254.941 117.338 255.385 117.428 255.732 117.608C256.086 117.782 256.353 118.02 256.534 118.323C256.714 118.619 256.819 118.952 256.848 119.32H255.494C255.458 119.053 255.346 118.829 255.158 118.648C254.977 118.468 254.707 118.377 254.345 118.377C254.035 118.377 253.797 118.442 253.63 118.572C253.472 118.702 253.392 118.876 253.392 119.093C253.392 119.309 253.472 119.49 253.63 119.634C253.797 119.771 254.046 119.898 254.378 120.013L255.147 120.263C255.508 120.385 255.837 120.526 256.133 120.685C256.429 120.837 256.66 121.035 256.826 121.281C257 121.519 257.086 121.826 257.086 122.202C257.086 122.787 256.87 123.26 256.436 123.621C256.01 123.982 255.385 124.163 254.562 124.163ZM258.305 124V117.5H259.767V124H258.305ZM259.041 116.677C258.774 116.677 258.568 116.604 258.424 116.46C258.279 116.308 258.207 116.113 258.207 115.875C258.207 115.637 258.279 115.445 258.424 115.301C258.568 115.149 258.774 115.073 259.041 115.073C259.316 115.073 259.522 115.149 259.659 115.301C259.803 115.445 259.875 115.637 259.875 115.875C259.875 116.113 259.803 116.308 259.659 116.46C259.522 116.604 259.316 116.677 259.041 116.677ZM264.126 124.163C263.1 124.163 262.331 123.856 261.818 123.242C261.312 122.621 261.06 121.79 261.06 120.75C261.06 119.71 261.312 118.883 261.818 118.269C262.331 117.648 263.1 117.338 264.126 117.338C265.166 117.338 265.938 117.648 266.444 118.269C266.949 118.883 267.202 119.71 267.202 120.75C267.202 121.79 266.949 122.621 266.444 123.242C265.938 123.856 265.166 124.163 264.126 124.163ZM264.136 123.101C264.671 123.101 265.061 122.899 265.306 122.494C265.559 122.082 265.686 121.501 265.686 120.75C265.686 119.999 265.559 119.421 265.306 119.017C265.061 118.605 264.671 118.399 264.136 118.399C263.595 118.399 263.197 118.605 262.945 119.017C262.699 119.421 262.576 119.999 262.576 120.75C262.576 121.501 262.699 122.082 262.945 122.494C263.197 122.899 263.595 123.101 264.136 123.101ZM268.486 124V117.5H269.819V118.475H270.079C270.209 118.136 270.415 117.861 270.696 117.652C270.985 117.442 271.379 117.338 271.877 117.338C272.621 117.338 273.166 117.569 273.513 118.031C273.867 118.486 274.044 119.093 274.044 119.851V124H272.581V120.122C272.581 119.616 272.491 119.23 272.31 118.962C272.13 118.688 271.845 118.551 271.455 118.551C270.978 118.551 270.606 118.739 270.339 119.114C270.079 119.482 269.949 119.941 269.949 120.49V124H268.486ZM277.873 124.141C277.295 124.141 276.811 124 276.421 123.718C276.031 123.429 275.735 123.029 275.533 122.516C275.338 122.003 275.24 121.411 275.24 120.739C275.24 120.06 275.338 119.468 275.533 118.962C275.735 118.457 276.031 118.063 276.421 117.782C276.818 117.5 277.306 117.359 277.884 117.359C278.353 117.359 278.732 117.453 279.021 117.641C279.317 117.829 279.534 118.063 279.671 118.345H279.931V117.5H281.264V124H279.931V123.155H279.671C279.534 123.422 279.317 123.653 279.021 123.848C278.732 124.043 278.35 124.141 277.873 124.141ZM278.209 123.036C278.7 123.036 279.09 122.83 279.379 122.418C279.668 121.999 279.812 121.443 279.812 120.75C279.812 120.057 279.668 119.504 279.379 119.093C279.09 118.674 278.7 118.464 278.209 118.464C277.746 118.464 277.389 118.659 277.136 119.049C276.883 119.439 276.757 120.006 276.757 120.75C276.757 121.494 276.883 122.061 277.136 122.451C277.389 122.841 277.746 123.036 278.209 123.036ZM283.495 124C283.315 123.783 283.178 123.534 283.084 123.252C282.997 122.971 282.954 122.574 282.954 122.061V115.333H284.427V121.887C284.427 122.451 284.488 122.884 284.611 123.188C284.734 123.484 284.893 123.733 285.088 123.935V124H283.495Z" fill="black"/>
<path d="M214.164 133V124.55H217.056C218.537 124.55 219.609 124.922 220.274 125.666C220.938 126.402 221.27 127.439 221.27 128.775C221.27 130.111 220.938 131.151 220.274 131.895C219.609 132.632 218.537 133 217.056 133H214.164ZM215.691 131.787H216.948C217.584 131.787 218.104 131.686 218.508 131.483C218.92 131.281 219.223 130.96 219.418 130.519C219.613 130.079 219.71 129.497 219.71 128.775C219.71 128.053 219.613 127.471 219.418 127.031C219.223 126.59 218.92 126.269 218.508 126.067C218.104 125.864 217.584 125.763 216.948 125.763H215.691V131.787ZM225.123 133.163C224.133 133.163 223.379 132.856 222.859 132.242C222.339 131.621 222.079 130.786 222.079 129.739C222.079 129.046 222.194 128.446 222.425 127.941C222.657 127.435 222.996 127.042 223.444 126.76C223.899 126.478 224.451 126.338 225.101 126.338C226.033 126.338 226.744 126.63 227.235 127.215C227.727 127.793 227.972 128.641 227.972 129.761V130.107H223.509C223.545 130.7 223.697 131.176 223.964 131.537C224.238 131.899 224.625 132.079 225.123 132.079C225.498 132.079 225.798 131.971 226.022 131.754C226.253 131.537 226.412 131.259 226.499 130.92H227.896C227.817 131.339 227.665 131.718 227.441 132.057C227.225 132.39 226.925 132.657 226.542 132.859C226.159 133.061 225.686 133.163 225.123 133.163ZM223.52 129.132H226.542C226.513 128.576 226.372 128.147 226.12 127.843C225.874 127.54 225.531 127.388 225.09 127.388C224.635 127.388 224.274 127.536 224.007 127.832C223.74 128.129 223.577 128.562 223.52 129.132ZM230.338 133L228.42 126.565V126.5H229.894L231.41 131.797H231.67L233.198 126.5H234.541V126.565L232.624 133H230.338ZM238.174 133.163C237.184 133.163 236.43 132.856 235.91 132.242C235.39 131.621 235.13 130.786 235.13 129.739C235.13 129.046 235.245 128.446 235.476 127.941C235.707 127.435 236.047 127.042 236.495 126.76C236.95 126.478 237.502 126.338 238.152 126.338C239.084 126.338 239.795 126.63 240.286 127.215C240.777 127.793 241.023 128.641 241.023 129.761V130.107H236.56C236.596 130.7 236.747 131.176 237.015 131.537C237.289 131.899 237.675 132.079 238.174 132.079C238.549 132.079 238.849 131.971 239.073 131.754C239.304 131.537 239.463 131.259 239.55 130.92H240.947C240.868 131.339 240.716 131.718 240.492 132.057C240.275 132.39 239.976 132.657 239.593 132.859C239.21 133.061 238.737 133.163 238.174 133.163ZM236.57 129.132H239.593C239.564 128.576 239.423 128.147 239.17 127.843C238.925 127.54 238.582 127.388 238.141 127.388C237.686 127.388 237.325 127.536 237.058 127.832C236.791 128.129 236.628 128.562 236.57 129.132ZM242.788 133C242.607 132.783 242.47 132.534 242.376 132.252C242.29 131.971 242.246 131.574 242.246 131.061V124.333H243.72V130.887C243.72 131.451 243.781 131.884 243.904 132.188C244.026 132.484 244.185 132.733 244.38 132.935V133H242.788ZM248.123 133.163C247.098 133.163 246.328 132.856 245.816 132.242C245.31 131.621 245.057 130.79 245.057 129.75C245.057 128.71 245.31 127.883 245.816 127.269C246.328 126.648 247.098 126.338 248.123 126.338C249.163 126.338 249.936 126.648 250.441 127.269C250.947 127.883 251.2 128.71 251.2 129.75C251.2 130.79 250.947 131.621 250.441 132.242C249.936 132.856 249.163 133.163 248.123 133.163ZM248.134 132.101C248.668 132.101 249.058 131.899 249.304 131.494C249.557 131.082 249.683 130.501 249.683 129.75C249.683 128.999 249.557 128.421 249.304 128.017C249.058 127.605 248.668 127.399 248.134 127.399C247.592 127.399 247.195 127.605 246.942 128.017C246.697 128.421 246.574 128.999 246.574 129.75C246.574 130.501 246.697 131.082 246.942 131.494C247.195 131.899 247.592 132.101 248.134 132.101ZM252.484 135.167V126.5H253.816V127.345H254.076C254.214 127.078 254.427 126.847 254.716 126.652C255.012 126.457 255.405 126.359 255.896 126.359C256.467 126.359 256.944 126.504 257.326 126.792C257.716 127.074 258.009 127.471 258.204 127.984C258.406 128.49 258.507 129.082 258.507 129.761C258.507 130.432 258.406 131.025 258.204 131.537C258.009 132.043 257.716 132.437 257.326 132.718C256.944 133 256.471 133.141 255.907 133.141C255.474 133.141 255.12 133.061 254.846 132.902C254.571 132.744 254.358 132.527 254.206 132.252H253.946V135.167H252.484ZM255.539 132.036C256.001 132.036 256.359 131.841 256.611 131.451C256.864 131.061 256.991 130.494 256.991 129.75C256.991 129.006 256.864 128.439 256.611 128.049C256.359 127.659 256.001 127.464 255.539 127.464C255.048 127.464 254.658 127.674 254.369 128.093C254.08 128.504 253.936 129.057 253.936 129.75C253.936 130.443 254.08 130.999 254.369 131.418C254.658 131.83 255.048 132.036 255.539 132.036ZM259.796 133V126.5H261.129V127.475H261.389C261.504 127.143 261.699 126.872 261.974 126.662C262.248 126.446 262.624 126.338 263.101 126.338C263.556 126.338 263.931 126.439 264.227 126.641C264.531 126.843 264.754 127.121 264.899 127.475H265.159C265.289 127.136 265.495 126.861 265.776 126.652C266.065 126.442 266.448 126.338 266.925 126.338C267.632 126.338 268.152 126.569 268.485 127.031C268.817 127.486 268.983 128.093 268.983 128.851V133H267.521V129.122C267.521 128.623 267.437 128.237 267.271 127.962C267.112 127.688 266.852 127.551 266.491 127.551C266.051 127.551 265.711 127.739 265.473 128.114C265.242 128.49 265.126 128.948 265.126 129.49V133H263.653V129.122C263.653 128.623 263.574 128.237 263.415 127.962C263.256 127.688 262.996 127.551 262.635 127.551C262.194 127.551 261.855 127.739 261.616 128.114C261.378 128.49 261.259 128.948 261.259 129.49V133H259.796ZM273.225 133.163C272.236 133.163 271.481 132.856 270.961 132.242C270.441 131.621 270.181 130.786 270.181 129.739C270.181 129.046 270.297 128.446 270.528 127.941C270.759 127.435 271.099 127.042 271.546 126.76C272.001 126.478 272.554 126.338 273.204 126.338C274.135 126.338 274.847 126.63 275.338 127.215C275.829 127.793 276.075 128.641 276.075 129.761V130.107H271.611C271.647 130.7 271.799 131.176 272.066 131.537C272.341 131.899 272.727 132.079 273.225 132.079C273.601 132.079 273.901 131.971 274.125 131.754C274.356 131.537 274.515 131.259 274.601 130.92H275.999C275.919 131.339 275.768 131.718 275.544 132.057C275.327 132.39 275.027 132.657 274.645 132.859C274.262 133.061 273.789 133.163 273.225 133.163ZM271.622 129.132H274.645C274.616 128.576 274.475 128.147 274.222 127.843C273.977 127.54 273.634 127.388 273.193 127.388C272.738 127.388 272.377 127.536 272.11 127.832C271.842 128.129 271.68 128.562 271.622 129.132ZM277.341 133V126.5H278.674V127.475H278.934C279.064 127.136 279.27 126.861 279.551 126.652C279.84 126.442 280.234 126.338 280.732 126.338C281.476 126.338 282.021 126.569 282.368 127.031C282.722 127.486 282.899 128.093 282.899 128.851V133H281.436V129.122C281.436 128.616 281.346 128.23 281.165 127.962C280.985 127.688 280.7 127.551 280.31 127.551C279.833 127.551 279.461 127.739 279.194 128.114C278.934 128.482 278.804 128.941 278.804 129.49V133H277.341ZM285.428 133C285.262 132.805 285.128 132.57 285.027 132.296C284.933 132.021 284.886 131.61 284.886 131.061V127.572H283.998V126.5H284.908V124.875H286.338V126.5H287.41V127.572H286.349V130.877C286.349 131.454 286.41 131.895 286.533 132.198C286.663 132.494 286.818 132.74 286.999 132.935V133H285.428Z" fill="black"/>
<path d="M220.22 15.0324C219.678 14.9274 219.153 15.2819 219.047 15.8241C218.942 16.3664 219.296 16.891 219.838 16.996L220.22 15.0324ZM119.325 18.7624C118.929 19.1476 118.92 19.7807 119.305 20.1765L125.576 26.6267C125.961 27.0225 126.594 27.0311 126.99 26.646C127.386 26.2608 127.396 25.6277 127.011 25.2319L121.436 19.4984L127.174 13.9191C127.57 13.5339 127.58 12.9008 127.195 12.505C126.81 12.1092 126.177 12.1006 125.781 12.4858L119.325 18.7624ZM219.838 16.996C220.224 17.0708 220.494 17.1456 220.66 17.2098C220.743 17.2421 220.768 17.2599 220.76 17.254C220.754 17.25 220.727 17.2315 220.692 17.195C220.657 17.1586 220.602 17.0923 220.558 16.9925C220.446 16.7436 220.473 16.4686 220.585 16.2653C220.668 16.114 220.764 16.0616 220.738 16.0785C220.692 16.1086 220.513 16.1957 220.1 16.3105C218.473 16.7625 214.657 17.2725 207.59 17.7064C193.52 18.5704 166.9 19.1179 120.037 18.4792L120.008 20.479C166.883 21.1179 193.564 20.5714 207.711 19.7027C214.753 19.2703 218.774 18.7543 220.634 18.2374C221.093 18.1099 221.513 17.9583 221.825 17.7567C221.977 17.6577 222.192 17.4911 222.337 17.2279C222.51 16.9126 222.542 16.5278 222.382 16.1717C222.249 15.876 222.026 15.6953 221.88 15.5966C221.721 15.4891 221.547 15.4082 221.385 15.3453C221.06 15.2191 220.658 15.1172 220.22 15.0324L219.838 16.996Z" fill="#4ACFFF"/>
<path d="M165.827 17.7432C167.347 17.7432 168.654 19.0441 168.654 20.7432C168.654 22.4422 167.347 23.7432 165.827 23.7432C164.307 23.7432 163 22.4422 163 20.7432C163 19.0441 164.307 17.7432 165.827 17.7432Z" fill="#FFFDFD" stroke="#4ACFFF" stroke-width="2"/>
<path d="M244.498 7.32499C244.082 7.68756 244.038 8.3192 244.4 8.73582C244.763 9.15243 245.395 9.19624 245.811 8.83368L244.498 7.32499ZM191.005 84.0694C191.072 84.6175 191.571 85.0074 192.12 84.9401L201.053 83.8439C201.601 83.7766 201.991 83.2777 201.923 82.7296C201.856 82.1814 201.357 81.7915 200.809 81.8588L192.869 82.8332L191.894 74.8928C191.827 74.3446 191.328 73.9548 190.78 74.022C190.232 74.0893 189.842 74.5882 189.909 75.1364L191.005 84.0694ZM245.811 8.83368C246.084 8.59643 246.288 8.44798 246.422 8.37012C246.49 8.33104 246.511 8.32664 246.493 8.33191C246.487 8.3339 246.355 8.37579 246.164 8.32649C245.923 8.26425 245.736 8.09567 245.641 7.90183C245.602 7.82175 245.588 7.7554 245.582 7.71855C245.579 7.69926 245.578 7.68468 245.577 7.6758C245.577 7.67125 245.577 7.66782 245.577 7.66562C245.577 7.66341 245.577 7.66224 245.577 7.6622C245.577 7.66215 245.577 7.66308 245.577 7.66503C245.577 7.66698 245.577 7.66984 245.576 7.67364C245.575 7.68133 245.574 7.69221 245.572 7.70655C245.567 7.73561 245.559 7.77511 245.546 7.82627C245.52 7.92969 245.477 8.06587 245.412 8.23933C244.87 9.69526 243.152 12.8054 239.546 18.2818C232.371 29.1775 217.925 49.1429 191.21 83.3318L192.786 84.5633C219.509 50.3643 233.995 30.3473 241.216 19.3818C244.807 13.9276 246.653 10.6374 247.287 8.93772C247.443 8.51791 247.562 8.1027 247.576 7.73641C247.583 7.55333 247.568 7.28966 247.439 7.02619C247.29 6.71949 247.018 6.48121 246.664 6.38993C246.36 6.31159 246.089 6.3651 245.917 6.41684C245.734 6.47187 245.565 6.55537 245.419 6.63983C245.127 6.80904 244.814 7.0502 244.498 7.32499L245.811 8.83368Z" fill="#4ACFFF"/>
<path d="M246.057 16.2098C245.934 16.7482 246.271 17.2844 246.81 17.4073C247.348 17.5302 247.884 17.1934 248.007 16.655L246.057 16.2098ZM251.416 109.644C251.804 110.036 252.437 110.04 252.83 109.651L259.226 103.32C259.619 102.931 259.622 102.298 259.233 101.906C258.845 101.513 258.212 101.51 257.819 101.898L252.133 107.526L246.505 101.841C246.117 101.448 245.484 101.445 245.091 101.833C244.699 102.222 244.696 102.855 245.084 103.248L251.416 109.644ZM248.007 16.655C248.087 16.3044 248.166 16.0688 248.231 15.9314C248.325 15.7295 248.299 15.9189 248.026 16.0224C247.838 16.0937 247.635 16.0827 247.472 16.0138C247.338 15.9572 247.282 15.884 247.291 15.8941C247.313 15.9216 247.407 16.065 247.54 16.4337C248.068 17.8985 248.696 21.3907 249.274 27.9266C250.423 40.9221 251.347 65.5436 251.126 108.935L253.126 108.946C253.347 65.5391 252.424 40.8418 251.266 27.7504C250.69 21.2429 250.05 17.4997 249.422 15.7561C249.266 15.3227 249.078 14.9156 248.829 14.6166C248.702 14.4635 248.514 14.283 248.25 14.1715C247.957 14.0477 247.627 14.0345 247.317 14.1524C246.797 14.3493 246.539 14.828 246.419 15.0837C246.269 15.404 246.152 15.7941 246.057 16.2098L248.007 16.655Z" fill="#4ACFFF"/>
<circle cx="224.923" cy="40.9225" r="3" transform="rotate(-74.5195 224.923 40.9225)" fill="#FFFDFD" stroke="#4ACFFF" stroke-width="2"/>
<circle cx="250.923" cy="42.9225" r="3" transform="rotate(-74.5195 250.923 42.9225)" fill="#FFFDFD" stroke="#4ACFFF" stroke-width="2"/>
<rect x="171.5" y="4.5" width="164" height="32" rx="16" fill="#F97C08" stroke="black" stroke-width="3"/>
<path d="M238.081 26.6731C237.334 26.6731 236.694 26.5709 236.161 26.3665C235.627 26.162 235.187 25.8909 234.841 25.5531C234.494 25.2065 234.232 24.8154 234.054 24.3798C233.876 23.9443 233.774 23.4998 233.747 23.0465H235.507C235.534 23.402 235.645 23.7487 235.841 24.0865C236.036 24.4243 236.325 24.6998 236.707 24.9131C237.089 25.1265 237.569 25.2331 238.147 25.2331C238.769 25.2331 239.245 25.0998 239.574 24.8331C239.912 24.5665 240.081 24.2065 240.081 23.7531C240.081 23.3176 239.925 22.9754 239.614 22.7265C239.312 22.4687 238.921 22.2598 238.441 22.0998L237.187 21.6865C236.689 21.5176 236.214 21.3176 235.761 21.0865C235.316 20.8554 234.947 20.5531 234.654 20.1798C234.369 19.7976 234.227 19.3043 234.227 18.6998C234.227 18.0954 234.374 17.5843 234.667 17.1665C234.969 16.7487 235.387 16.4287 235.921 16.2065C236.454 15.9843 237.067 15.8731 237.761 15.8731C238.632 15.8731 239.329 16.0243 239.854 16.3265C240.387 16.6287 240.778 17.0154 241.027 17.4865C241.285 17.9576 241.436 18.4643 241.481 19.0065H239.721C239.694 18.722 239.609 18.4509 239.467 18.1931C239.334 17.9265 239.125 17.7131 238.841 17.5531C238.556 17.3843 238.174 17.2998 237.694 17.2998C237.161 17.2998 236.747 17.4154 236.454 17.6465C236.169 17.8776 236.027 18.1798 236.027 18.5531C236.027 18.9709 236.187 19.2998 236.507 19.5398C236.827 19.7709 237.227 19.9665 237.707 20.1265L238.974 20.5398C239.472 20.6998 239.938 20.8998 240.374 21.1398C240.818 21.3709 241.178 21.682 241.454 22.0731C241.738 22.4554 241.881 22.9665 241.881 23.6065C241.881 24.5665 241.543 25.3176 240.867 25.8598C240.192 26.402 239.263 26.6731 238.081 26.6731ZM243.564 26.4731V15.8065H245.35V21.6331H245.99L248.417 18.4731H250.364V18.5531L247.484 22.2198L250.684 26.3931V26.4731H248.55L245.99 23.0465H245.35V26.4731H243.564ZM251.957 26.4731V18.4731H253.757V26.4731H251.957ZM252.863 17.4598C252.534 17.4598 252.281 17.3709 252.103 17.1931C251.925 17.0065 251.837 16.7665 251.837 16.4731C251.837 16.1798 251.925 15.9443 252.103 15.7665C252.281 15.5798 252.534 15.4865 252.863 15.4865C253.201 15.4865 253.454 15.5798 253.623 15.7665C253.801 15.9443 253.89 16.1798 253.89 16.4731C253.89 16.7665 253.801 17.0065 253.623 17.1931C253.454 17.3709 253.201 17.4598 252.863 17.4598ZM256.507 26.4731C256.285 26.2065 256.116 25.8998 256.001 25.5531C255.894 25.2065 255.841 24.7176 255.841 24.0865V15.8065H257.654V23.8731C257.654 24.5665 257.73 25.0998 257.881 25.4731C258.032 25.8376 258.227 26.1443 258.467 26.3931V26.4731H256.507ZM260.461 26.4731C260.238 26.2065 260.069 25.8998 259.954 25.5531C259.847 25.2065 259.794 24.7176 259.794 24.0865V15.8065H261.607V23.8731C261.607 24.5665 261.683 25.0998 261.834 25.4731C261.985 25.8376 262.181 26.1443 262.421 26.3931V26.4731H260.461ZM266.6 26.6731C265.783 26.6731 265.12 26.5398 264.614 26.2731C264.116 25.9976 263.743 25.6465 263.494 25.2198C263.254 24.7931 263.12 24.3576 263.094 23.9131H264.827C264.863 24.162 264.951 24.3976 265.094 24.6198C265.245 24.842 265.449 25.0198 265.707 25.1531C265.965 25.2865 266.289 25.3531 266.68 25.3531C267.125 25.3531 267.458 25.2687 267.68 25.0998C267.903 24.922 268.014 24.6909 268.014 24.4065C268.014 24.1665 267.92 23.962 267.734 23.7931C267.547 23.6154 267.254 23.4554 266.854 23.3131L265.894 22.9931C265.449 22.8331 265.04 22.6598 264.667 22.4731C264.303 22.2776 264.009 22.0331 263.787 21.7398C263.574 21.4376 263.467 21.0554 263.467 20.5931C263.467 19.8998 263.725 19.3398 264.24 18.9131C264.756 18.4865 265.476 18.2731 266.4 18.2731C267.067 18.2731 267.614 18.3843 268.04 18.6065C268.476 18.8198 268.805 19.1131 269.027 19.4865C269.249 19.8509 269.378 20.2598 269.414 20.7131H267.747C267.703 20.3843 267.565 20.1087 267.334 19.8865C267.111 19.6643 266.778 19.5531 266.334 19.5531C265.951 19.5531 265.658 19.6331 265.454 19.7931C265.258 19.9531 265.16 20.1665 265.16 20.4331C265.16 20.6998 265.258 20.922 265.454 21.0998C265.658 21.2687 265.965 21.4243 266.374 21.5665L267.32 21.8731C267.765 22.0243 268.169 22.1976 268.534 22.3931C268.898 22.5798 269.183 22.8243 269.387 23.1265C269.6 23.4198 269.707 23.7976 269.707 24.2598C269.707 24.9798 269.44 25.562 268.907 26.0065C268.383 26.4509 267.614 26.6731 266.6 26.6731Z" fill="black"/>
<path d="M343.616 42.9624C343.639 42.9953 343.655 43.0301 343.665 43.0671C343.665 43.0844 343.663 43.1105 343.651 43.145L343.646 43.1584L343.641 43.1719C343.622 43.2278 343.588 43.292 343.531 43.3564L341.495 45.2223L341.495 45.2222L341.485 45.2312C341.401 45.31 341.286 45.3772 341.15 45.4182L341.15 45.4182L341.141 45.421C341.055 45.4476 340.968 45.4629 340.884 45.468C340.65 45.4742 340.48 45.4039 340.388 45.3364L334.699 40.9689L333.249 39.855L332.405 41.2855L329.227 46.6743C329.164 46.7736 329.054 46.8762 328.895 46.9498C328.738 47.0228 328.563 47.0533 328.399 47.0435C328.24 47.0258 328.123 46.9746 328.048 46.9232C327.975 46.8725 327.942 46.8215 327.927 46.7813L327.916 46.7529L327.904 46.7248L319.834 27.7156C319.816 27.6671 319.806 27.6061 319.819 27.532C319.834 27.4728 319.875 27.3911 319.964 27.3087L319.972 27.3015L319.979 27.2942C320.075 27.203 320.208 27.1267 320.366 27.0842C320.518 27.0434 320.668 27.0404 320.797 27.0639L343.988 32.3286C344.125 32.3632 344.22 32.4202 344.278 32.4722L344.282 32.4754C344.324 32.5132 344.346 32.5515 344.357 32.5938C344.364 32.632 344.364 32.6908 344.333 32.766C344.29 32.8504 344.218 32.9394 344.114 33.0192L337.906 36.1332L335.957 37.1105L337.797 38.5168L343.457 42.8445L343.512 42.8869L343.571 42.9248C343.603 42.9456 343.614 42.9602 343.614 42.9603L343.616 42.9624Z" fill="black" stroke="black" stroke-width="3"/>
</svg>
