<svg width="33" height="33" viewBox="0 0 33 33" fill="none" xmlns="http://www.w3.org/2000/svg">
<path d="M30.074 14.7803H22.9547C22.5318 14.7801 22.1197 14.9343 21.7777 15.2208C21.4358 15.5073 21.1816 15.9113 21.0518 16.3746C20.7118 17.5972 20.0427 18.6636 19.1413 19.4195C18.2399 20.1754 17.1529 20.5817 16.0377 20.5795C14.9223 20.5819 13.8353 20.1756 12.9339 19.4197C12.0324 18.6637 11.3634 17.5973 11.0235 16.3746C10.8935 15.9112 10.6392 15.5072 10.2971 15.2207C9.95505 14.9342 9.54282 14.78 9.11975 14.7803H2.00054C1.73781 14.7802 1.47764 14.8397 1.2349 14.9554C0.992162 15.0711 0.771603 15.2407 0.585825 15.4545C0.400047 15.6684 0.25269 15.9222 0.152173 16.2016C0.0516553 16.481 -5.33861e-05 16.7804 4.13601e-08 17.0828V30.2148C0.000323446 30.8253 0.211224 31.4107 0.586351 31.8422C0.961477 32.2738 1.47014 32.5163 2.00054 32.5165H30.074C30.3366 32.5165 30.5967 32.457 30.8394 32.3414C31.0821 32.2258 31.3026 32.0562 31.4884 31.8425C31.6742 31.6288 31.8215 31.375 31.9221 31.0958C32.0227 30.8165 32.0744 30.5171 32.0745 30.2148V17.0828C32.0745 15.8101 31.1798 14.7803 30.074 14.7803Z" fill="white"/>
<path d="M15.5737 15.5491C15.6846 15.6845 15.8661 15.7655 16.0571 15.7655H16.0584C16.2507 15.7655 16.4295 15.6845 16.5418 15.5472L22.6534 8.06136C22.7163 7.98371 22.7535 7.89257 22.7611 7.79781C22.7687 7.70304 22.7464 7.60827 22.6966 7.52378C22.6466 7.43918 22.5708 7.36824 22.4775 7.31881C22.3842 7.26937 22.277 7.24336 22.1678 7.24364H19.293V0.5188C19.293 0.23123 19.0266 0 18.6987 0H13.3768C13.048 0 12.7825 0.23123 12.7825 0.5188V7.24364H9.90545C9.79641 7.24378 9.68952 7.27004 9.59647 7.31955C9.50342 7.36906 9.42781 7.4399 9.37789 7.52433C9.32798 7.60876 9.3057 7.70352 9.31349 7.79824C9.32128 7.89296 9.35884 7.98398 9.42205 8.06136L15.5737 15.5491Z" fill="white"/>
</svg>
