<svg width="33" height="38" viewBox="0 0 33 38" fill="none" xmlns="http://www.w3.org/2000/svg">
<path d="M30.5349 15.2515H23.4157C22.9927 15.2513 22.5806 15.4055 22.2387 15.692C21.8967 15.9785 21.6425 16.3825 21.5127 16.8458C21.1728 18.0684 20.5037 19.1348 19.6023 19.8907C18.7009 20.6466 17.6139 21.0529 16.4986 21.0507C15.3833 21.053 14.2962 20.6468 13.3948 19.8909C12.4934 19.1349 11.8243 18.0685 11.4844 16.8458C11.3545 16.3824 11.1002 15.9784 10.7581 15.6919C10.416 15.4054 10.0038 15.2512 9.58069 15.2515H2.46148C2.19875 15.2514 1.93858 15.3109 1.69584 15.4266C1.4531 15.5423 1.23254 15.7119 1.04676 15.9257C0.860985 16.1396 0.713628 16.3934 0.61311 16.6728C0.512593 16.9522 0.460884 17.2516 0.460938 17.554V30.686C0.461261 31.2965 0.672161 31.8818 1.04729 32.3134C1.42241 32.745 1.93107 32.9875 2.46148 32.9876H30.5349C30.7976 32.9877 31.0577 32.9282 31.3003 32.8126C31.543 32.697 31.7636 32.5274 31.9493 32.3137C32.1351 32.1 32.2825 31.8462 32.383 31.567C32.4836 31.2877 32.5354 30.9883 32.5354 30.686V17.554C32.5354 16.2813 31.6407 15.2515 30.5349 15.2515Z" fill="white"/>
<path d="M16.0346 16.0203C16.1456 16.1557 16.3271 16.2367 16.518 16.2367H16.5193C16.7116 16.2367 16.8904 16.1557 17.0027 16.0184L23.1144 8.53255C23.1772 8.45491 23.2145 8.36376 23.2221 8.269C23.2297 8.17423 23.2073 8.07947 23.1575 7.99497C23.1076 7.91037 23.0318 7.83944 22.9384 7.79C22.8451 7.74056 22.7379 7.71455 22.6287 7.71483H19.754V0.989992C19.754 0.702421 19.4876 0.471191 19.1596 0.471191H13.8378C13.5089 0.471191 13.2434 0.702421 13.2434 0.989992V7.71483H10.3664C10.2574 7.71497 10.1505 7.74123 10.0574 7.79074C9.96437 7.84025 9.88875 7.91109 9.83884 7.99552C9.78893 8.07995 9.76665 8.17471 9.77444 8.26943C9.78222 8.36415 9.81978 8.45517 9.883 8.53255L16.0346 16.0203Z" fill="white"/>
<path d="M16.3229 25.4209H13.9898C13.9471 25.1191 13.8601 24.8509 13.7288 24.6166C13.5974 24.3786 13.4287 24.1762 13.2227 24.0093C13.0168 23.8424 12.7788 23.7146 12.5089 23.6258C12.2426 23.537 11.9532 23.4926 11.6407 23.4926C11.0761 23.4926 10.5842 23.6329 10.1652 23.9134C9.74616 24.1904 9.42123 24.5953 9.1904 25.1279C8.95958 25.657 8.84417 26.2998 8.84417 27.0562C8.84417 27.8339 8.95958 28.4873 9.1904 29.0164C9.42478 29.5455 9.75148 29.945 10.1705 30.2149C10.5896 30.4848 11.0743 30.6198 11.6247 30.6198C11.9337 30.6198 12.2195 30.5789 12.4823 30.4972C12.7486 30.4156 12.9848 30.2966 13.1908 30.1404C13.3967 29.9806 13.5672 29.787 13.7021 29.5597C13.8406 29.3325 13.9365 29.0732 13.9898 28.782L16.3229 28.7927C16.2625 29.2934 16.1116 29.7764 15.8701 30.2416C15.6322 30.7032 15.3108 31.1169 14.906 31.4827C14.5047 31.8449 14.0253 32.1325 13.4677 32.3456C12.9138 32.5551 12.287 32.6599 11.5874 32.6599C10.6144 32.6599 9.74438 32.4397 8.97733 31.9994C8.21384 31.559 7.61015 30.9216 7.16625 30.0871C6.72591 29.2526 6.50574 28.2423 6.50574 27.0562C6.50574 25.8666 6.72947 24.8545 7.17691 24.02C7.62435 23.1855 8.2316 22.5498 8.99864 22.113C9.76569 21.6727 10.6286 21.4525 11.5874 21.4525C12.2195 21.4525 12.8055 21.5413 13.3452 21.7188C13.8886 21.8964 14.3697 22.1556 14.7888 22.4965C15.2078 22.8339 15.5487 23.2476 15.8115 23.7377C16.0778 24.2277 16.2483 24.7888 16.3229 25.4209ZM19.9477 21.6017L22.5844 29.89H22.6856L25.3277 21.6017H27.8845L24.1238 32.5107H21.1515L17.3855 21.6017H19.9477Z" fill="#9747FF"/>
</svg>
