<?xml version="1.0" encoding="UTF-8"?>
<svg id="Layer_1" data-name="Layer 1" xmlns="http://www.w3.org/2000/svg" version="1.1" viewBox="0 0 63 59">
  <defs>
    <style>
      .cls-1 {
        fill: none;
        stroke: #000;
        stroke-linecap: round;
        stroke-linejoin: round;
        stroke-width: 6px;
      }
    </style>
  </defs>
  <path class="cls-1" d="M39.64,3v11.78c0,.78.43,1.53,1.19,2.08.76.55,1.8.86,2.88.86h16.29"/>
  <path class="cls-1" d="M51.86,56H11.14c-2.16,0-4.23-.62-5.76-1.72-1.53-1.1-2.38-2.6-2.38-4.16V8.89c0-1.56.86-3.06,2.38-4.16,1.53-1.1,3.6-1.72,5.76-1.72h28.5l20.36,14.72v32.39c0,1.56-.86,3.06-2.38,4.16-1.53,1.1-3.6,1.72-5.76,1.72Z"/>
  <path class="cls-1" d="M27.43,30.97c0-1.17-.64-2.29-1.79-3.12-1.15-.83-2.7-1.29-4.32-1.29s-3.17.47-4.32,1.29c-1.15.83-1.79,1.95-1.79,3.12v8.83c0,1.17.64,2.29,1.79,3.12s2.7,1.29,4.32,1.29,3.17-.47,4.32-1.29c1.15-.83,1.79-1.95,1.79-3.12M35.57,26.56l6.11,17.67,6.11-17.67"/>
</svg>