<svg width="646" height="297" viewBox="0 0 646 297" fill="none" xmlns="http://www.w3.org/2000/svg">
<rect x="192" y="243" width="147" height="46" rx="18" fill="#DADADA" stroke="black" stroke-width="4"/>
<path d="M212.044 274V262.883H207.961V261H218.461V262.883H214.378V274H212.044ZM223.302 274.25C221.78 274.25 220.619 273.778 219.819 272.833C219.019 271.878 218.619 270.594 218.619 268.983C218.619 267.917 218.797 266.994 219.152 266.217C219.508 265.439 220.03 264.833 220.719 264.4C221.419 263.967 222.269 263.75 223.269 263.75C224.702 263.75 225.797 264.2 226.552 265.1C227.308 265.989 227.685 267.294 227.685 269.017V269.55H220.819C220.874 270.461 221.108 271.194 221.519 271.75C221.941 272.306 222.535 272.583 223.302 272.583C223.88 272.583 224.341 272.417 224.685 272.083C225.041 271.75 225.285 271.322 225.419 270.8H227.569C227.447 271.444 227.213 272.028 226.869 272.55C226.535 273.061 226.074 273.472 225.485 273.783C224.897 274.094 224.169 274.25 223.302 274.25ZM220.835 268.05H225.485C225.441 267.194 225.224 266.533 224.835 266.067C224.458 265.6 223.93 265.367 223.252 265.367C222.552 265.367 221.997 265.594 221.585 266.05C221.174 266.506 220.924 267.172 220.835 268.05ZM233.517 274.25C232.017 274.25 230.879 273.778 230.101 272.833C229.334 271.878 228.951 270.6 228.951 269C228.951 267.344 229.351 266.056 230.151 265.133C230.962 264.211 232.09 263.75 233.534 263.75C234.779 263.75 235.767 264.089 236.501 264.767C237.234 265.444 237.679 266.383 237.834 267.583H235.617C235.529 266.906 235.306 266.378 234.951 266C234.606 265.622 234.145 265.433 233.567 265.433C232.801 265.433 232.229 265.75 231.851 266.383C231.473 267.006 231.284 267.878 231.284 269C231.284 270.122 231.473 271 231.851 271.633C232.229 272.256 232.795 272.567 233.551 272.567C234.14 272.567 234.606 272.378 234.951 272C235.306 271.622 235.529 271.094 235.617 270.417H237.834C237.667 271.617 237.212 272.556 236.467 273.233C235.734 273.911 234.751 274.25 233.517 274.25ZM239.712 274V260.667H241.962V265.25H242.362C242.596 264.794 242.918 264.433 243.329 264.167C243.74 263.889 244.279 263.75 244.946 263.75C246.079 263.75 246.912 264.106 247.446 264.817C247.99 265.517 248.262 266.45 248.262 267.617V274H246.012V268.033C246.012 267.256 245.873 266.661 245.596 266.25C245.318 265.828 244.879 265.617 244.279 265.617C243.546 265.617 242.973 265.906 242.562 266.483C242.162 267.05 241.962 267.756 241.962 268.6V274H239.712ZM250.786 274V264H252.836V265.5H253.236C253.436 264.978 253.753 264.556 254.186 264.233C254.631 263.911 255.236 263.75 256.003 263.75C257.148 263.75 257.986 264.106 258.52 264.817C259.064 265.517 259.336 266.45 259.336 267.617V274H257.086V268.033C257.086 267.256 256.948 266.661 256.67 266.25C256.392 265.828 255.953 265.617 255.353 265.617C254.62 265.617 254.048 265.906 253.636 266.483C253.236 267.05 253.036 267.756 253.036 268.6V274H250.786ZM265.894 274.25C264.316 274.25 263.133 273.778 262.344 272.833C261.566 271.878 261.177 270.6 261.177 269C261.177 267.4 261.566 266.128 262.344 265.183C263.133 264.228 264.316 263.75 265.894 263.75C267.494 263.75 268.683 264.228 269.461 265.183C270.238 266.128 270.627 267.4 270.627 269C270.627 270.6 270.238 271.878 269.461 272.833C268.683 273.778 267.494 274.25 265.894 274.25ZM265.911 272.617C266.733 272.617 267.333 272.306 267.711 271.683C268.1 271.05 268.294 270.156 268.294 269C268.294 267.844 268.1 266.956 267.711 266.333C267.333 265.7 266.733 265.383 265.911 265.383C265.077 265.383 264.466 265.7 264.077 266.333C263.7 266.956 263.511 267.844 263.511 269C263.511 270.156 263.7 271.05 264.077 271.683C264.466 272.306 265.077 272.617 265.911 272.617ZM273.37 274C273.092 273.667 272.881 273.283 272.736 272.85C272.603 272.417 272.536 271.806 272.536 271.017V260.667H274.803V270.75C274.803 271.617 274.897 272.283 275.086 272.75C275.275 273.206 275.52 273.589 275.82 273.9V274H273.37ZM281.578 274.25C280 274.25 278.816 273.778 278.028 272.833C277.25 271.878 276.861 270.6 276.861 269C276.861 267.4 277.25 266.128 278.028 265.183C278.816 264.228 280 263.75 281.578 263.75C283.178 263.75 284.366 264.228 285.144 265.183C285.922 266.128 286.311 267.4 286.311 269C286.311 270.6 285.922 271.878 285.144 272.833C284.366 273.778 283.178 274.25 281.578 274.25ZM281.594 272.617C282.416 272.617 283.016 272.306 283.394 271.683C283.783 271.05 283.978 270.156 283.978 269C283.978 267.844 283.783 266.956 283.394 266.333C283.016 265.7 282.416 265.383 281.594 265.383C280.761 265.383 280.15 265.7 279.761 266.333C279.383 266.956 279.194 267.844 279.194 269C279.194 270.156 279.383 271.05 279.761 271.683C280.15 272.306 280.761 272.617 281.594 272.617ZM292.286 277.583C291.464 277.583 290.786 277.478 290.253 277.267C289.72 277.067 289.298 276.806 288.986 276.483C288.686 276.172 288.464 275.844 288.32 275.5C288.186 275.156 288.103 274.839 288.07 274.55H290.286C290.353 274.894 290.536 275.206 290.836 275.483C291.148 275.772 291.642 275.917 292.32 275.917C293.053 275.917 293.614 275.706 294.003 275.283C294.403 274.861 294.603 274.217 294.603 273.35V272.2H294.203C294.036 272.656 293.736 273.028 293.303 273.317C292.881 273.594 292.314 273.733 291.603 273.733C290.336 273.733 289.353 273.283 288.653 272.383C287.953 271.483 287.603 270.261 287.603 268.717C287.603 267.728 287.759 266.861 288.07 266.117C288.381 265.372 288.831 264.794 289.42 264.383C290.02 263.961 290.753 263.75 291.62 263.75C292.342 263.75 292.909 263.894 293.32 264.183C293.742 264.461 294.053 264.817 294.253 265.25H294.653V264H296.703V273.35C296.703 274.706 296.331 275.75 295.586 276.483C294.853 277.217 293.753 277.583 292.286 277.583ZM292.086 272.033C292.842 272.033 293.425 271.733 293.836 271.133C294.259 270.522 294.47 269.722 294.47 268.733C294.47 267.744 294.259 266.95 293.836 266.35C293.425 265.75 292.848 265.45 292.103 265.45C291.403 265.45 290.859 265.733 290.47 266.3C290.081 266.856 289.886 267.667 289.886 268.733C289.886 269.822 290.081 270.644 290.47 271.2C290.859 271.756 291.398 272.033 292.086 272.033ZM299.361 274V264H301.611V274H299.361ZM300.494 262.733C300.083 262.733 299.766 262.622 299.544 262.4C299.322 262.167 299.211 261.867 299.211 261.5C299.211 261.133 299.322 260.839 299.544 260.617C299.766 260.383 300.083 260.267 300.494 260.267C300.916 260.267 301.233 260.383 301.444 260.617C301.666 260.839 301.777 261.133 301.777 261.5C301.777 261.867 301.666 262.167 301.444 262.4C301.233 262.622 300.916 262.733 300.494 262.733ZM308.283 274.25C306.76 274.25 305.599 273.778 304.799 272.833C303.999 271.878 303.599 270.594 303.599 268.983C303.599 267.917 303.777 266.994 304.133 266.217C304.488 265.439 305.01 264.833 305.699 264.4C306.399 263.967 307.249 263.75 308.249 263.75C309.683 263.75 310.777 264.2 311.533 265.1C312.288 265.989 312.666 267.294 312.666 269.017V269.55H305.799C305.855 270.461 306.088 271.194 306.499 271.75C306.921 272.306 307.516 272.583 308.283 272.583C308.86 272.583 309.321 272.417 309.666 272.083C310.021 271.75 310.266 271.322 310.399 270.8H312.549C312.427 271.444 312.194 272.028 311.849 272.55C311.516 273.061 311.055 273.472 310.466 273.783C309.877 274.094 309.149 274.25 308.283 274.25ZM305.816 268.05H310.466C310.421 267.194 310.205 266.533 309.816 266.067C309.438 265.6 308.91 265.367 308.233 265.367C307.533 265.367 306.977 265.594 306.566 266.05C306.155 266.506 305.905 267.172 305.816 268.05ZM318.115 274.25C317.092 274.25 316.265 274.083 315.631 273.75C315.009 273.406 314.542 272.967 314.231 272.433C313.931 271.9 313.765 271.356 313.731 270.8H315.898C315.942 271.111 316.053 271.406 316.231 271.683C316.42 271.961 316.676 272.183 316.998 272.35C317.32 272.517 317.726 272.6 318.215 272.6C318.77 272.6 319.187 272.494 319.465 272.283C319.742 272.061 319.881 271.772 319.881 271.417C319.881 271.117 319.765 270.861 319.531 270.65C319.298 270.428 318.931 270.228 318.431 270.05L317.231 269.65C316.676 269.45 316.165 269.233 315.698 269C315.242 268.756 314.876 268.45 314.598 268.083C314.331 267.706 314.198 267.228 314.198 266.65C314.198 265.783 314.52 265.083 315.165 264.55C315.809 264.017 316.709 263.75 317.865 263.75C318.698 263.75 319.381 263.889 319.915 264.167C320.459 264.433 320.87 264.8 321.148 265.267C321.426 265.722 321.587 266.233 321.631 266.8H319.548C319.492 266.389 319.32 266.044 319.031 265.767C318.753 265.489 318.337 265.35 317.781 265.35C317.303 265.35 316.937 265.45 316.681 265.65C316.437 265.85 316.315 266.117 316.315 266.45C316.315 266.783 316.437 267.061 316.681 267.283C316.937 267.494 317.32 267.689 317.831 267.867L319.015 268.25C319.57 268.439 320.076 268.656 320.531 268.9C320.987 269.133 321.342 269.439 321.598 269.817C321.865 270.183 321.998 270.656 321.998 271.233C321.998 272.133 321.665 272.861 320.998 273.417C320.342 273.972 319.381 274.25 318.115 274.25Z" fill="black"/>
<rect x="189.495" y="238.794" width="152.69" height="51.9621" stroke="#9747FF" stroke-width="3"/>
<rect x="184.5" y="234.5" width="5.32568" height="5.58784" fill="white" stroke="#9747FF" stroke-width="3"/>
<rect x="341.023" y="234.5" width="5.32568" height="5.58784" fill="white" stroke="#9747FF" stroke-width="3"/>
<rect x="341.023" y="289.462" width="5.32568" height="5.58784" fill="white" stroke="#9747FF" stroke-width="3"/>
<rect x="184.5" y="289.462" width="5.32568" height="5.58784" fill="white" stroke="#9747FF" stroke-width="3"/>
<rect x="46" y="87" width="147" height="46.5" rx="18" fill="#D9D9D9" stroke="black" stroke-width="4"/>
<path d="M74.6333 118.15V105.15H79.8167C80.9278 105.15 81.8222 105.311 82.5 105.633C83.1778 105.944 83.6722 106.367 83.9833 106.9C84.3056 107.433 84.4667 108.044 84.4667 108.733C84.4667 109.567 84.2389 110.278 83.7833 110.867C83.3278 111.455 82.6611 111.867 81.7833 112.1L84.8167 118.05V118.15H82.35L79.5 112.433H76.9333V118.15H74.6333ZM76.9333 110.683H79.5667C80.4222 110.683 81.0556 110.533 81.4667 110.233C81.8778 109.933 82.0833 109.461 82.0833 108.817C82.0833 108.161 81.8722 107.689 81.45 107.4C81.0389 107.1 80.4111 106.95 79.5667 106.95H76.9333V110.683ZM90.4974 118.4C88.9752 118.4 87.8141 117.928 87.0141 116.983C86.2141 116.028 85.8141 114.744 85.8141 113.133C85.8141 112.067 85.9918 111.144 86.3474 110.367C86.703 109.589 87.2252 108.983 87.9141 108.55C88.6141 108.117 89.4641 107.9 90.4641 107.9C91.8974 107.9 92.9918 108.35 93.7474 109.25C94.503 110.139 94.8807 111.444 94.8807 113.167V113.7H88.0141C88.0696 114.611 88.303 115.344 88.7141 115.9C89.1363 116.455 89.7307 116.733 90.4974 116.733C91.0752 116.733 91.5363 116.567 91.8807 116.233C92.2363 115.9 92.4807 115.472 92.6141 114.95H94.7641C94.6418 115.594 94.4085 116.178 94.0641 116.7C93.7307 117.211 93.2696 117.622 92.6807 117.933C92.0918 118.244 91.3641 118.4 90.4974 118.4ZM88.0307 112.2H92.6807C92.6363 111.344 92.4196 110.683 92.0307 110.217C91.653 109.75 91.1252 109.517 90.4474 109.517C89.7474 109.517 89.1918 109.744 88.7807 110.2C88.3696 110.655 88.1196 111.322 88.0307 112.2ZM100.329 118.4C99.3072 118.4 98.4794 118.233 97.8461 117.9C97.2239 117.555 96.7572 117.117 96.4461 116.583C96.1461 116.05 95.9794 115.505 95.9461 114.95H98.1128C98.1572 115.261 98.2683 115.555 98.4461 115.833C98.635 116.111 98.8905 116.333 99.2128 116.5C99.535 116.667 99.9405 116.75 100.429 116.75C100.985 116.75 101.402 116.644 101.679 116.433C101.957 116.211 102.096 115.922 102.096 115.567C102.096 115.267 101.979 115.011 101.746 114.8C101.513 114.578 101.146 114.378 100.646 114.2L99.4461 113.8C98.8905 113.6 98.3794 113.383 97.9128 113.15C97.4572 112.905 97.0905 112.6 96.8128 112.233C96.5461 111.855 96.4128 111.378 96.4128 110.8C96.4128 109.933 96.735 109.233 97.3794 108.7C98.0239 108.167 98.9239 107.9 100.079 107.9C100.913 107.9 101.596 108.039 102.129 108.317C102.674 108.583 103.085 108.95 103.363 109.417C103.641 109.872 103.802 110.383 103.846 110.95H101.763C101.707 110.539 101.535 110.194 101.246 109.917C100.968 109.639 100.552 109.5 99.9961 109.5C99.5183 109.5 99.1516 109.6 98.8961 109.8C98.6516 110 98.5294 110.267 98.5294 110.6C98.5294 110.933 98.6516 111.211 98.8961 111.433C99.1516 111.644 99.535 111.839 100.046 112.017L101.229 112.4C101.785 112.589 102.291 112.805 102.746 113.05C103.202 113.283 103.557 113.589 103.813 113.967C104.079 114.333 104.213 114.805 104.213 115.383C104.213 116.283 103.879 117.011 103.213 117.567C102.557 118.122 101.596 118.4 100.329 118.4ZM110.087 118.4C108.565 118.4 107.404 117.928 106.604 116.983C105.804 116.028 105.404 114.744 105.404 113.133C105.404 112.067 105.582 111.144 105.937 110.367C106.293 109.589 106.815 108.983 107.504 108.55C108.204 108.117 109.054 107.9 110.054 107.9C111.487 107.9 112.582 108.35 113.337 109.25C114.093 110.139 114.471 111.444 114.471 113.167V113.7H107.604C107.659 114.611 107.893 115.344 108.304 115.9C108.726 116.455 109.321 116.733 110.087 116.733C110.665 116.733 111.126 116.567 111.471 116.233C111.826 115.9 112.071 115.472 112.204 114.95H114.354C114.232 115.594 113.998 116.178 113.654 116.7C113.321 117.211 112.859 117.622 112.271 117.933C111.682 118.244 110.954 118.4 110.087 118.4ZM107.621 112.2H112.271C112.226 111.344 112.009 110.683 111.621 110.217C111.243 109.75 110.715 109.517 110.037 109.517C109.337 109.517 108.782 109.744 108.371 110.2C107.959 110.655 107.709 111.322 107.621 112.2ZM119.786 118.367C118.897 118.367 118.153 118.15 117.553 117.717C116.953 117.272 116.497 116.655 116.186 115.867C115.886 115.078 115.736 114.167 115.736 113.133C115.736 112.089 115.886 111.178 116.186 110.4C116.497 109.622 116.953 109.017 117.553 108.583C118.164 108.15 118.914 107.933 119.803 107.933C120.525 107.933 121.108 108.078 121.553 108.367C122.008 108.655 122.341 109.017 122.553 109.45H122.953V108.15H125.003V118.15H122.953V116.85H122.553C122.341 117.261 122.008 117.617 121.553 117.917C121.108 118.217 120.519 118.367 119.786 118.367ZM120.303 116.667C121.058 116.667 121.658 116.35 122.103 115.717C122.547 115.072 122.769 114.217 122.769 113.15C122.769 112.083 122.547 111.233 122.103 110.6C121.658 109.955 121.058 109.633 120.303 109.633C119.591 109.633 119.041 109.933 118.653 110.533C118.264 111.133 118.069 112.005 118.069 113.15C118.069 114.294 118.264 115.167 118.653 115.767C119.041 116.367 119.591 116.667 120.303 116.667ZM127.669 118.15V108.15H129.703V109.917H130.103C130.169 109.617 130.291 109.322 130.469 109.033C130.647 108.744 130.919 108.511 131.286 108.333C131.664 108.144 132.175 108.05 132.819 108.05H133.253V110.117H132.636C131.669 110.117 130.975 110.367 130.553 110.867C130.13 111.367 129.919 112.128 129.919 113.15V118.15H127.669ZM138.564 118.4C137.064 118.4 135.925 117.928 135.148 116.983C134.381 116.028 133.998 114.75 133.998 113.15C133.998 111.494 134.398 110.205 135.198 109.283C136.009 108.361 137.137 107.9 138.581 107.9C139.825 107.9 140.814 108.239 141.548 108.917C142.281 109.594 142.725 110.533 142.881 111.733H140.664C140.575 111.055 140.353 110.528 139.998 110.15C139.653 109.772 139.192 109.583 138.614 109.583C137.848 109.583 137.275 109.9 136.898 110.533C136.52 111.155 136.331 112.028 136.331 113.15C136.331 114.272 136.52 115.15 136.898 115.783C137.275 116.405 137.842 116.717 138.598 116.717C139.187 116.717 139.653 116.528 139.998 116.15C140.353 115.772 140.575 115.244 140.664 114.567H142.881C142.714 115.767 142.259 116.705 141.514 117.383C140.781 118.061 139.798 118.4 138.564 118.4ZM144.759 118.15V104.817H147.009V109.4H147.409C147.642 108.944 147.965 108.583 148.376 108.317C148.787 108.039 149.326 107.9 149.992 107.9C151.126 107.9 151.959 108.255 152.492 108.967C153.037 109.667 153.309 110.6 153.309 111.767V118.15H151.059V112.183C151.059 111.405 150.92 110.811 150.642 110.4C150.365 109.978 149.926 109.767 149.326 109.767C148.592 109.767 148.02 110.055 147.609 110.633C147.209 111.2 147.009 111.905 147.009 112.75V118.15H144.759ZM159.2 118.367C158.311 118.367 157.567 118.15 156.967 117.717C156.367 117.272 155.911 116.655 155.6 115.867C155.3 115.078 155.15 114.167 155.15 113.133C155.15 112.089 155.3 111.178 155.6 110.4C155.911 109.622 156.367 109.017 156.967 108.583C157.578 108.15 158.328 107.933 159.217 107.933C159.939 107.933 160.522 108.078 160.967 108.367C161.422 108.655 161.756 109.017 161.967 109.45H162.367V108.15H164.417V118.15H162.367V116.85H161.967C161.756 117.261 161.422 117.617 160.967 117.917C160.522 118.217 159.933 118.367 159.2 118.367ZM159.717 116.667C160.472 116.667 161.072 116.35 161.517 115.717C161.961 115.072 162.183 114.217 162.183 113.15C162.183 112.083 161.961 111.233 161.517 110.6C161.072 109.955 160.472 109.633 159.717 109.633C159.006 109.633 158.456 109.933 158.067 110.533C157.678 111.133 157.483 112.005 157.483 113.15C157.483 114.294 157.678 115.167 158.067 115.767C158.456 116.367 159.006 116.667 159.717 116.667Z" fill="black"/>
<rect x="43.4954" y="84.7939" width="152.69" height="51.9621" stroke="#9747FF" stroke-width="3"/>
<rect x="38.5" y="80.5" width="5.32568" height="5.58784" fill="white" stroke="#9747FF" stroke-width="3"/>
<rect x="195.023" y="80.5" width="5.32568" height="5.58784" fill="white" stroke="#9747FF" stroke-width="3"/>
<rect x="195.023" y="135.462" width="5.32568" height="5.58784" fill="white" stroke="#9747FF" stroke-width="3"/>
<rect x="38.5" y="135.462" width="5.32568" height="5.58784" fill="white" stroke="#9747FF" stroke-width="3"/>
<rect x="10" y="188" width="147" height="46" rx="18" fill="#DADADA" stroke="black" stroke-width="4"/>
<path d="M54.2539 219.25C53.3206 219.25 52.5206 219.122 51.8539 218.867C51.1872 218.611 50.6372 218.272 50.2039 217.85C49.7706 217.417 49.4428 216.928 49.2206 216.383C48.9984 215.839 48.8706 215.283 48.8372 214.717H51.0372C51.0706 215.161 51.2095 215.594 51.4539 216.017C51.6984 216.439 52.0595 216.783 52.5372 217.05C53.015 217.317 53.615 217.45 54.3372 217.45C55.115 217.45 55.7095 217.283 56.1206 216.95C56.5428 216.617 56.7539 216.167 56.7539 215.6C56.7539 215.056 56.5595 214.628 56.1706 214.317C55.7928 213.994 55.3039 213.733 54.7039 213.533L53.1372 213.017C52.515 212.806 51.9206 212.556 51.3539 212.267C50.7984 211.978 50.3372 211.6 49.9706 211.133C49.615 210.656 49.4372 210.039 49.4372 209.283C49.4372 208.528 49.6206 207.889 49.9872 207.367C50.365 206.844 50.8872 206.444 51.5539 206.167C52.2206 205.889 52.9872 205.75 53.8539 205.75C54.9428 205.75 55.815 205.939 56.4706 206.317C57.1372 206.694 57.6261 207.178 57.9372 207.767C58.2595 208.356 58.4484 208.989 58.5039 209.667H56.3039C56.2706 209.311 56.165 208.972 55.9872 208.65C55.8206 208.317 55.5595 208.05 55.2039 207.85C54.8484 207.639 54.3706 207.533 53.7706 207.533C53.1039 207.533 52.5872 207.678 52.2206 207.967C51.865 208.256 51.6872 208.633 51.6872 209.1C51.6872 209.622 51.8872 210.033 52.2872 210.333C52.6872 210.622 53.1872 210.867 53.7872 211.067L55.3706 211.583C55.9928 211.783 56.5761 212.033 57.1206 212.333C57.6761 212.622 58.1261 213.011 58.4706 213.5C58.8261 213.978 59.0039 214.617 59.0039 215.417C59.0039 216.617 58.5817 217.556 57.7372 218.233C56.8928 218.911 55.7317 219.25 54.2539 219.25ZM62.4578 219C62.2023 218.7 61.9967 218.339 61.8411 217.917C61.6967 217.494 61.6245 216.861 61.6245 216.017V210.65H60.2578V209H61.6578V206.5H63.8578V209H65.5078V210.65H63.8745V215.733C63.8745 216.622 63.9689 217.3 64.1578 217.767C64.3578 218.222 64.5967 218.6 64.8745 218.9V219H62.4578ZM67.3411 219V209H69.3745V210.767H69.7745C69.8411 210.467 69.9634 210.172 70.1411 209.883C70.3189 209.594 70.5911 209.361 70.9578 209.183C71.3356 208.994 71.8467 208.9 72.4911 208.9H72.9245V210.967H72.3078C71.3411 210.967 70.6467 211.217 70.2245 211.717C69.8023 212.217 69.5911 212.978 69.5911 214V219H67.3411ZM77.7977 219.217C76.9088 219.217 76.1643 219 75.5643 218.567C74.9643 218.122 74.5088 217.506 74.1977 216.717C73.8977 215.928 73.7477 215.017 73.7477 213.983C73.7477 212.939 73.8977 212.028 74.1977 211.25C74.5088 210.472 74.9643 209.867 75.5643 209.433C76.1754 209 76.9254 208.783 77.8143 208.783C78.5365 208.783 79.1199 208.928 79.5643 209.217C80.0199 209.506 80.3532 209.867 80.5643 210.3H80.9643V209H83.0143V219H80.9643V217.7H80.5643C80.3532 218.111 80.0199 218.467 79.5643 218.767C79.1199 219.067 78.531 219.217 77.7977 219.217ZM78.3143 217.517C79.0699 217.517 79.6699 217.2 80.1143 216.567C80.5588 215.922 80.781 215.067 80.781 214C80.781 212.933 80.5588 212.083 80.1143 211.45C79.6699 210.806 79.0699 210.483 78.3143 210.483C77.6032 210.483 77.0532 210.783 76.6643 211.383C76.2754 211.983 76.081 212.856 76.081 214C76.081 215.144 76.2754 216.017 76.6643 216.617C77.0532 217.217 77.6032 217.517 78.3143 217.517ZM87.0477 219C86.7921 218.7 86.5865 218.339 86.431 217.917C86.2865 217.494 86.2143 216.861 86.2143 216.017V210.65H84.8477V209H86.2477V206.5H88.4477V209H90.0977V210.65H88.4643V215.733C88.4643 216.622 88.5588 217.3 88.7477 217.767C88.9477 218.222 89.1865 218.6 89.4643 218.9V219H87.0477ZM95.931 219.25C94.4088 219.25 93.2477 218.778 92.4477 217.833C91.6477 216.878 91.2477 215.594 91.2477 213.983C91.2477 212.917 91.4254 211.994 91.781 211.217C92.1365 210.439 92.6588 209.833 93.3477 209.4C94.0477 208.967 94.8977 208.75 95.8977 208.75C97.331 208.75 98.4254 209.2 99.181 210.1C99.9365 210.989 100.314 212.294 100.314 214.017V214.55H93.4477C93.5032 215.461 93.7365 216.194 94.1477 216.75C94.5699 217.306 95.1643 217.583 95.931 217.583C96.5088 217.583 96.9699 217.417 97.3143 217.083C97.6699 216.75 97.9143 216.322 98.0477 215.8H100.198C100.075 216.444 99.8421 217.028 99.4977 217.55C99.1643 218.061 98.7032 218.472 98.1143 218.783C97.5254 219.094 96.7977 219.25 95.931 219.25ZM93.4643 213.05H98.1143C98.0699 212.194 97.8532 211.533 97.4643 211.067C97.0865 210.6 96.5588 210.367 95.881 210.367C95.181 210.367 94.6254 210.594 94.2143 211.05C93.8032 211.506 93.5532 212.172 93.4643 213.05ZM106.263 222.583C105.441 222.583 104.763 222.478 104.23 222.267C103.696 222.067 103.274 221.806 102.963 221.483C102.663 221.172 102.441 220.844 102.296 220.5C102.163 220.156 102.08 219.839 102.046 219.55H104.263C104.33 219.894 104.513 220.206 104.813 220.483C105.124 220.772 105.619 220.917 106.296 220.917C107.03 220.917 107.591 220.706 107.98 220.283C108.38 219.861 108.58 219.217 108.58 218.35V217.2H108.18C108.013 217.656 107.713 218.028 107.28 218.317C106.857 218.594 106.291 218.733 105.58 218.733C104.313 218.733 103.33 218.283 102.63 217.383C101.93 216.483 101.58 215.261 101.58 213.717C101.58 212.728 101.735 211.861 102.046 211.117C102.357 210.372 102.807 209.794 103.396 209.383C103.996 208.961 104.73 208.75 105.596 208.75C106.319 208.75 106.885 208.894 107.296 209.183C107.719 209.461 108.03 209.817 108.23 210.25H108.63V209H110.68V218.35C110.68 219.706 110.307 220.75 109.563 221.483C108.83 222.217 107.73 222.583 106.263 222.583ZM106.063 217.033C106.819 217.033 107.402 216.733 107.813 216.133C108.235 215.522 108.446 214.722 108.446 213.733C108.446 212.744 108.235 211.95 107.813 211.35C107.402 210.75 106.824 210.45 106.08 210.45C105.38 210.45 104.835 210.733 104.446 211.3C104.057 211.856 103.863 212.667 103.863 213.733C103.863 214.822 104.057 215.644 104.446 216.2C104.835 216.756 105.374 217.033 106.063 217.033ZM113.887 222.333V222.267C114.187 221.8 114.504 221.25 114.837 220.617C115.182 219.983 115.487 219.361 115.754 218.75L112.237 209.1V209H114.471L115.921 213C116.054 213.378 116.187 213.783 116.321 214.217C116.465 214.65 116.609 215.189 116.754 215.833H117.154C117.287 215.189 117.421 214.65 117.554 214.217C117.698 213.783 117.837 213.378 117.971 213L119.421 209H121.521V209.1L118.271 217.867C117.904 218.867 117.537 219.75 117.171 220.517C116.815 221.294 116.504 221.9 116.237 222.333H113.887Z" fill="black"/>
<rect x="6.49541" y="184.794" width="152.69" height="51.9621" stroke="#9747FF" stroke-width="3"/>
<rect x="1.5" y="180.5" width="5.32568" height="5.58784" fill="white" stroke="#9747FF" stroke-width="3"/>
<rect x="158.023" y="180.5" width="5.32568" height="5.58784" fill="white" stroke="#9747FF" stroke-width="3"/>
<rect x="158.023" y="235.462" width="5.32568" height="5.58784" fill="white" stroke="#9747FF" stroke-width="3"/>
<rect x="1.5" y="235.462" width="5.32568" height="5.58784" fill="white" stroke="#9747FF" stroke-width="3"/>
<rect x="491" y="20" width="147" height="46" rx="18" fill="#DADADA" stroke="black" stroke-width="4"/>
<path d="M535.598 50V37H540.048C542.326 37 543.976 37.5722 544.998 38.7167C546.02 39.85 546.532 41.4444 546.532 43.5C546.532 45.5556 546.02 47.1556 544.998 48.3C543.976 49.4333 542.326 50 540.048 50H535.598ZM537.948 48.1333H539.882C540.859 48.1333 541.659 47.9778 542.282 47.6667C542.915 47.3556 543.382 46.8611 543.682 46.1833C543.982 45.5056 544.132 44.6111 544.132 43.5C544.132 42.3889 543.982 41.4944 543.682 40.8167C543.382 40.1389 542.915 39.6444 542.282 39.3333C541.659 39.0222 540.859 38.8667 539.882 38.8667H537.948V48.1333ZM552.458 50.25C550.936 50.25 549.775 49.7778 548.975 48.8333C548.175 47.8778 547.775 46.5944 547.775 44.9833C547.775 43.9167 547.953 42.9944 548.308 42.2167C548.664 41.4389 549.186 40.8333 549.875 40.4C550.575 39.9667 551.425 39.75 552.425 39.75C553.858 39.75 554.953 40.2 555.708 41.1C556.464 41.9889 556.842 43.2944 556.842 45.0167V45.55H549.975C550.031 46.4611 550.264 47.1944 550.675 47.75C551.097 48.3056 551.692 48.5833 552.458 48.5833C553.036 48.5833 553.497 48.4167 553.842 48.0833C554.197 47.75 554.442 47.3222 554.575 46.8H556.725C556.603 47.4444 556.369 48.0278 556.025 48.55C555.692 49.0611 555.231 49.4722 554.642 49.7833C554.053 50.0944 553.325 50.25 552.458 50.25ZM549.992 44.05H554.642C554.597 43.1944 554.381 42.5333 553.992 42.0667C553.614 41.6 553.086 41.3667 552.408 41.3667C551.708 41.3667 551.153 41.5944 550.742 42.05C550.331 42.5056 550.081 43.1722 549.992 44.05ZM562.29 50.25C561.268 50.25 560.44 50.0833 559.807 49.75C559.185 49.4056 558.718 48.9667 558.407 48.4333C558.107 47.9 557.94 47.3556 557.907 46.8H560.074C560.118 47.1111 560.229 47.4056 560.407 47.6833C560.596 47.9611 560.851 48.1833 561.174 48.35C561.496 48.5167 561.901 48.6 562.39 48.6C562.946 48.6 563.363 48.4944 563.64 48.2833C563.918 48.0611 564.057 47.7722 564.057 47.4167C564.057 47.1167 563.94 46.8611 563.707 46.65C563.474 46.4278 563.107 46.2278 562.607 46.05L561.407 45.65C560.851 45.45 560.34 45.2333 559.874 45C559.418 44.7556 559.051 44.45 558.774 44.0833C558.507 43.7056 558.374 43.2278 558.374 42.65C558.374 41.7833 558.696 41.0833 559.34 40.55C559.985 40.0167 560.885 39.75 562.04 39.75C562.874 39.75 563.557 39.8889 564.09 40.1667C564.635 40.4333 565.046 40.8 565.324 41.2667C565.601 41.7222 565.763 42.2333 565.807 42.8H563.724C563.668 42.3889 563.496 42.0444 563.207 41.7667C562.929 41.4889 562.513 41.35 561.957 41.35C561.479 41.35 561.113 41.45 560.857 41.65C560.613 41.85 560.49 42.1167 560.49 42.45C560.49 42.7833 560.613 43.0611 560.857 43.2833C561.113 43.4944 561.496 43.6889 562.007 43.8667L563.19 44.25C563.746 44.4389 564.251 44.6556 564.707 44.9C565.163 45.1333 565.518 45.4389 565.774 45.8167C566.04 46.1833 566.174 46.6556 566.174 47.2333C566.174 48.1333 565.84 48.8611 565.174 49.4167C564.518 49.9722 563.557 50.25 562.29 50.25ZM568.048 50V40H570.298V50H568.048ZM569.182 38.7333C568.77 38.7333 568.454 38.6222 568.232 38.4C568.009 38.1667 567.898 37.8667 567.898 37.5C567.898 37.1333 568.009 36.8389 568.232 36.6167C568.454 36.3833 568.77 36.2667 569.182 36.2667C569.604 36.2667 569.92 36.3833 570.132 36.6167C570.354 36.8389 570.465 37.1333 570.465 37.5C570.465 37.8667 570.354 38.1667 570.132 38.4C569.92 38.6222 569.604 38.7333 569.182 38.7333ZM576.97 53.5833C576.148 53.5833 575.47 53.4778 574.937 53.2667C574.403 53.0667 573.981 52.8056 573.67 52.4833C573.37 52.1722 573.148 51.8444 573.003 51.5C572.87 51.1556 572.787 50.8389 572.753 50.55H574.97C575.037 50.8944 575.22 51.2056 575.52 51.4833C575.831 51.7722 576.326 51.9167 577.003 51.9167C577.737 51.9167 578.298 51.7056 578.687 51.2833C579.087 50.8611 579.287 50.2167 579.287 49.35V48.2H578.887C578.72 48.6556 578.42 49.0278 577.987 49.3167C577.564 49.5944 576.998 49.7333 576.287 49.7333C575.02 49.7333 574.037 49.2833 573.337 48.3833C572.637 47.4833 572.287 46.2611 572.287 44.7167C572.287 43.7278 572.442 42.8611 572.753 42.1167C573.064 41.3722 573.514 40.7944 574.103 40.3833C574.703 39.9611 575.437 39.75 576.303 39.75C577.026 39.75 577.592 39.8944 578.003 40.1833C578.426 40.4611 578.737 40.8167 578.937 41.25H579.337V40H581.387V49.35C581.387 50.7056 581.014 51.75 580.27 52.4833C579.537 53.2167 578.437 53.5833 576.97 53.5833ZM576.77 48.0333C577.526 48.0333 578.109 47.7333 578.52 47.1333C578.942 46.5222 579.153 45.7222 579.153 44.7333C579.153 43.7444 578.942 42.95 578.52 42.35C578.109 41.75 577.531 41.45 576.787 41.45C576.087 41.45 575.542 41.7333 575.153 42.3C574.764 42.8556 574.57 43.6667 574.57 44.7333C574.57 45.8222 574.764 46.6444 575.153 47.2C575.542 47.7556 576.081 48.0333 576.77 48.0333ZM584.044 50V40H586.094V41.5H586.494C586.694 40.9778 587.011 40.5556 587.444 40.2333C587.889 39.9111 588.494 39.75 589.261 39.75C590.405 39.75 591.244 40.1056 591.778 40.8167C592.322 41.5167 592.594 42.45 592.594 43.6167V50H590.344V44.0333C590.344 43.2556 590.205 42.6611 589.928 42.25C589.65 41.8278 589.211 41.6167 588.611 41.6167C587.878 41.6167 587.305 41.9056 586.894 42.4833C586.494 43.05 586.294 43.7556 586.294 44.6V50H584.044Z" fill="black"/>
<rect x="487.495" y="16.7939" width="152.69" height="51.9621" stroke="#9747FF" stroke-width="3"/>
<rect x="482.5" y="12.5" width="5.32568" height="5.58784" fill="white" stroke="#9747FF" stroke-width="3"/>
<rect x="639.023" y="12.5" width="5.32568" height="5.58784" fill="white" stroke="#9747FF" stroke-width="3"/>
<rect x="639.023" y="67.4622" width="5.32568" height="5.58784" fill="white" stroke="#9747FF" stroke-width="3"/>
<rect x="482.5" y="67.4622" width="5.32568" height="5.58784" fill="white" stroke="#9747FF" stroke-width="3"/>
<rect x="266" y="8" width="147" height="46" rx="18" fill="#DADADA" stroke="black" stroke-width="4"/>
<path d="M283.598 39V26H288.048C290.326 26 291.976 26.5722 292.998 27.7167C294.02 28.85 294.532 30.4444 294.532 32.5C294.532 34.5556 294.02 36.1556 292.998 37.3C291.976 38.4333 290.326 39 288.048 39H283.598ZM285.948 37.1333H287.882C288.859 37.1333 289.659 36.9778 290.282 36.6667C290.915 36.3556 291.382 35.8611 291.682 35.1833C291.982 34.5056 292.132 33.6111 292.132 32.5C292.132 31.3889 291.982 30.4944 291.682 29.8167C291.382 29.1389 290.915 28.6444 290.282 28.3333C289.659 28.0222 288.859 27.8667 287.882 27.8667H285.948V37.1333ZM300.458 39.25C298.936 39.25 297.775 38.7778 296.975 37.8333C296.175 36.8778 295.775 35.5944 295.775 33.9833C295.775 32.9167 295.953 31.9944 296.308 31.2167C296.664 30.4389 297.186 29.8333 297.875 29.4C298.575 28.9667 299.425 28.75 300.425 28.75C301.858 28.75 302.953 29.2 303.708 30.1C304.464 30.9889 304.842 32.2944 304.842 34.0167V34.55H297.975C298.031 35.4611 298.264 36.1944 298.675 36.75C299.097 37.3056 299.692 37.5833 300.458 37.5833C301.036 37.5833 301.497 37.4167 301.842 37.0833C302.197 36.75 302.442 36.3222 302.575 35.8H304.725C304.603 36.4444 304.369 37.0278 304.025 37.55C303.692 38.0611 303.231 38.4722 302.642 38.7833C302.053 39.0944 301.325 39.25 300.458 39.25ZM297.992 33.05H302.642C302.597 32.1944 302.381 31.5333 301.992 31.0667C301.614 30.6 301.086 30.3667 300.408 30.3667C299.708 30.3667 299.153 30.5944 298.742 31.05C298.331 31.5056 298.081 32.1722 297.992 33.05ZM308.481 39L305.531 29.1V29H307.798L310.131 37.15H310.531L312.881 29H314.948V29.1L311.998 39H308.481ZM320.536 39.25C319.014 39.25 317.853 38.7778 317.053 37.8333C316.253 36.8778 315.853 35.5944 315.853 33.9833C315.853 32.9167 316.031 31.9944 316.386 31.2167C316.742 30.4389 317.264 29.8333 317.953 29.4C318.653 28.9667 319.503 28.75 320.503 28.75C321.936 28.75 323.031 29.2 323.786 30.1C324.542 30.9889 324.92 32.2944 324.92 34.0167V34.55H318.053C318.109 35.4611 318.342 36.1944 318.753 36.75C319.175 37.3056 319.77 37.5833 320.536 37.5833C321.114 37.5833 321.575 37.4167 321.92 37.0833C322.275 36.75 322.52 36.3222 322.653 35.8H324.803C324.681 36.4444 324.448 37.0278 324.103 37.55C323.77 38.0611 323.309 38.4722 322.72 38.7833C322.131 39.0944 321.403 39.25 320.536 39.25ZM318.07 33.05H322.72C322.675 32.1944 322.459 31.5333 322.07 31.0667C321.692 30.6 321.164 30.3667 320.486 30.3667C319.786 30.3667 319.231 30.5944 318.82 31.05C318.409 31.5056 318.159 32.1722 318.07 33.05ZM327.635 39C327.357 38.6667 327.146 38.2833 327.002 37.85C326.868 37.4167 326.802 36.8056 326.802 36.0167V25.6667H329.068V35.75C329.068 36.6167 329.163 37.2833 329.352 37.75C329.541 38.2056 329.785 38.5889 330.085 38.9V39H327.635ZM335.843 39.25C334.265 39.25 333.082 38.7778 332.293 37.8333C331.515 36.8778 331.127 35.6 331.127 34C331.127 32.4 331.515 31.1278 332.293 30.1833C333.082 29.2278 334.265 28.75 335.843 28.75C337.443 28.75 338.632 29.2278 339.41 30.1833C340.188 31.1278 340.577 32.4 340.577 34C340.577 35.6 340.188 36.8778 339.41 37.8333C338.632 38.7778 337.443 39.25 335.843 39.25ZM335.86 37.6167C336.682 37.6167 337.282 37.3056 337.66 36.6833C338.049 36.05 338.243 35.1556 338.243 34C338.243 32.8444 338.049 31.9556 337.66 31.3333C337.282 30.7 336.682 30.3833 335.86 30.3833C335.027 30.3833 334.415 30.7 334.027 31.3333C333.649 31.9556 333.46 32.8444 333.46 34C333.46 35.1556 333.649 36.05 334.027 36.6833C334.415 37.3056 335.027 37.6167 335.86 37.6167ZM342.552 42.3333V29H344.602V30.3H345.002C345.213 29.8889 345.541 29.5333 345.985 29.2333C346.441 28.9333 347.047 28.7833 347.802 28.7833C348.68 28.7833 349.413 29.0056 350.002 29.45C350.602 29.8833 351.052 30.4944 351.352 31.2833C351.663 32.0611 351.819 32.9722 351.819 34.0167C351.819 35.05 351.663 35.9611 351.352 36.75C351.052 37.5278 350.602 38.1333 350.002 38.5667C349.413 39 348.685 39.2167 347.819 39.2167C347.152 39.2167 346.608 39.0944 346.185 38.85C345.763 38.6056 345.435 38.2722 345.202 37.85H344.802V42.3333H342.552ZM347.252 37.5167C347.963 37.5167 348.513 37.2167 348.902 36.6167C349.291 36.0167 349.485 35.1444 349.485 34C349.485 32.8556 349.291 31.9833 348.902 31.3833C348.513 30.7833 347.963 30.4833 347.252 30.4833C346.497 30.4833 345.897 30.8056 345.452 31.45C345.008 32.0833 344.785 32.9333 344.785 34C344.785 35.0667 345.008 35.9222 345.452 36.5667C345.897 37.2 346.497 37.5167 347.252 37.5167ZM353.802 39V29H355.852V30.5H356.252C356.43 29.9889 356.73 29.5722 357.152 29.25C357.574 28.9167 358.152 28.75 358.885 28.75C359.585 28.75 360.163 28.9056 360.619 29.2167C361.085 29.5278 361.43 29.9556 361.652 30.5H362.052C362.252 29.9778 362.569 29.5556 363.002 29.2333C363.447 28.9111 364.035 28.75 364.769 28.75C365.858 28.75 366.658 29.1056 367.169 29.8167C367.68 30.5167 367.935 31.45 367.935 32.6167V39H365.685V33.0333C365.685 32.2667 365.558 31.6722 365.302 31.25C365.058 30.8278 364.658 30.6167 364.102 30.6167C363.424 30.6167 362.902 30.9056 362.535 31.4833C362.18 32.0611 362.002 32.7667 362.002 33.6V39H359.735V33.0333C359.735 32.2667 359.613 31.6722 359.369 31.25C359.124 30.8278 358.724 30.6167 358.169 30.6167C357.491 30.6167 356.969 30.9056 356.602 31.4833C356.235 32.0611 356.052 32.7667 356.052 33.6V39H353.802ZM374.462 39.25C372.94 39.25 371.779 38.7778 370.979 37.8333C370.179 36.8778 369.779 35.5944 369.779 33.9833C369.779 32.9167 369.957 31.9944 370.312 31.2167C370.668 30.4389 371.19 29.8333 371.879 29.4C372.579 28.9667 373.429 28.75 374.429 28.75C375.862 28.75 376.957 29.2 377.712 30.1C378.468 30.9889 378.846 32.2944 378.846 34.0167V34.55H371.979C372.034 35.4611 372.268 36.1944 372.679 36.75C373.101 37.3056 373.696 37.5833 374.462 37.5833C375.04 37.5833 375.501 37.4167 375.846 37.0833C376.201 36.75 376.446 36.3222 376.579 35.8H378.729C378.607 36.4444 378.373 37.0278 378.029 37.55C377.696 38.0611 377.234 38.4722 376.646 38.7833C376.057 39.0944 375.329 39.25 374.462 39.25ZM371.996 33.05H376.646C376.601 32.1944 376.384 31.5333 375.996 31.0667C375.618 30.6 375.09 30.3667 374.412 30.3667C373.712 30.3667 373.157 30.5944 372.746 31.05C372.334 31.5056 372.084 32.1722 371.996 33.05ZM380.794 39V29H382.844V30.5H383.244C383.444 29.9778 383.761 29.5556 384.194 29.2333C384.639 28.9111 385.244 28.75 386.011 28.75C387.155 28.75 387.994 29.1056 388.528 29.8167C389.072 30.5167 389.344 31.45 389.344 32.6167V39H387.094V33.0333C387.094 32.2556 386.955 31.6611 386.678 31.25C386.4 30.8278 385.961 30.6167 385.361 30.6167C384.628 30.6167 384.055 30.9056 383.644 31.4833C383.244 32.05 383.044 32.7556 383.044 33.6V39H380.794ZM393.235 39C392.98 38.7 392.774 38.3389 392.618 37.9167C392.474 37.4944 392.402 36.8611 392.402 36.0167V30.65H391.035V29H392.435V26.5H394.635V29H396.285V30.65H394.652V35.7333C394.652 36.6222 394.746 37.3 394.935 37.7667C395.135 38.2222 395.374 38.6 395.652 38.9V39H393.235Z" fill="black"/>
<rect x="262.495" y="5.79395" width="152.69" height="51.9621" stroke="#9747FF" stroke-width="3"/>
<rect x="257.5" y="1.5" width="5.32568" height="5.58784" fill="white" stroke="#9747FF" stroke-width="3"/>
<rect x="414.023" y="1.5" width="5.32568" height="5.58784" fill="white" stroke="#9747FF" stroke-width="3"/>
<rect x="414.023" y="56.4622" width="5.32568" height="5.58784" fill="white" stroke="#9747FF" stroke-width="3"/>
<rect x="257.5" y="56.4622" width="5.32568" height="5.58784" fill="white" stroke="#9747FF" stroke-width="3"/>
<rect x="405" y="242" width="147" height="46" rx="18" fill="#DADADA" stroke="black" stroke-width="4"/>
<path d="M426.28 263V250H431.313C432.98 250 434.191 250.35 434.946 251.05C435.713 251.739 436.096 252.667 436.096 253.833C436.096 255 435.713 255.933 434.946 256.633C434.191 257.333 432.98 257.683 431.313 257.683H428.596V263H426.28ZM428.596 255.867H431.063C431.963 255.867 432.635 255.711 433.08 255.4C433.524 255.089 433.746 254.572 433.746 253.85C433.746 253.128 433.524 252.606 433.08 252.283C432.635 251.961 431.963 251.8 431.063 251.8H428.596V255.867ZM437.988 263V253H440.021V254.767H440.421C440.488 254.467 440.61 254.172 440.788 253.883C440.965 253.594 441.238 253.361 441.604 253.183C441.982 252.994 442.493 252.9 443.138 252.9H443.571V254.967H442.954C441.988 254.967 441.293 255.217 440.871 255.717C440.449 256.217 440.238 256.978 440.238 258V263H437.988ZM449.033 263.25C447.455 263.25 446.272 262.778 445.483 261.833C444.705 260.878 444.316 259.6 444.316 258C444.316 256.4 444.705 255.128 445.483 254.183C446.272 253.228 447.455 252.75 449.033 252.75C450.633 252.75 451.822 253.228 452.599 254.183C453.377 255.128 453.766 256.4 453.766 258C453.766 259.6 453.377 260.878 452.599 261.833C451.822 262.778 450.633 263.25 449.033 263.25ZM449.049 261.617C449.872 261.617 450.472 261.306 450.849 260.683C451.238 260.05 451.433 259.156 451.433 258C451.433 256.844 451.238 255.956 450.849 255.333C450.472 254.7 449.872 254.383 449.049 254.383C448.216 254.383 447.605 254.7 447.216 255.333C446.838 255.956 446.649 256.844 446.649 258C446.649 259.156 446.838 260.05 447.216 260.683C447.605 261.306 448.216 261.617 449.049 261.617ZM456.01 263V254.65H454.576V253H456.01V252.383C456.01 251.839 456.104 251.361 456.293 250.95C456.482 250.539 456.793 250.217 457.226 249.983C457.671 249.75 458.276 249.633 459.043 249.633C459.321 249.633 459.582 249.65 459.826 249.683V251.317C459.693 251.283 459.515 251.267 459.293 251.267C458.86 251.267 458.565 251.367 458.41 251.567C458.265 251.767 458.193 252.056 458.193 252.433V253H459.826V254.65H458.193V263H456.01ZM465.66 263.25C464.137 263.25 462.976 262.778 462.176 261.833C461.376 260.878 460.976 259.594 460.976 257.983C460.976 256.917 461.154 255.994 461.51 255.217C461.865 254.439 462.387 253.833 463.076 253.4C463.776 252.967 464.626 252.75 465.626 252.75C467.06 252.75 468.154 253.2 468.91 254.1C469.665 254.989 470.043 256.294 470.043 258.017V258.55H463.176C463.232 259.461 463.465 260.194 463.876 260.75C464.298 261.306 464.893 261.583 465.66 261.583C466.237 261.583 466.698 261.417 467.043 261.083C467.398 260.75 467.643 260.322 467.776 259.8H469.926C469.804 260.444 469.571 261.028 469.226 261.55C468.893 262.061 468.432 262.472 467.843 262.783C467.254 263.094 466.526 263.25 465.66 263.25ZM463.193 257.05H467.843C467.798 256.194 467.582 255.533 467.193 255.067C466.815 254.6 466.287 254.367 465.61 254.367C464.91 254.367 464.354 254.594 463.943 255.05C463.532 255.506 463.282 256.172 463.193 257.05ZM475.492 263.25C474.469 263.25 473.642 263.083 473.008 262.75C472.386 262.406 471.919 261.967 471.608 261.433C471.308 260.9 471.142 260.356 471.108 259.8H473.275C473.319 260.111 473.43 260.406 473.608 260.683C473.797 260.961 474.053 261.183 474.375 261.35C474.697 261.517 475.103 261.6 475.592 261.6C476.147 261.6 476.564 261.494 476.842 261.283C477.119 261.061 477.258 260.772 477.258 260.417C477.258 260.117 477.142 259.861 476.908 259.65C476.675 259.428 476.308 259.228 475.808 259.05L474.608 258.65C474.053 258.45 473.542 258.233 473.075 258C472.619 257.756 472.253 257.45 471.975 257.083C471.708 256.706 471.575 256.228 471.575 255.65C471.575 254.783 471.897 254.083 472.542 253.55C473.186 253.017 474.086 252.75 475.242 252.75C476.075 252.75 476.758 252.889 477.292 253.167C477.836 253.433 478.247 253.8 478.525 254.267C478.803 254.722 478.964 255.233 479.008 255.8H476.925C476.869 255.389 476.697 255.044 476.408 254.767C476.13 254.489 475.714 254.35 475.158 254.35C474.68 254.35 474.314 254.45 474.058 254.65C473.814 254.85 473.692 255.117 473.692 255.45C473.692 255.783 473.814 256.061 474.058 256.283C474.314 256.494 474.697 256.689 475.208 256.867L476.392 257.25C476.947 257.439 477.453 257.656 477.908 257.9C478.364 258.133 478.719 258.439 478.975 258.817C479.242 259.183 479.375 259.656 479.375 260.233C479.375 261.133 479.042 261.861 478.375 262.417C477.719 262.972 476.758 263.25 475.492 263.25ZM484.749 263.25C483.727 263.25 482.899 263.083 482.266 262.75C481.644 262.406 481.177 261.967 480.866 261.433C480.566 260.9 480.399 260.356 480.366 259.8H482.533C482.577 260.111 482.688 260.406 482.866 260.683C483.055 260.961 483.31 261.183 483.633 261.35C483.955 261.517 484.36 261.6 484.849 261.6C485.405 261.6 485.822 261.494 486.099 261.283C486.377 261.061 486.516 260.772 486.516 260.417C486.516 260.117 486.399 259.861 486.166 259.65C485.933 259.428 485.566 259.228 485.066 259.05L483.866 258.65C483.31 258.45 482.799 258.233 482.333 258C481.877 257.756 481.51 257.45 481.233 257.083C480.966 256.706 480.833 256.228 480.833 255.65C480.833 254.783 481.155 254.083 481.799 253.55C482.444 253.017 483.344 252.75 484.499 252.75C485.333 252.75 486.016 252.889 486.549 253.167C487.094 253.433 487.505 253.8 487.783 254.267C488.06 254.722 488.222 255.233 488.266 255.8H486.183C486.127 255.389 485.955 255.044 485.666 254.767C485.388 254.489 484.972 254.35 484.416 254.35C483.938 254.35 483.572 254.45 483.316 254.65C483.072 254.85 482.949 255.117 482.949 255.45C482.949 255.783 483.072 256.061 483.316 256.283C483.572 256.494 483.955 256.689 484.466 256.867L485.649 257.25C486.205 257.439 486.71 257.656 487.166 257.9C487.622 258.133 487.977 258.439 488.233 258.817C488.499 259.183 488.633 259.656 488.633 260.233C488.633 261.133 488.299 261.861 487.633 262.417C486.977 262.972 486.016 263.25 484.749 263.25ZM490.507 263V253H492.757V263H490.507ZM491.64 251.733C491.229 251.733 490.913 251.622 490.69 251.4C490.468 251.167 490.357 250.867 490.357 250.5C490.357 250.133 490.468 249.839 490.69 249.617C490.913 249.383 491.229 249.267 491.64 249.267C492.063 249.267 492.379 249.383 492.59 249.617C492.813 249.839 492.924 250.133 492.924 250.5C492.924 250.867 492.813 251.167 492.59 251.4C492.379 251.622 492.063 251.733 491.64 251.733ZM499.462 263.25C497.885 263.25 496.701 262.778 495.912 261.833C495.135 260.878 494.746 259.6 494.746 258C494.746 256.4 495.135 255.128 495.912 254.183C496.701 253.228 497.885 252.75 499.462 252.75C501.062 252.75 502.251 253.228 503.029 254.183C503.807 255.128 504.196 256.4 504.196 258C504.196 259.6 503.807 260.878 503.029 261.833C502.251 262.778 501.062 263.25 499.462 263.25ZM499.479 261.617C500.301 261.617 500.901 261.306 501.279 260.683C501.668 260.05 501.862 259.156 501.862 258C501.862 256.844 501.668 255.956 501.279 255.333C500.901 254.7 500.301 254.383 499.479 254.383C498.646 254.383 498.035 254.7 497.646 255.333C497.268 255.956 497.079 256.844 497.079 258C497.079 259.156 497.268 260.05 497.646 260.683C498.035 261.306 498.646 261.617 499.479 261.617ZM506.171 263V253H508.221V254.5H508.621C508.821 253.978 509.138 253.556 509.571 253.233C510.016 252.911 510.621 252.75 511.388 252.75C512.532 252.75 513.371 253.106 513.905 253.817C514.449 254.517 514.721 255.45 514.721 256.617V263H512.471V257.033C512.471 256.256 512.332 255.661 512.055 255.25C511.777 254.828 511.338 254.617 510.738 254.617C510.005 254.617 509.432 254.906 509.021 255.483C508.621 256.05 508.421 256.756 508.421 257.6V263H506.171ZM520.612 263.217C519.723 263.217 518.979 263 518.379 262.567C517.779 262.122 517.323 261.506 517.012 260.717C516.712 259.928 516.562 259.017 516.562 257.983C516.562 256.939 516.712 256.028 517.012 255.25C517.323 254.472 517.779 253.867 518.379 253.433C518.99 253 519.74 252.783 520.629 252.783C521.351 252.783 521.934 252.928 522.379 253.217C522.834 253.506 523.168 253.867 523.379 254.3H523.779V253H525.829V263H523.779V261.7H523.379C523.168 262.111 522.834 262.467 522.379 262.767C521.934 263.067 521.345 263.217 520.612 263.217ZM521.129 261.517C521.884 261.517 522.484 261.2 522.929 260.567C523.373 259.922 523.595 259.067 523.595 258C523.595 256.933 523.373 256.083 522.929 255.45C522.484 254.806 521.884 254.483 521.129 254.483C520.418 254.483 519.868 254.783 519.479 255.383C519.09 255.983 518.895 256.856 518.895 258C518.895 259.144 519.09 260.017 519.479 260.617C519.868 261.217 520.418 261.517 521.129 261.517ZM529.262 263C528.984 262.667 528.773 262.283 528.629 261.85C528.495 261.417 528.429 260.806 528.429 260.017V249.667H530.695V259.75C530.695 260.617 530.79 261.283 530.979 261.75C531.168 262.206 531.412 262.589 531.712 262.9V263H529.262ZM424.6 283V270H429.05C431.328 270 432.978 270.572 434 271.717C435.022 272.85 435.533 274.444 435.533 276.5C435.533 278.556 435.022 280.156 434 281.3C432.978 282.433 431.328 283 429.05 283H424.6ZM426.95 281.133H428.883C429.861 281.133 430.661 280.978 431.283 280.667C431.917 280.356 432.383 279.861 432.683 279.183C432.983 278.506 433.133 277.611 433.133 276.5C433.133 275.389 432.983 274.494 432.683 273.817C432.383 273.139 431.917 272.644 431.283 272.333C430.661 272.022 429.861 271.867 428.883 271.867H426.95V281.133ZM441.46 283.25C439.938 283.25 438.777 282.778 437.977 281.833C437.177 280.878 436.777 279.594 436.777 277.983C436.777 276.917 436.955 275.994 437.31 275.217C437.666 274.439 438.188 273.833 438.877 273.4C439.577 272.967 440.427 272.75 441.427 272.75C442.86 272.75 443.955 273.2 444.71 274.1C445.466 274.989 445.844 276.294 445.844 278.017V278.55H438.977C439.033 279.461 439.266 280.194 439.677 280.75C440.099 281.306 440.694 281.583 441.46 281.583C442.038 281.583 442.499 281.417 442.844 281.083C443.199 280.75 443.444 280.322 443.577 279.8H445.727C445.605 280.444 445.371 281.028 445.027 281.55C444.694 282.061 444.233 282.472 443.644 282.783C443.055 283.094 442.327 283.25 441.46 283.25ZM438.994 277.05H443.644C443.599 276.194 443.383 275.533 442.994 275.067C442.616 274.6 442.088 274.367 441.41 274.367C440.71 274.367 440.155 274.594 439.744 275.05C439.333 275.506 439.083 276.172 438.994 277.05ZM449.483 283L446.533 273.1V273H448.8L451.133 281.15H451.533L453.883 273H455.95V273.1L453 283H449.483ZM461.538 283.25C460.016 283.25 458.855 282.778 458.055 281.833C457.255 280.878 456.855 279.594 456.855 277.983C456.855 276.917 457.033 275.994 457.388 275.217C457.744 274.439 458.266 273.833 458.955 273.4C459.655 272.967 460.505 272.75 461.505 272.75C462.938 272.75 464.033 273.2 464.788 274.1C465.544 274.989 465.922 276.294 465.922 278.017V278.55H459.055C459.111 279.461 459.344 280.194 459.755 280.75C460.177 281.306 460.772 281.583 461.538 281.583C462.116 281.583 462.577 281.417 462.922 281.083C463.277 280.75 463.522 280.322 463.655 279.8H465.805C465.683 280.444 465.45 281.028 465.105 281.55C464.772 282.061 464.311 282.472 463.722 282.783C463.133 283.094 462.405 283.25 461.538 283.25ZM459.072 277.05H463.722C463.677 276.194 463.461 275.533 463.072 275.067C462.694 274.6 462.166 274.367 461.488 274.367C460.788 274.367 460.233 274.594 459.822 275.05C459.411 275.506 459.161 276.172 459.072 277.05ZM468.637 283C468.359 282.667 468.148 282.283 468.004 281.85C467.87 281.417 467.804 280.806 467.804 280.017V269.667H470.07V279.75C470.07 280.617 470.165 281.283 470.354 281.75C470.543 282.206 470.787 282.589 471.087 282.9V283H468.637ZM476.845 283.25C475.267 283.25 474.084 282.778 473.295 281.833C472.517 280.878 472.129 279.6 472.129 278C472.129 276.4 472.517 275.128 473.295 274.183C474.084 273.228 475.267 272.75 476.845 272.75C478.445 272.75 479.634 273.228 480.412 274.183C481.19 275.128 481.579 276.4 481.579 278C481.579 279.6 481.19 280.878 480.412 281.833C479.634 282.778 478.445 283.25 476.845 283.25ZM476.862 281.617C477.684 281.617 478.284 281.306 478.662 280.683C479.051 280.05 479.245 279.156 479.245 278C479.245 276.844 479.051 275.956 478.662 275.333C478.284 274.7 477.684 274.383 476.862 274.383C476.029 274.383 475.417 274.7 475.029 275.333C474.651 275.956 474.462 276.844 474.462 278C474.462 279.156 474.651 280.05 475.029 280.683C475.417 281.306 476.029 281.617 476.862 281.617ZM483.554 286.333V273H485.604V274.3H486.004C486.215 273.889 486.543 273.533 486.987 273.233C487.443 272.933 488.048 272.783 488.804 272.783C489.682 272.783 490.415 273.006 491.004 273.45C491.604 273.883 492.054 274.494 492.354 275.283C492.665 276.061 492.821 276.972 492.821 278.017C492.821 279.05 492.665 279.961 492.354 280.75C492.054 281.528 491.604 282.133 491.004 282.567C490.415 283 489.687 283.217 488.821 283.217C488.154 283.217 487.61 283.094 487.187 282.85C486.765 282.606 486.437 282.272 486.204 281.85H485.804V286.333H483.554ZM488.254 281.517C488.965 281.517 489.515 281.217 489.904 280.617C490.293 280.017 490.487 279.144 490.487 278C490.487 276.856 490.293 275.983 489.904 275.383C489.515 274.783 488.965 274.483 488.254 274.483C487.498 274.483 486.898 274.806 486.454 275.45C486.01 276.083 485.787 276.933 485.787 278C485.787 279.067 486.01 279.922 486.454 280.567C486.898 281.2 487.498 281.517 488.254 281.517ZM494.804 283V273H496.854V274.5H497.254C497.432 273.989 497.732 273.572 498.154 273.25C498.576 272.917 499.154 272.75 499.887 272.75C500.587 272.75 501.165 272.906 501.621 273.217C502.087 273.528 502.432 273.956 502.654 274.5H503.054C503.254 273.978 503.571 273.556 504.004 273.233C504.448 272.911 505.037 272.75 505.771 272.75C506.86 272.75 507.66 273.106 508.171 273.817C508.682 274.517 508.937 275.45 508.937 276.617V283H506.687V277.033C506.687 276.267 506.56 275.672 506.304 275.25C506.06 274.828 505.66 274.617 505.104 274.617C504.426 274.617 503.904 274.906 503.537 275.483C503.182 276.061 503.004 276.767 503.004 277.6V283H500.737V277.033C500.737 276.267 500.615 275.672 500.371 275.25C500.126 274.828 499.726 274.617 499.171 274.617C498.493 274.617 497.971 274.906 497.604 275.483C497.237 276.061 497.054 276.767 497.054 277.6V283H494.804ZM515.464 283.25C513.942 283.25 512.781 282.778 511.981 281.833C511.181 280.878 510.781 279.594 510.781 277.983C510.781 276.917 510.959 275.994 511.314 275.217C511.67 274.439 512.192 273.833 512.881 273.4C513.581 272.967 514.431 272.75 515.431 272.75C516.864 272.75 517.959 273.2 518.714 274.1C519.47 274.989 519.848 276.294 519.848 278.017V278.55H512.981C513.036 279.461 513.27 280.194 513.681 280.75C514.103 281.306 514.698 281.583 515.464 281.583C516.042 281.583 516.503 281.417 516.848 281.083C517.203 280.75 517.448 280.322 517.581 279.8H519.731C519.609 280.444 519.375 281.028 519.031 281.55C518.698 282.061 518.236 282.472 517.648 282.783C517.059 283.094 516.331 283.25 515.464 283.25ZM512.998 277.05H517.648C517.603 276.194 517.386 275.533 516.998 275.067C516.62 274.6 516.092 274.367 515.414 274.367C514.714 274.367 514.159 274.594 513.748 275.05C513.336 275.506 513.086 276.172 512.998 277.05ZM521.796 283V273H523.846V274.5H524.246C524.446 273.978 524.763 273.556 525.196 273.233C525.641 272.911 526.246 272.75 527.013 272.75C528.157 272.75 528.996 273.106 529.53 273.817C530.074 274.517 530.346 275.45 530.346 276.617V283H528.096V277.033C528.096 276.256 527.957 275.661 527.68 275.25C527.402 274.828 526.963 274.617 526.363 274.617C525.63 274.617 525.057 274.906 524.646 275.483C524.246 276.05 524.046 276.756 524.046 277.6V283H521.796ZM534.237 283C533.982 282.7 533.776 282.339 533.62 281.917C533.476 281.494 533.404 280.861 533.404 280.017V274.65H532.037V273H533.437V270.5H535.637V273H537.287V274.65H535.654V279.733C535.654 280.622 535.748 281.3 535.937 281.767C536.137 282.222 536.376 282.6 536.654 282.9V283H534.237Z" fill="black"/>
<rect x="402.495" y="237.794" width="152.69" height="51.9621" stroke="#9747FF" stroke-width="3"/>
<rect x="397.5" y="233.5" width="5.32568" height="5.58784" fill="white" stroke="#9747FF" stroke-width="3"/>
<rect x="554.023" y="233.5" width="5.32568" height="5.58784" fill="white" stroke="#9747FF" stroke-width="3"/>
<rect x="554.023" y="288.462" width="5.32568" height="5.58784" fill="white" stroke="#9747FF" stroke-width="3"/>
<rect x="397.5" y="288.462" width="5.32568" height="5.58784" fill="white" stroke="#9747FF" stroke-width="3"/>
<path d="M356.493 134.708C355.961 134.602 355.428 134.961 355.302 135.509C355.176 136.057 355.504 136.586 356.036 136.692L356.493 134.708ZM169.446 194.251C169.123 194.715 169.217 195.342 169.658 195.653L176.834 200.72C177.274 201.031 177.893 200.908 178.217 200.445C178.541 199.981 178.446 199.353 178.006 199.043L171.627 194.538L176.315 187.827C176.639 187.363 176.544 186.736 176.104 186.425C175.663 186.114 175.044 186.237 174.72 186.701L169.446 194.251ZM356.036 136.692C356.826 136.849 357.436 137.062 357.869 137.306C358.305 137.552 358.5 137.795 358.578 137.982C358.695 138.263 358.718 138.979 357.339 140.367C356.017 141.7 353.669 143.356 349.986 145.317C346.317 147.269 341.38 149.494 334.927 151.983C309.101 161.945 259.265 176.036 170.094 193.823L170.393 195.806C259.59 178.013 309.564 163.896 335.556 153.87C342.058 151.362 347.076 149.104 350.841 147.1C354.59 145.104 357.154 143.331 358.699 141.775C360.187 140.275 361.033 138.642 360.406 137.128C360.112 136.418 359.543 135.901 358.883 135.528C358.221 135.154 357.403 134.888 356.493 134.708L356.036 136.692Z" fill="#4ACFFF"/>
<path d="M322.925 157.459C322.925 158.85 321.937 159.787 320.941 159.787C319.945 159.787 318.957 158.85 318.957 157.459C318.957 156.069 319.945 155.132 320.941 155.132C321.937 155.132 322.925 156.069 322.925 157.459Z" fill="#FFFDFD" stroke="#4ACFFF" stroke-width="2"/>
<path d="M346.469 121.686C346.068 122.042 345.997 122.716 346.308 123.191C346.62 123.666 347.197 123.762 347.597 123.406L346.469 121.686ZM267.242 231.366C267.264 231.96 267.693 232.429 268.2 232.413L276.457 232.164C276.964 232.148 277.357 231.655 277.334 231.061C277.312 230.467 276.884 229.998 276.377 230.014L269.037 230.235L268.717 221.635C268.695 221.041 268.266 220.572 267.759 220.587C267.252 220.603 266.86 221.096 266.882 221.69L267.242 231.366ZM347.597 123.406C347.986 123.06 348.29 122.827 348.507 122.695C348.616 122.629 348.676 122.606 348.694 122.6C348.73 122.589 348.619 122.636 348.445 122.573C348.199 122.484 348.026 122.254 347.962 122.019C347.917 121.855 347.944 121.765 347.933 121.84C347.911 121.975 347.821 122.287 347.577 122.839C346.615 125.017 343.907 129.548 338.498 137.406C327.717 153.07 306.392 181.694 267.482 230.598L268.837 232.079C307.753 183.167 329.114 154.499 339.937 138.773C345.331 130.936 348.154 126.248 349.212 123.854C349.473 123.262 349.667 122.722 349.739 122.267C349.774 122.046 349.8 121.726 349.71 121.395C349.599 120.992 349.335 120.655 348.958 120.519C348.652 120.408 348.368 120.466 348.193 120.52C348.001 120.58 347.813 120.676 347.639 120.782C347.29 120.993 346.892 121.308 346.469 121.686L347.597 123.406Z" fill="#4ACFFF"/>
<path d="M320.864 170.165C320.864 172.785 319.083 174.627 317.209 174.627C315.334 174.627 313.553 172.785 313.553 170.165C313.553 167.544 315.334 165.702 317.209 165.702C319.083 165.702 320.864 167.544 320.864 170.165Z" fill="#FFFDFD" stroke="#4ACFFF" stroke-width="2"/>
<path d="M404.769 145.546C404.985 146.055 405.572 146.292 406.081 146.077C406.589 145.861 406.826 145.274 406.611 144.766L404.769 145.546ZM466.023 231.415C466.563 231.533 467.096 231.19 467.213 230.651L469.126 221.856C469.244 221.317 468.901 220.784 468.362 220.667C467.822 220.549 467.289 220.891 467.172 221.431L465.471 229.248L457.654 227.548C457.115 227.43 456.582 227.773 456.465 228.312C456.347 228.852 456.69 229.385 457.229 229.502L466.023 231.415ZM406.611 144.766C406.45 144.385 406.354 144.104 406.311 143.918C406.289 143.824 406.289 143.788 406.289 143.793C406.289 143.798 406.289 143.829 406.279 143.878C406.269 143.926 406.246 144.011 406.187 144.107C406.037 144.352 405.779 144.487 405.538 144.502C405.364 144.513 405.268 144.458 405.303 144.474C405.364 144.502 405.546 144.615 405.882 144.914C407.204 146.089 409.835 149.142 414.27 155.064C423.105 166.857 438.91 189.767 465.395 230.979L467.077 229.897C440.586 188.676 424.75 165.718 415.871 153.865C411.45 147.963 408.706 144.749 407.21 143.419C406.842 143.091 406.479 142.814 406.14 142.657C405.975 142.582 405.716 142.487 405.413 142.506C405.043 142.529 404.691 142.719 404.479 143.066C404.307 143.348 404.287 143.639 404.289 143.814C404.291 144.007 404.323 144.199 404.363 144.371C404.444 144.718 404.589 145.12 404.769 145.546L406.611 144.766Z" fill="#4ACFFF"/>
<circle cx="426.748" cy="171.337" r="3" transform="rotate(-33.7015 426.748 171.337)" fill="#FFFDFD" stroke="#4ACFFF" stroke-width="2"/>
<path d="M399.477 138.834C399.966 138.576 400.152 137.971 399.894 137.482C399.636 136.994 399.031 136.808 398.543 137.066L399.477 138.834ZM479.815 70.4863C479.886 69.9386 479.499 69.4371 478.952 69.3661L470.026 68.2092C469.479 68.1382 468.977 68.5247 468.906 69.0724C468.835 69.6201 469.222 70.1217 469.769 70.1926L477.703 71.2209L476.675 79.1546C476.604 79.7023 476.99 80.2038 477.538 80.2748C478.086 80.3458 478.587 79.9594 478.658 79.4117L479.815 70.4863ZM398.543 137.066C398.177 137.259 397.905 137.378 397.724 137.437C397.632 137.466 397.596 137.47 397.601 137.469C397.606 137.469 397.637 137.466 397.686 137.472C397.735 137.478 397.821 137.494 397.922 137.544C398.18 137.672 398.335 137.918 398.371 138.157C398.397 138.33 398.35 138.43 398.363 138.393C398.386 138.331 398.483 138.14 398.752 137.78C399.811 136.362 402.629 133.481 408.151 128.557C419.149 118.75 440.628 101.05 479.434 71.1499L478.213 69.5656C439.399 99.4727 417.873 117.208 406.82 127.064C401.316 131.972 398.347 134.979 397.15 136.583C396.855 136.978 396.609 137.363 396.482 137.714C396.421 137.885 396.348 138.151 396.393 138.452C396.447 138.818 396.667 139.153 397.031 139.334C397.326 139.481 397.618 139.477 397.792 139.46C397.984 139.442 398.172 139.394 398.341 139.339C398.68 139.229 399.068 139.05 399.477 138.834L398.543 137.066Z" fill="#4ACFFF"/>
<circle cx="424.568" cy="112.964" r="3" transform="rotate(51.638 424.568 112.964)" fill="#FFFDFD" stroke="#4ACFFF" stroke-width="2"/>
<path d="M421.043 113.945C420.654 113.545 420.021 113.531 419.631 113.913C419.241 114.295 419.24 114.929 419.629 115.329L421.043 113.945ZM201.828 119.701C201.381 120.015 201.279 120.638 201.601 121.094L206.85 128.521C207.172 128.976 207.796 129.092 208.244 128.778C208.691 128.465 208.793 127.841 208.471 127.386L203.805 120.784L210.289 116.244C210.737 115.93 210.838 115.307 210.516 114.851C210.194 114.395 209.57 114.28 209.122 114.593L201.828 119.701ZM419.629 115.329C421.191 116.932 422.047 118.676 422.117 120.414C422.186 122.136 421.49 124.021 419.611 125.93C415.8 129.804 407.318 133.568 391.879 135.762C361.079 140.14 303.356 138.175 202.572 119.542L202.251 121.511C303.086 140.155 361.071 142.17 392.2 137.745C407.727 135.539 416.765 131.706 421.047 127.352C423.215 125.148 424.208 122.762 424.113 120.376C424.017 118.005 422.854 115.804 421.043 113.945L419.629 115.329Z" fill="#4ACFFF"/>
<path d="M372.052 138.675C372.052 140.483 370.826 141.675 369.625 141.675C368.424 141.675 367.198 140.483 367.198 138.675C367.198 136.868 368.424 135.675 369.625 135.675C370.826 135.675 372.052 136.868 372.052 138.675Z" fill="#FFFDFD" stroke="#4ACFFF" stroke-width="2"/>
<path d="M379.323 162.237C379.186 161.684 378.677 161.408 378.186 161.621C377.696 161.833 377.41 162.453 377.547 163.006L379.323 162.237ZM331.395 61.7776C330.917 61.6281 330.387 61.9715 330.213 62.5444L327.378 71.8802C327.205 72.4531 327.452 73.0386 327.93 73.1881C328.409 73.3375 328.938 72.9942 329.112 72.4213L331.632 64.1227L338.568 66.287C339.047 66.4364 339.576 66.0931 339.75 65.5202C339.924 64.9473 339.677 64.3617 339.198 64.2123L331.395 61.7776ZM377.547 163.006C377.657 163.446 377.716 163.775 377.737 163.994C377.741 164.046 377.743 164.085 377.744 164.114C377.745 164.144 377.743 164.156 377.744 164.153C377.744 164.151 377.746 164.121 377.76 164.07C377.774 164.021 377.804 163.93 377.87 163.826C378.041 163.556 378.306 163.42 378.535 163.419C378.695 163.419 378.773 163.484 378.736 163.46C378.673 163.419 378.509 163.271 378.225 162.912C377.107 161.495 374.972 157.882 371.466 150.938C364.482 137.101 352.192 110.318 331.916 62.2727L330.245 63.3571C350.525 111.413 362.836 138.247 369.852 152.147C373.347 159.07 375.562 162.854 376.813 164.439C377.121 164.83 377.425 165.158 377.718 165.35C377.859 165.443 378.085 165.564 378.368 165.563C378.719 165.562 379.079 165.369 379.319 164.99C379.511 164.687 379.561 164.368 379.578 164.181C379.597 163.972 379.589 163.76 379.571 163.568C379.535 163.181 379.445 162.726 379.323 162.237L377.547 163.006Z" fill="#4ACFFF"/>
<path d="M354.163 109.564C353.813 111.656 352.2 112.802 350.853 112.577C349.506 112.352 348.355 110.742 348.705 108.651C349.055 106.559 350.668 105.412 352.014 105.638C353.361 105.863 354.513 107.472 354.163 109.564Z" fill="#FFFDFD" stroke="#4ACFFF" stroke-width="2"/>
<rect x="306" y="118" width="196" height="47" rx="18" fill="#FF8577" stroke="black" stroke-width="4"/>
<path d="M387.463 149.25C386.53 149.25 385.73 149.122 385.063 148.867C384.396 148.611 383.846 148.272 383.413 147.85C382.98 147.417 382.652 146.928 382.43 146.383C382.207 145.839 382.08 145.283 382.046 144.717H384.246C384.28 145.161 384.418 145.594 384.663 146.017C384.907 146.439 385.268 146.783 385.746 147.05C386.224 147.317 386.824 147.45 387.546 147.45C388.324 147.45 388.918 147.283 389.33 146.95C389.752 146.617 389.963 146.167 389.963 145.6C389.963 145.056 389.768 144.628 389.38 144.317C389.002 143.994 388.513 143.733 387.913 143.533L386.346 143.017C385.724 142.806 385.13 142.556 384.563 142.267C384.007 141.978 383.546 141.6 383.18 141.133C382.824 140.656 382.646 140.039 382.646 139.283C382.646 138.528 382.83 137.889 383.196 137.367C383.574 136.844 384.096 136.444 384.763 136.167C385.43 135.889 386.196 135.75 387.063 135.75C388.152 135.75 389.024 135.939 389.68 136.317C390.346 136.694 390.835 137.178 391.146 137.767C391.468 138.356 391.657 138.989 391.713 139.667H389.513C389.48 139.311 389.374 138.972 389.196 138.65C389.03 138.317 388.768 138.05 388.413 137.85C388.057 137.639 387.58 137.533 386.98 137.533C386.313 137.533 385.796 137.678 385.43 137.967C385.074 138.256 384.896 138.633 384.896 139.1C384.896 139.622 385.096 140.033 385.496 140.333C385.896 140.622 386.396 140.867 386.996 141.067L388.58 141.583C389.202 141.783 389.785 142.033 390.33 142.333C390.885 142.622 391.335 143.011 391.68 143.5C392.035 143.978 392.213 144.617 392.213 145.417C392.213 146.617 391.791 147.556 390.946 148.233C390.102 148.911 388.941 149.25 387.463 149.25ZM394.317 149V135.667H396.55V142.95H397.35L400.383 139H402.817V139.1L399.217 143.683L403.217 148.9V149H400.55L397.35 144.717H396.55V149H394.317ZM404.808 149V139H407.058V149H404.808ZM405.941 137.733C405.53 137.733 405.213 137.622 404.991 137.4C404.769 137.167 404.658 136.867 404.658 136.5C404.658 136.133 404.769 135.839 404.991 135.617C405.213 135.383 405.53 135.267 405.941 135.267C406.363 135.267 406.68 135.383 406.891 135.617C407.113 135.839 407.225 136.133 407.225 136.5C407.225 136.867 407.113 137.167 406.891 137.4C406.68 137.622 406.363 137.733 405.941 137.733ZM410.496 149C410.219 148.667 410.008 148.283 409.863 147.85C409.73 147.417 409.663 146.806 409.663 146.017V135.667H411.93V145.75C411.93 146.617 412.024 147.283 412.213 147.75C412.402 148.206 412.646 148.589 412.946 148.9V149H410.496ZM415.438 149C415.16 148.667 414.949 148.283 414.805 147.85C414.671 147.417 414.605 146.806 414.605 146.017V135.667H416.871V145.75C416.871 146.617 416.966 147.283 417.155 147.75C417.343 148.206 417.588 148.589 417.888 148.9V149H415.438ZM423.113 149.25C422.09 149.25 421.263 149.083 420.629 148.75C420.007 148.406 419.54 147.967 419.229 147.433C418.929 146.9 418.763 146.356 418.729 145.8H420.896C420.94 146.111 421.052 146.406 421.229 146.683C421.418 146.961 421.674 147.183 421.996 147.35C422.318 147.517 422.724 147.6 423.213 147.6C423.768 147.6 424.185 147.494 424.463 147.283C424.74 147.061 424.879 146.772 424.879 146.417C424.879 146.117 424.763 145.861 424.529 145.65C424.296 145.428 423.929 145.228 423.429 145.05L422.229 144.65C421.674 144.45 421.163 144.233 420.696 144C420.24 143.756 419.874 143.45 419.596 143.083C419.329 142.706 419.196 142.228 419.196 141.65C419.196 140.783 419.518 140.083 420.163 139.55C420.807 139.017 421.707 138.75 422.863 138.75C423.696 138.75 424.379 138.889 424.913 139.167C425.457 139.433 425.868 139.8 426.146 140.267C426.424 140.722 426.585 141.233 426.629 141.8H424.546C424.49 141.389 424.318 141.044 424.029 140.767C423.752 140.489 423.335 140.35 422.779 140.35C422.302 140.35 421.935 140.45 421.679 140.65C421.435 140.85 421.313 141.117 421.313 141.45C421.313 141.783 421.435 142.061 421.679 142.283C421.935 142.494 422.318 142.689 422.829 142.867L424.013 143.25C424.568 143.439 425.074 143.656 425.529 143.9C425.985 144.133 426.34 144.439 426.596 144.817C426.863 145.183 426.996 145.656 426.996 146.233C426.996 147.133 426.663 147.861 425.996 148.417C425.34 148.972 424.379 149.25 423.113 149.25Z" fill="black"/>
<path d="M524.928 172.439C525.037 172.622 525.11 172.822 525.146 173.032C525.168 173.214 525.152 173.402 525.097 173.581L525.093 173.595L525.089 173.609C525.033 173.803 524.94 173.987 524.815 174.148L522.018 177.157L522.013 177.163L522.008 177.168C521.842 177.351 521.631 177.491 521.395 177.574L521.395 177.574L521.385 177.578C521.236 177.632 521.083 177.664 520.93 177.674C520.514 177.689 520.116 177.545 519.814 177.28L512.041 170.273L510.579 168.956L509.696 170.714L505.353 179.361C505.209 179.632 504.986 179.857 504.711 180.007C504.438 180.156 504.127 180.222 503.819 180.198C503.513 180.161 503.228 180.039 502.994 179.849C502.757 179.657 502.583 179.401 502.49 179.114L502.482 179.088L502.473 179.063L491.447 148.574C491.358 148.308 491.334 148.024 491.379 147.744C491.429 147.484 491.551 147.24 491.735 147.04L491.743 147.031L491.751 147.022C491.938 146.813 492.179 146.657 492.449 146.571C492.714 146.488 492.994 146.476 493.261 146.536L524.945 154.981C525.23 155.064 525.487 155.22 525.689 155.432L525.692 155.435C525.89 155.642 526.025 155.902 526.082 156.191C526.131 156.459 526.107 156.739 526.01 157C525.905 157.248 525.742 157.471 525.535 157.65L517.025 162.661L515.259 163.701L516.784 165.07L524.514 172.008L524.561 172.05L524.611 172.088C524.744 172.189 524.851 172.309 524.927 172.437L524.928 172.439Z" fill="black" stroke="black" stroke-width="3"/>
</svg>
