<svg width="737" height="635" viewBox="0 0 737 635" fill="none" xmlns="http://www.w3.org/2000/svg">
<path d="M24 149.062C103.2 99.2629 215.407 126.042 268.241 196.08C278.426 209.581 287.248 232.098 291.221 248.996C292.248 253.364 295.927 248.502 297.768 246.902C304.145 241.358 311.68 237.788 319.884 236.233C351.476 230.246 378.343 275.4 390.209 296.989C408.991 331.159 422.012 368.331 439.127 403.396C442.345 409.988 445.968 401.817 449.33 398.387C464.469 382.944 493.384 387.15 510.78 393.667C530.952 401.224 551.63 411.518 567.801 425.723C573.328 430.579 576.67 436.429 580.058 442.923C581.405 445.505 583.168 453.018 585.855 454.418C588.217 455.648 592.556 440.283 593.377 438.472C597.966 428.351 603.872 426.518 614.978 425.392C642.914 422.56 658.193 435.284 678.164 452.451C690.975 463.463 705.826 473.659 712.255 489.933" stroke="#65A90F" stroke-width="48" stroke-linecap="round" stroke-linejoin="round"/>
<path d="M24 149.062C103.2 99.2629 215.407 126.042 268.241 196.08C278.426 209.581 287.248 232.098 291.221 248.996C292.248 253.364 295.927 248.502 297.768 246.902C304.145 241.358 311.68 237.788 319.884 236.233C351.477 230.246 378.343 275.4 390.209 296.989C408.991 331.159 422.012 368.331 439.127 403.396C442.345 409.988 445.968 401.817 449.331 398.387C464.469 382.944 493.384 387.15 510.78 393.667C530.952 401.224 551.631 411.518 567.801 425.724C573.328 430.579 576.671 436.429 580.058 442.923C581.405 445.505 583.168 453.018 585.855 454.418C588.217 455.648 592.556 440.283 593.377 438.472C597.966 428.351 603.872 426.518 614.978 425.392C642.914 422.56 658.193 435.284 678.164 452.451C690.975 463.463 705.826 473.659 712.255 489.933" stroke="black" stroke-width="4" stroke-linecap="round" stroke-linejoin="round"/>
<ellipse cx="194.097" cy="140.381" rx="8.29111" ry="8.72849" transform="rotate(40.6829 194.097 140.381)" fill="white" stroke="black" stroke-width="4"/>
<ellipse cx="291.876" cy="249.612" rx="8.29111" ry="8.72849" transform="rotate(40.6829 291.876 249.612)" fill="white" stroke="black" stroke-width="4"/>
<ellipse cx="388.352" cy="294.777" rx="8.29111" ry="8.72849" transform="rotate(40.6829 388.352 294.777)" fill="white" stroke="black" stroke-width="4"/>
</svg>
