<?xml version="1.0" encoding="UTF-8"?>
<svg id="Layer_1" data-name="Layer 1" xmlns="http://www.w3.org/2000/svg" version="1.1" viewBox="0 0 502 263">
  <defs>
    <style>
      .cls-1 {
        stroke: #65a90f;
        stroke-width: 48px;
      }

      .cls-1, .cls-2 {
        fill: none;
        stroke-linecap: round;
        stroke-linejoin: round;
      }

      .cls-2 {
        stroke-width: 4px;
      }

      .cls-2, .cls-3 {
        stroke: #000;
      }

      .cls-3 {
        fill: #fff;
        stroke-miterlimit: 4;
        stroke-width: 4px;
      }
    </style>
  </defs>
  <path class="cls-1" d="M443,135c-71.9,59.9-186.6,48.3-248.3-14.1-11.9-12-23.6-33.2-29.8-49.4-1.6-4.2-4.6,1.1-6.2,2.9-5.6,6.3-12.6,10.9-20.5,13.5-30.5,10.1-63.2-31-77.8-50.8C37.2,5.8,19.3-29.3-2.3-61.8c-4.1-6.1-6.6,2.5-9.4,6.3-12.9,17.3-42.2,17-60.3,12.9-21-4.8-42.9-12.3-60.8-24.2-6.1-4.1-10.2-9.4-14.4-15.4-1.7-2.4-4.4-9.6-7.3-10.6-2.5-.9-4.8,14.9-5.3,16.8-3.2,10.6-8.8,13.2-19.7,15.8-27.3,6.5-44.1-4-66.2-18.4-14.2-9.2-30.2-17.3-38.8-32.6"/>
  <path class="cls-2" d="M443,135c-71.9,59.9-186.6,48.3-248.3-14.1-11.9-12-23.6-33.2-29.8-49.4-1.6-4.2-4.6,1.1-6.2,2.9-5.6,6.3-12.6,10.9-20.5,13.5-30.5,10.1-63.2-31-77.8-50.8C37.2,5.8,19.3-29.3-2.3-61.8c-4.1-6.1-6.6,2.5-9.4,6.3-12.9,17.3-42.2,17-60.3,12.9-21-4.8-42.9-12.3-60.8-24.2-6.1-4.1-10.2-9.4-14.4-15.4-1.7-2.4-4.4-9.6-7.3-10.6-2.5-.9-4.8,14.9-5.3,16.8-3.2,10.6-8.8,13.2-19.7,15.8-27.3,6.5-44.1-4-66.2-18.4-14.2-9.2-30.2-17.3-38.8-32.6"/>
  <ellipse class="cls-3" cx="275.6" cy="166.3" rx="8.7" ry="8.3" transform="translate(-14 306.7) rotate(-57)"/>
  <ellipse class="cls-3" cx="164.1" cy="71" rx="8.7" ry="8.3" transform="translate(15.1 169.9) rotate(-57)"/>
  <ellipse class="cls-3" cx="62.5" cy="39.1" rx="8.7" ry="8.3" transform="translate(-4.4 70.2) rotate(-57)"/>
</svg>