<?xml version="1.0" encoding="utf-8"?>
<!-- Generator: Adobe Illustrator 27.9.4, SVG Export Plug-In . SVG Version: 9.03 Build 54784)  -->
<svg version="1.1" id="Layer_1" xmlns="http://www.w3.org/2000/svg" xmlns:xlink="http://www.w3.org/1999/xlink" x="0px" y="0px"
	 viewBox="0 0 211 356" style="enable-background:new 0 0 211 356;" xml:space="preserve">
<style type="text/css">
	.st0{fill:none;stroke:#65A90F;stroke-width:48;stroke-linecap:round;stroke-linejoin:round;}
	.st1{fill:none;stroke:#000000;stroke-width:4;stroke-linecap:round;stroke-linejoin:round;}
	.st2{fill:#FFFFFF;stroke:#000000;stroke-width:4;}
</style>
<path class="st0" d="M-363.9,88.1c14.7-22,65-18.9,73.1,0.9c0,0,59.1-83.6,79.9-30.4c11.7-23.6,45.9-19,81.1,1
	c20.2,11.5,50.7-66.7,77.2-34.4C1.7-2.8,12.3,61.6,12.3,61.6c6.8,14.8,11.1,25.3,23.5,38c25.7-42.9,88.9-23.9,118.7,18.2
	c29.7,42.1,8.7,68.9-63.8,81.8c44.9-25.7,111.3,63.6,67.8,97.6c-8.7,6.8-59.7,45.9-177.8-11.2c-1,80.6-138.7,84.8-166.6,40.5
	c-98.2,61-135.4,11.5-141.6-21.3"/>
<path class="st1" d="M-362,87.4c25-25.3,44.5-23.9,69.9,1.2c9.2,7,51.6-86.4,83.7-35.4c24-17.7,33.9-24.1,78.9,6.3
	c22.5,15.2,47.3-63,64.1-43.8c3.2,3.6,7.2,15.6,17.2,11.8c28.3-11,10.8-5.7,28.3-11C8.4,8.1,20.1,107,31.5,94.4
	c15.7-17.5,44.4-22.8,59.1-18.7c74.2,21,73.4,68.1,73.3,73c-0.1,4.9-0.7,39.8-42.4,46.9 M121.5,195.6
	C110.5,195.4,100.5,199.2,121.5,195.6z M121.5,195.6c14.8,3.1,80.1,49.8,39.8,104.3c-29.8,40.3-157.7,4-185.7-18.8
	c0,0-2.1,120.4-170.5,48.1l-18.4,10.8l-25.3,12.4l-11.2,4.3l-17.4,1.4l-12.9-0.2l-12.9-4.4l-11-6.5l-8.3-8.8L-319,327l-11.2-23.9"/>
<ellipse transform="matrix(1.762691e-02 -0.9998 0.9998 1.762691e-02 -515.5939 129.4781)" class="st2" cx="-191.9" cy="327.1" rx="5.6" ry="7.1"/>
<ellipse transform="matrix(1.762691e-02 -0.9998 0.9998 1.762691e-02 -304.7979 255.349)" class="st2" cx="-22.5" cy="282.8" rx="5.6" ry="7.1"/>
<path class="st2" d="M104.8,200.8c-2,2.6-6.4,3.5-9.8,1.9c-3.4-1.6-4.5-5-2.5-7.6c2-2.6,6.4-3.5,9.8-1.9
	C105.7,194.8,106.8,198.2,104.8,200.8z"/>
<ellipse transform="matrix(1.762691e-02 -0.9998 0.9998 1.762691e-02 -63.9569 125.1784)" class="st2" cx="31.7" cy="95.1" rx="5.6" ry="7.1"/>
<ellipse transform="matrix(1.762691e-02 -0.9998 0.9998 1.762691e-02 -78.3427 -23.2181)" class="st2" cx="-51" cy="28.3" rx="5.6" ry="7.1"/>
<ellipse transform="matrix(1.762691e-02 -0.9998 0.9998 1.762691e-02 -175.1437 -57.246)" class="st2" cx="-116.7" cy="60.5" rx="5.6" ry="7.1"/>
<ellipse transform="matrix(1.762691e-02 -0.9998 0.9998 1.762691e-02 -254.2916 -156.2843)" class="st2" cx="-206.7" cy="51.3" rx="5.6" ry="7.1"/>
</svg>
