<svg width="1043" height="1047" viewBox="0 0 1043 1047" fill="none" xmlns="http://www.w3.org/2000/svg">
<path d="M276.147 369.396C292.939 342.317 342.892 349.707 348.973 375.688C348.973 375.688 416.134 272.922 431.618 342.441C445.616 313.083 479.284 321.361 512.432 349.425C531.44 365.517 569.567 267.717 592.845 310.797C649.723 278.657 654.037 361.662 654.037 361.662C659.405 381.023 662.658 394.834 673.781 411.911C703.559 358.901 764.819 387.54 790.371 443.479C815.922 499.417 792.337 532.21 718.722 543.635C765.978 513.958 823.519 632.724 776.821 673.163C767.483 681.249 712.823 727.662 600.524 646.44C591.624 749.426 453.873 745.175 430.353 686.619C326.39 757.823 294.105 691.877 291.13 649.566" stroke="#FF8577" stroke-width="48" stroke-linecap="round" stroke-linejoin="round"/>
<path d="M278.362 370.627C305.652 339.84 324.987 342.861 348.041 376.649C356.572 386.137 407.573 269.385 434.896 336.679C460.452 315.601 470.961 308.001 513.09 349.706C534.117 370.522 566.126 272.192 581.108 297.815C583.925 302.633 586.886 318.287 597.175 313.982C626.446 301.734 608.496 307.347 626.446 301.733C655.392 292.681 657.873 419.986 670.406 404.507C687.694 383.155 716.821 378.107 731.162 384.389C803.311 415.992 798.112 476.155 797.574 482.378C797.036 488.601 793.179 533.229 750.866 539.693M750.866 539.693C739.891 538.744 729.537 542.951 750.866 539.693ZM750.866 539.693C765.359 544.653 826.187 608.417 780.878 675.571C747.371 725.233 623.12 670.61 597.238 639.713C597.238 639.713 583.948 793.509 422.577 690.448L403.23 703.106L376.81 717.392L365.198 722.21L347.671 722.935L334.781 721.821L322.351 715.373L311.93 706.412L304.445 694.569L299.007 679.769L290.062 648.545" stroke="black" stroke-width="4" stroke-linecap="round" stroke-linejoin="round"/>
<circle cx="289.865" cy="644.879" r="7.13842" transform="rotate(34.8945 289.865 644.879)" fill="white" stroke="black" stroke-width="4"/>
<circle cx="425.858" cy="687.979" r="7.13842" transform="rotate(34.8945 425.858 687.979)" fill="white" stroke="black" stroke-width="4"/>
<circle cx="599.101" cy="642.047" r="7.13842" transform="rotate(34.8945 599.101 642.047)" fill="white" stroke="black" stroke-width="4"/>
<path d="M733.684 545.302C731.429 548.535 726.979 549.328 723.746 547.073C720.512 544.818 719.719 540.368 721.974 537.134C724.23 533.901 728.679 533.108 731.913 535.363C735.146 537.618 735.94 542.068 733.684 545.302Z" fill="white" stroke="black" stroke-width="4"/>
<circle cx="670.593" cy="405.51" r="7.13842" transform="rotate(34.8945 670.593 405.51)" fill="white" stroke="black" stroke-width="4"/>
<circle cx="594.25" cy="314.723" r="7.13842" transform="rotate(34.8945 594.25 314.723)" fill="white" stroke="black" stroke-width="4"/>
<circle cx="525.666" cy="351.787" r="7.13842" transform="rotate(34.8945 525.666 351.787)" fill="white" stroke="black" stroke-width="4"/>
<circle cx="436.723" cy="334.249" r="7.13842" transform="rotate(34.8945 436.723 334.249)" fill="white" stroke="black" stroke-width="4"/>
<circle cx="350.788" cy="375.186" r="7.13842" transform="rotate(34.8945 350.788 375.186)" fill="white" stroke="black" stroke-width="4"/>
<circle cx="277.89" cy="368.886" r="7.13842" transform="rotate(34.8945 277.89 368.886)" fill="white" stroke="black" stroke-width="4"/>
</svg>
