<svg width="438" height="406" viewBox="0 0 438 406" fill="none" xmlns="http://www.w3.org/2000/svg">
<path d="M-247.96 867.645C-364.541 696.948 -334.14 446.867 -180.057 309.074C-25.9746 171.28 193.442 197.953 310.024 368.65" stroke="#2E5CFF" stroke-width="48" stroke-linecap="round"/>
<path d="M-247.96 867.645C-364.541 696.948 -334.14 446.867 -180.057 309.074C-25.9746 171.28 193.442 197.953 310.024 368.65" stroke="black" stroke-width="4"/>
<ellipse cx="309.862" cy="368.213" rx="7.01725" ry="7.99793" transform="rotate(6.9311 309.862 368.213)" fill="white" stroke="black" stroke-width="4"/>
<g clip-path="url(#clip0_97_12)">
<path d="M401.128 240.233C402.745 238.616 404.666 237.333 406.779 236.457C408.892 235.582 411.157 235.131 413.444 235.131C415.732 235.131 417.997 235.581 420.11 236.456C422.223 237.331 424.144 238.614 425.761 240.232C427.379 241.849 428.662 243.769 429.537 245.882C430.413 247.995 430.863 250.26 430.864 252.548C430.864 254.835 430.413 257.1 429.538 259.213C428.663 261.327 427.38 263.247 425.763 264.865L422.553 268.074L423.533 269.058C424.691 270.215 425.609 271.59 426.236 273.103C426.863 274.616 427.185 276.237 427.185 277.875C427.185 279.512 426.863 281.134 426.236 282.647C425.609 284.16 424.691 285.534 423.533 286.692L415.581 294.643C414.909 295.292 414.009 295.651 413.075 295.643C412.141 295.635 411.248 295.261 410.587 294.6C409.927 293.94 409.552 293.046 409.544 292.112C409.536 291.178 409.895 290.278 410.544 289.606L418.495 281.655C418.992 281.158 419.386 280.569 419.655 279.921C419.923 279.272 420.062 278.577 420.062 277.875C420.062 277.173 419.923 276.478 419.655 275.829C419.386 275.18 418.992 274.591 418.495 274.095L417.512 273.112L364.153 326.478C362.357 328.275 360.079 329.515 357.594 330.048L335.436 334.796C334.854 334.922 334.25 334.899 333.679 334.731C333.108 334.562 332.588 334.254 332.167 333.833C331.746 333.412 331.437 332.892 331.269 332.321C331.101 331.75 331.078 331.146 331.203 330.564L335.952 308.405C336.485 305.921 337.725 303.643 339.522 301.847L401.128 240.233Z" fill="black"/>
<path d="M332.679 341.359C328.705 343.33 324.324 339.536 325.706 335.321L332.571 314.401C333.684 311.007 337.895 309.842 340.595 312.18L353.455 323.318C356.155 325.656 355.604 329.989 352.404 331.577L332.679 341.359Z" fill="#0F43F8"/>
</g>
<defs>
<clipPath id="clip0_97_12">
<rect width="114" height="114" fill="white" transform="translate(324 228)"/>
</clipPath>
</defs>
</svg>
