<svg width="752" height="300" viewBox="0 0 752 300" fill="none" xmlns="http://www.w3.org/2000/svg">
<path d="M752 135C680.137 194.903 565.363 183.306 503.673 120.927C491.781 108.903 480.039 87.7608 473.851 71.5424C472.252 67.3507 469.252 72.6588 467.641 74.4903C462.059 80.8342 455.067 85.3752 447.142 88.0089C416.629 98.1495 383.988 56.9758 369.353 37.16C346.188 5.79559 328.332 -29.3122 306.7 -61.785C302.633 -67.8903 300.131 -59.309 297.255 -55.4618C284.307 -38.1407 255.091 -38.4587 236.982 -42.6007C215.983 -47.4038 194.117 -54.8529 176.199 -66.7781C170.074 -70.8545 165.983 -76.2071 161.761 -82.1918C160.082 -84.5715 157.334 -91.7829 154.484 -92.8123C151.98 -93.7172 149.726 -77.9111 149.153 -76.0072C145.953 -65.3652 140.344 -62.7618 129.487 -60.1669C102.176 -53.6394 85.3393 -64.2153 63.2595 -78.5706C49.0967 -87.7785 33.0201 -95.9057 24.4814 -111.178" stroke="#65A90F" stroke-width="48" stroke-linecap="round" stroke-linejoin="round"/>
<path d="M752 135C680.138 194.903 565.363 183.306 503.673 120.927C491.781 108.903 480.039 87.7607 473.851 71.5424C472.251 67.3506 469.252 72.6588 467.641 74.4903C462.059 80.8342 455.067 85.3752 447.142 88.0089C416.629 98.1495 383.988 56.9758 369.353 37.16C346.188 5.79558 328.332 -29.3122 306.7 -61.785C302.633 -67.8903 300.131 -59.3091 297.255 -55.4618C284.307 -38.1407 255.091 -38.4588 236.982 -42.6008C215.983 -47.4038 194.117 -54.8529 176.199 -66.7781C170.074 -70.8545 165.983 -76.2071 161.761 -82.1918C160.082 -84.5715 157.334 -91.7829 154.484 -92.8123C151.98 -93.7172 149.726 -77.9111 149.153 -76.0072C145.953 -65.3652 140.344 -62.7618 129.487 -60.1669C102.176 -53.6394 85.3393 -64.2154 63.2595 -78.5706C49.0967 -87.7785 33.0201 -95.9057 24.4814 -111.178" stroke="black" stroke-width="4" stroke-linecap="round" stroke-linejoin="round"/>
<ellipse cx="584.575" cy="166.256" rx="8.29111" ry="8.72849" transform="rotate(-146.97 584.575 166.256)" fill="white" stroke="black" stroke-width="4"/>
<ellipse cx="473.12" cy="71.0192" rx="8.29111" ry="8.72849" transform="rotate(-146.97 473.12 71.0192)" fill="white" stroke="black" stroke-width="4"/>
<ellipse cx="371.488" cy="39.1046" rx="8.29111" ry="8.72849" transform="rotate(-146.97 371.488 39.1046)" fill="white" stroke="black" stroke-width="4"/>
</svg>
