<?xml version="1.0" encoding="UTF-8"?>
<svg id="Layer_1" data-name="Layer 1" xmlns="http://www.w3.org/2000/svg" xmlns:xlink="http://www.w3.org/1999/xlink" version="1.1" viewBox="0 0 438 222">
  <defs>
    <style>
      .cls-1 {
        clip-path: url(#clippath);
      }

      .cls-2, .cls-3, .cls-4 {
        stroke-width: 0px;
      }

      .cls-2, .cls-5, .cls-6 {
        fill: none;
      }

      .cls-3 {
        fill: #0f43f8;
      }

      .cls-5 {
        stroke: #2e5cff;
        stroke-linecap: round;
        stroke-width: 48px;
      }

      .cls-4 {
        fill: #000;
      }

      .cls-6 {
        stroke-width: 4px;
      }

      .cls-6, .cls-7 {
        stroke: #000;
      }

      .cls-7 {
        fill: #fff;
        stroke-miterlimit: 4;
        stroke-width: 4px;
      }
    </style>
    <clipPath id="clippath">
      <rect class="cls-2" x="324" y="44" width="114" height="114"/>
    </clipPath>
  </defs>
  <path class="cls-5" d="M-248,683.6c-116.6-170.7-86.2-420.8,67.9-558.6C-26-12.7,193.4,14,310,184.6"/>
  <path class="cls-6" d="M-248,683.6c-116.6-170.7-86.2-420.8,67.9-558.6C-26-12.7,193.4,14,310,184.6"/>
  <ellipse class="cls-7" cx="309.9" cy="184.2" rx="8" ry="7" transform="translate(89.6 469.6) rotate(-83.1)"/>
  <g class="cls-1">
    <g>
      <path class="cls-4" d="M401.1,56.2c1.6-1.6,3.5-2.9,5.7-3.8,2.1-.9,4.4-1.3,6.7-1.3s4.6.4,6.7,1.3c2.1.9,4,2.2,5.7,3.8,1.6,1.6,2.9,3.5,3.8,5.7.9,2.1,1.3,4.4,1.3,6.7,0,2.3-.5,4.6-1.3,6.7-.9,2.1-2.2,4-3.8,5.7l-3.2,3.2,1,1c1.2,1.2,2.1,2.5,2.7,4,.6,1.5.9,3.1.9,4.8s-.3,3.3-.9,4.8c-.6,1.5-1.5,2.9-2.7,4l-8,8c-.7.6-1.6,1-2.5,1-.9,0-1.8-.4-2.5-1s-1-1.6-1-2.5.4-1.8,1-2.5l8-8c.5-.5.9-1.1,1.2-1.7.3-.6.4-1.3.4-2s-.1-1.4-.4-2c-.3-.6-.7-1.2-1.2-1.7l-1-1-53.4,53.4c-1.8,1.8-4.1,3-6.6,3.6l-22.2,4.7c-.6.1-1.2.1-1.8,0-.6-.2-1.1-.5-1.5-.9-.4-.4-.7-.9-.9-1.5-.2-.6-.2-1.2,0-1.8l4.7-22.2c.5-2.5,1.8-4.8,3.6-6.6l61.6-61.6Z"/>
      <path class="cls-3" d="M332.7,157.4c-4,2-8.4-1.8-7-6l6.9-20.9c1.1-3.4,5.3-4.6,8-2.2l12.9,11.1c2.7,2.3,2.1,6.7-1.1,8.3l-19.7,9.8Z"/>
    </g>
  </g>
</svg>