<?xml version="1.0" encoding="UTF-8"?>
<svg id="Layer_1" data-name="Layer 1" xmlns="http://www.w3.org/2000/svg" version="1.1" viewBox="0 0 551.9 217.3">
  <defs>
    <style>
      .cls-1 {
        stroke: #a259ff;
        stroke-linecap: round;
        stroke-width: 48px;
      }

      .cls-1, .cls-2 {
        fill: none;
      }

      .cls-2 {
        stroke-width: 4px;
      }

      .cls-2, .cls-3 {
        stroke: #000;
      }

      .cls-4, .cls-3 {
        fill: #fff;
      }

      .cls-4, .cls-5 {
        fill-rule: evenodd;
        stroke-width: 0px;
      }

      .cls-3 {
        stroke-miterlimit: 4;
        stroke-width: 4px;
      }

      .cls-5 {
        fill: #000;
      }
    </style>
  </defs>
  <path class="cls-1" d="M65.6,760.9C-94.1,629.7-134.8,381.1-25.4,205.7,84,30.3,302.1-5.5,461.8,125.8"/>
  <path class="cls-2" d="M65.6,760.9C-94.1,629.7-134.8,381.1-25.4,205.7,84,30.3,302.1-5.5,461.8,125.8"/>
  <ellipse class="cls-3" cx="461.5" cy="125.5" rx="7" ry="8" transform="translate(-14.2 76.2) rotate(-9.3)"/>
  <path class="cls-4" d="M514.2,93.9c10.6-5.1,17-18.1,14.7-31.9-.5-3.1-1.4-6.1-2.7-8.8l9.9-15.8-19.8-16.3-9.8,15.7c-2.7-.5-5.5-.6-8.4-.2-12.5,2.1-21.3,13.9-21.5,27.8l-4.3,51.1,41.8-21.6h0Z"/>
  <path class="cls-5" d="M474.9,115.1l.9-1.4.7-.4,37.7-19.5c10.6-5.1,17-18.1,14.7-31.9-.5-3.1-1.4-6.1-2.7-8.8l9.9-15.8-16.7-13.7-3.1-2.6-2.1,3.4-7.7,12.3c-2.7-.5-5.5-.6-8.4-.2-12.5,2.1-21.3,13.9-21.5,27.8l-3.9,46.3v.3h0c0,0-1.1,1.8-1.1,1.8l.9.6-.2,2,1.8-.9.8.5v.2ZM495.9,74l-18.6,29.8,3.3-38.9h0v-.3c.2-12.4,7.9-22.3,18.2-23.9,2.4-.4,4.7-.3,6.9,0l2.7.5,1.5-2.4,7.4-11.9,13.6,11.2-8,12.9-1.1,1.8.9,2c1.1,2.4,1.9,5,2.4,7.8,2,12.3-3.7,23.4-12.5,27.6h0l-32.4,16.8,19.1-30.6c1.2.5,2.5.8,3.9.5,4-.7,6.7-4.9,5.9-9.5s-4.6-7.8-8.7-7.1c-4,.7-6.7,4.9-5.9,9.5.3,1.5.8,2.9,1.7,4h-.3Z"/>
</svg>