<?xml version="1.0" encoding="utf-8"?>
<!-- Generator: Adobe Illustrator 27.9.4, SVG Export Plug-In . SVG Version: 9.03 Build 54784)  -->
<svg version="1.1" id="Layer_1" xmlns="http://www.w3.org/2000/svg" xmlns:xlink="http://www.w3.org/1999/xlink" x="0px" y="0px"
	 viewBox="0 0 584.5 386" style="enable-background:new 0 0 584.5 386;" xml:space="preserve">
<style type="text/css">
	.st0{fill:none;stroke:#65A90F;stroke-width:48;stroke-linecap:round;stroke-linejoin:round;}
	.st1{fill:none;stroke:#000000;stroke-width:4;stroke-linecap:round;stroke-linejoin:round;}
	.st2{fill:#FFFFFF;stroke:#000000;stroke-width:4;}
</style>
<path class="st0" d="M24,94.7c14.7-22,65-18.9,73.1,0.9c0,0,59.1-83.6,79.9-30.4c11.7-23.6,45.9-19,81.1,1
	c20.2,11.5,50.7-66.7,77.2-34.4c54.3-28.1,64.9,36.2,64.9,36.2c6.8,14.8,11.1,25.3,23.5,38c25.7-42.9,88.9-23.9,118.7,18.2
	c29.7,42.1,8.7,68.9-63.8,81.8c44.9-25.7,111.3,63.6,67.8,97.6c-8.7,6.8-59.7,45.9-177.8-11.2c-1,80.6-138.7,84.8-166.6,40.5
	c-98.2,61-135.4,11.5-141.6-21.3"/>
<path class="st1" d="M25.9,93.9c25-25.3,44.5-23.9,69.9,1.2c9.2,7,51.6-86.4,83.7-35.4c24-17.7,33.9-24.1,78.9,6.3
	c22.5,15.2,47.3-63,64.1-43.8c3.2,3.6,7.2,15.6,17.2,11.8c28.3-11,10.8-5.7,28.3-11c28.2-8.5,39.9,90.5,51.3,77.8
	C435,83.4,463.7,78,478.5,82.2c74.2,21,73.4,68.1,73.3,73c-0.1,4.9-0.7,39.8-42.4,46.9 M509.4,202.1
	C498.3,201.9,488.3,205.7,509.4,202.1z M509.4,202.1c14.8,3.1,80.1,49.8,39.8,104.3c-29.8,40.3-157.7,4-185.7-18.8
	c0,0-2.1,120.4-170.5,48.1l-18.4,10.8L149.2,359l-11.2,4.3l-17.4,1.4l-12.9-0.2l-12.9-4.4l-11-6.5l-8.3-8.8l-6.5-11.2l-11.2-23.9"/>
<ellipse transform="matrix(1.762691e-02 -0.9998 0.9998 1.762691e-02 -141.0772 523.6914)" class="st2" cx="196" cy="333.6" rx="5.6" ry="7.1"/>
<ellipse transform="matrix(1.762691e-02 -0.9998 0.9998 1.762691e-02 69.7188 649.5623)" class="st2" cx="365.4" cy="289.3" rx="5.6" ry="7.1"/>
<path class="st2" d="M492.6,207.3c-2,2.6-6.4,3.5-9.8,1.9c-3.4-1.6-4.5-5-2.5-7.6c2-2.6,6.4-3.5,9.8-1.9
	C493.5,201.3,494.6,204.7,492.6,207.3z"/>
<ellipse transform="matrix(1.762691e-02 -0.9998 0.9998 1.762691e-02 310.5598 519.3918)" class="st2" cx="419.6" cy="101.7" rx="5.6" ry="7.1"/>
<ellipse transform="matrix(1.762691e-02 -0.9998 0.9998 1.762691e-02 296.1739 370.9953)" class="st2" cx="336.9" cy="34.8" rx="5.6" ry="7.1"/>
<ellipse transform="matrix(1.762691e-02 -0.9998 0.9998 1.762691e-02 199.373 336.9673)" class="st2" cx="271.2" cy="67" rx="5.6" ry="7.1"/>
<ellipse transform="matrix(1.762691e-02 -0.9998 0.9998 1.762691e-02 120.2251 237.9291)" class="st2" cx="181.2" cy="57.8" rx="5.6" ry="7.1"/>
</svg>
