<svg width="456" height="968" viewBox="0 0 456 968" fill="none" xmlns="http://www.w3.org/2000/svg">
<path d="M-121.875 927.491C-281.543 796.21 -322.294 547.606 -212.896 372.219C-103.498 196.832 114.623 161.077 274.291 292.358" stroke="#A259FF" stroke-width="48" stroke-linecap="round"/>
<path d="M-121.875 927.491C-281.543 796.21 -322.294 547.606 -212.896 372.219C-103.498 196.832 114.623 161.077 274.291 292.358" stroke="black" stroke-width="4"/>
<ellipse cx="274.013" cy="291.984" rx="7.01725" ry="7.99793" transform="rotate(-9.30921 274.013 291.984)" fill="white" stroke="black" stroke-width="4"/>
<path fill-rule="evenodd" clip-rule="evenodd" d="M326.687 260.46C337.326 255.334 343.684 242.386 341.423 228.589C340.909 225.453 339.987 222.501 338.731 219.794L348.592 203.947L328.801 187.638L319.011 203.371C316.295 202.826 313.476 202.753 310.635 203.218C298.098 205.273 289.305 217.15 289.106 231.052L284.838 282.105L326.687 260.46Z" fill="white"/>
<path fill-rule="evenodd" clip-rule="evenodd" d="M287.456 281.687L288.318 280.305L289.033 279.935L326.687 260.46C337.326 255.334 343.684 242.386 341.423 228.589C340.909 225.453 339.987 222.501 338.731 219.794L348.592 203.947L331.915 190.205L328.801 187.638L326.669 191.065L319.011 203.371C316.295 202.826 313.476 202.753 310.635 203.218C298.098 205.273 289.305 217.15 289.106 231.052L285.231 277.398L285.203 277.741L285.121 277.873L284.062 279.57L285.001 280.155L284.838 282.105L286.636 281.175L287.456 281.687ZM308.418 240.523L289.838 270.31L293.092 231.385L293.104 231.247L293.106 231.109C293.283 218.719 301.049 208.843 311.282 207.166C313.634 206.78 315.968 206.84 318.224 207.293L320.943 207.838L322.407 205.484L329.783 193.631L343.346 204.807L335.335 217.681L334.193 219.516L335.103 221.477C336.205 223.855 337.02 226.459 337.475 229.236C339.494 241.551 333.76 252.612 324.951 256.856L324.9 256.881L324.85 256.907L292.464 273.657L311.534 243.085C312.733 243.629 314.059 243.836 315.402 243.615C319.436 242.954 322.095 238.691 321.341 234.094C320.588 229.497 316.707 226.306 312.673 226.967C308.64 227.628 305.981 231.891 306.734 236.488C306.985 238.019 307.583 239.394 308.418 240.523Z" fill="black"/>
</svg>
