<?xml version="1.0" encoding="utf-8"?>
<!-- Generator: Adobe Illustrator 27.9.4, SVG Export Plug-In . SVG Version: 9.03 Build 54784)  -->
<svg version="1.1" id="Layer_1" xmlns="http://www.w3.org/2000/svg" xmlns:xlink="http://www.w3.org/1999/xlink" x="0px" y="0px"
	 viewBox="0 0 572.2 476.1" style="enable-background:new 0 0 572.2 476.1;" xml:space="preserve">
<style type="text/css">
	.st0{fill:none;stroke:#4ACFFF;stroke-width:48;stroke-linecap:round;stroke-linejoin:round;}
	.st1{fill:none;stroke:#000000;stroke-width:4;stroke-linecap:round;stroke-linejoin:round;}
	.st2{fill:#FFFFFF;stroke:#000000;stroke-width:4;}
</style>
<path class="st0" d="M28.9,93.8c16.8-27.1,66.7-19.7,72.8,6.3c0,0,67.2-102.8,82.6-33.2c14-29.4,47.7-21.1,80.8,7
	c19,16.1,57.1-81.7,80.4-38.6c56.9-32.1,61.2,50.9,61.2,50.9c5.4,19.4,8.6,33.2,19.7,50.2c29.8-53,91-24.4,116.6,31.6
	c25.6,55.9,2,88.7-71.6,100.2c47.3-29.7,104.8,89.1,58.1,129.5c-9.3,8.1-64,54.5-176.3-26.7c-8.9,103-146.7,98.7-170.2,40.2
	c-104,71.2-136.2,5.3-139.2-37.1"/>
<path class="st1" d="M31.1,95.1c27.3-30.8,46.6-27.8,69.7,6c8.5,9.5,59.5-107.3,86.9-40c25.6-21.1,36.1-28.7,78.2,13
	c21,20.8,53-77.5,68-51.9c2.8,4.8,5.8,20.5,16.1,16.2c29.3-12.2,11.3-6.6,29.3-12.2c28.9-9.1,31.4,118.3,44,102.8
	c17.3-21.4,46.4-26.4,60.8-20.1c72.1,31.6,66.9,91.8,66.4,98c-0.5,6.2-4.4,50.9-46.7,57.3 M503.6,264.1
	C492.6,263.2,482.3,267.4,503.6,264.1z M503.6,264.1c14.5,5,75.3,68.7,30,135.9c-33.5,49.7-157.8-5-183.6-35.9
	c0,0-13.3,153.8-174.7,50.7L156,427.5l-26.4,14.3l-11.6,4.8l-17.5,0.7l-12.9-1.1l-12.4-6.4l-10.4-9L57.2,419l-5.4-14.8L42.8,373"/>
<circle class="st2" cx="42.6" cy="369.3" r="7.1"/>
<circle class="st2" cx="178.6" cy="412.4" r="7.1"/>
<circle class="st2" cx="351.9" cy="366.5" r="7.1"/>
<path class="st2" d="M486.4,269.7c-2.3,3.2-6.7,4-9.9,1.8c-3.2-2.3-4-6.7-1.8-9.9c2.3-3.2,6.7-4,9.9-1.8
	C487.9,262.1,488.7,266.5,486.4,269.7z"/>
<path class="st2" d="M429.2,134c-2.3,3.2-6.7,4-9.9,1.8c-3.2-2.3-4-6.7-1.8-9.9c2.3-3.2,6.7-4,9.9-1.8
	C430.7,126.3,431.5,130.8,429.2,134z"/>
<circle class="st2" cx="347" cy="39.2" r="7.1"/>
<circle class="st2" cx="278.4" cy="76.2" r="7.1"/>
<circle class="st2" cx="189.5" cy="58.7" r="7.1"/>
<circle class="st2" cx="103.5" cy="99.6" r="7.1"/>
<circle class="st2" cx="30.6" cy="93.3" r="7.1"/>
</svg>
