<?xml version="1.0" encoding="UTF-8"?>
<svg id="Layer_1" data-name="Layer 1" xmlns="http://www.w3.org/2000/svg" version="1.1" viewBox="0 0 611 142">
  <defs>
    <style>
      .cls-1 {
        stroke-width: 4px;
      }

      .cls-1, .cls-2, .cls-3 {
        stroke: #000;
      }

      .cls-1, .cls-4 {
        fill: none;
        stroke-linecap: round;
        stroke-linejoin: round;
      }

      .cls-2 {
        stroke-width: 3.8px;
      }

      .cls-2, .cls-3 {
        fill: #fff;
        stroke-miterlimit: 4;
      }

      .cls-4 {
        stroke: #699bf7;
        stroke-width: 48px;
      }

      .cls-3 {
        stroke-width: 4px;
      }
    </style>
  </defs>
  <path class="cls-4" d="M729.5,88.4c-91.6-7.2-183.2-14.5-274.8-21.7-6.8-.5-7.4-.2-6.8-7.1.6-6.3,2.6-12.4,3.1-18.7.2-2.5-1.3-.4-2.4.7-8.3,8.4-17.2,15.7-26.9,22.4-23.1,16-48.7,29.6-76.4,35.8-8.2,1.8-22.5,3.6-30.8.1-7.6-3.2-.4-38.9.2-47,.2-2.4,2.7-13.2.8-15-1.5-1.4-38.8,21-41.6,22.4-21.6,10.6-97.6,47-97.5-1.9,0-10.3.8-20.4,1.6-30.7.8-10.3-41.8,11-43.2,11.5-30.8,12.2-58.6,21.1-91.8,19.6-6.5-.3-13.1-.5-19.1-3.1"/>
  <path class="cls-1" d="M729.5,88.4c-29.3-2.3-281-15.9-280.4-22.3.6-6.3,1.5-19,2-25.3.2-2.5-1.3-.4-2.4.7-8.3,8.4-17.2,15.7-26.9,22.4-23.1,16-48.7,29.6-76.4,35.8-8.2,1.8-22.5,3.6-30.8.1-7.6-3.2-.4-38.9.2-47,.2-2.4,2.7-13.2.8-15-1.5-1.4-38.8,21-41.6,22.4-21.6,10.6-97.6,47-97.5-1.9,0-10.3.8-20.4,1.6-30.7.8-10.3-41.8,11-43.2,11.5-30.8,12.2-58.6,21.1-91.8,19.6-6.5-.3-13.1-.5-19.1-3.1"/>
  <circle class="cls-3" cx="24.3" cy="56.2" r="8"/>
  <circle class="cls-3" cx="175.5" cy="28.3" r="8"/>
  <circle class="cls-3" cx="211.9" cy="81.8" r="8"/>
  <circle class="cls-3" cx="317.1" cy="35.7" r="8"/>
  <circle class="cls-3" cx="317.9" cy="101.3" r="8"/>
  <circle class="cls-2" cx="450.5" cy="44.4" r="6.4"/>
  <circle class="cls-2" cx="448" cy="75.8" r="6.4"/>
</svg>