<?xml version="1.0" encoding="UTF-8"?>
<svg id="Layer_1" data-name="Layer 1" xmlns="http://www.w3.org/2000/svg" version="1.1" viewBox="0 0 298 466.8">
  <defs>
    <style>
      .cls-1 {
        fill: #fff;
      }

      .cls-1, .cls-2 {
        stroke: #000;
        stroke-width: 4px;
      }

      .cls-2, .cls-3 {
        fill: none;
        stroke-linecap: round;
        stroke-linejoin: round;
      }

      .cls-3 {
        stroke: #7795ff;
        stroke-width: 48px;
      }
    </style>
  </defs>
  <path class="cls-3" d="M603,258c-7.4,25.4-56.3,37.7-70,21.1,0,0-31.2,97.5-67,53-4.1,26-38.1,31.9-77.7,23.4-22.7-4.9-28.3,78.9-63.3,56.1-43.3,43.1-72.8-15-72.8-15-11-12-18.2-20.8-33.9-29.2-11.6,48.6-77.6,49.6-118.6,18.4-41-31.2-29.1-63.1,36.2-97.2-35,38-125.3-27.2-94-72.7,6.2-9.1,43.1-61.7,172.9-42.9-23.3-77.2,106.7-122.6,146.7-88.8,75.3-87.8,125.7-51.8,141.5-22.4"/>
  <path class="cls-2" d="M601.6,257.9c-16.1,31.7-35,36.4-67,20.2-10.9-3.8-22.7,98.1-68.9,59.3-17.4,24.2-24.9,33.3-77.1,18.2-26-7.6-25.8,74.4-47.6,61.3-4.1-2.5-11.7-12.7-20-6-23.6,19.1-8.5,8.8-23.6,19.1-24.3,16.7-65.7-73.9-72.6-58.4-9.6,21.4-35.3,35.3-50.6,35.9-77.1,2.7-90.7-42.4-92.1-47.1s-11.5-38.1,26.1-57.7M108.2,302.7c10.5-3.2,18.9-9.9,0,0ZM108.2,302.7c-15.1,1.5-91.5-22.9-69.7-87.1,16.1-47.5,148.9-52,182.6-38.9,0,0-34.8-115.2,147.6-98l14.2-15.9,20.3-19.6,9.4-7.6,16.2-6.7,12.4-3.7,13.6.3,12.5,2.8,10.6,5.9,9.6,8.7,17.9,19.3"/>
  <path class="cls-1" d="M504.6,70.4c-3.7-.5-5.8-3.4-4.7-6.5s5-5.3,8.7-4.8c3.7.5,5.8,3.4,4.7,6.5-1.1,3.1-5,5.3-8.7,4.8h0Z"/>
  <path class="cls-1" d="M364.3,87.3c-3.7-.5-5.8-3.4-4.7-6.5s5-5.3,8.7-4.8,5.8,3.4,4.7,6.5-5,5.3-8.7,4.8Z"/>
  <path class="cls-1" d="M216.6,181.3c-3.7-.5-5.8-3.4-4.7-6.5s5-5.3,8.7-4.8,5.8,3.4,4.7,6.5-5,5.3-8.7,4.8Z"/>
  <path class="cls-1" d="M122.5,292.6c1.1-3.1,5-5.3,8.7-4.8s5.8,3.4,4.7,6.5-5,5.3-8.7,4.8-5.8-3.4-4.7-6.5Z"/>
  <path class="cls-1" d="M222.3,376.6c-3.7-.5-5.8-3.4-4.7-6.5s5-5.3,8.7-4.8,5.8,3.4,4.7,6.5-5,5.3-8.7,4.8Z"/>
  <path class="cls-1" d="M321.5,414.9c-3.7-.5-5.8-3.4-4.7-6.5s5-5.3,8.7-4.8,5.8,3.4,4.7,6.5-5,5.3-8.7,4.8Z"/>
  <path class="cls-1" d="M374.2,364.1c-3.7-.5-5.8-3.4-4.7-6.5s5-5.3,8.7-4.8,5.8,3.4,4.7,6.5-5,5.3-8.7,4.8Z"/>
  <path class="cls-1" d="M462.7,345.4c-3.7-.5-5.8-3.4-4.7-6.5s5-5.3,8.7-4.8,5.8,3.4,4.7,6.5-5,5.3-8.7,4.8Z"/>
  <path class="cls-1" d="M530.5,285.8c-3.7-.5-5.8-3.4-4.7-6.5s5-5.3,8.7-4.8,5.8,3.4,4.7,6.5-5,5.3-8.7,4.8Z"/>
  <path class="cls-1" d="M600.5,264.6c-3.7-.5-5.8-3.4-4.7-6.5s5-5.3,8.7-4.8,5.8,3.4,4.7,6.5-5,5.3-8.7,4.8h0Z"/>
</svg>