<svg width="583" height="142" viewBox="0 0 583 142" fill="none" xmlns="http://www.w3.org/2000/svg">
<path d="M729.482 88.3741C637.893 81.1278 546.305 73.8815 454.716 66.6352C447.921 66.0976 447.268 66.4193 447.947 59.4992C448.568 53.1667 450.575 47.1361 451.079 40.7707C451.275 38.2864 449.75 40.3625 448.638 41.4943C440.369 49.9061 431.457 57.2155 421.744 63.9349C398.625 79.9279 373.025 93.5585 345.393 99.6971C337.144 101.53 322.876 103.34 314.58 99.8261C306.966 96.6003 314.176 60.9099 314.816 52.8165C315.008 50.3896 317.472 39.572 315.634 37.8468C314.173 36.4761 276.833 58.8704 274.077 60.2274C252.468 70.8658 176.492 107.208 176.598 58.2905C176.621 48.0171 177.391 37.8451 178.2 27.6151C179.015 17.3195 136.385 38.6056 135.027 39.142C104.255 51.2987 76.3946 60.2171 43.2698 58.7426C36.7516 58.4525 30.2019 58.2284 24.1697 55.673" stroke="#699BF7" stroke-width="48" stroke-linecap="round" stroke-linejoin="round"/>
<path d="M729.482 88.3741C700.166 86.0547 448.453 72.4297 449.075 66.0972C449.696 59.7647 450.575 47.1361 451.079 40.7707C451.275 38.2864 449.75 40.3625 448.638 41.4943C440.369 49.9061 431.457 57.2155 421.744 63.9349C398.625 79.9279 373.025 93.5585 345.393 99.6971C337.144 101.53 322.876 103.34 314.58 99.8261C306.966 96.6003 314.176 60.9099 314.816 52.8165C315.008 50.3896 317.472 39.572 315.634 37.8468C314.173 36.4761 276.833 58.8704 274.077 60.2274C252.468 70.8658 176.492 107.208 176.598 58.2905C176.621 48.0171 177.391 37.8451 178.2 27.6151C179.015 17.3195 136.385 38.6056 135.027 39.142C104.255 51.2987 76.3946 60.2171 43.2698 58.7426C36.7516 58.4525 30.2019 58.2284 24.1697 55.673" stroke="black" stroke-width="4" stroke-linecap="round" stroke-linejoin="round"/>
<circle cx="24.3215" cy="56.2198" r="8" transform="rotate(-175.476 24.3215 56.2198)" fill="white" stroke="black" stroke-width="4"/>
<circle cx="175.494" cy="28.306" r="8" transform="rotate(-175.476 175.494 28.306)" fill="white" stroke="black" stroke-width="4"/>
<circle cx="211.885" cy="81.8429" r="8" transform="rotate(-175.476 211.885 81.8429)" fill="white" stroke="black" stroke-width="4"/>
<circle cx="317.098" cy="35.7477" r="8" transform="rotate(-175.476 317.098 35.7477)" fill="white" stroke="black" stroke-width="4"/>
<circle cx="317.933" cy="101.268" r="8" transform="rotate(-175.476 317.933 101.268)" fill="white" stroke="black" stroke-width="4"/>
<circle cx="450.455" cy="44.4177" r="6.375" transform="rotate(-175.476 450.455 44.4177)" fill="white" stroke="black" stroke-width="3.75"/>
<circle cx="447.97" cy="75.8195" r="6.375" transform="rotate(-175.476 447.97 75.8195)" fill="white" stroke="black" stroke-width="3.75"/>
</svg>
