<?xml version="1.0" encoding="UTF-8"?>
<svg id="Layer_1" data-name="Layer 1" xmlns="http://www.w3.org/2000/svg" version="1.1" viewBox="0 0 212.7 513.2">
  <defs>
    <style>
      .cls-1 {
        fill: #fff;
      }

      .cls-1, .cls-2 {
        stroke: #000;
        stroke-width: 4px;
      }

      .cls-2, .cls-3 {
        fill: none;
        stroke-linecap: round;
        stroke-linejoin: round;
      }

      .cls-3 {
        stroke: #ff8577;
        stroke-width: 48px;
      }
    </style>
  </defs>
  <path class="cls-3" d="M-336.4,116.4c16.8-27.1,66.7-19.7,72.8,6.3,0,0,67.2-102.8,82.6-33.2,14-29.4,47.7-21.1,80.8,7C-81.2,112.6-43.1,14.8-19.8,57.9c56.9-32.1,61.2,50.9,61.2,50.9,5.4,19.4,8.6,33.2,19.7,50.2,29.8-53,91-24.4,116.6,31.6,25.6,55.9,2,88.7-71.6,100.2,47.3-29.7,104.8,89.1,58.1,129.5-9.3,8.1-64,54.5-176.3-26.7-8.9,103-146.7,98.7-170.2,40.2-104,71.2-136.2,5.3-139.2-37.1"/>
  <path class="cls-2" d="M-334.2,117.6c27.3-30.8,46.6-27.8,69.7,6,8.5,9.5,59.5-107.3,86.9-40,25.6-21.1,36.1-28.7,78.2,13,21,20.8,53-77.5,68-51.9,2.8,4.8,5.8,20.5,16.1,16.2,29.3-12.2,11.3-6.6,29.3-12.2,28.9-9.1,31.4,118.3,44,102.8,17.3-21.4,46.4-26.4,60.8-20.1,72.1,31.6,67,91.8,66.4,98-.5,6.2-4.4,50.9-46.7,57.3M138.3,286.7c-11-.9-21.3,3.3,0,0ZM138.3,286.7c14.5,5,75.3,68.7,30,135.9-33.5,49.7-157.8-5-183.6-35.9,0,0-13.3,153.8-174.7,50.7l-19.3,12.7-26.4,14.3-11.6,4.8-17.5.7-12.9-1.1-12.4-6.4-10.4-9-7.5-11.8-5.4-14.8-8.9-31.2"/>
  <circle class="cls-1" cx="-322.7" cy="391.8" r="7.1"/>
  <circle class="cls-1" cx="-186.7" cy="434.9" r="7.1"/>
  <circle class="cls-1" cx="-13.4" cy="389" r="7.1"/>
  <path class="cls-1" d="M121.1,292.3c-2.3,3.2-6.7,4-9.9,1.8-3.2-2.3-4-6.7-1.8-9.9,2.3-3.2,6.7-4,9.9-1.8,3.2,2.3,4,6.7,1.8,9.9Z"/>
  <circle class="cls-1" cx="58" cy="152.5" r="7.1"/>
  <circle class="cls-1" cx="-18.3" cy="61.7" r="7.1"/>
  <circle class="cls-1" cx="-86.9" cy="98.7" r="7.1"/>
  <circle class="cls-1" cx="-175.8" cy="81.2" r="7.1"/>
  <circle class="cls-1" cx="-261.8" cy="122.1" r="7.1"/>
  <circle class="cls-1" cx="-334.7" cy="115.8" r="7.1"/>
</svg>