<?xml version="1.0" encoding="utf-8"?>
<!-- Generator: Adobe Illustrator 27.9.4, SVG Export Plug-In . SVG Version: 9.03 Build 54784)  -->
<svg version="1.1" id="Layer_1" xmlns="http://www.w3.org/2000/svg" xmlns:xlink="http://www.w3.org/1999/xlink" x="0px" y="0px"
	 viewBox="0 0 615.5 446.6" style="enable-background:new 0 0 615.5 446.6;" xml:space="preserve">
<style type="text/css">
	.st0{fill:none;stroke:#FCA566;stroke-width:48;stroke-linecap:round;stroke-linejoin:round;}
	.st1{fill:none;stroke:#000000;stroke-width:4;stroke-linecap:round;stroke-linejoin:round;}
	.st2{fill:#FFFFFF;stroke:#000000;stroke-width:4;}
</style>
<path class="st0" d="M591.5,253c-7.4,25.4-56.3,37.7-70,21.1c0,0-31.2,97.5-67,53c-4.1,26-38.1,31.9-77.7,23.4
	c-22.7-4.9-28.3,78.9-63.3,56.1c-43.3,43.1-72.8-15-72.8-15c-11-12-18.2-20.8-33.9-29.2c-11.6,48.6-77.6,49.6-118.6,18.4
	c-41-31.2-29.1-63.1,36.2-97.2c-35,38-125.3-27.1-94-72.7c6.2-9.1,43.1-61.7,172.9-42.9C180.1,90.9,310.1,45.5,350.1,79.3
	c75.3-87.8,125.7-51.8,141.5-22.4"/>
<path class="st1" d="M590.1,254.9c-16.1,31.7-35,36.4-67,20.2c-10.9-3.8-22.7,98.1-68.9,59.3c-17.4,24.2-24.9,33.3-77.1,18.2
	c-26-7.6-25.8,74.4-47.6,61.3c-4.1-2.5-11.7-12.7-20-6C286,427,301,416.7,286,427c-24.3,16.7-65.7-73.9-72.6-58.4
	c-9.6,21.4-35.3,35.3-50.6,35.9c-77.1,2.7-90.7-42.4-92.1-47.1c-1.4-4.7-11.5-38.1,26.1-57.6 M96.7,299.8
	C107.2,296.6,115.6,289.9,96.7,299.8z M96.7,299.8c-15.1,1.5-91.5-22.9-69.7-87.1c16.1-47.5,148.9-52,182.6-38.9
	c0,0-34.8-115.2,147.6-98l14.2-15.9l20.3-19.6l9.4-7.6l16.2-6.7l12.4-3.7l13.6,0.3l12.5,2.8l10.6,5.9l9.6,8.7l17.9,19.3"/>
<ellipse transform="matrix(0.9574 -0.2889 0.2889 0.9574 3.2544 145.6828)" class="st2" cx="495.2" cy="61.8" rx="7.1" ry="5.6"/>
<ellipse transform="matrix(0.9574 -0.2889 0.2889 0.9574 -7.6095 105.8718)" class="st2" cx="354.9" cy="78.7" rx="7.1" ry="5.6"/>
<ellipse transform="matrix(0.9574 -0.2889 0.2889 0.9574 -41.072 67.1868)" class="st2" cx="207.1" cy="172.7" rx="7.1" ry="5.6"/>
<path class="st2" d="M111,289.7c1.1-3.1,5-5.3,8.7-4.8c3.7,0.5,5.8,3.4,4.7,6.5c-1.1,3.1-5,5.3-8.7,4.8
	C112,295.7,109.9,292.8,111,289.7z"/>
<ellipse transform="matrix(0.9574 -0.2889 0.2889 0.9574 -97.2245 77.1821)" class="st2" cx="212.9" cy="368" rx="7.1" ry="5.6"/>
<ellipse transform="matrix(0.9574 -0.2889 0.2889 0.9574 -104.0855 107.4758)" class="st2" cx="312.1" cy="406.3" rx="7.1" ry="5.6"/>
<ellipse transform="matrix(0.9574 -0.2889 0.2889 0.9574 -87.164 120.5381)" class="st2" cx="364.8" cy="355.6" rx="7.1" ry="5.6"/>
<ellipse transform="matrix(0.9574 -0.2889 0.2889 0.9574 -77.9863 145.3048)" class="st2" cx="453.3" cy="336.8" rx="7.1" ry="5.6"/>
<ellipse transform="matrix(0.9574 -0.2889 0.2889 0.9574 -57.8545 162.3281)" class="st2" cx="521" cy="277.2" rx="7.1" ry="5.6"/>
<ellipse transform="matrix(0.9574 -0.2889 0.2889 0.9574 -48.7612 181.6633)" class="st2" cx="591" cy="256" rx="7.1" ry="5.6"/>
</svg>
