<svg width="1140" height="1000" viewBox="0 0 1140 1000" fill="none" xmlns="http://www.w3.org/2000/svg">
<path d="M845.734 524.176C838.353 549.557 789.409 561.832 775.754 545.295C775.754 545.295 744.534 642.824 708.732 598.296C704.661 624.331 670.661 630.234 631.075 621.729C608.376 616.852 602.762 700.589 567.791 677.813C524.506 720.946 495.003 662.79 495.003 662.79C484.046 650.761 476.768 641.977 461.134 633.616C449.576 682.212 383.545 683.192 342.504 651.972C301.463 620.753 313.437 588.873 378.718 554.739C343.669 592.713 253.455 527.589 284.681 482.074C290.925 472.972 327.756 420.36 457.615 439.213C434.327 362.039 564.348 316.594 604.295 350.41C679.588 262.615 729.992 298.658 745.757 328.029" stroke="#7795FF" stroke-width="48" stroke-linecap="round" stroke-linejoin="round"/>
<path d="M844.286 524.071C828.233 555.814 809.24 560.449 777.33 544.276C766.447 540.458 754.618 642.352 708.437 603.593C691.026 627.744 683.538 636.908 631.374 621.759C605.338 614.197 605.604 696.16 583.741 683.014C579.631 680.542 572.06 670.33 563.766 677.048C540.174 696.16 555.224 685.804 540.174 696.16C515.905 712.86 474.52 622.21 467.559 637.751C457.957 659.188 432.29 673.073 416.962 673.607C339.847 676.29 326.243 631.206 324.836 626.542C323.429 621.879 313.337 588.437 350.892 568.891M350.892 568.891C361.438 565.709 369.822 559.039 350.892 568.891ZM350.892 568.891C335.827 570.429 259.421 546.004 281.151 481.772C297.22 434.27 430.083 429.792 463.749 442.892C463.749 442.892 428.972 327.644 611.386 344.919L625.579 329.007L645.882 309.434L655.254 301.882L671.409 295.19L683.796 291.452L697.389 291.711L709.876 294.484L720.504 300.363L730.127 309.088L748.068 328.387" stroke="black" stroke-width="4" stroke-linecap="round" stroke-linejoin="round"/>
<ellipse cx="6.78074" cy="5.99727" rx="6.78074" ry="5.99727" transform="matrix(-0.991652 -0.128946 0.336664 -0.941625 754.082 337.474)" fill="white" stroke="black" stroke-width="4"/>
<ellipse cx="6.78074" cy="5.99727" rx="6.78074" ry="5.99727" transform="matrix(-0.991652 -0.128946 0.336664 -0.941625 613.782 354.372)" fill="white" stroke="black" stroke-width="4"/>
<ellipse cx="6.78074" cy="5.99727" rx="6.78074" ry="5.99727" transform="matrix(-0.991652 -0.128946 0.336664 -0.941625 465.997 448.391)" fill="white" stroke="black" stroke-width="4"/>
<path d="M365.225 558.809C366.34 555.691 370.255 553.554 373.968 554.037C377.682 554.519 379.789 557.439 378.673 560.558C377.558 563.677 373.644 565.814 369.93 565.331C366.217 564.848 364.11 561.928 365.225 558.809Z" fill="white" stroke="black" stroke-width="4"/>
<ellipse cx="6.78074" cy="5.99727" rx="6.78074" ry="5.99727" transform="matrix(-0.991652 -0.128946 0.336664 -0.941625 471.781 643.618)" fill="white" stroke="black" stroke-width="4"/>
<ellipse cx="6.78074" cy="5.99727" rx="6.78074" ry="5.99727" transform="matrix(-0.991652 -0.128946 0.336664 -0.941625 570.978 682.007)" fill="white" stroke="black" stroke-width="4"/>
<ellipse cx="6.78074" cy="5.99727" rx="6.78074" ry="5.99727" transform="matrix(-0.991652 -0.128946 0.336664 -0.941625 623.689 631.213)" fill="white" stroke="black" stroke-width="4"/>
<ellipse cx="6.78074" cy="5.99727" rx="6.78074" ry="5.99727" transform="matrix(-0.991652 -0.128946 0.336664 -0.941625 712.18 612.505)" fill="white" stroke="black" stroke-width="4"/>
<ellipse cx="6.78074" cy="5.99727" rx="6.78074" ry="5.99727" transform="matrix(-0.991652 -0.128946 0.336664 -0.941625 779.917 552.816)" fill="white" stroke="black" stroke-width="4"/>
<ellipse cx="6.78074" cy="5.99727" rx="6.78074" ry="5.99727" transform="matrix(-0.991652 -0.128946 0.336664 -0.941625 849.966 531.678)" fill="white" stroke="black" stroke-width="4"/>
</svg>
