<svg width="50" height="50" viewBox="0 0 50 50" fill="none" xmlns="http://www.w3.org/2000/svg">
<path d="M42.257 24.8076H33.5045C32.9845 24.8074 32.4778 24.9722 32.0574 25.2782C31.637 25.5842 31.3246 26.0157 31.165 26.5106C30.747 27.8165 29.9244 28.9556 28.8162 29.7631C27.708 30.5705 26.3717 31.0045 25.0005 31.0021C23.6293 31.0046 22.2929 30.5707 21.1846 29.7632C20.0764 28.9558 19.2538 27.8166 18.836 26.5106C18.6762 26.0156 18.3636 25.5841 17.943 25.2781C17.5224 24.9721 17.0156 24.8073 16.4955 24.8076H7.74299C7.41999 24.8076 7.10014 24.8711 6.80171 24.9947C6.50328 25.1183 6.23212 25.2994 6.00372 25.5278C5.77532 25.7562 5.59416 26.0274 5.47058 26.3258C5.347 26.6243 5.28343 26.9441 5.28349 27.2671V41.2941C5.28389 41.9462 5.54318 42.5715 6.00436 43.0325C6.46555 43.4935 7.09091 43.7525 7.74299 43.7526H42.257C42.5799 43.7527 42.8997 43.6891 43.198 43.5656C43.4964 43.4421 43.7675 43.261 43.9959 43.0327C44.2243 42.8045 44.4055 42.5334 44.5291 42.2351C44.6528 41.9368 44.7164 41.617 44.7165 41.2941V27.2671C44.7165 25.9076 43.6165 24.8076 42.257 24.8076Z" fill="black"/>
<path d="M24.484 26.1186C24.6075 26.2916 24.8095 26.3951 25.022 26.3951H25.0235C25.2375 26.3951 25.4365 26.2916 25.5615 26.1161L32.3635 16.5496C32.4334 16.4503 32.4749 16.3339 32.4834 16.2128C32.4918 16.0917 32.467 15.9705 32.4115 15.8626C32.3559 15.7544 32.2716 15.6638 32.1677 15.6006C32.0638 15.5374 31.9446 15.5042 31.823 15.5046H28.6235V6.91056C28.6235 6.54306 28.327 6.24756 27.962 6.24756H22.039C21.673 6.24756 21.3775 6.54306 21.3775 6.91056V15.5046H18.1755C18.0541 15.5047 17.9352 15.5383 17.8316 15.6016C17.7281 15.6648 17.6439 15.7554 17.5884 15.8633C17.5328 15.9712 17.508 16.0923 17.5167 16.2133C17.5253 16.3344 17.5671 16.4507 17.6375 16.5496L24.484 26.1186Z" fill="black"/>
</svg>
