<svg width="34" height="34" viewBox="0 0 34 34" fill="none" xmlns="http://www.w3.org/2000/svg">
<g clip-path="url(#clip0_225_435)">
<mask id="mask0_225_435" style="mask-type:luminance" maskUnits="userSpaceOnUse" x="0" y="0" width="34" height="34">
<path d="M0 0.171387H34V33.5953H0V0.171387Z" fill="white"/>
</mask>
<g mask="url(#mask0_225_435)">
<path fill-rule="evenodd" clip-rule="evenodd" d="M17 0.171387C7.6075 0.171387 0 7.64997 0 16.8833C0 24.2783 4.86625 30.5244 11.6237 32.7388C12.4737 32.885 12.7925 32.3836 12.7925 31.9449C12.7925 31.548 12.7712 30.232 12.7712 28.8323C8.5 29.6053 7.395 27.8087 7.055 26.8687C6.86375 26.3882 6.035 24.905 5.3125 24.5081C4.7175 24.1948 3.8675 23.4219 5.29125 23.401C6.63 23.3801 7.58625 24.6126 7.905 25.1139C9.435 27.6416 11.8787 26.9314 12.8562 26.4927C13.005 25.4064 13.4513 24.6752 13.94 24.2574C10.1575 23.8396 6.205 22.3982 6.205 16.0059C6.205 14.1885 6.86375 12.6844 7.9475 11.5146C7.7775 11.0968 7.1825 9.38383 8.1175 7.08595C8.1175 7.08595 9.54125 6.64726 12.7925 8.79892C14.1525 8.4229 15.5975 8.23489 17.0425 8.23489C18.4875 8.23489 19.9325 8.4229 21.2925 8.79892C24.5437 6.62637 25.9675 7.08595 25.9675 7.08595C26.9025 9.38383 26.3075 11.0968 26.1375 11.5146C27.2213 12.6844 27.88 14.1676 27.88 16.0059C27.88 22.4191 23.9062 23.8396 20.1237 24.2574C20.74 24.7797 21.2712 25.7824 21.2712 27.3492C21.2712 29.5844 21.25 31.3809 21.25 31.9449C21.25 32.3836 21.5687 32.9059 22.4187 32.7388C25.7935 31.6187 28.726 29.4864 30.8035 26.6422C32.881 23.7979 33.999 20.3849 34 16.8833C34 7.64997 26.3925 0.171387 17 0.171387Z" fill="black"/>
</g>
</g>
<defs>
<clipPath id="clip0_225_435">
<rect width="34" height="33.4239" fill="white" transform="translate(0 0.171387)"/>
</clipPath>
</defs>
</svg>
