<svg width="55" height="44" viewBox="0 0 55 44" fill="none" xmlns="http://www.w3.org/2000/svg">
<path d="M6.52542 23.8333L45.678 23.8333C45.9252 23.8333 46.1623 23.7368 46.3371 23.5648C46.512 23.3929 46.6102 23.1598 46.6102 22.9167L46.6102 14.6667C46.6104 14.4258 46.5623 14.1873 46.4687 13.9648C46.3752 13.7422 46.2379 13.54 46.0648 13.3696L33.014 0.536251C32.8407 0.366054 32.635 0.231095 32.4087 0.139084C32.1824 0.0470723 31.9398 -0.00018881 31.6949 5.64481e-07L9.32203 5.66163e-07C8.33309 5.66237e-07 7.38465 0.386309 6.68536 1.07394C5.98608 1.76158 5.59322 2.69421 5.59322 3.66667L5.59322 22.9167C5.59322 23.1598 5.69143 23.3929 5.86626 23.5648C6.04108 23.7368 6.27819 23.8333 6.52542 23.8333ZM31.6949 4.58333L41.9492 14.6667L31.6949 14.6667L31.6949 4.58333ZM12.1186 31.1667L12.1186 42.1667C12.1186 42.6529 11.9222 43.1192 11.5726 43.463C11.2229 43.8068 10.7487 44 10.2542 44C9.75977 44 9.28555 43.8068 8.9359 43.463C8.58626 43.1192 8.38983 42.6529 8.38983 42.1667L8.38983 38.5L3.72881 38.5L3.72881 42.1667C3.72881 42.6529 3.53239 43.1192 3.18274 43.463C2.8331 43.8068 2.35888 44 1.86441 44C1.36994 44 0.895716 43.8068 0.546072 43.463C0.196428 43.1192 3.20719e-09 42.6529 3.17062e-09 42.1667L2.3435e-09 31.1667C2.30694e-09 30.6804 0.196428 30.2141 0.546072 29.8703C0.895716 29.5265 1.36994 29.3333 1.86441 29.3333C2.35888 29.3333 2.8331 29.5265 3.18274 29.8703C3.53239 30.2141 3.72881 30.6804 3.72881 31.1667L3.72881 34.8333L8.38983 34.8333L8.38983 31.1667C8.38983 30.6804 8.58626 30.2141 8.9359 29.8703C9.28555 29.5265 9.75977 29.3333 10.2542 29.3333C10.7487 29.3333 11.2229 29.5265 11.5726 29.8703C11.9222 30.2141 12.1186 30.6804 12.1186 31.1667ZM25.1695 31.1667C25.1695 31.6529 24.9731 32.1192 24.6234 32.463C24.2738 32.8068 23.7996 33 23.3051 33L21.4407 33L21.4407 42.1667C21.4407 42.6529 21.2442 43.1192 20.8946 43.463C20.545 43.8068 20.0707 44 19.5763 44C19.0818 44 18.6076 43.8068 18.2579 43.463C17.9083 43.1192 17.7119 42.6529 17.7119 42.1667L17.7119 33L15.8475 33C15.353 33 14.8788 32.8068 14.5291 32.463C14.1795 32.1192 13.9831 31.6529 13.9831 31.1667C13.9831 30.6804 14.1795 30.2141 14.5291 29.8703C14.8788 29.5265 15.353 29.3333 15.8475 29.3333L23.3051 29.3333C23.7996 29.3333 24.2738 29.5265 24.6234 29.8703C24.9731 30.2141 25.1695 30.6804 25.1695 31.1667ZM41.9492 31.1667L41.9492 42.1667C41.9492 42.6529 41.7527 43.1192 41.4031 43.463C41.0534 43.8068 40.5792 44 40.0847 44C39.5903 44 39.1161 43.8068 38.7664 43.463C38.4168 43.1192 38.2203 42.6529 38.2203 42.1667L38.2203 36.6667L35.9831 39.6C35.8094 39.8277 35.5842 40.0125 35.3253 40.1398C35.0664 40.2671 34.781 40.3333 34.4915 40.3333C34.2021 40.3333 33.9166 40.2671 33.6577 40.1398C33.3989 40.0125 33.1737 39.8277 33 39.6L30.7627 36.6667L30.7627 42.1667C30.7627 42.6529 30.5663 43.1192 30.2166 43.463C29.867 43.8068 29.3928 44 28.8983 44C28.4038 44 27.9296 43.8068 27.58 43.463C27.2303 43.1192 27.0339 42.6529 27.0339 42.1667L27.0339 31.1667C27.0339 30.7819 27.157 30.4069 27.3858 30.0947C27.6146 29.7825 27.9375 29.5491 28.3087 29.4274C28.68 29.3057 29.0807 29.302 29.4542 29.4167C29.8277 29.5315 30.155 29.7588 30.3898 30.0667L34.4915 35.4452L38.5932 30.0667C38.828 29.7588 39.1553 29.5315 39.5288 29.4167C39.9023 29.302 40.3031 29.3057 40.6743 29.4274C41.0455 29.5491 41.3684 29.7825 41.5972 30.0947C41.826 30.4069 41.9492 30.7819 41.9492 31.1667ZM55 42.1667C55 42.6529 54.8036 43.1192 54.4539 43.463C54.1043 43.8068 53.6301 44 53.1356 44L46.6102 44C46.1157 44 45.6415 43.8068 45.2918 43.463C44.9422 43.1192 44.7458 42.6529 44.7458 42.1667L44.7458 31.1667C44.7458 30.6804 44.9422 30.2141 45.2918 29.8703C45.6415 29.5265 46.1157 29.3333 46.6102 29.3333C47.1046 29.3333 47.5789 29.5265 47.9285 29.8703C48.2782 30.2141 48.4746 30.6804 48.4746 31.1667L48.4746 40.3333L53.1356 40.3333C53.6301 40.3333 54.1043 40.5265 54.4539 40.8703C54.8036 41.2141 55 41.6804 55 42.1667Z" fill="black"/>
</svg>
