<svg width="65" height="64" viewBox="0 0 65 64" fill="none" xmlns="http://www.w3.org/2000/svg">
<rect width="64.6485" height="64" rx="10" fill="#699BF7"/>
<path d="M12.5915 35.8333L52.1408 35.8333C52.3906 35.8333 52.6301 35.7368 52.8067 35.5648C52.9833 35.3929 53.0825 35.1598 53.0825 34.9167L53.0825 26.6667C53.0827 26.4258 53.0341 26.1873 52.9396 25.9648C52.8451 25.7422 52.7065 25.54 52.5316 25.3696L39.3485 12.5363C39.1735 12.3661 38.9657 12.2311 38.7371 12.1391C38.5085 12.0471 38.2635 11.9998 38.0161 12L15.4165 12C14.4175 12 13.4595 12.3863 12.7531 13.0739C12.0467 13.7616 11.6499 14.6942 11.6499 15.6667L11.6499 34.9167C11.6499 35.1598 11.7491 35.3929 11.9257 35.5648C12.1023 35.7368 12.3418 35.8333 12.5915 35.8333ZM38.0161 16.5833L48.3742 26.6667L38.0161 26.6667L38.0161 16.5833ZM18.2414 43.1667L18.2414 54.1667C18.2414 54.6529 18.043 55.1192 17.6898 55.463C17.3367 55.8068 16.8576 56 16.3581 56C15.8587 56 15.3796 55.8068 15.0265 55.463C14.6733 55.1192 14.4748 54.6529 14.4748 54.1667L14.4748 50.5L9.7666 50.5L9.7666 54.1667C9.7666 54.6529 9.56818 55.1192 9.21499 55.463C8.86181 55.8068 8.38278 56 7.8833 56C7.38382 56 6.90479 55.8068 6.55161 55.463C6.19842 55.1192 6 54.6529 6 54.1667L6 43.1667C6 42.6804 6.19842 42.2141 6.55161 41.8703C6.90479 41.5265 7.38382 41.3333 7.8833 41.3333C8.38278 41.3333 8.86181 41.5265 9.21499 41.8703C9.56818 42.2141 9.7666 42.6804 9.7666 43.1667L9.7666 46.8333L14.4748 46.8333L14.4748 43.1667C14.4748 42.6804 14.6733 42.2141 15.0265 41.8703C15.3796 41.5265 15.8587 41.3333 16.3581 41.3333C16.8576 41.3333 17.3367 41.5265 17.6898 41.8703C18.043 42.2141 18.2414 42.6804 18.2414 43.1667ZM31.4245 43.1667C31.4245 43.6529 31.2261 44.1192 30.8729 44.463C30.5197 44.8068 30.0407 45 29.5412 45L27.6579 45L27.6579 54.1667C27.6579 54.6529 27.4595 55.1192 27.1063 55.463C26.7532 55.8068 26.2741 56 25.7746 56C25.2752 56 24.7961 55.8068 24.443 55.463C24.0898 55.1192 23.8913 54.6529 23.8913 54.1667L23.8913 45L22.008 45C21.5086 45 21.0295 44.8068 20.6764 44.463C20.3232 44.1192 20.1247 43.6529 20.1247 43.1667C20.1247 42.6804 20.3232 42.2141 20.6764 41.8703C21.0295 41.5265 21.5086 41.3333 22.008 41.3333L29.5412 41.3333C30.0407 41.3333 30.5197 41.5265 30.8729 41.8703C31.2261 42.2141 31.4245 42.6804 31.4245 43.1667ZM48.3742 43.1667L48.3742 54.1667C48.3742 54.6529 48.1758 55.1192 47.8226 55.463C47.4694 55.8068 46.9904 56 46.4909 56C45.9915 56 45.5124 55.8068 45.1592 55.463C44.8061 55.1192 44.6076 54.6529 44.6076 54.1667L44.6076 48.6667L42.3477 51.6C42.1723 51.8277 41.9448 52.0125 41.6833 52.1398C41.4218 52.2671 41.1334 52.3333 40.841 52.3333C40.5487 52.3333 40.2603 52.2671 39.9988 52.1398C39.7373 52.0125 39.5098 51.8277 39.3344 51.6L37.0744 48.6667L37.0744 54.1667C37.0744 54.6529 36.876 55.1192 36.5228 55.463C36.1696 55.8068 35.6906 56 35.1911 56C34.6917 56 34.2126 55.8068 33.8594 55.463C33.5063 55.1192 33.3078 54.6529 33.3078 54.1667L33.3078 43.1667C33.3078 42.7819 33.4322 42.4069 33.6633 42.0947C33.8944 41.7825 34.2206 41.5491 34.5956 41.4274C34.9706 41.3057 35.3754 41.302 35.7527 41.4167C36.13 41.5315 36.4606 41.7588 36.6978 42.0667L40.841 47.4452L44.9843 42.0667C45.2215 41.7588 45.5521 41.5315 45.9294 41.4167C46.3067 41.302 46.7115 41.3057 47.0865 41.4274C47.4615 41.5491 47.7876 41.7825 48.0188 42.0947C48.2499 42.4069 48.3742 42.7819 48.3742 43.1667ZM61.5573 54.1667C61.5573 54.6529 61.3589 55.1192 61.0057 55.463C60.6525 55.8068 60.1735 56 59.674 56L53.0825 56C52.583 56 52.104 55.8068 51.7508 55.463C51.3976 55.1192 51.1992 54.6529 51.1992 54.1667L51.1992 43.1667C51.1992 42.6804 51.3976 42.2141 51.7508 41.8703C52.104 41.5265 52.583 41.3333 53.0825 41.3333C53.582 41.3333 54.061 41.5265 54.4142 41.8703C54.7674 42.2141 54.9658 42.6804 54.9658 43.1667L54.9658 52.3333L59.674 52.3333C60.1735 52.3333 60.6525 52.5265 61.0057 52.8703C61.3589 53.2141 61.5573 53.6804 61.5573 54.1667Z" fill="black"/>
</svg>
