<svg width="37" height="37" viewBox="0 0 37 37" fill="none" xmlns="http://www.w3.org/2000/svg">
<path d="M32.375 25.3142V30.7655C32.3752 31.1558 32.2273 31.5317 31.9612 31.8172C31.6951 32.1028 31.3306 32.2768 30.9412 32.3041C30.2675 32.3503 29.7172 32.375 29.2917 32.375C15.668 32.375 4.625 21.332 4.625 7.70833C4.625 7.28283 4.64813 6.73246 4.69592 6.05875C4.72324 5.66939 4.89723 5.30489 5.18278 5.0388C5.46833 4.7727 5.84419 4.62482 6.2345 4.625H11.6858C11.8771 4.62481 12.0615 4.6957 12.2034 4.82391C12.3453 4.95211 12.4345 5.12848 12.4536 5.31875C12.489 5.67333 12.5214 5.95546 12.5522 6.16975C12.8586 8.30792 13.4865 10.3875 14.4146 12.338C14.561 12.6463 14.4655 13.0148 14.188 13.2121L10.861 15.5893C12.8952 20.3291 16.6724 24.1063 21.4122 26.1405L23.7864 22.8197C23.8834 22.6841 24.025 22.5868 24.1864 22.5448C24.3479 22.5028 24.5189 22.5188 24.6698 22.59C26.62 23.5165 28.699 24.1428 30.8364 24.4478C31.0507 24.4786 31.3328 24.511 31.6843 24.5464C31.8743 24.5659 32.0503 24.6552 32.1782 24.7971C32.3061 24.9389 32.3752 25.1232 32.375 25.3142Z" fill="#F8F8F8"/>
</svg>
