<svg width="54" height="54" viewBox="0 0 54 54" fill="none" xmlns="http://www.w3.org/2000/svg">
<path d="M27 18L27 4.5L13.5 4.5C12.3065 4.5 11.1619 4.97411 10.318 5.81802C9.47411 6.66193 9 7.80653 9 9L9 31.5405C9.1845 31.5135 9.372 31.5 9.5625 31.5C10.2789 31.4996 10.9818 31.6947 11.5956 32.0642C12.2093 32.4337 12.7106 32.9637 13.0455 33.597C13.6655 32.9339 14.4153 32.4056 15.2484 32.0448C16.0814 31.684 16.9797 31.4986 17.8875 31.5L18.1125 31.5C19.8729 31.5 21.5611 32.1993 22.8059 33.4441C24.0507 34.6889 24.75 36.3771 24.75 38.1375L24.75 38.25C24.75 39.2625 24.3675 40.185 23.7375 40.8825C24.3855 41.8703 24.75 43.0425 24.75 44.2733L24.75 45.1125C24.75 46.7932 24.1245 48.33 23.094 49.5L40.5 49.5C41.6935 49.5 42.8381 49.0259 43.682 48.182C44.5259 47.3381 45 46.1935 45 45L45 22.5L31.5 22.5C30.3065 22.5 29.1619 22.0259 28.318 21.182C27.4741 20.3381 27 19.1935 27 18ZM30.375 18L30.375 5.625L43.875 19.125L31.5 19.125C31.2016 19.125 30.9155 19.0065 30.7045 18.7955C30.4935 18.5845 30.375 18.2984 30.375 18ZM9.5625 33.75C10.0101 33.75 10.4393 33.9278 10.7557 34.2443C11.0722 34.5607 11.25 34.9899 11.25 35.4375L11.25 45C11.25 46.1935 10.7759 47.3381 9.93198 48.182C9.08807 49.0259 7.94347 49.5 6.75 49.5C5.55653 49.5 4.41193 49.0259 3.56802 48.182C2.72411 47.3381 2.25 46.1935 2.25 45L2.25 44.4375C2.25 43.9899 2.42779 43.5607 2.74426 43.2443C3.06072 42.9278 3.48995 42.75 3.9375 42.75C4.38505 42.75 4.81428 42.9278 5.13074 43.2443C5.44721 43.5607 5.625 43.9899 5.625 44.4375L5.625 45C5.625 45.2984 5.74353 45.5845 5.9545 45.7955C6.16548 46.0065 6.45163 46.125 6.75 46.125C7.04837 46.125 7.33452 46.0065 7.5455 45.7955C7.75647 45.5845 7.875 45.2984 7.875 45L7.875 35.4375C7.875 34.9899 8.05279 34.5607 8.36926 34.2443C8.68572 33.9278 9.11495 33.75 9.5625 33.75ZM17.8875 33.75C16.7239 33.75 15.6079 34.2123 14.7851 35.0351C13.9623 35.8579 13.5 36.9739 13.5 38.1375L13.5 38.664C13.5 40.0455 14.2267 41.328 15.4125 42.039L18.8527 44.1045C18.9358 44.1545 19.0044 44.2251 19.0521 44.3095C19.0998 44.3938 19.1249 44.4891 19.125 44.586L19.125 45.1125C19.125 45.381 19.0183 45.6386 18.8284 45.8284C18.6386 46.0183 18.381 46.125 18.1125 46.125L17.8875 46.125C17.619 46.125 17.3614 46.0183 17.1716 45.8284C16.9817 45.6386 16.875 45.381 16.875 45.1125L16.875 45C16.875 44.5524 16.6972 44.1232 16.3807 43.8068C16.0643 43.4903 15.6351 43.3125 15.1875 43.3125C14.7399 43.3125 14.3107 43.4903 13.9943 43.8068C13.6778 44.1232 13.5 44.5524 13.5 45L13.5 45.1125C13.5 46.2761 13.9623 47.3921 14.7851 48.2149C15.6079 49.0377 16.7239 49.5 17.8875 49.5L18.1125 49.5C19.2761 49.5 20.3921 49.0377 21.2149 48.2149C22.0377 47.3921 22.5 46.2761 22.5 45.1125L22.5 44.586C22.4997 43.9062 22.3234 43.2381 21.9882 42.6466C21.6531 42.0552 21.1705 41.5606 20.5875 41.211L17.1472 39.1455C17.0642 39.0955 16.9956 39.0249 16.9479 38.9405C16.9002 38.8562 16.8751 38.7609 16.875 38.664L16.875 38.1375C16.875 37.869 16.9817 37.6114 17.1716 37.4216C17.3614 37.2317 17.619 37.125 17.8875 37.125L18.1125 37.125C18.381 37.125 18.6386 37.2317 18.8284 37.4216C19.0183 37.6114 19.125 37.869 19.125 38.1375L19.125 38.25C19.125 38.6976 19.3028 39.1268 19.6193 39.4432C19.9357 39.7597 20.3649 39.9375 20.8125 39.9375C21.2601 39.9375 21.6893 39.7597 22.0057 39.4432C22.3222 39.1268 22.5 38.6976 22.5 38.25L22.5 38.1375C22.5 36.9739 22.0377 35.8579 21.2149 35.0351C20.3921 34.2123 19.2761 33.75 18.1125 33.75L17.8875 33.75Z" fill="black"/>
</svg>
