<svg width="35" height="34" viewBox="0 0 35 34" fill="none" xmlns="http://www.w3.org/2000/svg">
<g clip-path="url(#clip0_220_400)">
<path d="M0.415161 2.48619C0.415161 1.1434 1.54917 0.0551758 2.94837 0.0551758H32.3767C33.7758 0.0551758 34.9099 1.1434 34.9099 2.48619V31.565C34.9099 32.9078 33.7758 33.996 32.3767 33.996H2.94837C1.54917 33.996 0.415161 32.9078 0.415161 31.565V2.48619ZM11.0719 28.4679V13.1415H5.89551V28.4679H11.0719ZM8.48477 11.0478C10.2893 11.0478 11.4125 9.87257 11.4125 8.40038C11.3802 6.89638 10.2914 5.753 8.51926 5.753C6.74709 5.753 5.58937 6.8985 5.58937 8.40038C5.58937 9.87257 6.7126 11.0478 8.45027 11.0478H8.48477ZM19.066 28.4679V19.9085C19.066 19.4503 19.1005 18.992 19.2385 18.6654C19.6115 17.7511 20.4631 16.8029 21.8946 16.8029C23.7681 16.8029 24.5162 18.2072 24.5162 20.2691V28.4679H29.6925V19.6772C29.6925 14.9679 27.1399 12.7788 23.7336 12.7788C20.9869 12.7788 19.7559 14.2637 19.066 15.3095V15.3625H19.0315L19.066 15.3095V13.1415H13.8918C13.9565 14.5797 13.8918 28.4679 13.8918 28.4679H19.066Z" fill="black"/>
</g>
<defs>
<clipPath id="clip0_220_400">
<rect width="34.4947" height="33.9408" fill="white" transform="translate(0.415161 0.0551758)"/>
</clipPath>
</defs>
</svg>
