<svg width="36" height="36" viewBox="0 0 36 36" fill="none" xmlns="http://www.w3.org/2000/svg">
<mask id="mask0_220_421" style="mask-type:luminance" maskUnits="userSpaceOnUse" x="0" y="0" width="36" height="36">
<path d="M0.364624 0.55957H35.8175V35.4432H0.364624V0.55957Z" fill="white"/>
<path fill-rule="evenodd" clip-rule="evenodd" d="M18.0911 20.0138C18.7178 20.0138 19.3384 19.8923 19.9174 19.6564C20.4965 19.4204 21.0226 19.0745 21.4657 18.6384C21.9089 18.2024 22.2605 17.6847 22.5003 17.115C22.7401 16.5452 22.8636 15.9346 22.8636 15.3179C22.8636 14.7013 22.7401 14.0906 22.5003 13.5209C22.2605 12.9512 21.9089 12.4335 21.4657 11.9975C21.0226 11.5614 20.4965 11.2155 19.9174 10.9795C19.3384 10.7435 18.7178 10.6221 18.0911 10.6221C16.8253 10.6221 15.6114 11.1168 14.7164 11.9975C13.8214 12.8781 13.3186 14.0725 13.3186 15.3179C13.3186 16.5634 13.8214 17.7578 14.7164 18.6384C15.6114 19.5191 16.8253 20.0138 18.0911 20.0138ZM18.0911 13.3054C18.3597 13.3054 18.6256 13.3575 18.8738 13.4586C19.122 13.5598 19.3474 13.708 19.5374 13.8949C19.7273 14.0818 19.878 14.3036 19.9807 14.5478C20.0835 14.792 20.1364 15.0537 20.1364 15.3179C20.1364 15.5822 20.0835 15.8439 19.9807 16.0881C19.878 16.3323 19.7273 16.5541 19.5374 16.741C19.3474 16.9279 19.122 17.0761 18.8738 17.1773C18.6256 17.2784 18.3597 17.3305 18.0911 17.3305C17.5486 17.3305 17.0284 17.1184 16.6448 16.741C16.2612 16.3636 16.0457 15.8517 16.0457 15.3179C16.0457 14.7842 16.2612 14.2723 16.6448 13.8949C17.0284 13.5175 17.5486 13.3054 18.0911 13.3054Z" fill="black"/>
<path fill-rule="evenodd" clip-rule="evenodd" d="M7.86429 15.483C7.86429 21.1757 13.8395 30.7473 18.0911 30.7473C22.3427 30.7473 28.3179 21.1757 28.3179 15.483C28.3179 9.83989 23.7445 5.25537 18.0911 5.25537C12.4377 5.25537 7.86429 9.83989 7.86429 15.483ZM25.5907 15.483C25.5907 19.8837 20.4842 28.0639 18.0911 28.0639C15.698 28.0639 10.5914 19.8837 10.5914 15.483C10.5914 11.3104 13.9554 7.93873 18.0911 7.93873C22.2268 7.93873 25.5907 11.3104 25.5907 15.483Z" fill="black"/>
</mask>
<g mask="url(#mask0_220_421)">
<path d="M18.0911 35.4432C27.8811 35.4432 35.8175 27.6342 35.8175 18.0014C35.8175 8.36854 27.8811 0.55957 18.0911 0.55957C8.30102 0.55957 0.364624 8.36854 0.364624 18.0014C0.364624 27.6342 8.30102 35.4432 18.0911 35.4432Z" fill="black"/>
</g>
</svg>
