<svg width="250" height="227" viewBox="0 0 250 227" fill="none" xmlns="http://www.w3.org/2000/svg">
<path d="M235.217 23.6564L235.214 23.659C235.134 23.7193 235.038 23.7577 234.931 23.7674C234.837 23.7732 234.742 23.7549 234.654 23.7125C234.568 23.6624 234.492 23.5935 234.432 23.5096L229.781 14.1616L229.604 13.8073L229.276 13.586L221.185 8.13079C221.09 8.06696 221.014 7.97423 220.969 7.86313C220.925 7.7571 220.913 7.6415 220.933 7.53075C220.961 7.41904 221.018 7.3202 221.096 7.24367C221.178 7.16359 221.279 7.1103 221.387 7.08833L221.414 7.08298L221.44 7.07668L242.821 1.94326C242.926 1.92111 243.036 1.92376 243.142 1.95195C243.224 1.97889 243.301 2.02885 243.362 2.09903L243.37 2.10796L243.378 2.11676C243.447 2.19335 243.494 2.2886 243.515 2.39225C243.534 2.49093 243.528 2.59155 243.497 2.68386L235.422 23.3922C235.377 23.498 235.306 23.5888 235.217 23.6564Z" fill="black" stroke="black" stroke-width="3"/>
<rect x="0.25" y="17.25" width="223.5" height="209.5" fill="#363636" stroke="#FFFDFD" stroke-width="0.5"/>
<path d="M32.4084 34.4375H29.9198C29.8743 34.1155 29.7815 33.8295 29.6414 33.5795C29.5012 33.3258 29.3213 33.1098 29.1016 32.9318C28.8819 32.7538 28.6281 32.6174 28.3402 32.5227C28.0561 32.428 27.7474 32.3807 27.4141 32.3807C26.8118 32.3807 26.2872 32.5303 25.8402 32.8295C25.3933 33.125 25.0467 33.5568 24.8005 34.125C24.5542 34.6894 24.4311 35.375 24.4311 36.1818C24.4311 37.0114 24.5542 37.7083 24.8005 38.2727C25.0505 38.8371 25.3989 39.2633 25.8459 39.5511C26.2929 39.839 26.8099 39.983 27.397 39.983C27.7266 39.983 28.0315 39.9394 28.3118 39.8523C28.5959 39.7652 28.8478 39.6383 29.0675 39.4716C29.2872 39.3011 29.469 39.0947 29.613 38.8523C29.7607 38.6098 29.863 38.3333 29.9198 38.0227L32.4084 38.0341C32.344 38.5682 32.183 39.0833 31.9255 39.5795C31.6717 40.072 31.3289 40.5133 30.897 40.9034C30.469 41.2898 29.9577 41.5966 29.363 41.8239C28.772 42.0473 28.1035 42.1591 27.3573 42.1591C26.3194 42.1591 25.3914 41.9242 24.5732 41.4545C23.7588 40.9848 23.1148 40.3049 22.6414 39.4148C22.1717 38.5246 21.9368 37.447 21.9368 36.1818C21.9368 34.9129 22.1755 33.8333 22.6527 32.9432C23.13 32.053 23.7777 31.375 24.5959 30.9091C25.4141 30.4394 26.3345 30.2045 27.3573 30.2045C28.0315 30.2045 28.6565 30.2992 29.2323 30.4886C29.8118 30.678 30.3251 30.9545 30.772 31.3182C31.219 31.678 31.5827 32.1193 31.863 32.642C32.147 33.1648 32.3289 33.7633 32.4084 34.4375ZM37.5903 42.1705C36.7078 42.1705 35.9445 41.983 35.3006 41.608C34.6604 41.2292 34.1661 40.7027 33.8176 40.0284C33.4691 39.3504 33.2949 38.5644 33.2949 37.6705C33.2949 36.7689 33.4691 35.9811 33.8176 35.3068C34.1661 34.6288 34.6604 34.1023 35.3006 33.7273C35.9445 33.3485 36.7078 33.1591 37.5903 33.1591C38.4729 33.1591 39.2343 33.3485 39.8744 33.7273C40.5184 34.1023 41.0146 34.6288 41.3631 35.3068C41.7116 35.9811 41.8858 36.7689 41.8858 37.6705C41.8858 38.5644 41.7116 39.3504 41.3631 40.0284C41.0146 40.7027 40.5184 41.2292 39.8744 41.608C39.2343 41.983 38.4729 42.1705 37.5903 42.1705ZM37.6017 40.2955C38.0032 40.2955 38.3384 40.1818 38.6074 39.9545C38.8763 39.7235 39.079 39.4091 39.2153 39.0114C39.3555 38.6136 39.4256 38.161 39.4256 37.6534C39.4256 37.1458 39.3555 36.6932 39.2153 36.2955C39.079 35.8977 38.8763 35.5833 38.6074 35.3523C38.3384 35.1212 38.0032 35.0057 37.6017 35.0057C37.1964 35.0057 36.8555 35.1212 36.579 35.3523C36.3063 35.5833 36.0998 35.8977 35.9597 36.2955C35.8233 36.6932 35.7551 37.1458 35.7551 37.6534C35.7551 38.161 35.8233 38.6136 35.9597 39.0114C36.0998 39.4091 36.3063 39.7235 36.579 39.9545C36.8555 40.1818 37.1964 40.2955 37.6017 40.2955ZM45.4001 30.3636V42H42.9797V30.3636H45.4001ZM50.8022 42.1705C49.9196 42.1705 49.1564 41.983 48.5124 41.608C47.8723 41.2292 47.378 40.7027 47.0295 40.0284C46.681 39.3504 46.5068 38.5644 46.5068 37.6705C46.5068 36.7689 46.681 35.9811 47.0295 35.3068C47.378 34.6288 47.8723 34.1023 48.5124 33.7273C49.1564 33.3485 49.9196 33.1591 50.8022 33.1591C51.6848 33.1591 52.4462 33.3485 53.0863 33.7273C53.7302 34.1023 54.2265 34.6288 54.5749 35.3068C54.9234 35.9811 55.0977 36.7689 55.0977 37.6705C55.0977 38.5644 54.9234 39.3504 54.5749 40.0284C54.2265 40.7027 53.7302 41.2292 53.0863 41.608C52.4462 41.983 51.6848 42.1705 50.8022 42.1705ZM50.8136 40.2955C51.2151 40.2955 51.5503 40.1818 51.8193 39.9545C52.0882 39.7235 52.2909 39.4091 52.4272 39.0114C52.5674 38.6136 52.6374 38.161 52.6374 37.6534C52.6374 37.1458 52.5674 36.6932 52.4272 36.2955C52.2909 35.8977 52.0882 35.5833 51.8193 35.3523C51.5503 35.1212 51.2151 35.0057 50.8136 35.0057C50.4083 35.0057 50.0674 35.1212 49.7909 35.3523C49.5181 35.5833 49.3117 35.8977 49.1715 36.2955C49.0352 36.6932 48.967 37.1458 48.967 37.6534C48.967 38.161 49.0352 38.6136 49.1715 39.0114C49.3117 39.4091 49.5181 39.7235 49.7909 39.9545C50.0674 40.1818 50.4083 40.2955 50.8136 40.2955ZM56.1915 42V33.2727H58.5381V34.7955H58.629C58.7881 34.2538 59.0552 33.8447 59.4302 33.5682C59.8052 33.2879 60.237 33.1477 60.7256 33.1477C60.8468 33.1477 60.9775 33.1553 61.1177 33.1705C61.2578 33.1856 61.3809 33.2064 61.487 33.233V35.3807C61.3734 35.3466 61.2162 35.3163 61.0154 35.2898C60.8146 35.2633 60.6309 35.25 60.4643 35.25C60.1082 35.25 59.79 35.3277 59.5097 35.483C59.2332 35.6345 59.0135 35.8466 58.8506 36.1193C58.6915 36.392 58.612 36.7064 58.612 37.0625V42H56.1915ZM65.527 42V30.3636H70.1179C71.0005 30.3636 71.7524 30.5322 72.3736 30.8693C72.9948 31.2027 73.4683 31.6667 73.794 32.2614C74.1236 32.8523 74.2884 33.5341 74.2884 34.3068C74.2884 35.0795 74.1217 35.7614 73.7884 36.3523C73.455 36.9432 72.9721 37.4034 72.3395 37.733C71.7107 38.0625 70.9493 38.2273 70.0554 38.2273H67.1293V36.2557H69.6577C70.1312 36.2557 70.5213 36.1742 70.8281 36.0114C71.1387 35.8447 71.3698 35.6155 71.5213 35.3239C71.6766 35.0284 71.7543 34.6894 71.7543 34.3068C71.7543 33.9205 71.6766 33.5833 71.5213 33.2955C71.3698 33.0038 71.1387 32.7784 70.8281 32.6193C70.5175 32.4564 70.1236 32.375 69.6463 32.375H67.9872V42H65.527ZM77.6152 42.1648C77.0584 42.1648 76.5621 42.0682 76.1265 41.875C75.6909 41.678 75.3462 41.3883 75.0924 41.0057C74.8424 40.6193 74.7174 40.1383 74.7174 39.5625C74.7174 39.0777 74.8065 38.6705 74.9845 38.3409C75.1625 38.0114 75.4049 37.7462 75.7118 37.5455C76.0186 37.3447 76.3671 37.1932 76.7572 37.0909C77.1512 36.9886 77.564 36.9167 77.9959 36.875C78.5034 36.822 78.9125 36.7727 79.2231 36.7273C79.5337 36.678 79.7591 36.6061 79.8993 36.5114C80.0394 36.4167 80.1095 36.2765 80.1095 36.0909V36.0568C80.1095 35.697 79.9959 35.4186 79.7686 35.2216C79.5451 35.0246 79.2269 34.9261 78.814 34.9261C78.3784 34.9261 78.0318 35.0227 77.7743 35.2159C77.5167 35.4053 77.3462 35.6439 77.2629 35.9318L75.0243 35.75C75.1379 35.2197 75.3614 34.7614 75.6947 34.375C76.028 33.9848 76.458 33.6856 76.9845 33.4773C77.5148 33.2652 78.1284 33.1591 78.8254 33.1591C79.3102 33.1591 79.7743 33.2159 80.2174 33.3295C80.6644 33.4432 81.0602 33.6193 81.4049 33.858C81.7534 34.0966 82.028 34.4034 82.2288 34.7784C82.4296 35.1496 82.5299 35.5947 82.5299 36.1136V42H80.2345V40.7898H80.1663C80.0262 41.0625 79.8387 41.303 79.6038 41.5114C79.369 41.7159 79.0868 41.8769 78.7572 41.9943C78.4277 42.108 78.047 42.1648 77.6152 42.1648ZM78.3084 40.4943C78.6644 40.4943 78.9788 40.4242 79.2515 40.2841C79.5243 40.1402 79.7383 39.947 79.8936 39.7045C80.0489 39.4621 80.1265 39.1875 80.1265 38.8807V37.9545C80.0508 38.0038 79.9466 38.0492 79.814 38.0909C79.6852 38.1288 79.5394 38.1648 79.3765 38.1989C79.2137 38.2292 79.0508 38.2576 78.8879 38.2841C78.725 38.3068 78.5773 38.3277 78.4447 38.3466C78.1606 38.3883 77.9125 38.4545 77.7004 38.5455C77.4883 38.6364 77.3235 38.7595 77.2061 38.9148C77.0887 39.0663 77.0299 39.2557 77.0299 39.483C77.0299 39.8125 77.1493 40.0644 77.3879 40.2386C77.6303 40.4091 77.9371 40.4943 78.3084 40.4943ZM86.3482 30.3636V42H83.9278V30.3636H86.3482ZM91.7844 42.1705C90.8867 42.1705 90.114 41.9886 89.4662 41.625C88.8223 41.2576 88.3261 40.7386 87.9776 40.0682C87.6291 39.3939 87.4549 38.5966 87.4549 37.6761C87.4549 36.7784 87.6291 35.9905 87.9776 35.3125C88.3261 34.6345 88.8166 34.1061 89.4492 33.7273C90.0856 33.3485 90.8318 33.1591 91.6878 33.1591C92.2636 33.1591 92.7996 33.2519 93.2958 33.4375C93.7958 33.6193 94.2314 33.8939 94.6026 34.2614C94.9776 34.6288 95.2693 35.0909 95.4776 35.6477C95.6859 36.2008 95.7901 36.8485 95.7901 37.5909V38.2557H88.4208V36.7557H93.5117C93.5117 36.4072 93.4359 36.0985 93.2844 35.8295C93.1329 35.5606 92.9227 35.3504 92.6537 35.1989C92.3886 35.0436 92.0799 34.9659 91.7276 34.9659C91.3602 34.9659 91.0344 35.0511 90.7503 35.2216C90.47 35.3883 90.2503 35.6136 90.0912 35.8977C89.9322 36.178 89.8507 36.4905 89.8469 36.8352V38.2614C89.8469 38.6932 89.9265 39.0663 90.0856 39.3807C90.2484 39.6951 90.4776 39.9375 90.7731 40.108C91.0685 40.2784 91.4189 40.3636 91.8242 40.3636C92.0931 40.3636 92.3394 40.3258 92.5628 40.25C92.7863 40.1742 92.9776 40.0606 93.1367 39.9091C93.2958 39.7576 93.417 39.572 93.5003 39.3523L95.739 39.5C95.6253 40.0379 95.3924 40.5076 95.0401 40.9091C94.6916 41.3068 94.2409 41.6174 93.6878 41.8409C93.1386 42.0606 92.5041 42.1705 91.7844 42.1705ZM101.532 33.2727V35.0909H96.276V33.2727H101.532ZM97.4692 31.1818H99.8897V39.3182C99.8897 39.5417 99.9238 39.7159 99.9919 39.8409C100.06 39.9621 100.155 40.0473 100.276 40.0966C100.401 40.1458 100.545 40.1705 100.708 40.1705C100.821 40.1705 100.935 40.161 101.049 40.142C101.162 40.1193 101.25 40.1023 101.31 40.0909L101.691 41.892C101.57 41.9299 101.399 41.9735 101.179 42.0227C100.96 42.0758 100.693 42.108 100.378 42.1193C99.795 42.142 99.2836 42.0644 98.8442 41.8864C98.4086 41.7083 98.0696 41.4318 97.8272 41.0568C97.5847 40.6818 97.4654 40.2083 97.4692 39.6364V31.1818ZM107.27 33.2727V35.0909H102.015V33.2727H107.27ZM103.208 31.1818H105.628V39.3182C105.628 39.5417 105.663 39.7159 105.731 39.8409C105.799 39.9621 105.894 40.0473 106.015 40.0966C106.14 40.1458 106.284 40.1705 106.447 40.1705C106.56 40.1705 106.674 40.161 106.788 40.142C106.901 40.1193 106.988 40.1023 107.049 40.0909L107.43 41.892C107.308 41.9299 107.138 41.9735 106.918 42.0227C106.698 42.0758 106.431 42.108 106.117 42.1193C105.534 42.142 105.022 42.0644 104.583 41.8864C104.147 41.7083 103.808 41.4318 103.566 41.0568C103.323 40.6818 103.204 40.2083 103.208 39.6364V31.1818ZM112.251 42.1705C111.353 42.1705 110.58 41.9886 109.932 41.625C109.289 41.2576 108.792 40.7386 108.444 40.0682C108.095 39.3939 107.921 38.5966 107.921 37.6761C107.921 36.7784 108.095 35.9905 108.444 35.3125C108.792 34.6345 109.283 34.1061 109.915 33.7273C110.552 33.3485 111.298 33.1591 112.154 33.1591C112.73 33.1591 113.266 33.2519 113.762 33.4375C114.262 33.6193 114.698 33.8939 115.069 34.2614C115.444 34.6288 115.736 35.0909 115.944 35.6477C116.152 36.2008 116.256 36.8485 116.256 37.5909V38.2557H108.887V36.7557H113.978C113.978 36.4072 113.902 36.0985 113.751 35.8295C113.599 35.5606 113.389 35.3504 113.12 35.1989C112.855 35.0436 112.546 34.9659 112.194 34.9659C111.826 34.9659 111.501 35.0511 111.217 35.2216C110.936 35.3883 110.717 35.6136 110.557 35.8977C110.398 36.178 110.317 36.4905 110.313 36.8352V38.2614C110.313 38.6932 110.393 39.0663 110.552 39.3807C110.715 39.6951 110.944 39.9375 111.239 40.108C111.535 40.2784 111.885 40.3636 112.29 40.3636C112.559 40.3636 112.806 40.3258 113.029 40.25C113.253 40.1742 113.444 40.0606 113.603 39.9091C113.762 39.7576 113.883 39.572 113.967 39.3523L116.205 39.5C116.092 40.0379 115.859 40.5076 115.506 40.9091C115.158 41.3068 114.707 41.6174 114.154 41.8409C113.605 42.0606 112.97 42.1705 112.251 42.1705Z" fill="white"/>
<path d="M21 60H46V84H21V60Z" fill="#80361D"/>
<path d="M67.1474 78.1591C66.3671 78.1591 65.6777 78.0208 65.0793 77.7443C64.4846 77.464 64.0206 77.0795 63.6872 76.5909C63.3539 76.0985 63.1891 75.5379 63.1929 74.9091C63.1891 74.4167 63.2857 73.9621 63.4827 73.5455C63.6796 73.125 63.9486 72.7746 64.2895 72.4943C64.6342 72.2102 65.0187 72.0303 65.4429 71.9545V71.8864C64.8861 71.7424 64.4429 71.4299 64.1134 70.9489C63.7838 70.464 63.6209 69.9129 63.6247 69.2955C63.6209 68.7045 63.7706 68.1761 64.0736 67.7102C64.3766 67.2443 64.7933 66.8769 65.3236 66.608C65.8577 66.339 66.4656 66.2045 67.1474 66.2045C67.8217 66.2045 68.424 66.339 68.9543 66.608C69.4846 66.8769 69.9012 67.2443 70.2043 67.7102C70.5111 68.1761 70.6664 68.7045 70.6702 69.2955C70.6664 69.9129 70.4978 70.464 70.1645 70.9489C69.8349 71.4299 69.3974 71.7424 68.852 71.8864V71.9545C69.2724 72.0303 69.6512 72.2102 69.9884 72.4943C70.3255 72.7746 70.5944 73.125 70.7952 73.5455C70.9959 73.9621 71.0982 74.4167 71.102 74.9091C71.0982 75.5379 70.9277 76.0985 70.5906 76.5909C70.2573 77.0795 69.7933 77.464 69.1986 77.7443C68.6077 78.0208 67.924 78.1591 67.1474 78.1591ZM67.1474 76.9091C67.674 76.9091 68.1285 76.8239 68.5111 76.6534C68.8937 76.483 69.1891 76.2424 69.3974 75.9318C69.6058 75.6212 69.7118 75.2576 69.7156 74.8409C69.7118 74.4015 69.5982 74.0133 69.3747 73.6761C69.1512 73.339 68.8463 73.0739 68.4599 72.8807C68.0774 72.6875 67.6399 72.5909 67.1474 72.5909C66.6512 72.5909 66.2081 72.6875 65.8179 72.8807C65.4315 73.0739 65.1266 73.339 64.9031 73.6761C64.6834 74.0133 64.5755 74.4015 64.5793 74.8409C64.5755 75.2576 64.6759 75.6212 64.8804 75.9318C65.0887 76.2424 65.3861 76.483 65.7724 76.6534C66.1588 76.8239 66.6171 76.9091 67.1474 76.9091ZM67.1474 71.3864C67.5641 71.3864 67.9334 71.303 68.2554 71.1364C68.5812 70.9697 68.8368 70.7367 69.0224 70.4375C69.2081 70.1383 69.3027 69.7879 69.3065 69.3864C69.3027 68.9924 69.2099 68.6496 69.0281 68.358C68.8463 68.0625 68.5944 67.8352 68.2724 67.6761C67.9505 67.5133 67.5755 67.4318 67.1474 67.4318C66.7118 67.4318 66.3312 67.5133 66.0054 67.6761C65.6796 67.8352 65.4277 68.0625 65.2497 68.358C65.0717 68.6496 64.9846 68.9924 64.9884 69.3864C64.9846 69.7879 65.0736 70.1383 65.2554 70.4375C65.441 70.7367 65.6967 70.9697 66.0224 71.1364C66.3482 71.303 66.7232 71.3864 67.1474 71.3864ZM76.595 78.1591C75.7389 78.1591 75.0098 77.9261 74.4075 77.4602C73.8052 76.9905 73.345 76.3106 73.0268 75.4205C72.7086 74.5265 72.5495 73.447 72.5495 72.1818C72.5495 70.9242 72.7086 69.8504 73.0268 68.9602C73.3488 68.0663 73.8109 67.3845 74.4132 66.9148C75.0192 66.4413 75.7465 66.2045 76.595 66.2045C77.4435 66.2045 78.1689 66.4413 78.7711 66.9148C79.3772 67.3845 79.8393 68.0663 80.1575 68.9602C80.4795 69.8504 80.6405 70.9242 80.6405 72.1818C80.6405 73.447 80.4814 74.5265 80.1632 75.4205C79.845 76.3106 79.3848 76.9905 78.7825 77.4602C78.1802 77.9261 77.4511 78.1591 76.595 78.1591ZM76.595 76.9091C77.4435 76.9091 78.1026 76.5 78.5723 75.6818C79.042 74.8636 79.2768 73.697 79.2768 72.1818C79.2768 71.1742 79.1689 70.3163 78.953 69.608C78.7408 68.8996 78.434 68.3598 78.0325 67.9886C77.6348 67.6174 77.1556 67.4318 76.595 67.4318C75.7541 67.4318 75.0969 67.8466 74.6234 68.6761C74.1499 69.5019 73.9132 70.6705 73.9132 72.1818C73.9132 73.1894 74.0192 74.0455 74.2314 74.75C74.4435 75.4545 74.7484 75.9905 75.1461 76.358C75.5477 76.7254 76.0306 76.9091 76.595 76.9091ZM86.2514 78.1591C85.5014 78.1591 84.8328 78.0303 84.2457 77.7727C83.6624 77.5152 83.1983 77.1572 82.8536 76.6989C82.5127 76.2367 82.3271 75.7008 82.2968 75.0909H83.7286C83.7589 75.4659 83.8877 75.7898 84.115 76.0625C84.3423 76.3314 84.6396 76.5398 85.007 76.6875C85.3745 76.8352 85.7817 76.9091 86.2286 76.9091C86.7286 76.9091 87.1718 76.822 87.5582 76.6477C87.9445 76.4735 88.2476 76.2311 88.4673 75.9205C88.687 75.6098 88.7968 75.25 88.7968 74.8409C88.7968 74.4129 88.6908 74.036 88.4786 73.7102C88.2665 73.3807 87.9559 73.1231 87.5468 72.9375C87.1377 72.7519 86.6377 72.6591 86.0468 72.6591H85.115V71.4091H86.0468C86.5089 71.4091 86.9142 71.3258 87.2627 71.1591C87.615 70.9924 87.8896 70.7576 88.0866 70.4545C88.2874 70.1515 88.3877 69.7955 88.3877 69.3864C88.3877 68.9924 88.3006 68.6496 88.1264 68.358C87.9521 68.0663 87.7059 67.839 87.3877 67.6761C87.0733 67.5133 86.7021 67.4318 86.2741 67.4318C85.8726 67.4318 85.4938 67.5057 85.1377 67.6534C84.7855 67.7973 84.4976 68.0076 84.2741 68.2841C84.0506 68.5568 83.9294 68.8864 83.9105 69.2727H82.5468C82.5695 68.6629 82.7533 68.1288 83.098 67.6705C83.4427 67.2083 83.8934 66.8485 84.4502 66.5909C85.0108 66.3333 85.6264 66.2045 86.2968 66.2045C87.0165 66.2045 87.6339 66.3504 88.1491 66.642C88.6642 66.9299 89.0601 67.3106 89.3366 67.7841C89.6131 68.2576 89.7514 68.7689 89.7514 69.3182C89.7514 69.9735 89.579 70.5322 89.2343 70.9943C88.8934 71.4564 88.4294 71.7765 87.8423 71.9545V72.0455C88.5771 72.1667 89.151 72.4792 89.5639 72.983C89.9767 73.483 90.1832 74.1023 90.1832 74.8409C90.1832 75.4735 90.0108 76.0417 89.6661 76.5455C89.3252 77.0455 88.8593 77.4394 88.2684 77.7273C87.6775 78.0152 87.0052 78.1591 86.2514 78.1591ZM95.8907 78.1591C95.4134 78.1515 94.9361 78.0606 94.4589 77.8864C93.9816 77.7121 93.546 77.4186 93.152 77.0057C92.7581 76.589 92.4418 76.0265 92.2032 75.3182C91.9645 74.6061 91.8452 73.7121 91.8452 72.6364C91.8452 71.6061 91.9418 70.6932 92.135 69.8977C92.3282 69.0985 92.6085 68.4261 92.9759 67.8807C93.3433 67.3314 93.7865 66.9148 94.3055 66.6307C94.8282 66.3466 95.4172 66.2045 96.0725 66.2045C96.724 66.2045 97.3036 66.3352 97.8111 66.5966C98.3225 66.8542 98.7392 67.214 99.0611 67.6761C99.3831 68.1383 99.5914 68.6705 99.6861 69.2727H98.2998C98.171 68.75 97.921 68.3163 97.5498 67.9716C97.1786 67.6269 96.6861 67.4545 96.0725 67.4545C95.171 67.4545 94.4608 67.8466 93.9418 68.6307C93.4267 69.4148 93.1672 70.5152 93.1634 71.9318H93.2543C93.4664 71.6098 93.7183 71.3352 94.01 71.108C94.3055 70.8769 94.6312 70.6989 94.9873 70.5739C95.3433 70.4489 95.7202 70.3864 96.118 70.3864C96.7846 70.3864 97.3945 70.553 97.9475 70.8864C98.5005 71.2159 98.9437 71.6723 99.277 72.2557C99.6104 72.8352 99.777 73.5 99.777 74.25C99.777 74.9697 99.6161 75.6288 99.2941 76.2273C98.9721 76.822 98.5195 77.2955 97.9361 77.6477C97.3566 77.9962 96.6748 78.1667 95.8907 78.1591ZM95.8907 76.9091C96.368 76.9091 96.796 76.7898 97.1748 76.5511C97.5573 76.3125 97.8585 75.9924 98.0782 75.5909C98.3017 75.1894 98.4134 74.7424 98.4134 74.25C98.4134 73.7689 98.3055 73.3314 98.0895 72.9375C97.8774 72.5398 97.5839 72.2235 97.2089 71.9886C96.8377 71.7538 96.4134 71.6364 95.9361 71.6364C95.5763 71.6364 95.2411 71.7083 94.9305 71.8523C94.6198 71.9924 94.3471 72.1856 94.1123 72.4318C93.8812 72.678 93.6994 72.9602 93.5668 73.2784C93.4342 73.5928 93.368 73.9242 93.368 74.2727C93.368 74.7348 93.4759 75.1667 93.6918 75.5682C93.9115 75.9697 94.2108 76.2936 94.5895 76.5398C94.9721 76.786 95.4058 76.9091 95.8907 76.9091ZM105.622 66.3636V78H104.213V67.8409H104.145L101.304 69.7273V68.2955L104.213 66.3636H105.622ZM112.284 78H108.693V66.3636H112.443C113.572 66.3636 114.538 66.5966 115.341 67.0625C116.144 67.5246 116.76 68.1894 117.188 69.0568C117.616 69.9205 117.83 70.9545 117.83 72.1591C117.83 73.3712 117.614 74.4148 117.182 75.2898C116.75 76.161 116.121 76.8314 115.296 77.3011C114.47 77.767 113.466 78 112.284 78ZM110.103 76.75H112.193C113.156 76.75 113.953 76.5644 114.586 76.1932C115.218 75.822 115.69 75.2936 116 74.608C116.311 73.9223 116.466 73.1061 116.466 72.1591C116.466 71.2197 116.313 70.411 116.006 69.733C115.699 69.0511 115.241 68.5284 114.631 68.1648C114.021 67.7973 113.262 67.6136 112.353 67.6136H110.103V76.75Z" fill="white"/>
<path d="M166.02 66.3636V78H164.258V68.125H164.19L161.406 69.9432V68.2614L164.309 66.3636H166.02ZM172.739 78.1932C171.841 78.1894 171.074 77.9527 170.437 77.483C169.801 77.0133 169.314 76.3295 168.977 75.4318C168.64 74.5341 168.472 73.4527 168.472 72.1875C168.472 70.9261 168.64 69.8485 168.977 68.9545C169.318 68.0606 169.807 67.3788 170.443 66.9091C171.083 66.4394 171.848 66.2045 172.739 66.2045C173.629 66.2045 174.392 66.4413 175.028 66.9148C175.665 67.3845 176.151 68.0663 176.489 68.9602C176.829 69.8504 177 70.9261 177 72.1875C177 73.4564 176.831 74.5398 176.494 75.4375C176.157 76.3314 175.67 77.0152 175.034 77.4886C174.398 77.9583 173.633 78.1932 172.739 78.1932ZM172.739 76.6761C173.526 76.6761 174.142 76.2917 174.585 75.5227C175.032 74.7538 175.256 73.642 175.256 72.1875C175.256 71.2216 175.153 70.4053 174.949 69.7386C174.748 69.0682 174.458 68.5606 174.079 68.2159C173.704 67.8674 173.258 67.6932 172.739 67.6932C171.954 67.6932 171.339 68.0795 170.892 68.8523C170.445 69.625 170.22 70.7367 170.216 72.1875C170.216 73.1572 170.316 73.9773 170.517 74.6477C170.722 75.3144 171.011 75.8201 171.386 76.1648C171.761 76.5057 172.212 76.6761 172.739 76.6761ZM182.587 78.1932C181.689 78.1894 180.922 77.9527 180.286 77.483C179.649 77.0133 179.162 76.3295 178.825 75.4318C178.488 74.5341 178.32 73.4527 178.32 72.1875C178.32 70.9261 178.488 69.8485 178.825 68.9545C179.166 68.0606 179.655 67.3788 180.291 66.9091C180.931 66.4394 181.697 66.2045 182.587 66.2045C183.477 66.2045 184.24 66.4413 184.876 66.9148C185.513 67.3845 186 68.0663 186.337 68.9602C186.678 69.8504 186.848 70.9261 186.848 72.1875C186.848 73.4564 186.68 74.5398 186.342 75.4375C186.005 76.3314 185.519 77.0152 184.882 77.4886C184.246 77.9583 183.481 78.1932 182.587 78.1932ZM182.587 76.6761C183.375 76.6761 183.99 76.2917 184.433 75.5227C184.88 74.7538 185.104 73.642 185.104 72.1875C185.104 71.2216 185.001 70.4053 184.797 69.7386C184.596 69.0682 184.306 68.5606 183.928 68.2159C183.553 67.8674 183.106 67.6932 182.587 67.6932C181.803 67.6932 181.187 68.0795 180.74 68.8523C180.293 69.625 180.068 70.7367 180.064 72.1875C180.064 73.1572 180.164 73.9773 180.365 74.6477C180.57 75.3144 180.859 75.8201 181.234 76.1648C181.609 76.5057 182.06 76.6761 182.587 76.6761ZM194.458 75.8182V75.2045C194.458 74.7652 194.548 74.3636 194.73 74C194.916 73.6326 195.185 73.339 195.537 73.1193C195.893 72.8958 196.323 72.7841 196.827 72.7841C197.342 72.7841 197.774 72.8939 198.122 73.1136C198.471 73.3333 198.734 73.6269 198.912 73.9943C199.094 74.3617 199.185 74.7652 199.185 75.2045V75.8182C199.185 76.2576 199.094 76.661 198.912 77.0284C198.73 77.392 198.463 77.6856 198.111 77.9091C197.762 78.1288 197.334 78.2386 196.827 78.2386C196.316 78.2386 195.884 78.1288 195.531 77.9091C195.179 77.6856 194.912 77.392 194.73 77.0284C194.548 76.661 194.458 76.2576 194.458 75.8182ZM195.781 75.2045V75.8182C195.781 76.1439 195.859 76.4394 196.014 76.7045C196.17 76.9697 196.441 77.1023 196.827 77.1023C197.209 77.1023 197.476 76.9697 197.628 76.7045C197.78 76.4394 197.855 76.1439 197.855 75.8182V75.2045C197.855 74.8788 197.781 74.5833 197.634 74.3182C197.49 74.053 197.221 73.9205 196.827 73.9205C196.448 73.9205 196.179 74.053 196.02 74.3182C195.861 74.5833 195.781 74.8788 195.781 75.2045ZM188.605 69.1591V68.5455C188.605 68.1061 188.696 67.7027 188.878 67.3352C189.064 66.9678 189.333 66.6742 189.685 66.4545C190.041 66.2348 190.471 66.125 190.975 66.125C191.49 66.125 191.922 66.2348 192.27 66.4545C192.619 66.6742 192.882 66.9678 193.06 67.3352C193.238 67.7027 193.327 68.1061 193.327 68.5455V69.1591C193.327 69.5985 193.236 70.0019 193.054 70.3693C192.876 70.733 192.611 71.0265 192.259 71.25C191.91 71.4697 191.482 71.5795 190.975 71.5795C190.459 71.5795 190.026 71.4697 189.673 71.25C189.325 71.0265 189.06 70.733 188.878 70.3693C188.696 70.0019 188.605 69.5985 188.605 69.1591ZM189.935 68.5455V69.1591C189.935 69.4848 190.011 69.7803 190.162 70.0455C190.317 70.3106 190.588 70.4432 190.975 70.4432C191.353 70.4432 191.619 70.3106 191.77 70.0455C191.925 69.7803 192.003 69.4848 192.003 69.1591V68.5455C192.003 68.2197 191.929 67.9242 191.781 67.6591C191.634 67.3939 191.365 67.2614 190.975 67.2614C190.596 67.2614 190.327 67.3939 190.168 67.6591C190.012 67.9242 189.935 68.2197 189.935 68.5455ZM189.145 78L197.145 66.3636H198.503L190.503 78H189.145Z" fill="white"/>
<path d="M21 100H46V124H21V100Z" fill="#013344"/>
<path d="M67.0281 118.159C66.1721 118.159 65.4429 117.926 64.8406 117.46C64.2384 116.991 63.7781 116.311 63.4599 115.42C63.1418 114.527 62.9827 113.447 62.9827 112.182C62.9827 110.924 63.1418 109.85 63.4599 108.96C63.7819 108.066 64.244 107.384 64.8463 106.915C65.4524 106.441 66.1796 106.205 67.0281 106.205C67.8766 106.205 68.602 106.441 69.2043 106.915C69.8103 107.384 70.2724 108.066 70.5906 108.96C70.9126 109.85 71.0736 110.924 71.0736 112.182C71.0736 113.447 70.9145 114.527 70.5963 115.42C70.2781 116.311 69.8179 116.991 69.2156 117.46C68.6134 117.926 67.8842 118.159 67.0281 118.159ZM67.0281 116.909C67.8766 116.909 68.5357 116.5 69.0054 115.682C69.4751 114.864 69.7099 113.697 69.7099 112.182C69.7099 111.174 69.602 110.316 69.3861 109.608C69.174 108.9 68.8671 108.36 68.4656 107.989C68.0679 107.617 67.5887 107.432 67.0281 107.432C66.1872 107.432 65.53 107.847 65.0565 108.676C64.5831 109.502 64.3463 110.67 64.3463 112.182C64.3463 113.189 64.4524 114.045 64.6645 114.75C64.8766 115.455 65.1815 115.991 65.5793 116.358C65.9808 116.725 66.4637 116.909 67.0281 116.909ZM76.8436 106.364V118H75.4345V107.841H75.3663L72.5254 109.727V108.295L75.4345 106.364H76.8436ZM83.642 118.159C82.892 118.159 82.2234 118.03 81.6363 117.773C81.053 117.515 80.589 117.157 80.2443 116.699C79.9034 116.237 79.7177 115.701 79.6874 115.091H81.1193C81.1496 115.466 81.2784 115.79 81.5056 116.062C81.7329 116.331 82.0302 116.54 82.3977 116.688C82.7651 116.835 83.1723 116.909 83.6193 116.909C84.1193 116.909 84.5624 116.822 84.9488 116.648C85.3352 116.473 85.6382 116.231 85.8579 115.92C86.0776 115.61 86.1874 115.25 86.1874 114.841C86.1874 114.413 86.0814 114.036 85.8693 113.71C85.6571 113.381 85.3465 113.123 84.9374 112.938C84.5284 112.752 84.0284 112.659 83.4374 112.659H82.5056V111.409H83.4374C83.8996 111.409 84.3049 111.326 84.6534 111.159C85.0056 110.992 85.2802 110.758 85.4772 110.455C85.678 110.152 85.7784 109.795 85.7784 109.386C85.7784 108.992 85.6912 108.65 85.517 108.358C85.3427 108.066 85.0965 107.839 84.7784 107.676C84.464 107.513 84.0927 107.432 83.6647 107.432C83.2632 107.432 82.8844 107.506 82.5284 107.653C82.1761 107.797 81.8882 108.008 81.6647 108.284C81.4412 108.557 81.32 108.886 81.3011 109.273H79.9374C79.9602 108.663 80.1439 108.129 80.4886 107.67C80.8333 107.208 81.284 106.848 81.8409 106.591C82.4015 106.333 83.017 106.205 83.6874 106.205C84.4071 106.205 85.0246 106.35 85.5397 106.642C86.0549 106.93 86.4507 107.311 86.7272 107.784C87.0037 108.258 87.142 108.769 87.142 109.318C87.142 109.973 86.9696 110.532 86.6249 110.994C86.284 111.456 85.82 111.777 85.2329 111.955V112.045C85.9677 112.167 86.5416 112.479 86.9545 112.983C87.3674 113.483 87.5738 114.102 87.5738 114.841C87.5738 115.473 87.4015 116.042 87.0568 116.545C86.7159 117.045 86.2499 117.439 85.659 117.727C85.0681 118.015 84.3958 118.159 83.642 118.159ZM93.3495 118.159C92.5995 118.159 91.9309 118.03 91.3438 117.773C90.7605 117.515 90.2965 117.157 89.9518 116.699C89.6109 116.237 89.4252 115.701 89.3949 115.091H90.8268C90.8571 115.466 90.9859 115.79 91.2131 116.062C91.4404 116.331 91.7377 116.54 92.1052 116.688C92.4726 116.835 92.8798 116.909 93.3268 116.909C93.8268 116.909 94.2699 116.822 94.6563 116.648C95.0427 116.473 95.3457 116.231 95.5654 115.92C95.7851 115.61 95.8949 115.25 95.8949 114.841C95.8949 114.413 95.7889 114.036 95.5768 113.71C95.3646 113.381 95.054 113.123 94.6449 112.938C94.2359 112.752 93.7359 112.659 93.1449 112.659H92.2131V111.409H93.1449C93.6071 111.409 94.0124 111.326 94.3609 111.159C94.7131 110.992 94.9877 110.758 95.1847 110.455C95.3855 110.152 95.4859 109.795 95.4859 109.386C95.4859 108.992 95.3987 108.65 95.2245 108.358C95.0502 108.066 94.804 107.839 94.4859 107.676C94.1715 107.513 93.8002 107.432 93.3722 107.432C92.9707 107.432 92.5919 107.506 92.2359 107.653C91.8836 107.797 91.5957 108.008 91.3722 108.284C91.1487 108.557 91.0275 108.886 91.0086 109.273H89.6449C89.6677 108.663 89.8514 108.129 90.1961 107.67C90.5408 107.208 90.9915 106.848 91.5484 106.591C92.109 106.333 92.7245 106.205 93.3949 106.205C94.1146 106.205 94.7321 106.35 95.2472 106.642C95.7624 106.93 96.1582 107.311 96.4347 107.784C96.7112 108.258 96.8495 108.769 96.8495 109.318C96.8495 109.973 96.6771 110.532 96.3324 110.994C95.9915 111.456 95.5275 111.777 94.9404 111.955V112.045C95.6752 112.167 96.2491 112.479 96.662 112.983C97.0749 113.483 97.2813 114.102 97.2813 114.841C97.2813 115.473 97.109 116.042 96.7643 116.545C96.4234 117.045 95.9574 117.439 95.3665 117.727C94.7756 118.015 94.1033 118.159 93.3495 118.159ZM98.8524 115.614V114.455L103.966 106.364H104.807V108.159H104.239L100.375 114.273V114.364H107.262V115.614H98.8524ZM104.33 118V115.261V114.722V106.364H105.671V118H104.33ZM108.638 115.614V114.455L113.752 106.364H114.593V108.159H114.024L110.161 114.273V114.364H117.047V115.614H108.638ZM114.115 118V115.261V114.722V106.364H115.456V118H114.115Z" fill="white"/>
<path d="M166.02 106.364V118H164.258V108.125H164.19L161.406 109.943V108.261L164.309 106.364H166.02ZM172.739 118.193C171.841 118.189 171.074 117.953 170.437 117.483C169.801 117.013 169.314 116.33 168.977 115.432C168.64 114.534 168.472 113.453 168.472 112.188C168.472 110.926 168.64 109.848 168.977 108.955C169.318 108.061 169.807 107.379 170.443 106.909C171.083 106.439 171.848 106.205 172.739 106.205C173.629 106.205 174.392 106.441 175.028 106.915C175.665 107.384 176.151 108.066 176.489 108.96C176.829 109.85 177 110.926 177 112.188C177 113.456 176.831 114.54 176.494 115.438C176.157 116.331 175.67 117.015 175.034 117.489C174.398 117.958 173.633 118.193 172.739 118.193ZM172.739 116.676C173.526 116.676 174.142 116.292 174.585 115.523C175.032 114.754 175.256 113.642 175.256 112.188C175.256 111.222 175.153 110.405 174.949 109.739C174.748 109.068 174.458 108.561 174.079 108.216C173.704 107.867 173.258 107.693 172.739 107.693C171.954 107.693 171.339 108.08 170.892 108.852C170.445 109.625 170.22 110.737 170.216 112.188C170.216 113.157 170.316 113.977 170.517 114.648C170.722 115.314 171.011 115.82 171.386 116.165C171.761 116.506 172.212 116.676 172.739 116.676ZM182.587 118.193C181.689 118.189 180.922 117.953 180.286 117.483C179.649 117.013 179.162 116.33 178.825 115.432C178.488 114.534 178.32 113.453 178.32 112.188C178.32 110.926 178.488 109.848 178.825 108.955C179.166 108.061 179.655 107.379 180.291 106.909C180.931 106.439 181.697 106.205 182.587 106.205C183.477 106.205 184.24 106.441 184.876 106.915C185.513 107.384 186 108.066 186.337 108.96C186.678 109.85 186.848 110.926 186.848 112.188C186.848 113.456 186.68 114.54 186.342 115.438C186.005 116.331 185.519 117.015 184.882 117.489C184.246 117.958 183.481 118.193 182.587 118.193ZM182.587 116.676C183.375 116.676 183.99 116.292 184.433 115.523C184.88 114.754 185.104 113.642 185.104 112.188C185.104 111.222 185.001 110.405 184.797 109.739C184.596 109.068 184.306 108.561 183.928 108.216C183.553 107.867 183.106 107.693 182.587 107.693C181.803 107.693 181.187 108.08 180.74 108.852C180.293 109.625 180.068 110.737 180.064 112.188C180.064 113.157 180.164 113.977 180.365 114.648C180.57 115.314 180.859 115.82 181.234 116.165C181.609 116.506 182.06 116.676 182.587 116.676ZM194.458 115.818V115.205C194.458 114.765 194.548 114.364 194.73 114C194.916 113.633 195.185 113.339 195.537 113.119C195.893 112.896 196.323 112.784 196.827 112.784C197.342 112.784 197.774 112.894 198.122 113.114C198.471 113.333 198.734 113.627 198.912 113.994C199.094 114.362 199.185 114.765 199.185 115.205V115.818C199.185 116.258 199.094 116.661 198.912 117.028C198.73 117.392 198.463 117.686 198.111 117.909C197.762 118.129 197.334 118.239 196.827 118.239C196.316 118.239 195.884 118.129 195.531 117.909C195.179 117.686 194.912 117.392 194.73 117.028C194.548 116.661 194.458 116.258 194.458 115.818ZM195.781 115.205V115.818C195.781 116.144 195.859 116.439 196.014 116.705C196.17 116.97 196.441 117.102 196.827 117.102C197.209 117.102 197.476 116.97 197.628 116.705C197.78 116.439 197.855 116.144 197.855 115.818V115.205C197.855 114.879 197.781 114.583 197.634 114.318C197.49 114.053 197.221 113.92 196.827 113.92C196.448 113.92 196.179 114.053 196.02 114.318C195.861 114.583 195.781 114.879 195.781 115.205ZM188.605 109.159V108.545C188.605 108.106 188.696 107.703 188.878 107.335C189.064 106.968 189.333 106.674 189.685 106.455C190.041 106.235 190.471 106.125 190.975 106.125C191.49 106.125 191.922 106.235 192.27 106.455C192.619 106.674 192.882 106.968 193.06 107.335C193.238 107.703 193.327 108.106 193.327 108.545V109.159C193.327 109.598 193.236 110.002 193.054 110.369C192.876 110.733 192.611 111.027 192.259 111.25C191.91 111.47 191.482 111.58 190.975 111.58C190.459 111.58 190.026 111.47 189.673 111.25C189.325 111.027 189.06 110.733 188.878 110.369C188.696 110.002 188.605 109.598 188.605 109.159ZM189.935 108.545V109.159C189.935 109.485 190.011 109.78 190.162 110.045C190.317 110.311 190.588 110.443 190.975 110.443C191.353 110.443 191.619 110.311 191.77 110.045C191.925 109.78 192.003 109.485 192.003 109.159V108.545C192.003 108.22 191.929 107.924 191.781 107.659C191.634 107.394 191.365 107.261 190.975 107.261C190.596 107.261 190.327 107.394 190.168 107.659C190.012 107.924 189.935 108.22 189.935 108.545ZM189.145 118L197.145 106.364H198.503L190.503 118H189.145Z" fill="white"/>
<path d="M21 140H46V164H21V140Z" fill="#011F28"/>
<path d="M69.2938 158.159C68.4377 158.159 67.7085 157.926 67.1063 157.46C66.504 156.991 66.0438 156.311 65.7256 155.42C65.4074 154.527 65.2483 153.447 65.2483 152.182C65.2483 150.924 65.4074 149.85 65.7256 148.96C66.0475 148.066 66.5097 147.384 67.1119 146.915C67.718 146.441 68.4453 146.205 69.2938 146.205C70.1422 146.205 70.8676 146.441 71.4699 146.915C72.0759 147.384 72.5381 148.066 72.8563 148.96C73.1782 149.85 73.3392 150.924 73.3392 152.182C73.3392 153.447 73.1801 154.527 72.8619 155.42C72.5438 156.311 72.0835 156.991 71.4813 157.46C70.879 157.926 70.1498 158.159 69.2938 158.159ZM69.2938 156.909C70.1422 156.909 70.8013 156.5 71.271 155.682C71.7407 154.864 71.9756 153.697 71.9756 152.182C71.9756 151.174 71.8676 150.316 71.6517 149.608C71.4396 148.9 71.1328 148.36 70.7313 147.989C70.3335 147.617 69.8544 147.432 69.2938 147.432C68.4528 147.432 67.7956 147.847 67.3222 148.676C66.8487 149.502 66.6119 150.67 66.6119 152.182C66.6119 153.189 66.718 154.045 66.9301 154.75C67.1422 155.455 67.4472 155.991 67.8449 156.358C68.2464 156.725 68.7294 156.909 69.2938 156.909ZM79.1092 146.364V158H77.7001V147.841H77.6319L74.791 149.727V148.295L77.7001 146.364H79.1092ZM86.0667 146.364V158H84.6576V147.841H84.5894L81.7485 149.727V148.295L84.6576 146.364H86.0667ZM89.1378 158V146.364H96.1151V147.614H90.5469V151.545H95.5924V152.795H90.5469V158H89.1378ZM97.8439 158V156.977L101.685 152.773C102.136 152.28 102.507 151.852 102.798 151.489C103.09 151.121 103.306 150.777 103.446 150.455C103.59 150.129 103.662 149.788 103.662 149.432C103.662 149.023 103.564 148.669 103.367 148.369C103.173 148.07 102.908 147.839 102.571 147.676C102.234 147.513 101.855 147.432 101.435 147.432C100.988 147.432 100.598 147.525 100.264 147.71C99.9348 147.892 99.6792 148.148 99.4973 148.477C99.3193 148.807 99.2303 149.193 99.2303 149.636H97.8894C97.8894 148.955 98.0466 148.356 98.361 147.841C98.6754 147.326 99.1034 146.924 99.6451 146.636C100.191 146.348 100.802 146.205 101.48 146.205C102.162 146.205 102.766 146.348 103.293 146.636C103.819 146.924 104.232 147.312 104.531 147.801C104.831 148.29 104.98 148.833 104.98 149.432C104.98 149.86 104.903 150.278 104.747 150.688C104.596 151.093 104.331 151.545 103.952 152.045C103.577 152.542 103.056 153.148 102.389 153.864L99.7757 156.659V156.75H105.185V158H97.8439ZM110.779 158.159C109.998 158.159 109.309 158.021 108.711 157.744C108.116 157.464 107.652 157.08 107.318 156.591C106.985 156.098 106.82 155.538 106.824 154.909C106.82 154.417 106.917 153.962 107.114 153.545C107.311 153.125 107.58 152.775 107.921 152.494C108.265 152.21 108.65 152.03 109.074 151.955V151.886C108.517 151.742 108.074 151.43 107.745 150.949C107.415 150.464 107.252 149.913 107.256 149.295C107.252 148.705 107.402 148.176 107.705 147.71C108.008 147.244 108.425 146.877 108.955 146.608C109.489 146.339 110.097 146.205 110.779 146.205C111.453 146.205 112.055 146.339 112.586 146.608C113.116 146.877 113.532 147.244 113.836 147.71C114.142 148.176 114.298 148.705 114.301 149.295C114.298 149.913 114.129 150.464 113.796 150.949C113.466 151.43 113.029 151.742 112.483 151.886V151.955C112.904 152.03 113.282 152.21 113.62 152.494C113.957 152.775 114.226 153.125 114.426 153.545C114.627 153.962 114.729 154.417 114.733 154.909C114.729 155.538 114.559 156.098 114.222 156.591C113.889 157.08 113.425 157.464 112.83 157.744C112.239 158.021 111.555 158.159 110.779 158.159ZM110.779 156.909C111.305 156.909 111.76 156.824 112.142 156.653C112.525 156.483 112.82 156.242 113.029 155.932C113.237 155.621 113.343 155.258 113.347 154.841C113.343 154.402 113.229 154.013 113.006 153.676C112.782 153.339 112.478 153.074 112.091 152.881C111.709 152.687 111.271 152.591 110.779 152.591C110.282 152.591 109.839 152.687 109.449 152.881C109.063 153.074 108.758 153.339 108.534 153.676C108.315 154.013 108.207 154.402 108.211 154.841C108.207 155.258 108.307 155.621 108.512 155.932C108.72 156.242 109.017 156.483 109.404 156.653C109.79 156.824 110.248 156.909 110.779 156.909ZM110.779 151.386C111.195 151.386 111.565 151.303 111.887 151.136C112.212 150.97 112.468 150.737 112.654 150.438C112.839 150.138 112.934 149.788 112.938 149.386C112.934 148.992 112.841 148.65 112.659 148.358C112.478 148.062 112.226 147.835 111.904 147.676C111.582 147.513 111.207 147.432 110.779 147.432C110.343 147.432 109.962 147.513 109.637 147.676C109.311 147.835 109.059 148.062 108.881 148.358C108.703 148.65 108.616 148.992 108.62 149.386C108.616 149.788 108.705 150.138 108.887 150.438C109.072 150.737 109.328 150.97 109.654 151.136C109.979 151.303 110.354 151.386 110.779 151.386Z" fill="white"/>
<path d="M166.02 146.364V158H164.258V148.125H164.19L161.406 149.943V148.261L164.309 146.364H166.02ZM172.739 158.193C171.841 158.189 171.074 157.953 170.437 157.483C169.801 157.013 169.314 156.33 168.977 155.432C168.64 154.534 168.472 153.453 168.472 152.188C168.472 150.926 168.64 149.848 168.977 148.955C169.318 148.061 169.807 147.379 170.443 146.909C171.083 146.439 171.848 146.205 172.739 146.205C173.629 146.205 174.392 146.441 175.028 146.915C175.665 147.384 176.151 148.066 176.489 148.96C176.829 149.85 177 150.926 177 152.188C177 153.456 176.831 154.54 176.494 155.438C176.157 156.331 175.67 157.015 175.034 157.489C174.398 157.958 173.633 158.193 172.739 158.193ZM172.739 156.676C173.526 156.676 174.142 156.292 174.585 155.523C175.032 154.754 175.256 153.642 175.256 152.188C175.256 151.222 175.153 150.405 174.949 149.739C174.748 149.068 174.458 148.561 174.079 148.216C173.704 147.867 173.258 147.693 172.739 147.693C171.954 147.693 171.339 148.08 170.892 148.852C170.445 149.625 170.22 150.737 170.216 152.188C170.216 153.157 170.316 153.977 170.517 154.648C170.722 155.314 171.011 155.82 171.386 156.165C171.761 156.506 172.212 156.676 172.739 156.676ZM182.587 158.193C181.689 158.189 180.922 157.953 180.286 157.483C179.649 157.013 179.162 156.33 178.825 155.432C178.488 154.534 178.32 153.453 178.32 152.188C178.32 150.926 178.488 149.848 178.825 148.955C179.166 148.061 179.655 147.379 180.291 146.909C180.931 146.439 181.697 146.205 182.587 146.205C183.477 146.205 184.24 146.441 184.876 146.915C185.513 147.384 186 148.066 186.337 148.96C186.678 149.85 186.848 150.926 186.848 152.188C186.848 153.456 186.68 154.54 186.342 155.438C186.005 156.331 185.519 157.015 184.882 157.489C184.246 157.958 183.481 158.193 182.587 158.193ZM182.587 156.676C183.375 156.676 183.99 156.292 184.433 155.523C184.88 154.754 185.104 153.642 185.104 152.188C185.104 151.222 185.001 150.405 184.797 149.739C184.596 149.068 184.306 148.561 183.928 148.216C183.553 147.867 183.106 147.693 182.587 147.693C181.803 147.693 181.187 148.08 180.74 148.852C180.293 149.625 180.068 150.737 180.064 152.188C180.064 153.157 180.164 153.977 180.365 154.648C180.57 155.314 180.859 155.82 181.234 156.165C181.609 156.506 182.06 156.676 182.587 156.676ZM194.458 155.818V155.205C194.458 154.765 194.548 154.364 194.73 154C194.916 153.633 195.185 153.339 195.537 153.119C195.893 152.896 196.323 152.784 196.827 152.784C197.342 152.784 197.774 152.894 198.122 153.114C198.471 153.333 198.734 153.627 198.912 153.994C199.094 154.362 199.185 154.765 199.185 155.205V155.818C199.185 156.258 199.094 156.661 198.912 157.028C198.73 157.392 198.463 157.686 198.111 157.909C197.762 158.129 197.334 158.239 196.827 158.239C196.316 158.239 195.884 158.129 195.531 157.909C195.179 157.686 194.912 157.392 194.73 157.028C194.548 156.661 194.458 156.258 194.458 155.818ZM195.781 155.205V155.818C195.781 156.144 195.859 156.439 196.014 156.705C196.17 156.97 196.441 157.102 196.827 157.102C197.209 157.102 197.476 156.97 197.628 156.705C197.78 156.439 197.855 156.144 197.855 155.818V155.205C197.855 154.879 197.781 154.583 197.634 154.318C197.49 154.053 197.221 153.92 196.827 153.92C196.448 153.92 196.179 154.053 196.02 154.318C195.861 154.583 195.781 154.879 195.781 155.205ZM188.605 149.159V148.545C188.605 148.106 188.696 147.703 188.878 147.335C189.064 146.968 189.333 146.674 189.685 146.455C190.041 146.235 190.471 146.125 190.975 146.125C191.49 146.125 191.922 146.235 192.27 146.455C192.619 146.674 192.882 146.968 193.06 147.335C193.238 147.703 193.327 148.106 193.327 148.545V149.159C193.327 149.598 193.236 150.002 193.054 150.369C192.876 150.733 192.611 151.027 192.259 151.25C191.91 151.47 191.482 151.58 190.975 151.58C190.459 151.58 190.026 151.47 189.673 151.25C189.325 151.027 189.06 150.733 188.878 150.369C188.696 150.002 188.605 149.598 188.605 149.159ZM189.935 148.545V149.159C189.935 149.485 190.011 149.78 190.162 150.045C190.317 150.311 190.588 150.443 190.975 150.443C191.353 150.443 191.619 150.311 191.77 150.045C191.925 149.78 192.003 149.485 192.003 149.159V148.545C192.003 148.22 191.929 147.924 191.781 147.659C191.634 147.394 191.365 147.261 190.975 147.261C190.596 147.261 190.327 147.394 190.168 147.659C190.012 147.924 189.935 148.22 189.935 148.545ZM189.145 158L197.145 146.364H198.503L190.503 158H189.145Z" fill="white"/>
<path d="M21 180H46V204H21V180Z" fill="#F5F5F5"/>
<path d="M64.4216 198V186.364H71.3989V187.614H65.8307V191.545H70.8761V192.795H65.8307V198H64.4216ZM76.764 198.159C76.0974 198.159 75.497 198.027 74.9629 197.761C74.4288 197.496 74.0008 197.133 73.6788 196.67C73.3568 196.208 73.1807 195.682 73.1504 195.091H74.514C74.5671 195.617 74.8057 196.053 75.2299 196.398C75.658 196.739 76.1693 196.909 76.764 196.909C77.2413 196.909 77.6656 196.797 78.0368 196.574C78.4118 196.35 78.7053 196.044 78.9174 195.653C79.1334 195.259 79.2413 194.814 79.2413 194.318C79.2413 193.811 79.1296 193.358 78.9061 192.96C78.6864 192.559 78.3834 192.242 77.997 192.011C77.6106 191.78 77.1693 191.663 76.6731 191.659C76.3171 191.655 75.9515 191.71 75.5765 191.824C75.2015 191.934 74.8928 192.076 74.6504 192.25L73.3322 192.091L74.0368 186.364H80.0822V187.614H75.2186L74.8095 191.045H74.8777C75.1163 190.856 75.4156 190.699 75.7754 190.574C76.1352 190.449 76.5102 190.386 76.9004 190.386C77.6125 190.386 78.247 190.557 78.8038 190.898C79.3644 191.235 79.8038 191.697 80.122 192.284C80.444 192.871 80.6049 193.542 80.6049 194.295C80.6049 195.038 80.4383 195.701 80.1049 196.284C79.7754 196.864 79.3209 197.322 78.7413 197.659C78.1618 197.992 77.5027 198.159 76.764 198.159ZM82.5866 198V186.364H89.5639V187.614H83.9957V191.545H89.0411V192.795H83.9957V198H82.5866ZM94.929 198.159C94.2624 198.159 93.662 198.027 93.1279 197.761C92.5938 197.496 92.1658 197.133 91.8438 196.67C91.5218 196.208 91.3457 195.682 91.3154 195.091H92.679C92.7321 195.617 92.9707 196.053 93.3949 196.398C93.823 196.739 94.3343 196.909 94.929 196.909C95.4063 196.909 95.8305 196.797 96.2018 196.574C96.5768 196.35 96.8703 196.044 97.0824 195.653C97.2984 195.259 97.4063 194.814 97.4063 194.318C97.4063 193.811 97.2946 193.358 97.0711 192.96C96.8514 192.559 96.5484 192.242 96.162 192.011C95.7756 191.78 95.3343 191.663 94.8381 191.659C94.4821 191.655 94.1165 191.71 93.7415 191.824C93.3665 191.934 93.0578 192.076 92.8154 192.25L91.4972 192.091L92.2018 186.364H98.2472V187.614H93.3836L92.9745 191.045H93.0427C93.2813 190.856 93.5805 190.699 93.9404 190.574C94.3002 190.449 94.6752 190.386 95.0654 190.386C95.7775 190.386 96.412 190.557 96.9688 190.898C97.5294 191.235 97.9688 191.697 98.287 192.284C98.609 192.871 98.7699 193.542 98.7699 194.295C98.7699 195.038 98.6033 195.701 98.2699 196.284C97.9404 196.864 97.4859 197.322 96.9063 197.659C96.3268 197.992 95.6677 198.159 94.929 198.159ZM100.752 198V186.364H107.729V187.614H102.161V191.545H107.206V192.795H102.161V198H100.752ZM113.094 198.159C112.427 198.159 111.827 198.027 111.293 197.761C110.759 197.496 110.331 197.133 110.009 196.67C109.687 196.208 109.511 195.682 109.48 195.091H110.844C110.897 195.617 111.136 196.053 111.56 196.398C111.988 196.739 112.499 196.909 113.094 196.909C113.571 196.909 113.996 196.797 114.367 196.574C114.742 196.35 115.035 196.044 115.247 195.653C115.463 195.259 115.571 194.814 115.571 194.318C115.571 193.811 115.46 193.358 115.236 192.96C115.016 192.559 114.713 192.242 114.327 192.011C113.941 191.78 113.499 191.663 113.003 191.659C112.647 191.655 112.282 191.71 111.907 191.824C111.532 191.934 111.223 192.076 110.98 192.25L109.662 192.091L110.367 186.364H116.412V187.614H111.549L111.139 191.045H111.208C111.446 190.856 111.746 190.699 112.105 190.574C112.465 190.449 112.84 190.386 113.23 190.386C113.943 190.386 114.577 190.557 115.134 190.898C115.694 191.235 116.134 191.697 116.452 192.284C116.774 192.871 116.935 193.542 116.935 194.295C116.935 195.038 116.768 195.701 116.435 196.284C116.105 196.864 115.651 197.322 115.071 197.659C114.492 197.992 113.833 198.159 113.094 198.159Z" fill="white"/>
<path d="M166.02 186.364V198H164.258V188.125H164.19L161.406 189.943V188.261L164.309 186.364H166.02ZM172.739 198.193C171.841 198.189 171.074 197.953 170.437 197.483C169.801 197.013 169.314 196.33 168.977 195.432C168.64 194.534 168.472 193.453 168.472 192.188C168.472 190.926 168.64 189.848 168.977 188.955C169.318 188.061 169.807 187.379 170.443 186.909C171.083 186.439 171.848 186.205 172.739 186.205C173.629 186.205 174.392 186.441 175.028 186.915C175.665 187.384 176.151 188.066 176.489 188.96C176.829 189.85 177 190.926 177 192.188C177 193.456 176.831 194.54 176.494 195.438C176.157 196.331 175.67 197.015 175.034 197.489C174.398 197.958 173.633 198.193 172.739 198.193ZM172.739 196.676C173.526 196.676 174.142 196.292 174.585 195.523C175.032 194.754 175.256 193.642 175.256 192.188C175.256 191.222 175.153 190.405 174.949 189.739C174.748 189.068 174.458 188.561 174.079 188.216C173.704 187.867 173.258 187.693 172.739 187.693C171.954 187.693 171.339 188.08 170.892 188.852C170.445 189.625 170.22 190.737 170.216 192.188C170.216 193.157 170.316 193.977 170.517 194.648C170.722 195.314 171.011 195.82 171.386 196.165C171.761 196.506 172.212 196.676 172.739 196.676ZM182.587 198.193C181.689 198.189 180.922 197.953 180.286 197.483C179.649 197.013 179.162 196.33 178.825 195.432C178.488 194.534 178.32 193.453 178.32 192.188C178.32 190.926 178.488 189.848 178.825 188.955C179.166 188.061 179.655 187.379 180.291 186.909C180.931 186.439 181.697 186.205 182.587 186.205C183.477 186.205 184.24 186.441 184.876 186.915C185.513 187.384 186 188.066 186.337 188.96C186.678 189.85 186.848 190.926 186.848 192.188C186.848 193.456 186.68 194.54 186.342 195.438C186.005 196.331 185.519 197.015 184.882 197.489C184.246 197.958 183.481 198.193 182.587 198.193ZM182.587 196.676C183.375 196.676 183.99 196.292 184.433 195.523C184.88 194.754 185.104 193.642 185.104 192.188C185.104 191.222 185.001 190.405 184.797 189.739C184.596 189.068 184.306 188.561 183.928 188.216C183.553 187.867 183.106 187.693 182.587 187.693C181.803 187.693 181.187 188.08 180.74 188.852C180.293 189.625 180.068 190.737 180.064 192.188C180.064 193.157 180.164 193.977 180.365 194.648C180.57 195.314 180.859 195.82 181.234 196.165C181.609 196.506 182.06 196.676 182.587 196.676ZM194.458 195.818V195.205C194.458 194.765 194.548 194.364 194.73 194C194.916 193.633 195.185 193.339 195.537 193.119C195.893 192.896 196.323 192.784 196.827 192.784C197.342 192.784 197.774 192.894 198.122 193.114C198.471 193.333 198.734 193.627 198.912 193.994C199.094 194.362 199.185 194.765 199.185 195.205V195.818C199.185 196.258 199.094 196.661 198.912 197.028C198.73 197.392 198.463 197.686 198.111 197.909C197.762 198.129 197.334 198.239 196.827 198.239C196.316 198.239 195.884 198.129 195.531 197.909C195.179 197.686 194.912 197.392 194.73 197.028C194.548 196.661 194.458 196.258 194.458 195.818ZM195.781 195.205V195.818C195.781 196.144 195.859 196.439 196.014 196.705C196.17 196.97 196.441 197.102 196.827 197.102C197.209 197.102 197.476 196.97 197.628 196.705C197.78 196.439 197.855 196.144 197.855 195.818V195.205C197.855 194.879 197.781 194.583 197.634 194.318C197.49 194.053 197.221 193.92 196.827 193.92C196.448 193.92 196.179 194.053 196.02 194.318C195.861 194.583 195.781 194.879 195.781 195.205ZM188.605 189.159V188.545C188.605 188.106 188.696 187.703 188.878 187.335C189.064 186.968 189.333 186.674 189.685 186.455C190.041 186.235 190.471 186.125 190.975 186.125C191.49 186.125 191.922 186.235 192.27 186.455C192.619 186.674 192.882 186.968 193.06 187.335C193.238 187.703 193.327 188.106 193.327 188.545V189.159C193.327 189.598 193.236 190.002 193.054 190.369C192.876 190.733 192.611 191.027 192.259 191.25C191.91 191.47 191.482 191.58 190.975 191.58C190.459 191.58 190.026 191.47 189.673 191.25C189.325 191.027 189.06 190.733 188.878 190.369C188.696 190.002 188.605 189.598 188.605 189.159ZM189.935 188.545V189.159C189.935 189.485 190.011 189.78 190.162 190.045C190.317 190.311 190.588 190.443 190.975 190.443C191.353 190.443 191.619 190.311 191.77 190.045C191.925 189.78 192.003 189.485 192.003 189.159V188.545C192.003 188.22 191.929 187.924 191.781 187.659C191.634 187.394 191.365 187.261 190.975 187.261C190.596 187.261 190.327 187.394 190.168 187.659C190.012 187.924 189.935 188.22 189.935 188.545ZM189.145 198L197.145 186.364H198.503L190.503 198H189.145Z" fill="white"/>
</svg>
