<svg width="29" height="29" viewBox="0 0 29 29" fill="none" xmlns="http://www.w3.org/2000/svg">
<path d="M28.375 21.3142V26.7655C28.3752 27.1558 28.2273 27.5317 27.9612 27.8172C27.6951 28.1028 27.3306 28.2768 26.9412 28.3041C26.2675 28.3503 25.7172 28.375 25.2917 28.375C11.668 28.375 0.625 17.332 0.625 3.70833C0.625 3.28283 0.648125 2.73246 0.695917 2.05875C0.723239 1.66939 0.897229 1.30489 1.18278 1.0388C1.46833 0.772702 1.84419 0.624824 2.2345 0.625H7.68583C7.87706 0.624807 8.06153 0.695699 8.20341 0.823907C8.3453 0.952114 8.43446 1.12848 8.45358 1.31875C8.48904 1.67333 8.52142 1.95546 8.55225 2.16975C8.85863 4.30792 9.4865 6.38749 10.4146 8.33796C10.561 8.64629 10.4655 9.01475 10.188 9.21208L6.86104 11.5893C8.8952 16.3291 12.6724 20.1063 17.4122 22.1405L19.7864 18.8197C19.8834 18.6841 20.025 18.5868 20.1864 18.5448C20.3479 18.5028 20.5189 18.5188 20.6698 18.59C22.62 19.5165 24.699 20.1428 26.8364 20.4478C27.0507 20.4786 27.3328 20.511 27.6843 20.5464C27.8743 20.5659 28.0503 20.6552 28.1782 20.7971C28.3061 20.9389 28.3752 21.1232 28.375 21.3142Z" fill="#F8F8F8"/>
</svg>
