<?xml version="1.0" encoding="UTF-8"?>
<svg id="Layer_1" data-name="Layer 1" xmlns="http://www.w3.org/2000/svg" version="1.1" viewBox="0 0 56.78 49.33">
  <defs>
    <style>
      .cls-1 {
        fill: #9f1414;
      }

      .cls-1, .cls-2, .cls-3 {
        stroke-width: 0px;
      }

      .cls-2 {
        fill: #d90707;
      }

      .cls-3 {
        fill: #0a0a0a;
      }
    </style>
  </defs>
  <path class="cls-2" d="M10.92,37.44l-9.16,7.33-.38,3.27,3.26.36,9.16-7.33c-1.07-1.12-2.03-2.34-2.87-3.64ZM37.55,42.72c.07-.07.12-.15.19-.23.26-.29.51-.58.74-.89.04-.06.07-.12.11-.17.24-.35.47-.71.67-1.08l.02-.06c1.68-3.18,1.96-7.25.87-11.39l4.83-3.87c3.51,1.69,6.99,1.83,9.3-.03,4.02-3.21,3.08-11.1-2.08-17.63C47.03.84,39.6-1.85,35.59,1.35c-2.32,1.86-2.98,5.3-2.12,9.12l-4.84,3.87c-3.76-2-7.77-2.65-11.23-1.71-.02,0-.04,0-.06,0-.41.12-.81.25-1.2.41-.06.02-.13.04-.19.07-.36.15-.7.33-1.04.52-.08.05-.18.08-.26.14-.42.24-.82.52-1.2.83-6.02,4.81-5.74,15.23.61,23.27,6.35,8.04,16.39,10.64,22.4,5.83.38-.31.74-.63,1.07-.99ZM44.8,13.29c-1.99-2.51-2.35-5.54-.81-6.78,1.54-1.23,4.4-.2,6.38,2.31,1.99,2.51,2.34,5.55.81,6.78-1.54,1.24-4.39.2-6.38-2.31Z"/>
  <ellipse class="cls-1" cx="47.52" cy="11.38" rx="3.93" ry="6.46" transform="translate(3.58 32.75) rotate(-39.4)"/>
  <path class="cls-3" d="M10.69,36.86l3.39,4.32-9.64,7.57c-1.19.94-2.92.73-3.85-.46-.94-1.19-.73-2.92.46-3.85l9.64-7.57Z"/>
</svg>