<?xml version="1.0" encoding="UTF-8"?>
<svg id="Layer_1" data-name="Layer 1" xmlns="http://www.w3.org/2000/svg" version="1.1" viewBox="0 0 57 63">
  <defs>
    <style>
      .cls-1 {
        fill: #000;
        stroke-width: 0px;
      }
    </style>
  </defs>
  <path class="cls-1" d="M25.65,37.8H2.85v18.9c0,1.67.6,3.27,1.67,4.45,1.07,1.18,2.52,1.85,4.03,1.85h39.9c1.51,0,2.96-.66,4.03-1.85s1.67-2.78,1.67-4.45v-18.9h-22.8v6.3h-5.7v-6.3ZM25.65,34.65H0V15.75c0-3.47,2.57-6.3,5.7-6.3h11.4v-3.15c0-1.67.6-3.27,1.67-4.45,1.07-1.18,2.52-1.85,4.03-1.85h11.4c1.51,0,2.96.66,4.03,1.85,1.07,1.18,1.67,2.78,1.67,4.45v3.15h11.4c1.51,0,2.96.66,4.03,1.85,1.07,1.18,1.67,2.78,1.67,4.45v18.9h-25.65v-6.3h-5.7v6.3ZM34.2,9.45v-3.15h-11.4v3.15h11.4Z"/>
</svg>