<svg width="250" height="227" viewBox="0 0 250 227" fill="none" xmlns="http://www.w3.org/2000/svg">
<path d="M235.217 23.6564L235.214 23.659C235.134 23.7193 235.038 23.7577 234.931 23.7674C234.837 23.7732 234.742 23.7549 234.654 23.7125C234.568 23.6624 234.492 23.5935 234.432 23.5096L229.781 14.1616L229.604 13.8073L229.276 13.586L221.185 8.13079C221.09 8.06696 221.014 7.97423 220.969 7.86313C220.925 7.7571 220.913 7.6415 220.933 7.53075C220.961 7.41904 221.018 7.3202 221.096 7.24367C221.178 7.16359 221.279 7.1103 221.387 7.08833L221.414 7.08298L221.44 7.07668L242.821 1.94326C242.926 1.92111 243.036 1.92376 243.142 1.95195C243.224 1.97889 243.301 2.02885 243.362 2.09903L243.37 2.10796L243.378 2.11676C243.447 2.19335 243.494 2.2886 243.515 2.39225C243.534 2.49093 243.528 2.59155 243.497 2.68386L235.422 23.3922C235.377 23.498 235.306 23.5888 235.217 23.6564Z" fill="black" stroke="black" stroke-width="3"/>
<rect x="0.25" y="17.25" width="223.5" height="209.5" fill="#363636" stroke="#FFFDFD" stroke-width="0.5"/>
<path d="M32.4084 34.4375H29.9198C29.8743 34.1155 29.7815 33.8295 29.6414 33.5795C29.5012 33.3258 29.3213 33.1098 29.1016 32.9318C28.8819 32.7538 28.6281 32.6174 28.3402 32.5227C28.0561 32.428 27.7474 32.3807 27.4141 32.3807C26.8118 32.3807 26.2872 32.5303 25.8402 32.8295C25.3933 33.125 25.0467 33.5568 24.8005 34.125C24.5542 34.6894 24.4311 35.375 24.4311 36.1818C24.4311 37.0114 24.5542 37.7083 24.8005 38.2727C25.0505 38.8371 25.3989 39.2633 25.8459 39.5511C26.2929 39.839 26.8099 39.983 27.397 39.983C27.7266 39.983 28.0315 39.9394 28.3118 39.8523C28.5959 39.7652 28.8478 39.6383 29.0675 39.4716C29.2872 39.3011 29.469 39.0947 29.613 38.8523C29.7607 38.6098 29.863 38.3333 29.9198 38.0227L32.4084 38.0341C32.344 38.5682 32.183 39.0833 31.9255 39.5795C31.6717 40.072 31.3289 40.5133 30.897 40.9034C30.469 41.2898 29.9577 41.5966 29.363 41.8239C28.772 42.0473 28.1035 42.1591 27.3573 42.1591C26.3194 42.1591 25.3914 41.9242 24.5732 41.4545C23.7588 40.9848 23.1148 40.3049 22.6414 39.4148C22.1717 38.5246 21.9368 37.447 21.9368 36.1818C21.9368 34.9129 22.1755 33.8333 22.6527 32.9432C23.13 32.053 23.7777 31.375 24.5959 30.9091C25.4141 30.4394 26.3345 30.2045 27.3573 30.2045C28.0315 30.2045 28.6565 30.2992 29.2323 30.4886C29.8118 30.678 30.3251 30.9545 30.772 31.3182C31.219 31.678 31.5827 32.1193 31.863 32.642C32.147 33.1648 32.3289 33.7633 32.4084 34.4375ZM37.5903 42.1705C36.7078 42.1705 35.9445 41.983 35.3006 41.608C34.6604 41.2292 34.1661 40.7027 33.8176 40.0284C33.4691 39.3504 33.2949 38.5644 33.2949 37.6705C33.2949 36.7689 33.4691 35.9811 33.8176 35.3068C34.1661 34.6288 34.6604 34.1023 35.3006 33.7273C35.9445 33.3485 36.7078 33.1591 37.5903 33.1591C38.4729 33.1591 39.2343 33.3485 39.8744 33.7273C40.5184 34.1023 41.0146 34.6288 41.3631 35.3068C41.7116 35.9811 41.8858 36.7689 41.8858 37.6705C41.8858 38.5644 41.7116 39.3504 41.3631 40.0284C41.0146 40.7027 40.5184 41.2292 39.8744 41.608C39.2343 41.983 38.4729 42.1705 37.5903 42.1705ZM37.6017 40.2955C38.0032 40.2955 38.3384 40.1818 38.6074 39.9545C38.8763 39.7235 39.079 39.4091 39.2153 39.0114C39.3555 38.6136 39.4256 38.161 39.4256 37.6534C39.4256 37.1458 39.3555 36.6932 39.2153 36.2955C39.079 35.8977 38.8763 35.5833 38.6074 35.3523C38.3384 35.1212 38.0032 35.0057 37.6017 35.0057C37.1964 35.0057 36.8555 35.1212 36.579 35.3523C36.3063 35.5833 36.0998 35.8977 35.9597 36.2955C35.8233 36.6932 35.7551 37.1458 35.7551 37.6534C35.7551 38.161 35.8233 38.6136 35.9597 39.0114C36.0998 39.4091 36.3063 39.7235 36.579 39.9545C36.8555 40.1818 37.1964 40.2955 37.6017 40.2955ZM45.4001 30.3636V42H42.9797V30.3636H45.4001ZM50.8022 42.1705C49.9196 42.1705 49.1564 41.983 48.5124 41.608C47.8723 41.2292 47.378 40.7027 47.0295 40.0284C46.681 39.3504 46.5068 38.5644 46.5068 37.6705C46.5068 36.7689 46.681 35.9811 47.0295 35.3068C47.378 34.6288 47.8723 34.1023 48.5124 33.7273C49.1564 33.3485 49.9196 33.1591 50.8022 33.1591C51.6848 33.1591 52.4462 33.3485 53.0863 33.7273C53.7302 34.1023 54.2265 34.6288 54.5749 35.3068C54.9234 35.9811 55.0977 36.7689 55.0977 37.6705C55.0977 38.5644 54.9234 39.3504 54.5749 40.0284C54.2265 40.7027 53.7302 41.2292 53.0863 41.608C52.4462 41.983 51.6848 42.1705 50.8022 42.1705ZM50.8136 40.2955C51.2151 40.2955 51.5503 40.1818 51.8193 39.9545C52.0882 39.7235 52.2909 39.4091 52.4272 39.0114C52.5674 38.6136 52.6374 38.161 52.6374 37.6534C52.6374 37.1458 52.5674 36.6932 52.4272 36.2955C52.2909 35.8977 52.0882 35.5833 51.8193 35.3523C51.5503 35.1212 51.2151 35.0057 50.8136 35.0057C50.4083 35.0057 50.0674 35.1212 49.7909 35.3523C49.5181 35.5833 49.3117 35.8977 49.1715 36.2955C49.0352 36.6932 48.967 37.1458 48.967 37.6534C48.967 38.161 49.0352 38.6136 49.1715 39.0114C49.3117 39.4091 49.5181 39.7235 49.7909 39.9545C50.0674 40.1818 50.4083 40.2955 50.8136 40.2955ZM56.1915 42V33.2727H58.5381V34.7955H58.629C58.7881 34.2538 59.0552 33.8447 59.4302 33.5682C59.8052 33.2879 60.237 33.1477 60.7256 33.1477C60.8468 33.1477 60.9775 33.1553 61.1177 33.1705C61.2578 33.1856 61.3809 33.2064 61.487 33.233V35.3807C61.3734 35.3466 61.2162 35.3163 61.0154 35.2898C60.8146 35.2633 60.6309 35.25 60.4643 35.25C60.1082 35.25 59.79 35.3277 59.5097 35.483C59.2332 35.6345 59.0135 35.8466 58.8506 36.1193C58.6915 36.392 58.612 36.7064 58.612 37.0625V42H56.1915ZM65.527 42V30.3636H70.1179C71.0005 30.3636 71.7524 30.5322 72.3736 30.8693C72.9948 31.2027 73.4683 31.6667 73.794 32.2614C74.1236 32.8523 74.2884 33.5341 74.2884 34.3068C74.2884 35.0795 74.1217 35.7614 73.7884 36.3523C73.455 36.9432 72.9721 37.4034 72.3395 37.733C71.7107 38.0625 70.9493 38.2273 70.0554 38.2273H67.1293V36.2557H69.6577C70.1312 36.2557 70.5213 36.1742 70.8281 36.0114C71.1387 35.8447 71.3698 35.6155 71.5213 35.3239C71.6766 35.0284 71.7543 34.6894 71.7543 34.3068C71.7543 33.9205 71.6766 33.5833 71.5213 33.2955C71.3698 33.0038 71.1387 32.7784 70.8281 32.6193C70.5175 32.4564 70.1236 32.375 69.6463 32.375H67.9872V42H65.527ZM77.6152 42.1648C77.0584 42.1648 76.5621 42.0682 76.1265 41.875C75.6909 41.678 75.3462 41.3883 75.0924 41.0057C74.8424 40.6193 74.7174 40.1383 74.7174 39.5625C74.7174 39.0777 74.8065 38.6705 74.9845 38.3409C75.1625 38.0114 75.4049 37.7462 75.7118 37.5455C76.0186 37.3447 76.3671 37.1932 76.7572 37.0909C77.1512 36.9886 77.564 36.9167 77.9959 36.875C78.5034 36.822 78.9125 36.7727 79.2231 36.7273C79.5337 36.678 79.7591 36.6061 79.8993 36.5114C80.0394 36.4167 80.1095 36.2765 80.1095 36.0909V36.0568C80.1095 35.697 79.9959 35.4186 79.7686 35.2216C79.5451 35.0246 79.2269 34.9261 78.814 34.9261C78.3784 34.9261 78.0318 35.0227 77.7743 35.2159C77.5167 35.4053 77.3462 35.6439 77.2629 35.9318L75.0243 35.75C75.1379 35.2197 75.3614 34.7614 75.6947 34.375C76.028 33.9848 76.458 33.6856 76.9845 33.4773C77.5148 33.2652 78.1284 33.1591 78.8254 33.1591C79.3102 33.1591 79.7743 33.2159 80.2174 33.3295C80.6644 33.4432 81.0602 33.6193 81.4049 33.858C81.7534 34.0966 82.028 34.4034 82.2288 34.7784C82.4296 35.1496 82.5299 35.5947 82.5299 36.1136V42H80.2345V40.7898H80.1663C80.0262 41.0625 79.8387 41.303 79.6038 41.5114C79.369 41.7159 79.0868 41.8769 78.7572 41.9943C78.4277 42.108 78.047 42.1648 77.6152 42.1648ZM78.3084 40.4943C78.6644 40.4943 78.9788 40.4242 79.2515 40.2841C79.5243 40.1402 79.7383 39.947 79.8936 39.7045C80.0489 39.4621 80.1265 39.1875 80.1265 38.8807V37.9545C80.0508 38.0038 79.9466 38.0492 79.814 38.0909C79.6852 38.1288 79.5394 38.1648 79.3765 38.1989C79.2137 38.2292 79.0508 38.2576 78.8879 38.2841C78.725 38.3068 78.5773 38.3277 78.4447 38.3466C78.1606 38.3883 77.9125 38.4545 77.7004 38.5455C77.4883 38.6364 77.3235 38.7595 77.2061 38.9148C77.0887 39.0663 77.0299 39.2557 77.0299 39.483C77.0299 39.8125 77.1493 40.0644 77.3879 40.2386C77.6303 40.4091 77.9371 40.4943 78.3084 40.4943ZM86.3482 30.3636V42H83.9278V30.3636H86.3482ZM91.7844 42.1705C90.8867 42.1705 90.114 41.9886 89.4662 41.625C88.8223 41.2576 88.3261 40.7386 87.9776 40.0682C87.6291 39.3939 87.4549 38.5966 87.4549 37.6761C87.4549 36.7784 87.6291 35.9905 87.9776 35.3125C88.3261 34.6345 88.8166 34.1061 89.4492 33.7273C90.0856 33.3485 90.8318 33.1591 91.6878 33.1591C92.2636 33.1591 92.7996 33.2519 93.2958 33.4375C93.7958 33.6193 94.2314 33.8939 94.6026 34.2614C94.9776 34.6288 95.2693 35.0909 95.4776 35.6477C95.6859 36.2008 95.7901 36.8485 95.7901 37.5909V38.2557H88.4208V36.7557H93.5117C93.5117 36.4072 93.4359 36.0985 93.2844 35.8295C93.1329 35.5606 92.9227 35.3504 92.6537 35.1989C92.3886 35.0436 92.0799 34.9659 91.7276 34.9659C91.3602 34.9659 91.0344 35.0511 90.7503 35.2216C90.47 35.3883 90.2503 35.6136 90.0912 35.8977C89.9322 36.178 89.8507 36.4905 89.8469 36.8352V38.2614C89.8469 38.6932 89.9265 39.0663 90.0856 39.3807C90.2484 39.6951 90.4776 39.9375 90.7731 40.108C91.0685 40.2784 91.4189 40.3636 91.8242 40.3636C92.0931 40.3636 92.3394 40.3258 92.5628 40.25C92.7863 40.1742 92.9776 40.0606 93.1367 39.9091C93.2958 39.7576 93.417 39.572 93.5003 39.3523L95.739 39.5C95.6253 40.0379 95.3924 40.5076 95.0401 40.9091C94.6916 41.3068 94.2409 41.6174 93.6878 41.8409C93.1386 42.0606 92.5041 42.1705 91.7844 42.1705ZM101.532 33.2727V35.0909H96.276V33.2727H101.532ZM97.4692 31.1818H99.8897V39.3182C99.8897 39.5417 99.9238 39.7159 99.9919 39.8409C100.06 39.9621 100.155 40.0473 100.276 40.0966C100.401 40.1458 100.545 40.1705 100.708 40.1705C100.821 40.1705 100.935 40.161 101.049 40.142C101.162 40.1193 101.25 40.1023 101.31 40.0909L101.691 41.892C101.57 41.9299 101.399 41.9735 101.179 42.0227C100.96 42.0758 100.693 42.108 100.378 42.1193C99.795 42.142 99.2836 42.0644 98.8442 41.8864C98.4086 41.7083 98.0696 41.4318 97.8272 41.0568C97.5847 40.6818 97.4654 40.2083 97.4692 39.6364V31.1818ZM107.27 33.2727V35.0909H102.015V33.2727H107.27ZM103.208 31.1818H105.628V39.3182C105.628 39.5417 105.663 39.7159 105.731 39.8409C105.799 39.9621 105.894 40.0473 106.015 40.0966C106.14 40.1458 106.284 40.1705 106.447 40.1705C106.56 40.1705 106.674 40.161 106.788 40.142C106.901 40.1193 106.988 40.1023 107.049 40.0909L107.43 41.892C107.308 41.9299 107.138 41.9735 106.918 42.0227C106.698 42.0758 106.431 42.108 106.117 42.1193C105.534 42.142 105.022 42.0644 104.583 41.8864C104.147 41.7083 103.808 41.4318 103.566 41.0568C103.323 40.6818 103.204 40.2083 103.208 39.6364V31.1818ZM112.251 42.1705C111.353 42.1705 110.58 41.9886 109.932 41.625C109.289 41.2576 108.792 40.7386 108.444 40.0682C108.095 39.3939 107.921 38.5966 107.921 37.6761C107.921 36.7784 108.095 35.9905 108.444 35.3125C108.792 34.6345 109.283 34.1061 109.915 33.7273C110.552 33.3485 111.298 33.1591 112.154 33.1591C112.73 33.1591 113.266 33.2519 113.762 33.4375C114.262 33.6193 114.698 33.8939 115.069 34.2614C115.444 34.6288 115.736 35.0909 115.944 35.6477C116.152 36.2008 116.256 36.8485 116.256 37.5909V38.2557H108.887V36.7557H113.978C113.978 36.4072 113.902 36.0985 113.751 35.8295C113.599 35.5606 113.389 35.3504 113.12 35.1989C112.855 35.0436 112.546 34.9659 112.194 34.9659C111.826 34.9659 111.501 35.0511 111.217 35.2216C110.936 35.3883 110.717 35.6136 110.557 35.8977C110.398 36.178 110.317 36.4905 110.313 36.8352V38.2614C110.313 38.6932 110.393 39.0663 110.552 39.3807C110.715 39.6951 110.944 39.9375 111.239 40.108C111.535 40.2784 111.885 40.3636 112.29 40.3636C112.559 40.3636 112.806 40.3258 113.029 40.25C113.253 40.1742 113.444 40.0606 113.603 39.9091C113.762 39.7576 113.883 39.572 113.967 39.3523L116.205 39.5C116.092 40.0379 115.859 40.5076 115.506 40.9091C115.158 41.3068 114.707 41.6174 114.154 41.8409C113.605 42.0606 112.97 42.1705 112.251 42.1705Z" fill="white"/>
<path d="M21 60H46V84H21V60Z" fill="#FCA566"/>
<path d="M61.8357 78V66.3636H68.8129V67.6136H63.2447V71.5455H68.2902V72.7955H63.2447V78H61.8357ZM80.1099 70H78.7008C78.6175 69.5947 78.4717 69.2386 78.2633 68.9318C78.0588 68.625 77.8088 68.3674 77.5133 68.1591C77.2217 67.947 76.8978 67.7879 76.5417 67.6818C76.1857 67.5758 75.8145 67.5227 75.4281 67.5227C74.7236 67.5227 74.0853 67.7008 73.5133 68.0568C72.9451 68.4129 72.4925 68.9375 72.1554 69.6307C71.822 70.3239 71.6554 71.1742 71.6554 72.1818C71.6554 73.1894 71.822 74.0398 72.1554 74.733C72.4925 75.4261 72.9451 75.9508 73.5133 76.3068C74.0853 76.6629 74.7236 76.8409 75.4281 76.8409C75.8145 76.8409 76.1857 76.7879 76.5417 76.6818C76.8978 76.5758 77.2217 76.4186 77.5133 76.2102C77.8088 75.9981 78.0588 75.7386 78.2633 75.4318C78.4717 75.1212 78.6175 74.7652 78.7008 74.3636H80.1099C80.0039 74.9583 79.8107 75.4905 79.5304 75.9602C79.2501 76.4299 78.9016 76.8295 78.4849 77.1591C78.0683 77.4848 77.6004 77.733 77.0815 77.9034C76.5664 78.0739 76.0152 78.1591 75.4281 78.1591C74.4357 78.1591 73.5531 77.9167 72.7804 77.4318C72.0076 76.947 71.3997 76.2576 70.9565 75.3636C70.5133 74.4697 70.2917 73.4091 70.2917 72.1818C70.2917 70.9545 70.5133 69.8939 70.9565 69C71.3997 68.1061 72.0076 67.4167 72.7804 66.9318C73.5531 66.447 74.4357 66.2045 75.4281 66.2045C76.0152 66.2045 76.5664 66.2898 77.0815 66.4602C77.6004 66.6307 78.0683 66.8807 78.4849 67.2102C78.9016 67.536 79.2501 67.9337 79.5304 68.4034C79.8107 68.8693 80.0039 69.4015 80.1099 70ZM82.3842 78H80.9069L85.1796 66.3636H86.6342L90.9069 78H89.4296L85.9524 68.2045H85.8615L82.3842 78ZM82.9296 73.4545H88.8842V74.7045H82.9296V73.4545ZM95.6712 78.1591C95.0046 78.1591 94.4042 78.0265 93.8701 77.7614C93.336 77.4962 92.908 77.1326 92.586 76.6705C92.264 76.2083 92.0879 75.6818 92.0576 75.0909H93.4212C93.4743 75.6174 93.7129 76.053 94.1371 76.3977C94.5652 76.7386 95.0765 76.9091 95.6712 76.9091C96.1485 76.9091 96.5727 76.7973 96.9439 76.5739C97.3189 76.3504 97.6125 76.0436 97.8246 75.6534C98.0405 75.2595 98.1485 74.8144 98.1485 74.3182C98.1485 73.8106 98.0368 73.358 97.8133 72.9602C97.5936 72.5587 97.2905 72.2424 96.9042 72.0114C96.5178 71.7803 96.0765 71.6629 95.5803 71.6591C95.2243 71.6553 94.8587 71.7102 94.4837 71.8239C94.1087 71.9337 93.8 72.0758 93.5576 72.25L92.2394 72.0909L92.9439 66.3636H98.9894V67.6136H94.1258L93.7167 71.0455H93.7849C94.0235 70.8561 94.3227 70.6989 94.6826 70.5739C95.0424 70.4489 95.4174 70.3864 95.8076 70.3864C96.5197 70.3864 97.1542 70.5568 97.711 70.8977C98.2716 71.2348 98.711 71.697 99.0292 72.2841C99.3511 72.8712 99.5121 73.5417 99.5121 74.2955C99.5121 75.0379 99.3455 75.7008 99.0121 76.2841C98.6826 76.8636 98.228 77.322 97.6485 77.6591C97.0689 77.9924 96.4099 78.1591 95.6712 78.1591ZM105.153 78.1591C104.676 78.1515 104.198 78.0606 103.721 77.8864C103.244 77.7121 102.808 77.4186 102.414 77.0057C102.02 76.589 101.704 76.0265 101.465 75.3182C101.227 74.6061 101.107 73.7121 101.107 72.6364C101.107 71.6061 101.204 70.6932 101.397 69.8977C101.59 69.0985 101.871 68.4261 102.238 67.8807C102.606 67.3314 103.049 66.9148 103.568 66.6307C104.09 66.3466 104.679 66.2045 105.335 66.2045C105.986 66.2045 106.566 66.3352 107.073 66.5966C107.585 66.8542 108.001 67.214 108.323 67.6761C108.645 68.1383 108.854 68.6705 108.948 69.2727H107.562C107.433 68.75 107.183 68.3163 106.812 67.9716C106.441 67.6269 105.948 67.4545 105.335 67.4545C104.433 67.4545 103.723 67.8466 103.204 68.6307C102.689 69.4148 102.429 70.5152 102.426 71.9318H102.517C102.729 71.6098 102.981 71.3352 103.272 71.108C103.568 70.8769 103.893 70.6989 104.249 70.5739C104.606 70.4489 104.982 70.3864 105.38 70.3864C106.047 70.3864 106.657 70.553 107.21 70.8864C107.763 71.2159 108.206 71.6723 108.539 72.2557C108.873 72.8352 109.039 73.5 109.039 74.25C109.039 74.9697 108.878 75.6288 108.556 76.2273C108.234 76.822 107.782 77.2955 107.198 77.6477C106.619 77.9962 105.937 78.1667 105.153 78.1591ZM105.153 76.9091C105.63 76.9091 106.058 76.7898 106.437 76.5511C106.82 76.3125 107.121 75.9924 107.34 75.5909C107.564 75.1894 107.676 74.7424 107.676 74.25C107.676 73.7689 107.568 73.3314 107.352 72.9375C107.14 72.5398 106.846 72.2235 106.471 71.9886C106.1 71.7538 105.676 71.6364 105.198 71.6364C104.838 71.6364 104.503 71.7083 104.193 71.8523C103.882 71.9924 103.609 72.1856 103.374 72.4318C103.143 72.678 102.962 72.9602 102.829 73.2784C102.696 73.5928 102.63 73.9242 102.63 74.2727C102.63 74.7348 102.738 75.1667 102.954 75.5682C103.174 75.9697 103.473 76.2936 103.852 76.5398C104.234 76.786 104.668 76.9091 105.153 76.9091ZM114.657 78.1591C114.18 78.1515 113.703 78.0606 113.225 77.8864C112.748 77.7121 112.313 77.4186 111.919 77.0057C111.525 76.589 111.208 76.0265 110.97 75.3182C110.731 74.6061 110.612 73.7121 110.612 72.6364C110.612 71.6061 110.708 70.6932 110.902 69.8977C111.095 69.0985 111.375 68.4261 111.742 67.8807C112.11 67.3314 112.553 66.9148 113.072 66.6307C113.595 66.3466 114.184 66.2045 114.839 66.2045C115.491 66.2045 116.07 66.3352 116.578 66.5966C117.089 66.8542 117.506 67.214 117.828 67.6761C118.15 68.1383 118.358 68.6705 118.453 69.2727H117.066C116.938 68.75 116.688 68.3163 116.316 67.9716C115.945 67.6269 115.453 67.4545 114.839 67.4545C113.938 67.4545 113.227 67.8466 112.708 68.6307C112.193 69.4148 111.934 70.5152 111.93 71.9318H112.021C112.233 71.6098 112.485 71.3352 112.777 71.108C113.072 70.8769 113.398 70.6989 113.754 70.5739C114.11 70.4489 114.487 70.3864 114.885 70.3864C115.551 70.3864 116.161 70.553 116.714 70.8864C117.267 71.2159 117.71 71.6723 118.044 72.2557C118.377 72.8352 118.544 73.5 118.544 74.25C118.544 74.9697 118.383 75.6288 118.061 76.2273C117.739 76.822 117.286 77.2955 116.703 77.6477C116.123 77.9962 115.441 78.1667 114.657 78.1591ZM114.657 76.9091C115.135 76.9091 115.563 76.7898 115.941 76.5511C116.324 76.3125 116.625 75.9924 116.845 75.5909C117.068 75.1894 117.18 74.7424 117.18 74.25C117.18 73.7689 117.072 73.3314 116.856 72.9375C116.644 72.5398 116.35 72.2235 115.975 71.9886C115.604 71.7538 115.18 71.6364 114.703 71.6364C114.343 71.6364 114.008 71.7083 113.697 71.8523C113.386 71.9924 113.114 72.1856 112.879 72.4318C112.648 72.678 112.466 72.9602 112.333 73.2784C112.201 73.5928 112.135 73.9242 112.135 74.2727C112.135 74.7348 112.242 75.1667 112.458 75.5682C112.678 75.9697 112.977 76.2936 113.356 76.5398C113.739 76.786 114.172 76.9091 114.657 76.9091Z" fill="white"/>
<path d="M166.02 66.3636V78H164.258V68.125H164.19L161.406 69.9432V68.2614L164.309 66.3636H166.02ZM172.739 78.1932C171.841 78.1894 171.074 77.9527 170.437 77.483C169.801 77.0133 169.314 76.3295 168.977 75.4318C168.64 74.5341 168.472 73.4527 168.472 72.1875C168.472 70.9261 168.64 69.8485 168.977 68.9545C169.318 68.0606 169.807 67.3788 170.443 66.9091C171.083 66.4394 171.848 66.2045 172.739 66.2045C173.629 66.2045 174.392 66.4413 175.028 66.9148C175.665 67.3845 176.151 68.0663 176.489 68.9602C176.829 69.8504 177 70.9261 177 72.1875C177 73.4564 176.831 74.5398 176.494 75.4375C176.157 76.3314 175.67 77.0152 175.034 77.4886C174.398 77.9583 173.633 78.1932 172.739 78.1932ZM172.739 76.6761C173.526 76.6761 174.142 76.2917 174.585 75.5227C175.032 74.7538 175.256 73.642 175.256 72.1875C175.256 71.2216 175.153 70.4053 174.949 69.7386C174.748 69.0682 174.458 68.5606 174.079 68.2159C173.704 67.8674 173.258 67.6932 172.739 67.6932C171.954 67.6932 171.339 68.0795 170.892 68.8523C170.445 69.625 170.22 70.7367 170.216 72.1875C170.216 73.1572 170.316 73.9773 170.517 74.6477C170.722 75.3144 171.011 75.8201 171.386 76.1648C171.761 76.5057 172.212 76.6761 172.739 76.6761ZM182.587 78.1932C181.689 78.1894 180.922 77.9527 180.286 77.483C179.649 77.0133 179.162 76.3295 178.825 75.4318C178.488 74.5341 178.32 73.4527 178.32 72.1875C178.32 70.9261 178.488 69.8485 178.825 68.9545C179.166 68.0606 179.655 67.3788 180.291 66.9091C180.931 66.4394 181.697 66.2045 182.587 66.2045C183.477 66.2045 184.24 66.4413 184.876 66.9148C185.513 67.3845 186 68.0663 186.337 68.9602C186.678 69.8504 186.848 70.9261 186.848 72.1875C186.848 73.4564 186.68 74.5398 186.342 75.4375C186.005 76.3314 185.519 77.0152 184.882 77.4886C184.246 77.9583 183.481 78.1932 182.587 78.1932ZM182.587 76.6761C183.375 76.6761 183.99 76.2917 184.433 75.5227C184.88 74.7538 185.104 73.642 185.104 72.1875C185.104 71.2216 185.001 70.4053 184.797 69.7386C184.596 69.0682 184.306 68.5606 183.928 68.2159C183.553 67.8674 183.106 67.6932 182.587 67.6932C181.803 67.6932 181.187 68.0795 180.74 68.8523C180.293 69.625 180.068 70.7367 180.064 72.1875C180.064 73.1572 180.164 73.9773 180.365 74.6477C180.57 75.3144 180.859 75.8201 181.234 76.1648C181.609 76.5057 182.06 76.6761 182.587 76.6761ZM194.458 75.8182V75.2045C194.458 74.7652 194.548 74.3636 194.73 74C194.916 73.6326 195.185 73.339 195.537 73.1193C195.893 72.8958 196.323 72.7841 196.827 72.7841C197.342 72.7841 197.774 72.8939 198.122 73.1136C198.471 73.3333 198.734 73.6269 198.912 73.9943C199.094 74.3617 199.185 74.7652 199.185 75.2045V75.8182C199.185 76.2576 199.094 76.661 198.912 77.0284C198.73 77.392 198.463 77.6856 198.111 77.9091C197.762 78.1288 197.334 78.2386 196.827 78.2386C196.316 78.2386 195.884 78.1288 195.531 77.9091C195.179 77.6856 194.912 77.392 194.73 77.0284C194.548 76.661 194.458 76.2576 194.458 75.8182ZM195.781 75.2045V75.8182C195.781 76.1439 195.859 76.4394 196.014 76.7045C196.17 76.9697 196.441 77.1023 196.827 77.1023C197.209 77.1023 197.476 76.9697 197.628 76.7045C197.78 76.4394 197.855 76.1439 197.855 75.8182V75.2045C197.855 74.8788 197.781 74.5833 197.634 74.3182C197.49 74.053 197.221 73.9205 196.827 73.9205C196.448 73.9205 196.179 74.053 196.02 74.3182C195.861 74.5833 195.781 74.8788 195.781 75.2045ZM188.605 69.1591V68.5455C188.605 68.1061 188.696 67.7027 188.878 67.3352C189.064 66.9678 189.333 66.6742 189.685 66.4545C190.041 66.2348 190.471 66.125 190.975 66.125C191.49 66.125 191.922 66.2348 192.27 66.4545C192.619 66.6742 192.882 66.9678 193.06 67.3352C193.238 67.7027 193.327 68.1061 193.327 68.5455V69.1591C193.327 69.5985 193.236 70.0019 193.054 70.3693C192.876 70.733 192.611 71.0265 192.259 71.25C191.91 71.4697 191.482 71.5795 190.975 71.5795C190.459 71.5795 190.026 71.4697 189.673 71.25C189.325 71.0265 189.06 70.733 188.878 70.3693C188.696 70.0019 188.605 69.5985 188.605 69.1591ZM189.935 68.5455V69.1591C189.935 69.4848 190.011 69.7803 190.162 70.0455C190.317 70.3106 190.588 70.4432 190.975 70.4432C191.353 70.4432 191.619 70.3106 191.77 70.0455C191.925 69.7803 192.003 69.4848 192.003 69.1591V68.5455C192.003 68.2197 191.929 67.9242 191.781 67.6591C191.634 67.3939 191.365 67.2614 190.975 67.2614C190.596 67.2614 190.327 67.3939 190.168 67.6591C190.012 67.9242 189.935 68.2197 189.935 68.5455ZM189.145 78L197.145 66.3636H198.503L190.503 78H189.145Z" fill="white"/>
<path d="M21 100H46V124H21V100Z" fill="#868686"/>
<path d="M66.3662 118.159C65.5859 118.159 64.8965 118.021 64.298 117.744C63.7033 117.464 63.2393 117.08 62.906 116.591C62.5726 116.098 62.4079 115.538 62.4116 114.909C62.4079 114.417 62.5045 113.962 62.7014 113.545C62.8984 113.125 63.1673 112.775 63.5082 112.494C63.8529 112.21 64.2374 112.03 64.6616 111.955V111.886C64.1048 111.742 63.6616 111.43 63.3321 110.949C63.0026 110.464 62.8397 109.913 62.8435 109.295C62.8397 108.705 62.9893 108.176 63.2923 107.71C63.5954 107.244 64.012 106.877 64.5423 106.608C65.0764 106.339 65.6844 106.205 66.3662 106.205C67.0404 106.205 67.6427 106.339 68.173 106.608C68.7033 106.877 69.12 107.244 69.423 107.71C69.7298 108.176 69.8851 108.705 69.8889 109.295C69.8851 109.913 69.7166 110.464 69.3832 110.949C69.0537 111.43 68.6162 111.742 68.0707 111.886V111.955C68.4912 112.03 68.87 112.21 69.2071 112.494C69.5442 112.775 69.8132 113.125 70.0139 113.545C70.2147 113.962 70.317 114.417 70.3207 114.909C70.317 115.538 70.1465 116.098 69.8094 116.591C69.476 117.08 69.012 117.464 68.4173 117.744C67.8264 118.021 67.1427 118.159 66.3662 118.159ZM66.3662 116.909C66.8927 116.909 67.3473 116.824 67.7298 116.653C68.1124 116.483 68.4079 116.242 68.6162 115.932C68.8245 115.621 68.9306 115.258 68.9344 114.841C68.9306 114.402 68.817 114.013 68.5935 113.676C68.37 113.339 68.0651 113.074 67.6787 112.881C67.2961 112.687 66.8586 112.591 66.3662 112.591C65.87 112.591 65.4268 112.687 65.0366 112.881C64.6503 113.074 64.3454 113.339 64.1219 113.676C63.9022 114.013 63.7942 114.402 63.798 114.841C63.7942 115.258 63.8946 115.621 64.0991 115.932C64.3075 116.242 64.6048 116.483 64.9912 116.653C65.3776 116.824 65.8359 116.909 66.3662 116.909ZM66.3662 111.386C66.7829 111.386 67.1522 111.303 67.4741 111.136C67.7999 110.97 68.0556 110.737 68.2412 110.438C68.4268 110.138 68.5215 109.788 68.5253 109.386C68.5215 108.992 68.4287 108.65 68.2469 108.358C68.0651 108.062 67.8132 107.835 67.4912 107.676C67.1692 107.513 66.7942 107.432 66.3662 107.432C65.9306 107.432 65.5499 107.513 65.2241 107.676C64.8984 107.835 64.6465 108.062 64.4685 108.358C64.2904 108.65 64.2033 108.992 64.2071 109.386C64.2033 109.788 64.2923 110.138 64.4741 110.438C64.6598 110.737 64.9154 110.97 65.2412 111.136C65.567 111.303 65.942 111.386 66.3662 111.386ZM75.8819 118.159C75.4047 118.152 74.9274 118.061 74.4501 117.886C73.9728 117.712 73.5372 117.419 73.1433 117.006C72.7494 116.589 72.4331 116.027 72.1944 115.318C71.9558 114.606 71.8365 113.712 71.8365 112.636C71.8365 111.606 71.9331 110.693 72.1263 109.898C72.3194 109.098 72.5997 108.426 72.9672 107.881C73.3346 107.331 73.7778 106.915 74.2967 106.631C74.8194 106.347 75.4084 106.205 76.0638 106.205C76.7153 106.205 77.2948 106.335 77.8024 106.597C78.3138 106.854 78.7304 107.214 79.0524 107.676C79.3744 108.138 79.5827 108.67 79.6774 109.273H78.291C78.1622 108.75 77.9122 108.316 77.541 107.972C77.1698 107.627 76.6774 107.455 76.0638 107.455C75.1622 107.455 74.452 107.847 73.9331 108.631C73.4179 109.415 73.1584 110.515 73.1547 111.932H73.2456C73.4577 111.61 73.7096 111.335 74.0013 111.108C74.2967 110.877 74.6225 110.699 74.9785 110.574C75.3346 110.449 75.7115 110.386 76.1092 110.386C76.7759 110.386 77.3857 110.553 77.9388 110.886C78.4918 111.216 78.935 111.672 79.2683 112.256C79.6016 112.835 79.7683 113.5 79.7683 114.25C79.7683 114.97 79.6073 115.629 79.2853 116.227C78.9634 116.822 78.5107 117.295 77.9274 117.648C77.3478 117.996 76.666 118.167 75.8819 118.159ZM75.8819 116.909C76.3592 116.909 76.7872 116.79 77.166 116.551C77.5486 116.312 77.8497 115.992 78.0694 115.591C78.2929 115.189 78.4047 114.742 78.4047 114.25C78.4047 113.769 78.2967 113.331 78.0808 112.938C77.8687 112.54 77.5751 112.223 77.2001 111.989C76.8289 111.754 76.4047 111.636 75.9274 111.636C75.5675 111.636 75.2323 111.708 74.9217 111.852C74.6111 111.992 74.3384 112.186 74.1035 112.432C73.8725 112.678 73.6906 112.96 73.5581 113.278C73.4255 113.593 73.3592 113.924 73.3592 114.273C73.3592 114.735 73.4672 115.167 73.6831 115.568C73.9028 115.97 74.202 116.294 74.5808 116.54C74.9634 116.786 75.3971 116.909 75.8819 116.909ZM85.2499 118.159C84.4696 118.159 83.7802 118.021 83.1818 117.744C82.5871 117.464 82.1231 117.08 81.7897 116.591C81.4564 116.098 81.2916 115.538 81.2954 114.909C81.2916 114.417 81.3882 113.962 81.5852 113.545C81.7821 113.125 82.0511 112.775 82.392 112.494C82.7367 112.21 83.1212 112.03 83.5454 111.955V111.886C82.9886 111.742 82.5454 111.43 82.2159 110.949C81.8863 110.464 81.7234 109.913 81.7272 109.295C81.7234 108.705 81.8731 108.176 82.1761 107.71C82.4791 107.244 82.8958 106.877 83.4261 106.608C83.9602 106.339 84.5681 106.205 85.2499 106.205C85.9242 106.205 86.5265 106.339 87.0568 106.608C87.5871 106.877 88.0037 107.244 88.3068 107.71C88.6136 108.176 88.7689 108.705 88.7727 109.295C88.7689 109.913 88.6003 110.464 88.267 110.949C87.9374 111.43 87.4999 111.742 86.9545 111.886V111.955C87.3749 112.03 87.7537 112.21 88.0909 112.494C88.428 112.775 88.6969 113.125 88.8977 113.545C89.0984 113.962 89.2007 114.417 89.2045 114.909C89.2007 115.538 89.0302 116.098 88.6931 116.591C88.3598 117.08 87.8958 117.464 87.3011 117.744C86.7102 118.021 86.0265 118.159 85.2499 118.159ZM85.2499 116.909C85.7765 116.909 86.231 116.824 86.6136 116.653C86.9962 116.483 87.2916 116.242 87.4999 115.932C87.7083 115.621 87.8143 115.258 87.8181 114.841C87.8143 114.402 87.7007 114.013 87.4772 113.676C87.2537 113.339 86.9488 113.074 86.5624 112.881C86.1799 112.687 85.7424 112.591 85.2499 112.591C84.7537 112.591 84.3106 112.687 83.9204 112.881C83.534 113.074 83.2291 113.339 83.0056 113.676C82.7859 114.013 82.678 114.402 82.6818 114.841C82.678 115.258 82.7784 115.621 82.9829 115.932C83.1912 116.242 83.4886 116.483 83.8749 116.653C84.2613 116.824 84.7196 116.909 85.2499 116.909ZM85.2499 111.386C85.6666 111.386 86.0359 111.303 86.3579 111.136C86.6837 110.97 86.9393 110.737 87.1249 110.438C87.3106 110.138 87.4052 109.788 87.409 109.386C87.4052 108.992 87.3124 108.65 87.1306 108.358C86.9488 108.062 86.6969 107.835 86.3749 107.676C86.053 107.513 85.678 107.432 85.2499 107.432C84.8143 107.432 84.4337 107.513 84.1079 107.676C83.7821 107.835 83.5302 108.062 83.3522 108.358C83.1742 108.65 83.0871 108.992 83.0909 109.386C83.0871 109.788 83.1761 110.138 83.3579 110.438C83.5435 110.737 83.7992 110.97 84.1249 111.136C84.4507 111.303 84.8257 111.386 85.2499 111.386ZM94.7657 118.159C94.2884 118.152 93.8111 118.061 93.3339 117.886C92.8566 117.712 92.421 117.419 92.027 117.006C91.6331 116.589 91.3168 116.027 91.0782 115.318C90.8395 114.606 90.7202 113.712 90.7202 112.636C90.7202 111.606 90.8168 110.693 91.01 109.898C91.2032 109.098 91.4835 108.426 91.8509 107.881C92.2183 107.331 92.6615 106.915 93.1805 106.631C93.7032 106.347 94.2922 106.205 94.9475 106.205C95.599 106.205 96.1786 106.335 96.6861 106.597C97.1975 106.854 97.6142 107.214 97.9361 107.676C98.2581 108.138 98.4664 108.67 98.5611 109.273H97.1748C97.046 108.75 96.796 108.316 96.4248 107.972C96.0536 107.627 95.5611 107.455 94.9475 107.455C94.046 107.455 93.3358 107.847 92.8168 108.631C92.3017 109.415 92.0422 110.515 92.0384 111.932H92.1293C92.3414 111.61 92.5933 111.335 92.885 111.108C93.1805 110.877 93.5062 110.699 93.8623 110.574C94.2183 110.449 94.5952 110.386 94.993 110.386C95.6596 110.386 96.2695 110.553 96.8225 110.886C97.3755 111.216 97.8187 111.672 98.152 112.256C98.4854 112.835 98.652 113.5 98.652 114.25C98.652 114.97 98.4911 115.629 98.1691 116.227C97.8471 116.822 97.3945 117.295 96.8111 117.648C96.2316 117.996 95.5498 118.167 94.7657 118.159ZM94.7657 116.909C95.243 116.909 95.671 116.79 96.0498 116.551C96.4323 116.312 96.7335 115.992 96.9532 115.591C97.1767 115.189 97.2884 114.742 97.2884 114.25C97.2884 113.769 97.1805 113.331 96.9645 112.938C96.7524 112.54 96.4589 112.223 96.0839 111.989C95.7127 111.754 95.2884 111.636 94.8111 111.636C94.4513 111.636 94.1161 111.708 93.8055 111.852C93.4948 111.992 93.2221 112.186 92.9873 112.432C92.7562 112.678 92.5744 112.96 92.4418 113.278C92.3092 113.593 92.243 113.924 92.243 114.273C92.243 114.735 92.3509 115.167 92.5668 115.568C92.7865 115.97 93.0858 116.294 93.4645 116.54C93.8471 116.786 94.2808 116.909 94.7657 116.909ZM104.134 118.159C103.353 118.159 102.664 118.021 102.066 117.744C101.471 117.464 101.007 117.08 100.673 116.591C100.34 116.098 100.175 115.538 100.179 114.909C100.175 114.417 100.272 113.962 100.469 113.545C100.666 113.125 100.935 112.775 101.276 112.494C101.62 112.21 102.005 112.03 102.429 111.955V111.886C101.872 111.742 101.429 111.43 101.1 110.949C100.77 110.464 100.607 109.913 100.611 109.295C100.607 108.705 100.757 108.176 101.06 107.71C101.363 107.244 101.78 106.877 102.31 106.608C102.844 106.339 103.452 106.205 104.134 106.205C104.808 106.205 105.41 106.339 105.941 106.608C106.471 106.877 106.887 107.244 107.191 107.71C107.497 108.176 107.653 108.705 107.656 109.295C107.653 109.913 107.484 110.464 107.151 110.949C106.821 111.43 106.384 111.742 105.838 111.886V111.955C106.259 112.03 106.637 112.21 106.975 112.494C107.312 112.775 107.581 113.125 107.781 113.545C107.982 113.962 108.084 114.417 108.088 114.909C108.084 115.538 107.914 116.098 107.577 116.591C107.244 117.08 106.78 117.464 106.185 117.744C105.594 118.021 104.91 118.159 104.134 118.159ZM104.134 116.909C104.66 116.909 105.115 116.824 105.497 116.653C105.88 116.483 106.175 116.242 106.384 115.932C106.592 115.621 106.698 115.258 106.702 114.841C106.698 114.402 106.584 114.013 106.361 113.676C106.137 113.339 105.833 113.074 105.446 112.881C105.064 112.687 104.626 112.591 104.134 112.591C103.637 112.591 103.194 112.687 102.804 112.881C102.418 113.074 102.113 113.339 101.889 113.676C101.67 114.013 101.562 114.402 101.566 114.841C101.562 115.258 101.662 115.621 101.867 115.932C102.075 116.242 102.372 116.483 102.759 116.653C103.145 116.824 103.603 116.909 104.134 116.909ZM104.134 111.386C104.55 111.386 104.92 111.303 105.242 111.136C105.567 110.97 105.823 110.737 106.009 110.438C106.194 110.138 106.289 109.788 106.293 109.386C106.289 108.992 106.196 108.65 106.014 108.358C105.833 108.062 105.581 107.835 105.259 107.676C104.937 107.513 104.562 107.432 104.134 107.432C103.698 107.432 103.317 107.513 102.992 107.676C102.666 107.835 102.414 108.062 102.236 108.358C102.058 108.65 101.971 108.992 101.975 109.386C101.971 109.788 102.06 110.138 102.242 110.438C102.427 110.737 102.683 110.97 103.009 111.136C103.334 111.303 103.709 111.386 104.134 111.386ZM113.649 118.159C113.172 118.152 112.695 118.061 112.218 117.886C111.74 117.712 111.305 117.419 110.911 117.006C110.517 116.589 110.201 116.027 109.962 115.318C109.723 114.606 109.604 113.712 109.604 112.636C109.604 111.606 109.701 110.693 109.894 109.898C110.087 109.098 110.367 108.426 110.735 107.881C111.102 107.331 111.545 106.915 112.064 106.631C112.587 106.347 113.176 106.205 113.831 106.205C114.483 106.205 115.062 106.335 115.57 106.597C116.081 106.854 116.498 107.214 116.82 107.676C117.142 108.138 117.35 108.67 117.445 109.273H116.059C115.93 108.75 115.68 108.316 115.309 107.972C114.937 107.627 114.445 107.455 113.831 107.455C112.93 107.455 112.22 107.847 111.701 108.631C111.185 109.415 110.926 110.515 110.922 111.932H111.013C111.225 111.61 111.477 111.335 111.769 111.108C112.064 110.877 112.39 110.699 112.746 110.574C113.102 110.449 113.479 110.386 113.877 110.386C114.543 110.386 115.153 110.553 115.706 110.886C116.259 111.216 116.702 111.672 117.036 112.256C117.369 112.835 117.536 113.5 117.536 114.25C117.536 114.97 117.375 115.629 117.053 116.227C116.731 116.822 116.278 117.295 115.695 117.648C115.115 117.996 114.434 118.167 113.649 118.159ZM113.649 116.909C114.127 116.909 114.555 116.79 114.934 116.551C115.316 116.312 115.617 115.992 115.837 115.591C116.06 115.189 116.172 114.742 116.172 114.25C116.172 113.769 116.064 113.331 115.848 112.938C115.636 112.54 115.343 112.223 114.968 111.989C114.596 111.754 114.172 111.636 113.695 111.636C113.335 111.636 113 111.708 112.689 111.852C112.379 111.992 112.106 112.186 111.871 112.432C111.64 112.678 111.458 112.96 111.326 113.278C111.193 113.593 111.127 113.924 111.127 114.273C111.127 114.735 111.235 115.167 111.451 115.568C111.67 115.97 111.97 116.294 112.348 116.54C112.731 116.786 113.165 116.909 113.649 116.909Z" fill="white"/>
<path d="M166.02 106.364V118H164.258V108.125H164.19L161.406 109.943V108.261L164.309 106.364H166.02ZM172.739 118.193C171.841 118.189 171.074 117.953 170.437 117.483C169.801 117.013 169.314 116.33 168.977 115.432C168.64 114.534 168.472 113.453 168.472 112.188C168.472 110.926 168.64 109.848 168.977 108.955C169.318 108.061 169.807 107.379 170.443 106.909C171.083 106.439 171.848 106.205 172.739 106.205C173.629 106.205 174.392 106.441 175.028 106.915C175.665 107.384 176.151 108.066 176.489 108.96C176.829 109.85 177 110.926 177 112.188C177 113.456 176.831 114.54 176.494 115.438C176.157 116.331 175.67 117.015 175.034 117.489C174.398 117.958 173.633 118.193 172.739 118.193ZM172.739 116.676C173.526 116.676 174.142 116.292 174.585 115.523C175.032 114.754 175.256 113.642 175.256 112.188C175.256 111.222 175.153 110.405 174.949 109.739C174.748 109.068 174.458 108.561 174.079 108.216C173.704 107.867 173.258 107.693 172.739 107.693C171.954 107.693 171.339 108.08 170.892 108.852C170.445 109.625 170.22 110.737 170.216 112.188C170.216 113.157 170.316 113.977 170.517 114.648C170.722 115.314 171.011 115.82 171.386 116.165C171.761 116.506 172.212 116.676 172.739 116.676ZM182.587 118.193C181.689 118.189 180.922 117.953 180.286 117.483C179.649 117.013 179.162 116.33 178.825 115.432C178.488 114.534 178.32 113.453 178.32 112.188C178.32 110.926 178.488 109.848 178.825 108.955C179.166 108.061 179.655 107.379 180.291 106.909C180.931 106.439 181.697 106.205 182.587 106.205C183.477 106.205 184.24 106.441 184.876 106.915C185.513 107.384 186 108.066 186.337 108.96C186.678 109.85 186.848 110.926 186.848 112.188C186.848 113.456 186.68 114.54 186.342 115.438C186.005 116.331 185.519 117.015 184.882 117.489C184.246 117.958 183.481 118.193 182.587 118.193ZM182.587 116.676C183.375 116.676 183.99 116.292 184.433 115.523C184.88 114.754 185.104 113.642 185.104 112.188C185.104 111.222 185.001 110.405 184.797 109.739C184.596 109.068 184.306 108.561 183.928 108.216C183.553 107.867 183.106 107.693 182.587 107.693C181.803 107.693 181.187 108.08 180.74 108.852C180.293 109.625 180.068 110.737 180.064 112.188C180.064 113.157 180.164 113.977 180.365 114.648C180.57 115.314 180.859 115.82 181.234 116.165C181.609 116.506 182.06 116.676 182.587 116.676ZM194.458 115.818V115.205C194.458 114.765 194.548 114.364 194.73 114C194.916 113.633 195.185 113.339 195.537 113.119C195.893 112.896 196.323 112.784 196.827 112.784C197.342 112.784 197.774 112.894 198.122 113.114C198.471 113.333 198.734 113.627 198.912 113.994C199.094 114.362 199.185 114.765 199.185 115.205V115.818C199.185 116.258 199.094 116.661 198.912 117.028C198.73 117.392 198.463 117.686 198.111 117.909C197.762 118.129 197.334 118.239 196.827 118.239C196.316 118.239 195.884 118.129 195.531 117.909C195.179 117.686 194.912 117.392 194.73 117.028C194.548 116.661 194.458 116.258 194.458 115.818ZM195.781 115.205V115.818C195.781 116.144 195.859 116.439 196.014 116.705C196.17 116.97 196.441 117.102 196.827 117.102C197.209 117.102 197.476 116.97 197.628 116.705C197.78 116.439 197.855 116.144 197.855 115.818V115.205C197.855 114.879 197.781 114.583 197.634 114.318C197.49 114.053 197.221 113.92 196.827 113.92C196.448 113.92 196.179 114.053 196.02 114.318C195.861 114.583 195.781 114.879 195.781 115.205ZM188.605 109.159V108.545C188.605 108.106 188.696 107.703 188.878 107.335C189.064 106.968 189.333 106.674 189.685 106.455C190.041 106.235 190.471 106.125 190.975 106.125C191.49 106.125 191.922 106.235 192.27 106.455C192.619 106.674 192.882 106.968 193.06 107.335C193.238 107.703 193.327 108.106 193.327 108.545V109.159C193.327 109.598 193.236 110.002 193.054 110.369C192.876 110.733 192.611 111.027 192.259 111.25C191.91 111.47 191.482 111.58 190.975 111.58C190.459 111.58 190.026 111.47 189.673 111.25C189.325 111.027 189.06 110.733 188.878 110.369C188.696 110.002 188.605 109.598 188.605 109.159ZM189.935 108.545V109.159C189.935 109.485 190.011 109.78 190.162 110.045C190.317 110.311 190.588 110.443 190.975 110.443C191.353 110.443 191.619 110.311 191.77 110.045C191.925 109.78 192.003 109.485 192.003 109.159V108.545C192.003 108.22 191.929 107.924 191.781 107.659C191.634 107.394 191.365 107.261 190.975 107.261C190.596 107.261 190.327 107.394 190.168 107.659C190.012 107.924 189.935 108.22 189.935 108.545ZM189.145 118L197.145 106.364H198.503L190.503 118H189.145Z" fill="white"/>
<path d="M21 140H46V164H21V140Z" fill="black" fill-opacity="0.79"/>
<path d="M66.2 158.159C65.3439 158.159 64.6148 157.926 64.0125 157.46C63.4102 156.991 62.95 156.311 62.6318 155.42C62.3136 154.527 62.1545 153.447 62.1545 152.182C62.1545 150.924 62.3136 149.85 62.6318 148.96C62.9538 148.066 63.4159 147.384 64.0182 146.915C64.6242 146.441 65.3515 146.205 66.2 146.205C67.0485 146.205 67.7739 146.441 68.3761 146.915C68.9822 147.384 69.4443 148.066 69.7625 148.96C70.0845 149.85 70.2455 150.924 70.2455 152.182C70.2455 153.447 70.0864 154.527 69.7682 155.42C69.45 156.311 68.9898 156.991 68.3875 157.46C67.7852 157.926 67.0561 158.159 66.2 158.159ZM66.2 156.909C67.0485 156.909 67.7076 156.5 68.1773 155.682C68.647 154.864 68.8818 153.697 68.8818 152.182C68.8818 151.174 68.7739 150.316 68.558 149.608C68.3458 148.9 68.039 148.36 67.6375 147.989C67.2398 147.617 66.7606 147.432 66.2 147.432C65.3591 147.432 64.7019 147.847 64.2284 148.676C63.7549 149.502 63.5182 150.67 63.5182 152.182C63.5182 153.189 63.6242 154.045 63.8364 154.75C64.0485 155.455 64.3534 155.991 64.7511 156.358C65.1527 156.725 65.6356 156.909 66.2 156.909ZM75.72 158.159C74.8639 158.159 74.1348 157.926 73.5325 157.46C72.9302 156.991 72.47 156.311 72.1518 155.42C71.8336 154.527 71.6745 153.447 71.6745 152.182C71.6745 150.924 71.8336 149.85 72.1518 148.96C72.4738 148.066 72.9359 147.384 73.5382 146.915C74.1442 146.441 74.8715 146.205 75.72 146.205C76.5685 146.205 77.2939 146.441 77.8961 146.915C78.5022 147.384 78.9643 148.066 79.2825 148.96C79.6045 149.85 79.7655 150.924 79.7655 152.182C79.7655 153.447 79.6064 154.527 79.2882 155.42C78.97 156.311 78.5098 156.991 77.9075 157.46C77.3052 157.926 76.5761 158.159 75.72 158.159ZM75.72 156.909C76.5685 156.909 77.2276 156.5 77.6973 155.682C78.167 154.864 78.4018 153.697 78.4018 152.182C78.4018 151.174 78.2939 150.316 78.078 149.608C77.8658 148.9 77.559 148.36 77.1575 147.989C76.7598 147.617 76.2806 147.432 75.72 147.432C74.8791 147.432 74.2219 147.847 73.7484 148.676C73.2749 149.502 73.0382 150.67 73.0382 152.182C73.0382 153.189 73.1442 154.045 73.3564 154.75C73.5685 155.455 73.8734 155.991 74.2711 156.358C74.6727 156.725 75.1556 156.909 75.72 156.909ZM85.24 158.159C84.3839 158.159 83.6548 157.926 83.0525 157.46C82.4502 156.991 81.99 156.311 81.6718 155.42C81.3536 154.527 81.1945 153.447 81.1945 152.182C81.1945 150.924 81.3536 149.85 81.6718 148.96C81.9938 148.066 82.4559 147.384 83.0582 146.915C83.6642 146.441 84.3915 146.205 85.24 146.205C86.0885 146.205 86.8139 146.441 87.4161 146.915C88.0222 147.384 88.4843 148.066 88.8025 148.96C89.1245 149.85 89.2855 150.924 89.2855 152.182C89.2855 153.447 89.1264 154.527 88.8082 155.42C88.49 156.311 88.0298 156.991 87.4275 157.46C86.8252 157.926 86.0961 158.159 85.24 158.159ZM85.24 156.909C86.0885 156.909 86.7476 156.5 87.2173 155.682C87.687 154.864 87.9218 153.697 87.9218 152.182C87.9218 151.174 87.8139 150.316 87.598 149.608C87.3858 148.9 87.079 148.36 86.6775 147.989C86.2798 147.617 85.8006 147.432 85.24 147.432C84.3991 147.432 83.7419 147.847 83.2684 148.676C82.7949 149.502 82.5582 150.67 82.5582 152.182C82.5582 153.189 82.6642 154.045 82.8764 154.75C83.0885 155.455 83.3934 155.991 83.7911 156.358C84.1927 156.725 84.6756 156.909 85.24 156.909ZM94.76 158.159C93.9039 158.159 93.1748 157.926 92.5725 157.46C91.9702 156.991 91.51 156.311 91.1918 155.42C90.8736 154.527 90.7145 153.447 90.7145 152.182C90.7145 150.924 90.8736 149.85 91.1918 148.96C91.5138 148.066 91.9759 147.384 92.5782 146.915C93.1842 146.441 93.9115 146.205 94.76 146.205C95.6085 146.205 96.3339 146.441 96.9361 146.915C97.5422 147.384 98.0043 148.066 98.3225 148.96C98.6445 149.85 98.8055 150.924 98.8055 152.182C98.8055 153.447 98.6464 154.527 98.3282 155.42C98.01 156.311 97.5498 156.991 96.9475 157.46C96.3452 157.926 95.6161 158.159 94.76 158.159ZM94.76 156.909C95.6085 156.909 96.2676 156.5 96.7373 155.682C97.207 154.864 97.4418 153.697 97.4418 152.182C97.4418 151.174 97.3339 150.316 97.118 149.608C96.9058 148.9 96.599 148.36 96.1975 147.989C95.7998 147.617 95.3206 147.432 94.76 147.432C93.9191 147.432 93.2619 147.847 92.7884 148.676C92.3149 149.502 92.0782 150.67 92.0782 152.182C92.0782 153.189 92.1842 154.045 92.3964 154.75C92.6085 155.455 92.9134 155.991 93.3111 156.358C93.7127 156.725 94.1956 156.909 94.76 156.909ZM104.28 158.159C103.424 158.159 102.695 157.926 102.093 157.46C101.49 156.991 101.03 156.311 100.712 155.42C100.394 154.527 100.235 153.447 100.235 152.182C100.235 150.924 100.394 149.85 100.712 148.96C101.034 148.066 101.496 147.384 102.098 146.915C102.704 146.441 103.432 146.205 104.28 146.205C105.128 146.205 105.854 146.441 106.456 146.915C107.062 147.384 107.524 148.066 107.843 148.96C108.164 149.85 108.325 150.924 108.325 152.182C108.325 153.447 108.166 154.527 107.848 155.42C107.53 156.311 107.07 156.991 106.468 157.46C105.865 157.926 105.136 158.159 104.28 158.159ZM104.28 156.909C105.128 156.909 105.788 156.5 106.257 155.682C106.727 154.864 106.962 153.697 106.962 152.182C106.962 151.174 106.854 150.316 106.638 149.608C106.426 148.9 106.119 148.36 105.718 147.989C105.32 147.617 104.841 147.432 104.28 147.432C103.439 147.432 102.782 147.847 102.308 148.676C101.835 149.502 101.598 150.67 101.598 152.182C101.598 153.189 101.704 154.045 101.916 154.75C102.128 155.455 102.433 155.991 102.831 156.358C103.233 156.725 103.716 156.909 104.28 156.909ZM113.8 158.159C112.944 158.159 112.215 157.926 111.612 157.46C111.01 156.991 110.55 156.311 110.232 155.42C109.914 154.527 109.755 153.447 109.755 152.182C109.755 150.924 109.914 149.85 110.232 148.96C110.554 148.066 111.016 147.384 111.618 146.915C112.224 146.441 112.952 146.205 113.8 146.205C114.648 146.205 115.374 146.441 115.976 146.915C116.582 147.384 117.044 148.066 117.362 148.96C117.684 149.85 117.845 150.924 117.845 152.182C117.845 153.447 117.686 154.527 117.368 155.42C117.05 156.311 116.59 156.991 115.987 157.46C115.385 157.926 114.656 158.159 113.8 158.159ZM113.8 156.909C114.648 156.909 115.308 156.5 115.777 155.682C116.247 154.864 116.482 153.697 116.482 152.182C116.482 151.174 116.374 150.316 116.158 149.608C115.946 148.9 115.639 148.36 115.237 147.989C114.84 147.617 114.361 147.432 113.8 147.432C112.959 147.432 112.302 147.847 111.828 148.676C111.355 149.502 111.118 150.67 111.118 152.182C111.118 153.189 111.224 154.045 111.436 154.75C111.648 155.455 111.953 155.991 112.351 156.358C112.753 156.725 113.236 156.909 113.8 156.909Z" fill="white"/>
<path d="M165.726 158L170.805 147.955V147.869H164.93V146.364H172.623V147.92L167.561 158H165.726ZM177.832 146.205C178.351 146.208 178.863 146.303 179.366 146.489C179.87 146.674 180.325 146.977 180.73 147.398C181.139 147.818 181.465 148.386 181.707 149.102C181.954 149.814 182.079 150.701 182.082 151.761C182.082 152.78 181.98 153.687 181.776 154.483C181.571 155.275 181.277 155.943 180.895 156.489C180.516 157.034 180.056 157.449 179.514 157.733C178.973 158.017 178.363 158.159 177.685 158.159C176.991 158.159 176.376 158.023 175.838 157.75C175.3 157.477 174.863 157.1 174.526 156.619C174.188 156.134 173.978 155.578 173.895 154.949H175.628C175.741 155.449 175.973 155.854 176.321 156.165C176.673 156.472 177.128 156.625 177.685 156.625C178.537 156.625 179.202 156.254 179.679 155.511C180.156 154.765 180.397 153.723 180.401 152.386H180.31C180.113 152.712 179.866 152.992 179.571 153.227C179.279 153.462 178.952 153.644 178.588 153.773C178.224 153.902 177.836 153.966 177.423 153.966C176.753 153.966 176.143 153.801 175.594 153.472C175.045 153.142 174.607 152.689 174.281 152.114C173.955 151.538 173.793 150.881 173.793 150.142C173.793 149.407 173.959 148.741 174.293 148.142C174.63 147.544 175.099 147.07 175.702 146.722C176.308 146.369 177.018 146.197 177.832 146.205ZM177.838 147.682C177.395 147.682 176.995 147.792 176.639 148.011C176.287 148.227 176.009 148.521 175.804 148.892C175.599 149.259 175.497 149.669 175.497 150.119C175.497 150.57 175.596 150.979 175.793 151.347C175.993 151.71 176.266 152 176.611 152.216C176.959 152.428 177.357 152.534 177.804 152.534C178.137 152.534 178.448 152.47 178.736 152.341C179.024 152.212 179.276 152.034 179.491 151.807C179.707 151.576 179.876 151.314 179.997 151.023C180.118 150.731 180.179 150.424 180.179 150.102C180.179 149.674 180.077 149.277 179.872 148.909C179.671 148.542 179.395 148.246 179.043 148.023C178.69 147.795 178.289 147.682 177.838 147.682ZM189.729 155.818V155.205C189.729 154.765 189.82 154.364 190.002 154C190.187 153.633 190.456 153.339 190.808 153.119C191.164 152.896 191.594 152.784 192.098 152.784C192.613 152.784 193.045 152.894 193.394 153.114C193.742 153.333 194.005 153.627 194.183 153.994C194.365 154.362 194.456 154.765 194.456 155.205V155.818C194.456 156.258 194.365 156.661 194.183 157.028C194.002 157.392 193.734 157.686 193.382 157.909C193.034 158.129 192.606 158.239 192.098 158.239C191.587 158.239 191.155 158.129 190.803 157.909C190.45 157.686 190.183 157.392 190.002 157.028C189.82 156.661 189.729 156.258 189.729 155.818ZM191.053 155.205V155.818C191.053 156.144 191.13 156.439 191.286 156.705C191.441 156.97 191.712 157.102 192.098 157.102C192.481 157.102 192.748 156.97 192.899 156.705C193.051 156.439 193.127 156.144 193.127 155.818V155.205C193.127 154.879 193.053 154.583 192.905 154.318C192.761 154.053 192.492 153.92 192.098 153.92C191.719 153.92 191.45 154.053 191.291 154.318C191.132 154.583 191.053 154.879 191.053 155.205ZM183.877 149.159V148.545C183.877 148.106 183.967 147.703 184.149 147.335C184.335 146.968 184.604 146.674 184.956 146.455C185.312 146.235 185.742 146.125 186.246 146.125C186.761 146.125 187.193 146.235 187.541 146.455C187.89 146.674 188.153 146.968 188.331 147.335C188.509 147.703 188.598 148.106 188.598 148.545V149.159C188.598 149.598 188.507 150.002 188.325 150.369C188.147 150.733 187.882 151.027 187.53 151.25C187.181 151.47 186.753 151.58 186.246 151.58C185.731 151.58 185.297 151.47 184.945 151.25C184.596 151.027 184.331 150.733 184.149 150.369C183.967 150.002 183.877 149.598 183.877 149.159ZM185.206 148.545V149.159C185.206 149.485 185.282 149.78 185.433 150.045C185.589 150.311 185.859 150.443 186.246 150.443C186.625 150.443 186.89 150.311 187.041 150.045C187.197 149.78 187.274 149.485 187.274 149.159V148.545C187.274 148.22 187.2 147.924 187.053 147.659C186.905 147.394 186.636 147.261 186.246 147.261C185.867 147.261 185.598 147.394 185.439 147.659C185.284 147.924 185.206 148.22 185.206 148.545ZM184.416 158L192.416 146.364H193.774L185.774 158H184.416Z" fill="white"/>
<path d="M21 180H46V204H21V180Z" fill="#F5F5F5"/>
<path d="M64.4216 198V186.364H71.3989V187.614H65.8307V191.545H70.8761V192.795H65.8307V198H64.4216ZM76.764 198.159C76.0974 198.159 75.497 198.027 74.9629 197.761C74.4288 197.496 74.0008 197.133 73.6788 196.67C73.3568 196.208 73.1807 195.682 73.1504 195.091H74.514C74.5671 195.617 74.8057 196.053 75.2299 196.398C75.658 196.739 76.1693 196.909 76.764 196.909C77.2413 196.909 77.6656 196.797 78.0368 196.574C78.4118 196.35 78.7053 196.044 78.9174 195.653C79.1334 195.259 79.2413 194.814 79.2413 194.318C79.2413 193.811 79.1296 193.358 78.9061 192.96C78.6864 192.559 78.3834 192.242 77.997 192.011C77.6106 191.78 77.1693 191.663 76.6731 191.659C76.3171 191.655 75.9515 191.71 75.5765 191.824C75.2015 191.934 74.8928 192.076 74.6504 192.25L73.3322 192.091L74.0368 186.364H80.0822V187.614H75.2186L74.8095 191.045H74.8777C75.1163 190.856 75.4156 190.699 75.7754 190.574C76.1352 190.449 76.5102 190.386 76.9004 190.386C77.6125 190.386 78.247 190.557 78.8038 190.898C79.3644 191.235 79.8038 191.697 80.122 192.284C80.444 192.871 80.6049 193.542 80.6049 194.295C80.6049 195.038 80.4383 195.701 80.1049 196.284C79.7754 196.864 79.3209 197.322 78.7413 197.659C78.1618 197.992 77.5027 198.159 76.764 198.159ZM82.5866 198V186.364H89.5639V187.614H83.9957V191.545H89.0411V192.795H83.9957V198H82.5866ZM94.929 198.159C94.2624 198.159 93.662 198.027 93.1279 197.761C92.5938 197.496 92.1658 197.133 91.8438 196.67C91.5218 196.208 91.3457 195.682 91.3154 195.091H92.679C92.7321 195.617 92.9707 196.053 93.3949 196.398C93.823 196.739 94.3343 196.909 94.929 196.909C95.4063 196.909 95.8305 196.797 96.2018 196.574C96.5768 196.35 96.8703 196.044 97.0824 195.653C97.2984 195.259 97.4063 194.814 97.4063 194.318C97.4063 193.811 97.2946 193.358 97.0711 192.96C96.8514 192.559 96.5484 192.242 96.162 192.011C95.7756 191.78 95.3343 191.663 94.8381 191.659C94.4821 191.655 94.1165 191.71 93.7415 191.824C93.3665 191.934 93.0578 192.076 92.8154 192.25L91.4972 192.091L92.2018 186.364H98.2472V187.614H93.3836L92.9745 191.045H93.0427C93.2813 190.856 93.5805 190.699 93.9404 190.574C94.3002 190.449 94.6752 190.386 95.0654 190.386C95.7775 190.386 96.412 190.557 96.9688 190.898C97.5294 191.235 97.9688 191.697 98.287 192.284C98.609 192.871 98.7699 193.542 98.7699 194.295C98.7699 195.038 98.6033 195.701 98.2699 196.284C97.9404 196.864 97.4859 197.322 96.9063 197.659C96.3268 197.992 95.6677 198.159 94.929 198.159ZM100.752 198V186.364H107.729V187.614H102.161V191.545H107.206V192.795H102.161V198H100.752ZM113.094 198.159C112.427 198.159 111.827 198.027 111.293 197.761C110.759 197.496 110.331 197.133 110.009 196.67C109.687 196.208 109.511 195.682 109.48 195.091H110.844C110.897 195.617 111.136 196.053 111.56 196.398C111.988 196.739 112.499 196.909 113.094 196.909C113.571 196.909 113.996 196.797 114.367 196.574C114.742 196.35 115.035 196.044 115.247 195.653C115.463 195.259 115.571 194.814 115.571 194.318C115.571 193.811 115.46 193.358 115.236 192.96C115.016 192.559 114.713 192.242 114.327 192.011C113.941 191.78 113.499 191.663 113.003 191.659C112.647 191.655 112.282 191.71 111.907 191.824C111.532 191.934 111.223 192.076 110.98 192.25L109.662 192.091L110.367 186.364H116.412V187.614H111.549L111.139 191.045H111.208C111.446 190.856 111.746 190.699 112.105 190.574C112.465 190.449 112.84 190.386 113.23 190.386C113.943 190.386 114.577 190.557 115.134 190.898C115.694 191.235 116.134 191.697 116.452 192.284C116.774 192.871 116.935 193.542 116.935 194.295C116.935 195.038 116.768 195.701 116.435 196.284C116.105 196.864 115.651 197.322 115.071 197.659C114.492 197.992 113.833 198.159 113.094 198.159Z" fill="white"/>
<path d="M166.02 186.364V198H164.258V188.125H164.19L161.406 189.943V188.261L164.309 186.364H166.02ZM172.739 198.193C171.841 198.189 171.074 197.953 170.437 197.483C169.801 197.013 169.314 196.33 168.977 195.432C168.64 194.534 168.472 193.453 168.472 192.188C168.472 190.926 168.64 189.848 168.977 188.955C169.318 188.061 169.807 187.379 170.443 186.909C171.083 186.439 171.848 186.205 172.739 186.205C173.629 186.205 174.392 186.441 175.028 186.915C175.665 187.384 176.151 188.066 176.489 188.96C176.829 189.85 177 190.926 177 192.188C177 193.456 176.831 194.54 176.494 195.438C176.157 196.331 175.67 197.015 175.034 197.489C174.398 197.958 173.633 198.193 172.739 198.193ZM172.739 196.676C173.526 196.676 174.142 196.292 174.585 195.523C175.032 194.754 175.256 193.642 175.256 192.188C175.256 191.222 175.153 190.405 174.949 189.739C174.748 189.068 174.458 188.561 174.079 188.216C173.704 187.867 173.258 187.693 172.739 187.693C171.954 187.693 171.339 188.08 170.892 188.852C170.445 189.625 170.22 190.737 170.216 192.188C170.216 193.157 170.316 193.977 170.517 194.648C170.722 195.314 171.011 195.82 171.386 196.165C171.761 196.506 172.212 196.676 172.739 196.676ZM182.587 198.193C181.689 198.189 180.922 197.953 180.286 197.483C179.649 197.013 179.162 196.33 178.825 195.432C178.488 194.534 178.32 193.453 178.32 192.188C178.32 190.926 178.488 189.848 178.825 188.955C179.166 188.061 179.655 187.379 180.291 186.909C180.931 186.439 181.697 186.205 182.587 186.205C183.477 186.205 184.24 186.441 184.876 186.915C185.513 187.384 186 188.066 186.337 188.96C186.678 189.85 186.848 190.926 186.848 192.188C186.848 193.456 186.68 194.54 186.342 195.438C186.005 196.331 185.519 197.015 184.882 197.489C184.246 197.958 183.481 198.193 182.587 198.193ZM182.587 196.676C183.375 196.676 183.99 196.292 184.433 195.523C184.88 194.754 185.104 193.642 185.104 192.188C185.104 191.222 185.001 190.405 184.797 189.739C184.596 189.068 184.306 188.561 183.928 188.216C183.553 187.867 183.106 187.693 182.587 187.693C181.803 187.693 181.187 188.08 180.74 188.852C180.293 189.625 180.068 190.737 180.064 192.188C180.064 193.157 180.164 193.977 180.365 194.648C180.57 195.314 180.859 195.82 181.234 196.165C181.609 196.506 182.06 196.676 182.587 196.676ZM194.458 195.818V195.205C194.458 194.765 194.548 194.364 194.73 194C194.916 193.633 195.185 193.339 195.537 193.119C195.893 192.896 196.323 192.784 196.827 192.784C197.342 192.784 197.774 192.894 198.122 193.114C198.471 193.333 198.734 193.627 198.912 193.994C199.094 194.362 199.185 194.765 199.185 195.205V195.818C199.185 196.258 199.094 196.661 198.912 197.028C198.73 197.392 198.463 197.686 198.111 197.909C197.762 198.129 197.334 198.239 196.827 198.239C196.316 198.239 195.884 198.129 195.531 197.909C195.179 197.686 194.912 197.392 194.73 197.028C194.548 196.661 194.458 196.258 194.458 195.818ZM195.781 195.205V195.818C195.781 196.144 195.859 196.439 196.014 196.705C196.17 196.97 196.441 197.102 196.827 197.102C197.209 197.102 197.476 196.97 197.628 196.705C197.78 196.439 197.855 196.144 197.855 195.818V195.205C197.855 194.879 197.781 194.583 197.634 194.318C197.49 194.053 197.221 193.92 196.827 193.92C196.448 193.92 196.179 194.053 196.02 194.318C195.861 194.583 195.781 194.879 195.781 195.205ZM188.605 189.159V188.545C188.605 188.106 188.696 187.703 188.878 187.335C189.064 186.968 189.333 186.674 189.685 186.455C190.041 186.235 190.471 186.125 190.975 186.125C191.49 186.125 191.922 186.235 192.27 186.455C192.619 186.674 192.882 186.968 193.06 187.335C193.238 187.703 193.327 188.106 193.327 188.545V189.159C193.327 189.598 193.236 190.002 193.054 190.369C192.876 190.733 192.611 191.027 192.259 191.25C191.91 191.47 191.482 191.58 190.975 191.58C190.459 191.58 190.026 191.47 189.673 191.25C189.325 191.027 189.06 190.733 188.878 190.369C188.696 190.002 188.605 189.598 188.605 189.159ZM189.935 188.545V189.159C189.935 189.485 190.011 189.78 190.162 190.045C190.317 190.311 190.588 190.443 190.975 190.443C191.353 190.443 191.619 190.311 191.77 190.045C191.925 189.78 192.003 189.485 192.003 189.159V188.545C192.003 188.22 191.929 187.924 191.781 187.659C191.634 187.394 191.365 187.261 190.975 187.261C190.596 187.261 190.327 187.394 190.168 187.659C190.012 187.924 189.935 188.22 189.935 188.545ZM189.145 198L197.145 186.364H198.503L190.503 198H189.145Z" fill="white"/>
</svg>
