<svg width="250" height="227" viewBox="0 0 250 227" fill="none" xmlns="http://www.w3.org/2000/svg">
<path d="M235.217 23.6564L235.213 23.659C235.134 23.7193 235.038 23.7577 234.931 23.7674C234.837 23.7732 234.742 23.7549 234.654 23.7125C234.568 23.6624 234.492 23.5935 234.432 23.5096L229.781 14.1616L229.604 13.8073L229.276 13.586L221.185 8.13079C221.09 8.06696 221.014 7.97423 220.969 7.86313C220.925 7.7571 220.913 7.6415 220.932 7.53075C220.961 7.41904 221.018 7.3202 221.096 7.24367C221.178 7.16359 221.279 7.1103 221.387 7.08833L221.414 7.08298L221.44 7.07668L242.821 1.94326C242.926 1.92111 243.036 1.92376 243.142 1.95195C243.224 1.97889 243.301 2.02885 243.362 2.09903L243.37 2.10796L243.378 2.11676C243.446 2.19335 243.494 2.2886 243.515 2.39225C243.534 2.49093 243.527 2.59155 243.497 2.68386L235.422 23.3922C235.377 23.498 235.306 23.5888 235.217 23.6564Z" fill="black" stroke="black" stroke-width="3"/>
<rect x="0.25" y="17.25" width="223.5" height="209.5" fill="#363636" stroke="#FFFDFD" stroke-width="0.5"/>
<path d="M32.4084 34.4375H29.9198C29.8743 34.1155 29.7815 33.8295 29.6414 33.5795C29.5012 33.3258 29.3213 33.1098 29.1016 32.9318C28.8819 32.7538 28.6281 32.6174 28.3402 32.5227C28.0561 32.428 27.7474 32.3807 27.4141 32.3807C26.8118 32.3807 26.2872 32.5303 25.8402 32.8295C25.3933 33.125 25.0467 33.5568 24.8005 34.125C24.5542 34.6894 24.4311 35.375 24.4311 36.1818C24.4311 37.0114 24.5542 37.7083 24.8005 38.2727C25.0505 38.8371 25.3989 39.2633 25.8459 39.5511C26.2929 39.839 26.8099 39.983 27.397 39.983C27.7266 39.983 28.0315 39.9394 28.3118 39.8523C28.5959 39.7652 28.8478 39.6383 29.0675 39.4716C29.2872 39.3011 29.469 39.0947 29.613 38.8523C29.7607 38.6098 29.863 38.3333 29.9198 38.0227L32.4084 38.0341C32.344 38.5682 32.183 39.0833 31.9255 39.5795C31.6717 40.072 31.3289 40.5133 30.897 40.9034C30.469 41.2898 29.9577 41.5966 29.363 41.8239C28.772 42.0473 28.1035 42.1591 27.3573 42.1591C26.3194 42.1591 25.3914 41.9242 24.5732 41.4545C23.7588 40.9848 23.1148 40.3049 22.6414 39.4148C22.1717 38.5246 21.9368 37.447 21.9368 36.1818C21.9368 34.9129 22.1755 33.8333 22.6527 32.9432C23.13 32.053 23.7777 31.375 24.5959 30.9091C25.4141 30.4394 26.3345 30.2045 27.3573 30.2045C28.0315 30.2045 28.6565 30.2992 29.2323 30.4886C29.8118 30.678 30.3251 30.9545 30.772 31.3182C31.219 31.678 31.5827 32.1193 31.863 32.642C32.147 33.1648 32.3289 33.7633 32.4084 34.4375ZM37.5903 42.1705C36.7078 42.1705 35.9445 41.983 35.3006 41.608C34.6604 41.2292 34.1661 40.7027 33.8176 40.0284C33.4691 39.3504 33.2949 38.5644 33.2949 37.6705C33.2949 36.7689 33.4691 35.9811 33.8176 35.3068C34.1661 34.6288 34.6604 34.1023 35.3006 33.7273C35.9445 33.3485 36.7078 33.1591 37.5903 33.1591C38.4729 33.1591 39.2343 33.3485 39.8744 33.7273C40.5184 34.1023 41.0146 34.6288 41.3631 35.3068C41.7116 35.9811 41.8858 36.7689 41.8858 37.6705C41.8858 38.5644 41.7116 39.3504 41.3631 40.0284C41.0146 40.7027 40.5184 41.2292 39.8744 41.608C39.2343 41.983 38.4729 42.1705 37.5903 42.1705ZM37.6017 40.2955C38.0032 40.2955 38.3384 40.1818 38.6074 39.9545C38.8763 39.7235 39.079 39.4091 39.2153 39.0114C39.3555 38.6136 39.4256 38.161 39.4256 37.6534C39.4256 37.1458 39.3555 36.6932 39.2153 36.2955C39.079 35.8977 38.8763 35.5833 38.6074 35.3523C38.3384 35.1212 38.0032 35.0057 37.6017 35.0057C37.1964 35.0057 36.8555 35.1212 36.579 35.3523C36.3063 35.5833 36.0998 35.8977 35.9597 36.2955C35.8233 36.6932 35.7551 37.1458 35.7551 37.6534C35.7551 38.161 35.8233 38.6136 35.9597 39.0114C36.0998 39.4091 36.3063 39.7235 36.579 39.9545C36.8555 40.1818 37.1964 40.2955 37.6017 40.2955ZM45.4001 30.3636V42H42.9797V30.3636H45.4001ZM50.8022 42.1705C49.9196 42.1705 49.1564 41.983 48.5124 41.608C47.8723 41.2292 47.378 40.7027 47.0295 40.0284C46.681 39.3504 46.5068 38.5644 46.5068 37.6705C46.5068 36.7689 46.681 35.9811 47.0295 35.3068C47.378 34.6288 47.8723 34.1023 48.5124 33.7273C49.1564 33.3485 49.9196 33.1591 50.8022 33.1591C51.6848 33.1591 52.4462 33.3485 53.0863 33.7273C53.7302 34.1023 54.2265 34.6288 54.5749 35.3068C54.9234 35.9811 55.0977 36.7689 55.0977 37.6705C55.0977 38.5644 54.9234 39.3504 54.5749 40.0284C54.2265 40.7027 53.7302 41.2292 53.0863 41.608C52.4462 41.983 51.6848 42.1705 50.8022 42.1705ZM50.8136 40.2955C51.2151 40.2955 51.5503 40.1818 51.8193 39.9545C52.0882 39.7235 52.2909 39.4091 52.4272 39.0114C52.5674 38.6136 52.6374 38.161 52.6374 37.6534C52.6374 37.1458 52.5674 36.6932 52.4272 36.2955C52.2909 35.8977 52.0882 35.5833 51.8193 35.3523C51.5503 35.1212 51.2151 35.0057 50.8136 35.0057C50.4083 35.0057 50.0674 35.1212 49.7909 35.3523C49.5181 35.5833 49.3117 35.8977 49.1715 36.2955C49.0352 36.6932 48.967 37.1458 48.967 37.6534C48.967 38.161 49.0352 38.6136 49.1715 39.0114C49.3117 39.4091 49.5181 39.7235 49.7909 39.9545C50.0674 40.1818 50.4083 40.2955 50.8136 40.2955ZM56.1915 42V33.2727H58.5381V34.7955H58.629C58.7881 34.2538 59.0552 33.8447 59.4302 33.5682C59.8052 33.2879 60.237 33.1477 60.7256 33.1477C60.8468 33.1477 60.9775 33.1553 61.1177 33.1705C61.2578 33.1856 61.3809 33.2064 61.487 33.233V35.3807C61.3734 35.3466 61.2162 35.3163 61.0154 35.2898C60.8146 35.2633 60.6309 35.25 60.4643 35.25C60.1082 35.25 59.79 35.3277 59.5097 35.483C59.2332 35.6345 59.0135 35.8466 58.8506 36.1193C58.6915 36.392 58.612 36.7064 58.612 37.0625V42H56.1915ZM65.527 42V30.3636H70.1179C71.0005 30.3636 71.7524 30.5322 72.3736 30.8693C72.9948 31.2027 73.4683 31.6667 73.794 32.2614C74.1236 32.8523 74.2884 33.5341 74.2884 34.3068C74.2884 35.0795 74.1217 35.7614 73.7884 36.3523C73.455 36.9432 72.9721 37.4034 72.3395 37.733C71.7107 38.0625 70.9493 38.2273 70.0554 38.2273H67.1293V36.2557H69.6577C70.1312 36.2557 70.5213 36.1742 70.8281 36.0114C71.1387 35.8447 71.3698 35.6155 71.5213 35.3239C71.6766 35.0284 71.7543 34.6894 71.7543 34.3068C71.7543 33.9205 71.6766 33.5833 71.5213 33.2955C71.3698 33.0038 71.1387 32.7784 70.8281 32.6193C70.5175 32.4564 70.1236 32.375 69.6463 32.375H67.9872V42H65.527ZM77.6152 42.1648C77.0584 42.1648 76.5621 42.0682 76.1265 41.875C75.6909 41.678 75.3462 41.3883 75.0924 41.0057C74.8424 40.6193 74.7174 40.1383 74.7174 39.5625C74.7174 39.0777 74.8065 38.6705 74.9845 38.3409C75.1625 38.0114 75.4049 37.7462 75.7118 37.5455C76.0186 37.3447 76.3671 37.1932 76.7572 37.0909C77.1512 36.9886 77.564 36.9167 77.9959 36.875C78.5034 36.822 78.9125 36.7727 79.2231 36.7273C79.5337 36.678 79.7591 36.6061 79.8993 36.5114C80.0394 36.4167 80.1095 36.2765 80.1095 36.0909V36.0568C80.1095 35.697 79.9959 35.4186 79.7686 35.2216C79.5451 35.0246 79.2269 34.9261 78.814 34.9261C78.3784 34.9261 78.0318 35.0227 77.7743 35.2159C77.5167 35.4053 77.3462 35.6439 77.2629 35.9318L75.0243 35.75C75.1379 35.2197 75.3614 34.7614 75.6947 34.375C76.028 33.9848 76.458 33.6856 76.9845 33.4773C77.5148 33.2652 78.1284 33.1591 78.8254 33.1591C79.3102 33.1591 79.7743 33.2159 80.2174 33.3295C80.6644 33.4432 81.0602 33.6193 81.4049 33.858C81.7534 34.0966 82.028 34.4034 82.2288 34.7784C82.4296 35.1496 82.5299 35.5947 82.5299 36.1136V42H80.2345V40.7898H80.1663C80.0262 41.0625 79.8387 41.303 79.6038 41.5114C79.369 41.7159 79.0868 41.8769 78.7572 41.9943C78.4277 42.108 78.047 42.1648 77.6152 42.1648ZM78.3084 40.4943C78.6644 40.4943 78.9788 40.4242 79.2515 40.2841C79.5243 40.1402 79.7383 39.947 79.8936 39.7045C80.0489 39.4621 80.1265 39.1875 80.1265 38.8807V37.9545C80.0508 38.0038 79.9466 38.0492 79.814 38.0909C79.6852 38.1288 79.5394 38.1648 79.3765 38.1989C79.2137 38.2292 79.0508 38.2576 78.8879 38.2841C78.725 38.3068 78.5773 38.3277 78.4447 38.3466C78.1606 38.3883 77.9125 38.4545 77.7004 38.5455C77.4883 38.6364 77.3235 38.7595 77.2061 38.9148C77.0887 39.0663 77.0299 39.2557 77.0299 39.483C77.0299 39.8125 77.1493 40.0644 77.3879 40.2386C77.6303 40.4091 77.9371 40.4943 78.3084 40.4943ZM86.3482 30.3636V42H83.9278V30.3636H86.3482ZM91.7844 42.1705C90.8867 42.1705 90.114 41.9886 89.4662 41.625C88.8223 41.2576 88.3261 40.7386 87.9776 40.0682C87.6291 39.3939 87.4549 38.5966 87.4549 37.6761C87.4549 36.7784 87.6291 35.9905 87.9776 35.3125C88.3261 34.6345 88.8166 34.1061 89.4492 33.7273C90.0856 33.3485 90.8318 33.1591 91.6878 33.1591C92.2636 33.1591 92.7996 33.2519 93.2958 33.4375C93.7958 33.6193 94.2314 33.8939 94.6026 34.2614C94.9776 34.6288 95.2693 35.0909 95.4776 35.6477C95.6859 36.2008 95.7901 36.8485 95.7901 37.5909V38.2557H88.4208V36.7557H93.5117C93.5117 36.4072 93.4359 36.0985 93.2844 35.8295C93.1329 35.5606 92.9227 35.3504 92.6537 35.1989C92.3886 35.0436 92.0799 34.9659 91.7276 34.9659C91.3602 34.9659 91.0344 35.0511 90.7503 35.2216C90.47 35.3883 90.2503 35.6136 90.0912 35.8977C89.9322 36.178 89.8507 36.4905 89.8469 36.8352V38.2614C89.8469 38.6932 89.9265 39.0663 90.0856 39.3807C90.2484 39.6951 90.4776 39.9375 90.7731 40.108C91.0685 40.2784 91.4189 40.3636 91.8242 40.3636C92.0931 40.3636 92.3394 40.3258 92.5628 40.25C92.7863 40.1742 92.9776 40.0606 93.1367 39.9091C93.2958 39.7576 93.417 39.572 93.5003 39.3523L95.739 39.5C95.6253 40.0379 95.3924 40.5076 95.0401 40.9091C94.6916 41.3068 94.2409 41.6174 93.6878 41.8409C93.1386 42.0606 92.5041 42.1705 91.7844 42.1705ZM101.532 33.2727V35.0909H96.276V33.2727H101.532ZM97.4692 31.1818H99.8897V39.3182C99.8897 39.5417 99.9238 39.7159 99.9919 39.8409C100.06 39.9621 100.155 40.0473 100.276 40.0966C100.401 40.1458 100.545 40.1705 100.708 40.1705C100.821 40.1705 100.935 40.161 101.049 40.142C101.162 40.1193 101.25 40.1023 101.31 40.0909L101.691 41.892C101.57 41.9299 101.399 41.9735 101.179 42.0227C100.96 42.0758 100.693 42.108 100.378 42.1193C99.795 42.142 99.2836 42.0644 98.8442 41.8864C98.4086 41.7083 98.0696 41.4318 97.8272 41.0568C97.5847 40.6818 97.4654 40.2083 97.4692 39.6364V31.1818ZM107.27 33.2727V35.0909H102.015V33.2727H107.27ZM103.208 31.1818H105.628V39.3182C105.628 39.5417 105.663 39.7159 105.731 39.8409C105.799 39.9621 105.894 40.0473 106.015 40.0966C106.14 40.1458 106.284 40.1705 106.447 40.1705C106.56 40.1705 106.674 40.161 106.788 40.142C106.901 40.1193 106.988 40.1023 107.049 40.0909L107.43 41.892C107.308 41.9299 107.138 41.9735 106.918 42.0227C106.698 42.0758 106.431 42.108 106.117 42.1193C105.534 42.142 105.022 42.0644 104.583 41.8864C104.147 41.7083 103.808 41.4318 103.566 41.0568C103.323 40.6818 103.204 40.2083 103.208 39.6364V31.1818ZM112.251 42.1705C111.353 42.1705 110.58 41.9886 109.932 41.625C109.289 41.2576 108.792 40.7386 108.444 40.0682C108.095 39.3939 107.921 38.5966 107.921 37.6761C107.921 36.7784 108.095 35.9905 108.444 35.3125C108.792 34.6345 109.283 34.1061 109.915 33.7273C110.552 33.3485 111.298 33.1591 112.154 33.1591C112.73 33.1591 113.266 33.2519 113.762 33.4375C114.262 33.6193 114.698 33.8939 115.069 34.2614C115.444 34.6288 115.736 35.0909 115.944 35.6477C116.152 36.2008 116.256 36.8485 116.256 37.5909V38.2557H108.887V36.7557H113.978C113.978 36.4072 113.902 36.0985 113.751 35.8295C113.599 35.5606 113.389 35.3504 113.12 35.1989C112.855 35.0436 112.546 34.9659 112.194 34.9659C111.826 34.9659 111.501 35.0511 111.217 35.2216C110.936 35.3883 110.717 35.6136 110.557 35.8977C110.398 36.178 110.317 36.4905 110.313 36.8352V38.2614C110.313 38.6932 110.393 39.0663 110.552 39.3807C110.715 39.6951 110.944 39.9375 111.239 40.108C111.535 40.2784 111.885 40.3636 112.29 40.3636C112.559 40.3636 112.806 40.3258 113.029 40.25C113.253 40.1742 113.444 40.0606 113.603 39.9091C113.762 39.7576 113.883 39.572 113.967 39.3523L116.205 39.5C116.092 40.0379 115.859 40.5076 115.506 40.9091C115.158 41.3068 114.707 41.6174 114.154 41.8409C113.605 42.0606 112.97 42.1705 112.251 42.1705Z" fill="white"/>
<path d="M21 60H46V84H21V60Z" fill="#FF3838"/>
<path d="M63.6716 78V66.3636H70.6489V67.6136H65.0807V71.5455H70.1261V72.7955H65.0807V78H63.6716ZM72.5822 78V66.3636H79.5595V67.6136H73.9913V71.5455H79.0368V72.7955H73.9913V78H72.5822ZM85.2201 78.1591C84.4701 78.1591 83.8016 78.0303 83.2144 77.7727C82.6311 77.5152 82.1671 77.1572 81.8224 76.6989C81.4815 76.2367 81.2959 75.7008 81.2656 75.0909H82.6974C82.7277 75.4659 82.8565 75.7898 83.0838 76.0625C83.311 76.3314 83.6084 76.5398 83.9758 76.6875C84.3432 76.8352 84.7504 76.9091 85.1974 76.9091C85.6974 76.9091 86.1406 76.822 86.5269 76.6477C86.9133 76.4735 87.2163 76.2311 87.436 75.9205C87.6557 75.6098 87.7656 75.25 87.7656 74.8409C87.7656 74.4129 87.6595 74.036 87.4474 73.7102C87.2353 73.3807 86.9247 73.1231 86.5156 72.9375C86.1065 72.7519 85.6065 72.6591 85.0156 72.6591H84.0838V71.4091H85.0156C85.4777 71.4091 85.883 71.3258 86.2315 71.1591C86.5838 70.9924 86.8584 70.7576 87.0553 70.4545C87.2561 70.1515 87.3565 69.7955 87.3565 69.3864C87.3565 68.9924 87.2694 68.6496 87.0951 68.358C86.9209 68.0663 86.6747 67.839 86.3565 67.6761C86.0421 67.5133 85.6709 67.4318 85.2428 67.4318C84.8413 67.4318 84.4625 67.5057 84.1065 67.6534C83.7542 67.7973 83.4663 68.0076 83.2428 68.2841C83.0194 68.5568 82.8981 68.8864 82.8792 69.2727H81.5156C81.5383 68.6629 81.722 68.1288 82.0667 67.6705C82.4114 67.2083 82.8622 66.8485 83.419 66.5909C83.9796 66.3333 84.5951 66.2045 85.2656 66.2045C85.9853 66.2045 86.6027 66.3504 87.1178 66.642C87.633 66.9299 88.0288 67.3106 88.3053 67.7841C88.5819 68.2576 88.7201 68.7689 88.7201 69.3182C88.7201 69.9735 88.5478 70.5322 88.2031 70.9943C87.8622 71.4564 87.3981 71.7765 86.811 71.9545V72.0455C87.5459 72.1667 88.1197 72.4792 88.5326 72.983C88.9455 73.483 89.1519 74.1023 89.1519 74.8409C89.1519 75.4735 88.9796 76.0417 88.6349 76.5455C88.294 77.0455 87.8281 77.4394 87.2372 77.7273C86.6463 78.0152 85.9739 78.1591 85.2201 78.1591ZM94.7231 78.1591C93.9428 78.1591 93.2534 78.0208 92.6549 77.7443C92.0602 77.464 91.5962 77.0795 91.2628 76.5909C90.9295 76.0985 90.7647 75.5379 90.7685 74.9091C90.7647 74.4167 90.8613 73.9621 91.0583 73.5455C91.2553 73.125 91.5242 72.7746 91.8651 72.4943C92.2098 72.2102 92.5943 72.0303 93.0185 71.9545V71.8864C92.4617 71.7424 92.0185 71.4299 91.689 70.9489C91.3594 70.464 91.1966 69.9129 91.2003 69.2955C91.1966 68.7045 91.3462 68.1761 91.6492 67.7102C91.9522 67.2443 92.3689 66.8769 92.8992 66.608C93.4333 66.339 94.0413 66.2045 94.7231 66.2045C95.3973 66.2045 95.9996 66.339 96.5299 66.608C97.0602 66.8769 97.4769 67.2443 97.7799 67.7102C98.0867 68.1761 98.242 68.7045 98.2458 69.2955C98.242 69.9129 98.0734 70.464 97.7401 70.9489C97.4106 71.4299 96.9731 71.7424 96.4276 71.8864V71.9545C96.8481 72.0303 97.2269 72.2102 97.564 72.4943C97.9011 72.7746 98.17 73.125 98.3708 73.5455C98.5716 73.9621 98.6738 74.4167 98.6776 74.9091C98.6738 75.5379 98.5034 76.0985 98.1663 76.5909C97.8329 77.0795 97.3689 77.464 96.7742 77.7443C96.1833 78.0208 95.4996 78.1591 94.7231 78.1591ZM94.7231 76.9091C95.2496 76.9091 95.7041 76.8239 96.0867 76.6534C96.4693 76.483 96.7647 76.2424 96.9731 75.9318C97.1814 75.6212 97.2875 75.2576 97.2913 74.8409C97.2875 74.4015 97.1738 74.0133 96.9503 73.6761C96.7269 73.339 96.4219 73.0739 96.0356 72.8807C95.653 72.6875 95.2155 72.5909 94.7231 72.5909C94.2269 72.5909 93.7837 72.6875 93.3935 72.8807C93.0072 73.0739 92.7022 73.339 92.4788 73.6761C92.2591 74.0133 92.1511 74.4015 92.1549 74.8409C92.1511 75.2576 92.2515 75.6212 92.456 75.9318C92.6644 76.2424 92.9617 76.483 93.3481 76.6534C93.7344 76.8239 94.1928 76.9091 94.7231 76.9091ZM94.7231 71.3864C95.1397 71.3864 95.5091 71.303 95.831 71.1364C96.1568 70.9697 96.4125 70.7367 96.5981 70.4375C96.7837 70.1383 96.8784 69.7879 96.8822 69.3864C96.8784 68.9924 96.7856 68.6496 96.6038 68.358C96.4219 68.0625 96.17 67.8352 95.8481 67.6761C95.5261 67.5133 95.1511 67.4318 94.7231 67.4318C94.2875 67.4318 93.9068 67.5133 93.581 67.6761C93.2553 67.8352 93.0034 68.0625 92.8253 68.358C92.6473 68.6496 92.5602 68.9924 92.564 69.3864C92.5602 69.7879 92.6492 70.1383 92.831 70.4375C93.0166 70.7367 93.2723 70.9697 93.5981 71.1364C93.9238 71.303 94.2988 71.3864 94.7231 71.3864ZM104.307 78.1591C103.557 78.1591 102.888 78.0303 102.301 77.7727C101.718 77.5152 101.254 77.1572 100.909 76.6989C100.568 76.2367 100.383 75.7008 100.352 75.0909H101.784C101.815 75.4659 101.943 75.7898 102.171 76.0625C102.398 76.3314 102.695 76.5398 103.063 76.6875C103.43 76.8352 103.837 76.9091 104.284 76.9091C104.784 76.9091 105.227 76.822 105.614 76.6477C106 76.4735 106.303 76.2311 106.523 75.9205C106.743 75.6098 106.852 75.25 106.852 74.8409C106.852 74.4129 106.746 74.036 106.534 73.7102C106.322 73.3807 106.012 73.1231 105.602 72.9375C105.193 72.7519 104.693 72.6591 104.102 72.6591H103.171V71.4091H104.102C104.565 71.4091 104.97 71.3258 105.318 71.1591C105.671 70.9924 105.945 70.7576 106.142 70.4545C106.343 70.1515 106.443 69.7955 106.443 69.3864C106.443 68.9924 106.356 68.6496 106.182 68.358C106.008 68.0663 105.762 67.839 105.443 67.6761C105.129 67.5133 104.758 67.4318 104.33 67.4318C103.928 67.4318 103.549 67.5057 103.193 67.6534C102.841 67.7973 102.553 68.0076 102.33 68.2841C102.106 68.5568 101.985 68.8864 101.966 69.2727H100.602C100.625 68.6629 100.809 68.1288 101.154 67.6705C101.498 67.2083 101.949 66.8485 102.506 66.5909C103.066 66.3333 103.682 66.2045 104.352 66.2045C105.072 66.2045 105.69 66.3504 106.205 66.642C106.72 66.9299 107.116 67.3106 107.392 67.7841C107.669 68.2576 107.807 68.7689 107.807 69.3182C107.807 69.9735 107.635 70.5322 107.29 70.9943C106.949 71.4564 106.485 71.7765 105.898 71.9545V72.0455C106.633 72.1667 107.207 72.4792 107.619 72.983C108.032 73.483 108.239 74.1023 108.239 74.8409C108.239 75.4735 108.066 76.0417 107.722 76.5455C107.381 77.0455 106.915 77.4394 106.324 77.7273C105.733 78.0152 105.061 78.1591 104.307 78.1591ZM113.81 78.1591C113.03 78.1591 112.34 78.0208 111.742 77.7443C111.147 77.464 110.683 77.0795 110.35 76.5909C110.016 76.0985 109.852 75.5379 109.855 74.9091C109.852 74.4167 109.948 73.9621 110.145 73.5455C110.342 73.125 110.611 72.7746 110.952 72.4943C111.297 72.2102 111.681 72.0303 112.105 71.9545V71.8864C111.549 71.7424 111.105 71.4299 110.776 70.9489C110.446 70.464 110.283 69.9129 110.287 69.2955C110.283 68.7045 110.433 68.1761 110.736 67.7102C111.039 67.2443 111.456 66.8769 111.986 66.608C112.52 66.339 113.128 66.2045 113.81 66.2045C114.484 66.2045 115.086 66.339 115.617 66.608C116.147 66.8769 116.564 67.2443 116.867 67.7102C117.174 68.1761 117.329 68.7045 117.333 69.2955C117.329 69.9129 117.16 70.464 116.827 70.9489C116.497 71.4299 116.06 71.7424 115.514 71.8864V71.9545C115.935 72.0303 116.314 72.2102 116.651 72.4943C116.988 72.7746 117.257 73.125 117.458 73.5455C117.658 73.9621 117.761 74.4167 117.764 74.9091C117.761 75.5379 117.59 76.0985 117.253 76.5909C116.92 77.0795 116.456 77.464 115.861 77.7443C115.27 78.0208 114.586 78.1591 113.81 78.1591ZM113.81 76.9091C114.336 76.9091 114.791 76.8239 115.174 76.6534C115.556 76.483 115.852 76.2424 116.06 75.9318C116.268 75.6212 116.374 75.2576 116.378 74.8409C116.374 74.4015 116.261 74.0133 116.037 73.6761C115.814 73.339 115.509 73.0739 115.122 72.8807C114.74 72.6875 114.302 72.5909 113.81 72.5909C113.314 72.5909 112.871 72.6875 112.48 72.8807C112.094 73.0739 111.789 73.339 111.566 73.6761C111.346 74.0133 111.238 74.4015 111.242 74.8409C111.238 75.2576 111.338 75.6212 111.543 75.9318C111.751 76.2424 112.049 76.483 112.435 76.6534C112.821 76.8239 113.28 76.9091 113.81 76.9091ZM113.81 71.3864C114.227 71.3864 114.596 71.303 114.918 71.1364C115.244 70.9697 115.499 70.7367 115.685 70.4375C115.871 70.1383 115.965 69.7879 115.969 69.3864C115.965 68.9924 115.872 68.6496 115.691 68.358C115.509 68.0625 115.257 67.8352 114.935 67.6761C114.613 67.5133 114.238 67.4318 113.81 67.4318C113.374 67.4318 112.994 67.5133 112.668 67.6761C112.342 67.8352 112.09 68.0625 111.912 68.358C111.734 68.6496 111.647 68.9924 111.651 69.3864C111.647 69.7879 111.736 70.1383 111.918 70.4375C112.104 70.7367 112.359 70.9697 112.685 71.1364C113.011 71.303 113.386 71.3864 113.81 71.3864Z" fill="white"/>
<path d="M166.02 66.3636V78H164.258V68.125H164.19L161.406 69.9432V68.2614L164.309 66.3636H166.02ZM172.739 78.1932C171.841 78.1894 171.074 77.9527 170.437 77.483C169.801 77.0133 169.314 76.3295 168.977 75.4318C168.64 74.5341 168.472 73.4527 168.472 72.1875C168.472 70.9261 168.64 69.8485 168.977 68.9545C169.318 68.0606 169.807 67.3788 170.443 66.9091C171.083 66.4394 171.848 66.2045 172.739 66.2045C173.629 66.2045 174.392 66.4413 175.028 66.9148C175.665 67.3845 176.151 68.0663 176.489 68.9602C176.829 69.8504 177 70.9261 177 72.1875C177 73.4564 176.831 74.5398 176.494 75.4375C176.157 76.3314 175.67 77.0152 175.034 77.4886C174.398 77.9583 173.633 78.1932 172.739 78.1932ZM172.739 76.6761C173.526 76.6761 174.142 76.2917 174.585 75.5227C175.032 74.7538 175.256 73.642 175.256 72.1875C175.256 71.2216 175.153 70.4053 174.949 69.7386C174.748 69.0682 174.458 68.5606 174.079 68.2159C173.704 67.8674 173.258 67.6932 172.739 67.6932C171.954 67.6932 171.339 68.0795 170.892 68.8523C170.445 69.625 170.22 70.7367 170.216 72.1875C170.216 73.1572 170.316 73.9773 170.517 74.6477C170.722 75.3144 171.011 75.8201 171.386 76.1648C171.761 76.5057 172.212 76.6761 172.739 76.6761ZM182.587 78.1932C181.689 78.1894 180.922 77.9527 180.286 77.483C179.649 77.0133 179.162 76.3295 178.825 75.4318C178.488 74.5341 178.32 73.4527 178.32 72.1875C178.32 70.9261 178.488 69.8485 178.825 68.9545C179.166 68.0606 179.655 67.3788 180.291 66.9091C180.931 66.4394 181.697 66.2045 182.587 66.2045C183.477 66.2045 184.24 66.4413 184.876 66.9148C185.513 67.3845 186 68.0663 186.337 68.9602C186.678 69.8504 186.848 70.9261 186.848 72.1875C186.848 73.4564 186.68 74.5398 186.342 75.4375C186.005 76.3314 185.519 77.0152 184.882 77.4886C184.246 77.9583 183.481 78.1932 182.587 78.1932ZM182.587 76.6761C183.375 76.6761 183.99 76.2917 184.433 75.5227C184.88 74.7538 185.104 73.642 185.104 72.1875C185.104 71.2216 185.001 70.4053 184.797 69.7386C184.596 69.0682 184.306 68.5606 183.928 68.2159C183.553 67.8674 183.106 67.6932 182.587 67.6932C181.803 67.6932 181.187 68.0795 180.74 68.8523C180.293 69.625 180.068 70.7367 180.064 72.1875C180.064 73.1572 180.164 73.9773 180.365 74.6477C180.57 75.3144 180.859 75.8201 181.234 76.1648C181.609 76.5057 182.06 76.6761 182.587 76.6761ZM194.458 75.8182V75.2045C194.458 74.7652 194.548 74.3636 194.73 74C194.916 73.6326 195.185 73.339 195.537 73.1193C195.893 72.8958 196.323 72.7841 196.827 72.7841C197.342 72.7841 197.774 72.8939 198.122 73.1136C198.471 73.3333 198.734 73.6269 198.912 73.9943C199.094 74.3617 199.185 74.7652 199.185 75.2045V75.8182C199.185 76.2576 199.094 76.661 198.912 77.0284C198.73 77.392 198.463 77.6856 198.111 77.9091C197.762 78.1288 197.334 78.2386 196.827 78.2386C196.316 78.2386 195.884 78.1288 195.531 77.9091C195.179 77.6856 194.912 77.392 194.73 77.0284C194.548 76.661 194.458 76.2576 194.458 75.8182ZM195.781 75.2045V75.8182C195.781 76.1439 195.859 76.4394 196.014 76.7045C196.17 76.9697 196.441 77.1023 196.827 77.1023C197.209 77.1023 197.476 76.9697 197.628 76.7045C197.78 76.4394 197.855 76.1439 197.855 75.8182V75.2045C197.855 74.8788 197.781 74.5833 197.634 74.3182C197.49 74.053 197.221 73.9205 196.827 73.9205C196.448 73.9205 196.179 74.053 196.02 74.3182C195.861 74.5833 195.781 74.8788 195.781 75.2045ZM188.605 69.1591V68.5455C188.605 68.1061 188.696 67.7027 188.878 67.3352C189.064 66.9678 189.333 66.6742 189.685 66.4545C190.041 66.2348 190.471 66.125 190.975 66.125C191.49 66.125 191.922 66.2348 192.27 66.4545C192.619 66.6742 192.882 66.9678 193.06 67.3352C193.238 67.7027 193.327 68.1061 193.327 68.5455V69.1591C193.327 69.5985 193.236 70.0019 193.054 70.3693C192.876 70.733 192.611 71.0265 192.259 71.25C191.91 71.4697 191.482 71.5795 190.975 71.5795C190.459 71.5795 190.026 71.4697 189.673 71.25C189.325 71.0265 189.06 70.733 188.878 70.3693C188.696 70.0019 188.605 69.5985 188.605 69.1591ZM189.935 68.5455V69.1591C189.935 69.4848 190.011 69.7803 190.162 70.0455C190.317 70.3106 190.588 70.4432 190.975 70.4432C191.353 70.4432 191.619 70.3106 191.77 70.0455C191.925 69.7803 192.003 69.4848 192.003 69.1591V68.5455C192.003 68.2197 191.929 67.9242 191.781 67.6591C191.634 67.3939 191.365 67.2614 190.975 67.2614C190.596 67.2614 190.327 67.3939 190.168 67.6591C190.012 67.9242 189.935 68.2197 189.935 68.5455ZM189.145 78L197.145 66.3636H198.503L190.503 78H189.145Z" fill="white"/>
<path d="M21 100H46V124H21V100Z" fill="#868686"/>
<path d="M66.3662 118.159C65.5859 118.159 64.8965 118.021 64.298 117.744C63.7033 117.464 63.2393 117.08 62.906 116.591C62.5726 116.098 62.4079 115.538 62.4116 114.909C62.4079 114.417 62.5045 113.962 62.7014 113.545C62.8984 113.125 63.1673 112.775 63.5082 112.494C63.8529 112.21 64.2374 112.03 64.6616 111.955V111.886C64.1048 111.742 63.6616 111.43 63.3321 110.949C63.0026 110.464 62.8397 109.913 62.8435 109.295C62.8397 108.705 62.9893 108.176 63.2923 107.71C63.5954 107.244 64.012 106.877 64.5423 106.608C65.0764 106.339 65.6844 106.205 66.3662 106.205C67.0404 106.205 67.6427 106.339 68.173 106.608C68.7033 106.877 69.12 107.244 69.423 107.71C69.7298 108.176 69.8851 108.705 69.8889 109.295C69.8851 109.913 69.7166 110.464 69.3832 110.949C69.0537 111.43 68.6162 111.742 68.0707 111.886V111.955C68.4912 112.03 68.87 112.21 69.2071 112.494C69.5442 112.775 69.8132 113.125 70.0139 113.545C70.2147 113.962 70.317 114.417 70.3207 114.909C70.317 115.538 70.1465 116.098 69.8094 116.591C69.476 117.08 69.012 117.464 68.4173 117.744C67.8264 118.021 67.1427 118.159 66.3662 118.159ZM66.3662 116.909C66.8927 116.909 67.3473 116.824 67.7298 116.653C68.1124 116.483 68.4079 116.242 68.6162 115.932C68.8245 115.621 68.9306 115.258 68.9344 114.841C68.9306 114.402 68.817 114.013 68.5935 113.676C68.37 113.339 68.0651 113.074 67.6787 112.881C67.2961 112.687 66.8586 112.591 66.3662 112.591C65.87 112.591 65.4268 112.687 65.0366 112.881C64.6503 113.074 64.3454 113.339 64.1219 113.676C63.9022 114.013 63.7942 114.402 63.798 114.841C63.7942 115.258 63.8946 115.621 64.0991 115.932C64.3075 116.242 64.6048 116.483 64.9912 116.653C65.3776 116.824 65.8359 116.909 66.3662 116.909ZM66.3662 111.386C66.7829 111.386 67.1522 111.303 67.4741 111.136C67.7999 110.97 68.0556 110.737 68.2412 110.438C68.4268 110.138 68.5215 109.788 68.5253 109.386C68.5215 108.992 68.4287 108.65 68.2469 108.358C68.0651 108.062 67.8132 107.835 67.4912 107.676C67.1692 107.513 66.7942 107.432 66.3662 107.432C65.9306 107.432 65.5499 107.513 65.2241 107.676C64.8984 107.835 64.6465 108.062 64.4685 108.358C64.2904 108.65 64.2033 108.992 64.2071 109.386C64.2033 109.788 64.2923 110.138 64.4741 110.438C64.6598 110.737 64.9154 110.97 65.2412 111.136C65.567 111.303 65.942 111.386 66.3662 111.386ZM75.8819 118.159C75.4047 118.152 74.9274 118.061 74.4501 117.886C73.9728 117.712 73.5372 117.419 73.1433 117.006C72.7494 116.589 72.4331 116.027 72.1944 115.318C71.9558 114.606 71.8365 113.712 71.8365 112.636C71.8365 111.606 71.9331 110.693 72.1263 109.898C72.3194 109.098 72.5997 108.426 72.9672 107.881C73.3346 107.331 73.7778 106.915 74.2967 106.631C74.8194 106.347 75.4084 106.205 76.0638 106.205C76.7153 106.205 77.2948 106.335 77.8024 106.597C78.3138 106.854 78.7304 107.214 79.0524 107.676C79.3744 108.138 79.5827 108.67 79.6774 109.273H78.291C78.1622 108.75 77.9122 108.316 77.541 107.972C77.1698 107.627 76.6774 107.455 76.0638 107.455C75.1622 107.455 74.452 107.847 73.9331 108.631C73.4179 109.415 73.1584 110.515 73.1547 111.932H73.2456C73.4577 111.61 73.7096 111.335 74.0013 111.108C74.2967 110.877 74.6225 110.699 74.9785 110.574C75.3346 110.449 75.7115 110.386 76.1092 110.386C76.7759 110.386 77.3857 110.553 77.9388 110.886C78.4918 111.216 78.935 111.672 79.2683 112.256C79.6016 112.835 79.7683 113.5 79.7683 114.25C79.7683 114.97 79.6073 115.629 79.2853 116.227C78.9634 116.822 78.5107 117.295 77.9274 117.648C77.3478 117.996 76.666 118.167 75.8819 118.159ZM75.8819 116.909C76.3592 116.909 76.7872 116.79 77.166 116.551C77.5486 116.312 77.8497 115.992 78.0694 115.591C78.2929 115.189 78.4047 114.742 78.4047 114.25C78.4047 113.769 78.2967 113.331 78.0808 112.938C77.8687 112.54 77.5751 112.223 77.2001 111.989C76.8289 111.754 76.4047 111.636 75.9274 111.636C75.5675 111.636 75.2323 111.708 74.9217 111.852C74.6111 111.992 74.3384 112.186 74.1035 112.432C73.8725 112.678 73.6906 112.96 73.5581 113.278C73.4255 113.593 73.3592 113.924 73.3592 114.273C73.3592 114.735 73.4672 115.167 73.6831 115.568C73.9028 115.97 74.202 116.294 74.5808 116.54C74.9634 116.786 75.3971 116.909 75.8819 116.909ZM85.2499 118.159C84.4696 118.159 83.7802 118.021 83.1818 117.744C82.5871 117.464 82.1231 117.08 81.7897 116.591C81.4564 116.098 81.2916 115.538 81.2954 114.909C81.2916 114.417 81.3882 113.962 81.5852 113.545C81.7821 113.125 82.0511 112.775 82.392 112.494C82.7367 112.21 83.1212 112.03 83.5454 111.955V111.886C82.9886 111.742 82.5454 111.43 82.2159 110.949C81.8863 110.464 81.7234 109.913 81.7272 109.295C81.7234 108.705 81.8731 108.176 82.1761 107.71C82.4791 107.244 82.8958 106.877 83.4261 106.608C83.9602 106.339 84.5681 106.205 85.2499 106.205C85.9242 106.205 86.5265 106.339 87.0568 106.608C87.5871 106.877 88.0037 107.244 88.3068 107.71C88.6136 108.176 88.7689 108.705 88.7727 109.295C88.7689 109.913 88.6003 110.464 88.267 110.949C87.9374 111.43 87.4999 111.742 86.9545 111.886V111.955C87.3749 112.03 87.7537 112.21 88.0909 112.494C88.428 112.775 88.6969 113.125 88.8977 113.545C89.0984 113.962 89.2007 114.417 89.2045 114.909C89.2007 115.538 89.0302 116.098 88.6931 116.591C88.3598 117.08 87.8958 117.464 87.3011 117.744C86.7102 118.021 86.0265 118.159 85.2499 118.159ZM85.2499 116.909C85.7765 116.909 86.231 116.824 86.6136 116.653C86.9962 116.483 87.2916 116.242 87.4999 115.932C87.7083 115.621 87.8143 115.258 87.8181 114.841C87.8143 114.402 87.7007 114.013 87.4772 113.676C87.2537 113.339 86.9488 113.074 86.5624 112.881C86.1799 112.687 85.7424 112.591 85.2499 112.591C84.7537 112.591 84.3106 112.687 83.9204 112.881C83.534 113.074 83.2291 113.339 83.0056 113.676C82.7859 114.013 82.678 114.402 82.6818 114.841C82.678 115.258 82.7784 115.621 82.9829 115.932C83.1912 116.242 83.4886 116.483 83.8749 116.653C84.2613 116.824 84.7196 116.909 85.2499 116.909ZM85.2499 111.386C85.6666 111.386 86.0359 111.303 86.3579 111.136C86.6837 110.97 86.9393 110.737 87.1249 110.438C87.3106 110.138 87.4052 109.788 87.409 109.386C87.4052 108.992 87.3124 108.65 87.1306 108.358C86.9488 108.062 86.6969 107.835 86.3749 107.676C86.053 107.513 85.678 107.432 85.2499 107.432C84.8143 107.432 84.4337 107.513 84.1079 107.676C83.7821 107.835 83.5302 108.062 83.3522 108.358C83.1742 108.65 83.0871 108.992 83.0909 109.386C83.0871 109.788 83.1761 110.138 83.3579 110.438C83.5435 110.737 83.7992 110.97 84.1249 111.136C84.4507 111.303 84.8257 111.386 85.2499 111.386ZM94.7657 118.159C94.2884 118.152 93.8111 118.061 93.3339 117.886C92.8566 117.712 92.421 117.419 92.027 117.006C91.6331 116.589 91.3168 116.027 91.0782 115.318C90.8395 114.606 90.7202 113.712 90.7202 112.636C90.7202 111.606 90.8168 110.693 91.01 109.898C91.2032 109.098 91.4835 108.426 91.8509 107.881C92.2183 107.331 92.6615 106.915 93.1805 106.631C93.7032 106.347 94.2922 106.205 94.9475 106.205C95.599 106.205 96.1786 106.335 96.6861 106.597C97.1975 106.854 97.6142 107.214 97.9361 107.676C98.2581 108.138 98.4664 108.67 98.5611 109.273H97.1748C97.046 108.75 96.796 108.316 96.4248 107.972C96.0536 107.627 95.5611 107.455 94.9475 107.455C94.046 107.455 93.3358 107.847 92.8168 108.631C92.3017 109.415 92.0422 110.515 92.0384 111.932H92.1293C92.3414 111.61 92.5933 111.335 92.885 111.108C93.1805 110.877 93.5062 110.699 93.8623 110.574C94.2183 110.449 94.5952 110.386 94.993 110.386C95.6596 110.386 96.2695 110.553 96.8225 110.886C97.3755 111.216 97.8187 111.672 98.152 112.256C98.4854 112.835 98.652 113.5 98.652 114.25C98.652 114.97 98.4911 115.629 98.1691 116.227C97.8471 116.822 97.3945 117.295 96.8111 117.648C96.2316 117.996 95.5498 118.167 94.7657 118.159ZM94.7657 116.909C95.243 116.909 95.671 116.79 96.0498 116.551C96.4323 116.312 96.7335 115.992 96.9532 115.591C97.1767 115.189 97.2884 114.742 97.2884 114.25C97.2884 113.769 97.1805 113.331 96.9645 112.938C96.7524 112.54 96.4589 112.223 96.0839 111.989C95.7127 111.754 95.2884 111.636 94.8111 111.636C94.4513 111.636 94.1161 111.708 93.8055 111.852C93.4948 111.992 93.2221 112.186 92.9873 112.432C92.7562 112.678 92.5744 112.96 92.4418 113.278C92.3092 113.593 92.243 113.924 92.243 114.273C92.243 114.735 92.3509 115.167 92.5668 115.568C92.7865 115.97 93.0858 116.294 93.4645 116.54C93.8471 116.786 94.2808 116.909 94.7657 116.909ZM104.134 118.159C103.353 118.159 102.664 118.021 102.066 117.744C101.471 117.464 101.007 117.08 100.673 116.591C100.34 116.098 100.175 115.538 100.179 114.909C100.175 114.417 100.272 113.962 100.469 113.545C100.666 113.125 100.935 112.775 101.276 112.494C101.62 112.21 102.005 112.03 102.429 111.955V111.886C101.872 111.742 101.429 111.43 101.1 110.949C100.77 110.464 100.607 109.913 100.611 109.295C100.607 108.705 100.757 108.176 101.06 107.71C101.363 107.244 101.78 106.877 102.31 106.608C102.844 106.339 103.452 106.205 104.134 106.205C104.808 106.205 105.41 106.339 105.941 106.608C106.471 106.877 106.887 107.244 107.191 107.71C107.497 108.176 107.653 108.705 107.656 109.295C107.653 109.913 107.484 110.464 107.151 110.949C106.821 111.43 106.384 111.742 105.838 111.886V111.955C106.259 112.03 106.637 112.21 106.975 112.494C107.312 112.775 107.581 113.125 107.781 113.545C107.982 113.962 108.084 114.417 108.088 114.909C108.084 115.538 107.914 116.098 107.577 116.591C107.244 117.08 106.78 117.464 106.185 117.744C105.594 118.021 104.91 118.159 104.134 118.159ZM104.134 116.909C104.66 116.909 105.115 116.824 105.497 116.653C105.88 116.483 106.175 116.242 106.384 115.932C106.592 115.621 106.698 115.258 106.702 114.841C106.698 114.402 106.584 114.013 106.361 113.676C106.137 113.339 105.833 113.074 105.446 112.881C105.064 112.687 104.626 112.591 104.134 112.591C103.637 112.591 103.194 112.687 102.804 112.881C102.418 113.074 102.113 113.339 101.889 113.676C101.67 114.013 101.562 114.402 101.566 114.841C101.562 115.258 101.662 115.621 101.867 115.932C102.075 116.242 102.372 116.483 102.759 116.653C103.145 116.824 103.603 116.909 104.134 116.909ZM104.134 111.386C104.55 111.386 104.92 111.303 105.242 111.136C105.567 110.97 105.823 110.737 106.009 110.438C106.194 110.138 106.289 109.788 106.293 109.386C106.289 108.992 106.196 108.65 106.014 108.358C105.833 108.062 105.581 107.835 105.259 107.676C104.937 107.513 104.562 107.432 104.134 107.432C103.698 107.432 103.317 107.513 102.992 107.676C102.666 107.835 102.414 108.062 102.236 108.358C102.058 108.65 101.971 108.992 101.975 109.386C101.971 109.788 102.06 110.138 102.242 110.438C102.427 110.737 102.683 110.97 103.009 111.136C103.334 111.303 103.709 111.386 104.134 111.386ZM113.649 118.159C113.172 118.152 112.695 118.061 112.218 117.886C111.74 117.712 111.305 117.419 110.911 117.006C110.517 116.589 110.201 116.027 109.962 115.318C109.723 114.606 109.604 113.712 109.604 112.636C109.604 111.606 109.701 110.693 109.894 109.898C110.087 109.098 110.367 108.426 110.735 107.881C111.102 107.331 111.545 106.915 112.064 106.631C112.587 106.347 113.176 106.205 113.831 106.205C114.483 106.205 115.062 106.335 115.57 106.597C116.081 106.854 116.498 107.214 116.82 107.676C117.142 108.138 117.35 108.67 117.445 109.273H116.059C115.93 108.75 115.68 108.316 115.309 107.972C114.937 107.627 114.445 107.455 113.831 107.455C112.93 107.455 112.22 107.847 111.701 108.631C111.185 109.415 110.926 110.515 110.922 111.932H111.013C111.225 111.61 111.477 111.335 111.769 111.108C112.064 110.877 112.39 110.699 112.746 110.574C113.102 110.449 113.479 110.386 113.877 110.386C114.543 110.386 115.153 110.553 115.706 110.886C116.259 111.216 116.702 111.672 117.036 112.256C117.369 112.835 117.536 113.5 117.536 114.25C117.536 114.97 117.375 115.629 117.053 116.227C116.731 116.822 116.278 117.295 115.695 117.648C115.115 117.996 114.434 118.167 113.649 118.159ZM113.649 116.909C114.127 116.909 114.555 116.79 114.934 116.551C115.316 116.312 115.617 115.992 115.837 115.591C116.06 115.189 116.172 114.742 116.172 114.25C116.172 113.769 116.064 113.331 115.848 112.938C115.636 112.54 115.343 112.223 114.968 111.989C114.596 111.754 114.172 111.636 113.695 111.636C113.335 111.636 113 111.708 112.689 111.852C112.379 111.992 112.106 112.186 111.871 112.432C111.64 112.678 111.458 112.96 111.326 113.278C111.193 113.593 111.127 113.924 111.127 114.273C111.127 114.735 111.235 115.167 111.451 115.568C111.67 115.97 111.97 116.294 112.348 116.54C112.731 116.786 113.165 116.909 113.649 116.909Z" fill="white"/>
<path d="M166.02 106.364V118H164.258V108.125H164.19L161.406 109.943V108.261L164.309 106.364H166.02ZM172.739 118.193C171.841 118.189 171.074 117.953 170.437 117.483C169.801 117.013 169.314 116.33 168.977 115.432C168.64 114.534 168.472 113.453 168.472 112.188C168.472 110.926 168.64 109.848 168.977 108.955C169.318 108.061 169.807 107.379 170.443 106.909C171.083 106.439 171.848 106.205 172.739 106.205C173.629 106.205 174.392 106.441 175.028 106.915C175.665 107.384 176.151 108.066 176.489 108.96C176.829 109.85 177 110.926 177 112.188C177 113.456 176.831 114.54 176.494 115.438C176.157 116.331 175.67 117.015 175.034 117.489C174.398 117.958 173.633 118.193 172.739 118.193ZM172.739 116.676C173.526 116.676 174.142 116.292 174.585 115.523C175.032 114.754 175.256 113.642 175.256 112.188C175.256 111.222 175.153 110.405 174.949 109.739C174.748 109.068 174.458 108.561 174.079 108.216C173.704 107.867 173.258 107.693 172.739 107.693C171.954 107.693 171.339 108.08 170.892 108.852C170.445 109.625 170.22 110.737 170.216 112.188C170.216 113.157 170.316 113.977 170.517 114.648C170.722 115.314 171.011 115.82 171.386 116.165C171.761 116.506 172.212 116.676 172.739 116.676ZM182.587 118.193C181.689 118.189 180.922 117.953 180.286 117.483C179.649 117.013 179.162 116.33 178.825 115.432C178.488 114.534 178.32 113.453 178.32 112.188C178.32 110.926 178.488 109.848 178.825 108.955C179.166 108.061 179.655 107.379 180.291 106.909C180.931 106.439 181.697 106.205 182.587 106.205C183.477 106.205 184.24 106.441 184.876 106.915C185.513 107.384 186 108.066 186.337 108.96C186.678 109.85 186.848 110.926 186.848 112.188C186.848 113.456 186.68 114.54 186.342 115.438C186.005 116.331 185.519 117.015 184.882 117.489C184.246 117.958 183.481 118.193 182.587 118.193ZM182.587 116.676C183.375 116.676 183.99 116.292 184.433 115.523C184.88 114.754 185.104 113.642 185.104 112.188C185.104 111.222 185.001 110.405 184.797 109.739C184.596 109.068 184.306 108.561 183.928 108.216C183.553 107.867 183.106 107.693 182.587 107.693C181.803 107.693 181.187 108.08 180.74 108.852C180.293 109.625 180.068 110.737 180.064 112.188C180.064 113.157 180.164 113.977 180.365 114.648C180.57 115.314 180.859 115.82 181.234 116.165C181.609 116.506 182.06 116.676 182.587 116.676ZM194.458 115.818V115.205C194.458 114.765 194.548 114.364 194.73 114C194.916 113.633 195.185 113.339 195.537 113.119C195.893 112.896 196.323 112.784 196.827 112.784C197.342 112.784 197.774 112.894 198.122 113.114C198.471 113.333 198.734 113.627 198.912 113.994C199.094 114.362 199.185 114.765 199.185 115.205V115.818C199.185 116.258 199.094 116.661 198.912 117.028C198.73 117.392 198.463 117.686 198.111 117.909C197.762 118.129 197.334 118.239 196.827 118.239C196.316 118.239 195.884 118.129 195.531 117.909C195.179 117.686 194.912 117.392 194.73 117.028C194.548 116.661 194.458 116.258 194.458 115.818ZM195.781 115.205V115.818C195.781 116.144 195.859 116.439 196.014 116.705C196.17 116.97 196.441 117.102 196.827 117.102C197.209 117.102 197.476 116.97 197.628 116.705C197.78 116.439 197.855 116.144 197.855 115.818V115.205C197.855 114.879 197.781 114.583 197.634 114.318C197.49 114.053 197.221 113.92 196.827 113.92C196.448 113.92 196.179 114.053 196.02 114.318C195.861 114.583 195.781 114.879 195.781 115.205ZM188.605 109.159V108.545C188.605 108.106 188.696 107.703 188.878 107.335C189.064 106.968 189.333 106.674 189.685 106.455C190.041 106.235 190.471 106.125 190.975 106.125C191.49 106.125 191.922 106.235 192.27 106.455C192.619 106.674 192.882 106.968 193.06 107.335C193.238 107.703 193.327 108.106 193.327 108.545V109.159C193.327 109.598 193.236 110.002 193.054 110.369C192.876 110.733 192.611 111.027 192.259 111.25C191.91 111.47 191.482 111.58 190.975 111.58C190.459 111.58 190.026 111.47 189.673 111.25C189.325 111.027 189.06 110.733 188.878 110.369C188.696 110.002 188.605 109.598 188.605 109.159ZM189.935 108.545V109.159C189.935 109.485 190.011 109.78 190.162 110.045C190.317 110.311 190.588 110.443 190.975 110.443C191.353 110.443 191.619 110.311 191.77 110.045C191.925 109.78 192.003 109.485 192.003 109.159V108.545C192.003 108.22 191.929 107.924 191.781 107.659C191.634 107.394 191.365 107.261 190.975 107.261C190.596 107.261 190.327 107.394 190.168 107.659C190.012 107.924 189.935 108.22 189.935 108.545ZM189.145 118L197.145 106.364H198.503L190.503 118H189.145Z" fill="white"/>
<path d="M21 140H46V164H21V140Z" fill="#5C5C5C"/>
<path d="M63.9784 158.159C63.3117 158.159 62.7114 158.027 62.1773 157.761C61.6432 157.496 61.2152 157.133 60.8932 156.67C60.5712 156.208 60.3951 155.682 60.3648 155.091H61.7284C61.7814 155.617 62.0201 156.053 62.4443 156.398C62.8723 156.739 63.3837 156.909 63.9784 156.909C64.4557 156.909 64.8799 156.797 65.2511 156.574C65.6261 156.35 65.9197 156.044 66.1318 155.653C66.3477 155.259 66.4557 154.814 66.4557 154.318C66.4557 153.811 66.3439 153.358 66.1205 152.96C65.9008 152.559 65.5977 152.242 65.2114 152.011C64.825 151.78 64.3837 151.663 63.8875 151.659C63.5314 151.655 63.1659 151.71 62.7909 151.824C62.4159 151.934 62.1072 152.076 61.8648 152.25L60.5466 152.091L61.2511 146.364H67.2966V147.614H62.433L62.0239 151.045H62.092C62.3307 150.856 62.6299 150.699 62.9898 150.574C63.3496 150.449 63.7246 150.386 64.1148 150.386C64.8269 150.386 65.4614 150.557 66.0182 150.898C66.5788 151.235 67.0182 151.697 67.3364 152.284C67.6583 152.871 67.8193 153.542 67.8193 154.295C67.8193 155.038 67.6527 155.701 67.3193 156.284C66.9898 156.864 66.5352 157.322 65.9557 157.659C65.3761 157.992 64.717 158.159 63.9784 158.159ZM79.1646 150H77.7555C77.6722 149.595 77.5263 149.239 77.318 148.932C77.1135 148.625 76.8635 148.367 76.568 148.159C76.2763 147.947 75.9525 147.788 75.5964 147.682C75.2404 147.576 74.8691 147.523 74.4828 147.523C73.7782 147.523 73.14 147.701 72.568 148.057C71.9998 148.413 71.5472 148.938 71.2101 149.631C70.8767 150.324 70.7101 151.174 70.7101 152.182C70.7101 153.189 70.8767 154.04 71.2101 154.733C71.5472 155.426 71.9998 155.951 72.568 156.307C73.14 156.663 73.7782 156.841 74.4828 156.841C74.8691 156.841 75.2404 156.788 75.5964 156.682C75.9525 156.576 76.2763 156.419 76.568 156.21C76.8635 155.998 77.1135 155.739 77.318 155.432C77.5263 155.121 77.6722 154.765 77.7555 154.364H79.1646C79.0585 154.958 78.8654 155.491 78.5851 155.96C78.3048 156.43 77.9563 156.83 77.5396 157.159C77.1229 157.485 76.6551 157.733 76.1362 157.903C75.621 158.074 75.0699 158.159 74.4828 158.159C73.4904 158.159 72.6078 157.917 71.8351 157.432C71.0623 156.947 70.4544 156.258 70.0112 155.364C69.568 154.47 69.3464 153.409 69.3464 152.182C69.3464 150.955 69.568 149.894 70.0112 149C70.4544 148.106 71.0623 147.417 71.8351 146.932C72.6078 146.447 73.4904 146.205 74.4828 146.205C75.0699 146.205 75.621 146.29 76.1362 146.46C76.6551 146.631 77.1229 146.881 77.5396 147.21C77.9563 147.536 78.3048 147.934 78.5851 148.403C78.8654 148.869 79.0585 149.402 79.1646 150ZM84.3934 158.159C83.7267 158.159 83.1264 158.027 82.5923 157.761C82.0582 157.496 81.6302 157.133 81.3082 156.67C80.9862 156.208 80.8101 155.682 80.7798 155.091H82.1434C82.1964 155.617 82.4351 156.053 82.8593 156.398C83.2874 156.739 83.7987 156.909 84.3934 156.909C84.8707 156.909 85.2949 156.797 85.6661 156.574C86.0411 156.35 86.3347 156.044 86.5468 155.653C86.7627 155.259 86.8707 154.814 86.8707 154.318C86.8707 153.811 86.7589 153.358 86.5355 152.96C86.3158 152.559 86.0127 152.242 85.6264 152.011C85.24 151.78 84.7987 151.663 84.3025 151.659C83.9464 151.655 83.5809 151.71 83.2059 151.824C82.8309 151.934 82.5222 152.076 82.2798 152.25L80.9616 152.091L81.6661 146.364H87.7116V147.614H82.848L82.4389 151.045H82.507C82.7457 150.856 83.0449 150.699 83.4048 150.574C83.7646 150.449 84.1396 150.386 84.5298 150.386C85.2419 150.386 85.8764 150.557 86.4332 150.898C86.9938 151.235 87.4332 151.697 87.7514 152.284C88.0733 152.871 88.2343 153.542 88.2343 154.295C88.2343 155.038 88.0677 155.701 87.7343 156.284C87.4048 156.864 86.9502 157.322 86.3707 157.659C85.7911 157.992 85.132 158.159 84.3934 158.159ZM99.5796 150H98.1705C98.0872 149.595 97.9413 149.239 97.733 148.932C97.5285 148.625 97.2785 148.367 96.983 148.159C96.6913 147.947 96.3675 147.788 96.0114 147.682C95.6554 147.576 95.2841 147.523 94.8978 147.523C94.1932 147.523 93.555 147.701 92.983 148.057C92.4148 148.413 91.9622 148.938 91.6251 149.631C91.2917 150.324 91.1251 151.174 91.1251 152.182C91.1251 153.189 91.2917 154.04 91.6251 154.733C91.9622 155.426 92.4148 155.951 92.983 156.307C93.555 156.663 94.1932 156.841 94.8978 156.841C95.2841 156.841 95.6554 156.788 96.0114 156.682C96.3675 156.576 96.6913 156.419 96.983 156.21C97.2785 155.998 97.5285 155.739 97.733 155.432C97.9413 155.121 98.0872 154.765 98.1705 154.364H99.5796C99.4735 154.958 99.2804 155.491 99.0001 155.96C98.7198 156.43 98.3713 156.83 97.9546 157.159C97.5379 157.485 97.0701 157.733 96.5512 157.903C96.036 158.074 95.4849 158.159 94.8978 158.159C93.9054 158.159 93.0228 157.917 92.2501 157.432C91.4773 156.947 90.8694 156.258 90.4262 155.364C89.983 154.47 89.7614 153.409 89.7614 152.182C89.7614 150.955 89.983 149.894 90.4262 149C90.8694 148.106 91.4773 147.417 92.2501 146.932C93.0228 146.447 93.9054 146.205 94.8978 146.205C95.4849 146.205 96.036 146.29 96.5512 146.46C97.0701 146.631 97.5379 146.881 97.9546 147.21C98.3713 147.536 98.7198 147.934 99.0001 148.403C99.2804 148.869 99.4735 149.402 99.5796 150ZM104.808 158.159C104.142 158.159 103.541 158.027 103.007 157.761C102.473 157.496 102.045 157.133 101.723 156.67C101.401 156.208 101.225 155.682 101.195 155.091H102.558C102.611 155.617 102.85 156.053 103.274 156.398C103.702 156.739 104.214 156.909 104.808 156.909C105.286 156.909 105.71 156.797 106.081 156.574C106.456 156.35 106.75 156.044 106.962 155.653C107.178 155.259 107.286 154.814 107.286 154.318C107.286 153.811 107.174 153.358 106.95 152.96C106.731 152.559 106.428 152.242 106.041 152.011C105.655 151.78 105.214 151.663 104.718 151.659C104.361 151.655 103.996 151.71 103.621 151.824C103.246 151.934 102.937 152.076 102.695 152.25L101.377 152.091L102.081 146.364H108.127V147.614H103.263L102.854 151.045H102.922C103.161 150.856 103.46 150.699 103.82 150.574C104.18 150.449 104.555 150.386 104.945 150.386C105.657 150.386 106.291 150.557 106.848 150.898C107.409 151.235 107.848 151.697 108.166 152.284C108.488 152.871 108.649 153.542 108.649 154.295C108.649 155.038 108.483 155.701 108.149 156.284C107.82 156.864 107.365 157.322 106.786 157.659C106.206 157.992 105.547 158.159 104.808 158.159ZM119.995 150H118.586C118.502 149.595 118.356 149.239 118.148 148.932C117.943 148.625 117.693 148.367 117.398 148.159C117.106 147.947 116.782 147.788 116.426 147.682C116.07 147.576 115.699 147.523 115.313 147.523C114.608 147.523 113.97 147.701 113.398 148.057C112.83 148.413 112.377 148.938 112.04 149.631C111.707 150.324 111.54 151.174 111.54 152.182C111.54 153.189 111.707 154.04 112.04 154.733C112.377 155.426 112.83 155.951 113.398 156.307C113.97 156.663 114.608 156.841 115.313 156.841C115.699 156.841 116.07 156.788 116.426 156.682C116.782 156.576 117.106 156.419 117.398 156.21C117.693 155.998 117.943 155.739 118.148 155.432C118.356 155.121 118.502 154.765 118.586 154.364H119.995C119.889 154.958 119.695 155.491 119.415 155.96C119.135 156.43 118.786 156.83 118.37 157.159C117.953 157.485 117.485 157.733 116.966 157.903C116.451 158.074 115.9 158.159 115.313 158.159C114.32 158.159 113.438 157.917 112.665 157.432C111.892 156.947 111.284 156.258 110.841 155.364C110.398 154.47 110.176 153.409 110.176 152.182C110.176 150.955 110.398 149.894 110.841 149C111.284 148.106 111.892 147.417 112.665 146.932C113.438 146.447 114.32 146.205 115.313 146.205C115.9 146.205 116.451 146.29 116.966 146.46C117.485 146.631 117.953 146.881 118.37 147.21C118.786 147.536 119.135 147.934 119.415 148.403C119.695 148.869 119.889 149.402 119.995 150Z" fill="white"/>
<path d="M166.02 146.364V158H164.258V148.125H164.19L161.406 149.943V148.261L164.309 146.364H166.02ZM172.739 158.193C171.841 158.189 171.074 157.953 170.437 157.483C169.801 157.013 169.314 156.33 168.977 155.432C168.64 154.534 168.472 153.453 168.472 152.188C168.472 150.926 168.64 149.848 168.977 148.955C169.318 148.061 169.807 147.379 170.443 146.909C171.083 146.439 171.848 146.205 172.739 146.205C173.629 146.205 174.392 146.441 175.028 146.915C175.665 147.384 176.151 148.066 176.489 148.96C176.829 149.85 177 150.926 177 152.188C177 153.456 176.831 154.54 176.494 155.438C176.157 156.331 175.67 157.015 175.034 157.489C174.398 157.958 173.633 158.193 172.739 158.193ZM172.739 156.676C173.526 156.676 174.142 156.292 174.585 155.523C175.032 154.754 175.256 153.642 175.256 152.188C175.256 151.222 175.153 150.405 174.949 149.739C174.748 149.068 174.458 148.561 174.079 148.216C173.704 147.867 173.258 147.693 172.739 147.693C171.954 147.693 171.339 148.08 170.892 148.852C170.445 149.625 170.22 150.737 170.216 152.188C170.216 153.157 170.316 153.977 170.517 154.648C170.722 155.314 171.011 155.82 171.386 156.165C171.761 156.506 172.212 156.676 172.739 156.676ZM182.587 158.193C181.689 158.189 180.922 157.953 180.286 157.483C179.649 157.013 179.162 156.33 178.825 155.432C178.488 154.534 178.32 153.453 178.32 152.188C178.32 150.926 178.488 149.848 178.825 148.955C179.166 148.061 179.655 147.379 180.291 146.909C180.931 146.439 181.697 146.205 182.587 146.205C183.477 146.205 184.24 146.441 184.876 146.915C185.513 147.384 186 148.066 186.337 148.96C186.678 149.85 186.848 150.926 186.848 152.188C186.848 153.456 186.68 154.54 186.342 155.438C186.005 156.331 185.519 157.015 184.882 157.489C184.246 157.958 183.481 158.193 182.587 158.193ZM182.587 156.676C183.375 156.676 183.99 156.292 184.433 155.523C184.88 154.754 185.104 153.642 185.104 152.188C185.104 151.222 185.001 150.405 184.797 149.739C184.596 149.068 184.306 148.561 183.928 148.216C183.553 147.867 183.106 147.693 182.587 147.693C181.803 147.693 181.187 148.08 180.74 148.852C180.293 149.625 180.068 150.737 180.064 152.188C180.064 153.157 180.164 153.977 180.365 154.648C180.57 155.314 180.859 155.82 181.234 156.165C181.609 156.506 182.06 156.676 182.587 156.676ZM194.458 155.818V155.205C194.458 154.765 194.548 154.364 194.73 154C194.916 153.633 195.185 153.339 195.537 153.119C195.893 152.896 196.323 152.784 196.827 152.784C197.342 152.784 197.774 152.894 198.122 153.114C198.471 153.333 198.734 153.627 198.912 153.994C199.094 154.362 199.185 154.765 199.185 155.205V155.818C199.185 156.258 199.094 156.661 198.912 157.028C198.73 157.392 198.463 157.686 198.111 157.909C197.762 158.129 197.334 158.239 196.827 158.239C196.316 158.239 195.884 158.129 195.531 157.909C195.179 157.686 194.912 157.392 194.73 157.028C194.548 156.661 194.458 156.258 194.458 155.818ZM195.781 155.205V155.818C195.781 156.144 195.859 156.439 196.014 156.705C196.17 156.97 196.441 157.102 196.827 157.102C197.209 157.102 197.476 156.97 197.628 156.705C197.78 156.439 197.855 156.144 197.855 155.818V155.205C197.855 154.879 197.781 154.583 197.634 154.318C197.49 154.053 197.221 153.92 196.827 153.92C196.448 153.92 196.179 154.053 196.02 154.318C195.861 154.583 195.781 154.879 195.781 155.205ZM188.605 149.159V148.545C188.605 148.106 188.696 147.703 188.878 147.335C189.064 146.968 189.333 146.674 189.685 146.455C190.041 146.235 190.471 146.125 190.975 146.125C191.49 146.125 191.922 146.235 192.27 146.455C192.619 146.674 192.882 146.968 193.06 147.335C193.238 147.703 193.327 148.106 193.327 148.545V149.159C193.327 149.598 193.236 150.002 193.054 150.369C192.876 150.733 192.611 151.027 192.259 151.25C191.91 151.47 191.482 151.58 190.975 151.58C190.459 151.58 190.026 151.47 189.673 151.25C189.325 151.027 189.06 150.733 188.878 150.369C188.696 150.002 188.605 149.598 188.605 149.159ZM189.935 148.545V149.159C189.935 149.485 190.011 149.78 190.162 150.045C190.317 150.311 190.588 150.443 190.975 150.443C191.353 150.443 191.619 150.311 191.77 150.045C191.925 149.78 192.003 149.485 192.003 149.159V148.545C192.003 148.22 191.929 147.924 191.781 147.659C191.634 147.394 191.365 147.261 190.975 147.261C190.596 147.261 190.327 147.394 190.168 147.659C190.012 147.924 189.935 148.22 189.935 148.545ZM189.145 158L197.145 146.364H198.503L190.503 158H189.145Z" fill="white"/>
<path d="M21 180H46V204H21V180Z" fill="black"/>
<path d="M66.2 198.159C65.3439 198.159 64.6148 197.926 64.0125 197.46C63.4102 196.991 62.95 196.311 62.6318 195.42C62.3136 194.527 62.1545 193.447 62.1545 192.182C62.1545 190.924 62.3136 189.85 62.6318 188.96C62.9538 188.066 63.4159 187.384 64.0182 186.915C64.6242 186.441 65.3515 186.205 66.2 186.205C67.0485 186.205 67.7739 186.441 68.3761 186.915C68.9822 187.384 69.4443 188.066 69.7625 188.96C70.0845 189.85 70.2455 190.924 70.2455 192.182C70.2455 193.447 70.0864 194.527 69.7682 195.42C69.45 196.311 68.9898 196.991 68.3875 197.46C67.7852 197.926 67.0561 198.159 66.2 198.159ZM66.2 196.909C67.0485 196.909 67.7076 196.5 68.1773 195.682C68.647 194.864 68.8818 193.697 68.8818 192.182C68.8818 191.174 68.7739 190.316 68.558 189.608C68.3458 188.9 68.039 188.36 67.6375 187.989C67.2398 187.617 66.7606 187.432 66.2 187.432C65.3591 187.432 64.7019 187.847 64.2284 188.676C63.7549 189.502 63.5182 190.67 63.5182 192.182C63.5182 193.189 63.6242 194.045 63.8364 194.75C64.0485 195.455 64.3534 195.991 64.7511 196.358C65.1527 196.725 65.6356 196.909 66.2 196.909ZM75.72 198.159C74.8639 198.159 74.1348 197.926 73.5325 197.46C72.9302 196.991 72.47 196.311 72.1518 195.42C71.8336 194.527 71.6745 193.447 71.6745 192.182C71.6745 190.924 71.8336 189.85 72.1518 188.96C72.4738 188.066 72.9359 187.384 73.5382 186.915C74.1442 186.441 74.8715 186.205 75.72 186.205C76.5685 186.205 77.2939 186.441 77.8961 186.915C78.5022 187.384 78.9643 188.066 79.2825 188.96C79.6045 189.85 79.7655 190.924 79.7655 192.182C79.7655 193.447 79.6064 194.527 79.2882 195.42C78.97 196.311 78.5098 196.991 77.9075 197.46C77.3052 197.926 76.5761 198.159 75.72 198.159ZM75.72 196.909C76.5685 196.909 77.2276 196.5 77.6973 195.682C78.167 194.864 78.4018 193.697 78.4018 192.182C78.4018 191.174 78.2939 190.316 78.078 189.608C77.8658 188.9 77.559 188.36 77.1575 187.989C76.7598 187.617 76.2806 187.432 75.72 187.432C74.8791 187.432 74.2219 187.847 73.7484 188.676C73.2749 189.502 73.0382 190.67 73.0382 192.182C73.0382 193.189 73.1442 194.045 73.3564 194.75C73.5685 195.455 73.8734 195.991 74.2711 196.358C74.6727 196.725 75.1556 196.909 75.72 196.909ZM85.24 198.159C84.3839 198.159 83.6548 197.926 83.0525 197.46C82.4502 196.991 81.99 196.311 81.6718 195.42C81.3536 194.527 81.1945 193.447 81.1945 192.182C81.1945 190.924 81.3536 189.85 81.6718 188.96C81.9938 188.066 82.4559 187.384 83.0582 186.915C83.6642 186.441 84.3915 186.205 85.24 186.205C86.0885 186.205 86.8139 186.441 87.4161 186.915C88.0222 187.384 88.4843 188.066 88.8025 188.96C89.1245 189.85 89.2855 190.924 89.2855 192.182C89.2855 193.447 89.1264 194.527 88.8082 195.42C88.49 196.311 88.0298 196.991 87.4275 197.46C86.8252 197.926 86.0961 198.159 85.24 198.159ZM85.24 196.909C86.0885 196.909 86.7476 196.5 87.2173 195.682C87.687 194.864 87.9218 193.697 87.9218 192.182C87.9218 191.174 87.8139 190.316 87.598 189.608C87.3858 188.9 87.079 188.36 86.6775 187.989C86.2798 187.617 85.8006 187.432 85.24 187.432C84.3991 187.432 83.7419 187.847 83.2684 188.676C82.7949 189.502 82.5582 190.67 82.5582 192.182C82.5582 193.189 82.6642 194.045 82.8764 194.75C83.0885 195.455 83.3934 195.991 83.7911 196.358C84.1927 196.725 84.6756 196.909 85.24 196.909ZM94.76 198.159C93.9039 198.159 93.1748 197.926 92.5725 197.46C91.9702 196.991 91.51 196.311 91.1918 195.42C90.8736 194.527 90.7145 193.447 90.7145 192.182C90.7145 190.924 90.8736 189.85 91.1918 188.96C91.5138 188.066 91.9759 187.384 92.5782 186.915C93.1842 186.441 93.9115 186.205 94.76 186.205C95.6085 186.205 96.3339 186.441 96.9361 186.915C97.5422 187.384 98.0043 188.066 98.3225 188.96C98.6445 189.85 98.8055 190.924 98.8055 192.182C98.8055 193.447 98.6464 194.527 98.3282 195.42C98.01 196.311 97.5498 196.991 96.9475 197.46C96.3452 197.926 95.6161 198.159 94.76 198.159ZM94.76 196.909C95.6085 196.909 96.2676 196.5 96.7373 195.682C97.207 194.864 97.4418 193.697 97.4418 192.182C97.4418 191.174 97.3339 190.316 97.118 189.608C96.9058 188.9 96.599 188.36 96.1975 187.989C95.7998 187.617 95.3206 187.432 94.76 187.432C93.9191 187.432 93.2619 187.847 92.7884 188.676C92.3149 189.502 92.0782 190.67 92.0782 192.182C92.0782 193.189 92.1842 194.045 92.3964 194.75C92.6085 195.455 92.9134 195.991 93.3111 196.358C93.7127 196.725 94.1956 196.909 94.76 196.909ZM104.28 198.159C103.424 198.159 102.695 197.926 102.093 197.46C101.49 196.991 101.03 196.311 100.712 195.42C100.394 194.527 100.235 193.447 100.235 192.182C100.235 190.924 100.394 189.85 100.712 188.96C101.034 188.066 101.496 187.384 102.098 186.915C102.704 186.441 103.432 186.205 104.28 186.205C105.128 186.205 105.854 186.441 106.456 186.915C107.062 187.384 107.524 188.066 107.843 188.96C108.164 189.85 108.325 190.924 108.325 192.182C108.325 193.447 108.166 194.527 107.848 195.42C107.53 196.311 107.07 196.991 106.468 197.46C105.865 197.926 105.136 198.159 104.28 198.159ZM104.28 196.909C105.128 196.909 105.788 196.5 106.257 195.682C106.727 194.864 106.962 193.697 106.962 192.182C106.962 191.174 106.854 190.316 106.638 189.608C106.426 188.9 106.119 188.36 105.718 187.989C105.32 187.617 104.841 187.432 104.28 187.432C103.439 187.432 102.782 187.847 102.308 188.676C101.835 189.502 101.598 190.67 101.598 192.182C101.598 193.189 101.704 194.045 101.916 194.75C102.128 195.455 102.433 195.991 102.831 196.358C103.233 196.725 103.716 196.909 104.28 196.909ZM113.8 198.159C112.944 198.159 112.215 197.926 111.612 197.46C111.01 196.991 110.55 196.311 110.232 195.42C109.914 194.527 109.755 193.447 109.755 192.182C109.755 190.924 109.914 189.85 110.232 188.96C110.554 188.066 111.016 187.384 111.618 186.915C112.224 186.441 112.952 186.205 113.8 186.205C114.648 186.205 115.374 186.441 115.976 186.915C116.582 187.384 117.044 188.066 117.362 188.96C117.684 189.85 117.845 190.924 117.845 192.182C117.845 193.447 117.686 194.527 117.368 195.42C117.05 196.311 116.59 196.991 115.987 197.46C115.385 197.926 114.656 198.159 113.8 198.159ZM113.8 196.909C114.648 196.909 115.308 196.5 115.777 195.682C116.247 194.864 116.482 193.697 116.482 192.182C116.482 191.174 116.374 190.316 116.158 189.608C115.946 188.9 115.639 188.36 115.237 187.989C114.84 187.617 114.361 187.432 113.8 187.432C112.959 187.432 112.302 187.847 111.828 188.676C111.355 189.502 111.118 190.67 111.118 192.182C111.118 193.189 111.224 194.045 111.436 194.75C111.648 195.455 111.953 195.991 112.351 196.358C112.753 196.725 113.236 196.909 113.8 196.909Z" fill="white"/>
<path d="M166.02 186.364V198H164.258V188.125H164.19L161.406 189.943V188.261L164.309 186.364H166.02ZM172.739 198.193C171.841 198.189 171.074 197.953 170.437 197.483C169.801 197.013 169.314 196.33 168.977 195.432C168.64 194.534 168.472 193.453 168.472 192.188C168.472 190.926 168.64 189.848 168.977 188.955C169.318 188.061 169.807 187.379 170.443 186.909C171.083 186.439 171.848 186.205 172.739 186.205C173.629 186.205 174.392 186.441 175.028 186.915C175.665 187.384 176.151 188.066 176.489 188.96C176.829 189.85 177 190.926 177 192.188C177 193.456 176.831 194.54 176.494 195.438C176.157 196.331 175.67 197.015 175.034 197.489C174.398 197.958 173.633 198.193 172.739 198.193ZM172.739 196.676C173.526 196.676 174.142 196.292 174.585 195.523C175.032 194.754 175.256 193.642 175.256 192.188C175.256 191.222 175.153 190.405 174.949 189.739C174.748 189.068 174.458 188.561 174.079 188.216C173.704 187.867 173.258 187.693 172.739 187.693C171.954 187.693 171.339 188.08 170.892 188.852C170.445 189.625 170.22 190.737 170.216 192.188C170.216 193.157 170.316 193.977 170.517 194.648C170.722 195.314 171.011 195.82 171.386 196.165C171.761 196.506 172.212 196.676 172.739 196.676ZM182.587 198.193C181.689 198.189 180.922 197.953 180.286 197.483C179.649 197.013 179.162 196.33 178.825 195.432C178.488 194.534 178.32 193.453 178.32 192.188C178.32 190.926 178.488 189.848 178.825 188.955C179.166 188.061 179.655 187.379 180.291 186.909C180.931 186.439 181.697 186.205 182.587 186.205C183.477 186.205 184.24 186.441 184.876 186.915C185.513 187.384 186 188.066 186.337 188.96C186.678 189.85 186.848 190.926 186.848 192.188C186.848 193.456 186.68 194.54 186.342 195.438C186.005 196.331 185.519 197.015 184.882 197.489C184.246 197.958 183.481 198.193 182.587 198.193ZM182.587 196.676C183.375 196.676 183.99 196.292 184.433 195.523C184.88 194.754 185.104 193.642 185.104 192.188C185.104 191.222 185.001 190.405 184.797 189.739C184.596 189.068 184.306 188.561 183.928 188.216C183.553 187.867 183.106 187.693 182.587 187.693C181.803 187.693 181.187 188.08 180.74 188.852C180.293 189.625 180.068 190.737 180.064 192.188C180.064 193.157 180.164 193.977 180.365 194.648C180.57 195.314 180.859 195.82 181.234 196.165C181.609 196.506 182.06 196.676 182.587 196.676ZM194.458 195.818V195.205C194.458 194.765 194.548 194.364 194.73 194C194.916 193.633 195.185 193.339 195.537 193.119C195.893 192.896 196.323 192.784 196.827 192.784C197.342 192.784 197.774 192.894 198.122 193.114C198.471 193.333 198.734 193.627 198.912 193.994C199.094 194.362 199.185 194.765 199.185 195.205V195.818C199.185 196.258 199.094 196.661 198.912 197.028C198.73 197.392 198.463 197.686 198.111 197.909C197.762 198.129 197.334 198.239 196.827 198.239C196.316 198.239 195.884 198.129 195.531 197.909C195.179 197.686 194.912 197.392 194.73 197.028C194.548 196.661 194.458 196.258 194.458 195.818ZM195.781 195.205V195.818C195.781 196.144 195.859 196.439 196.014 196.705C196.17 196.97 196.441 197.102 196.827 197.102C197.209 197.102 197.476 196.97 197.628 196.705C197.78 196.439 197.855 196.144 197.855 195.818V195.205C197.855 194.879 197.781 194.583 197.634 194.318C197.49 194.053 197.221 193.92 196.827 193.92C196.448 193.92 196.179 194.053 196.02 194.318C195.861 194.583 195.781 194.879 195.781 195.205ZM188.605 189.159V188.545C188.605 188.106 188.696 187.703 188.878 187.335C189.064 186.968 189.333 186.674 189.685 186.455C190.041 186.235 190.471 186.125 190.975 186.125C191.49 186.125 191.922 186.235 192.27 186.455C192.619 186.674 192.882 186.968 193.06 187.335C193.238 187.703 193.327 188.106 193.327 188.545V189.159C193.327 189.598 193.236 190.002 193.054 190.369C192.876 190.733 192.611 191.027 192.259 191.25C191.91 191.47 191.482 191.58 190.975 191.58C190.459 191.58 190.026 191.47 189.673 191.25C189.325 191.027 189.06 190.733 188.878 190.369C188.696 190.002 188.605 189.598 188.605 189.159ZM189.935 188.545V189.159C189.935 189.485 190.011 189.78 190.162 190.045C190.317 190.311 190.588 190.443 190.975 190.443C191.353 190.443 191.619 190.311 191.77 190.045C191.925 189.78 192.003 189.485 192.003 189.159V188.545C192.003 188.22 191.929 187.924 191.781 187.659C191.634 187.394 191.365 187.261 190.975 187.261C190.596 187.261 190.327 187.394 190.168 187.659C190.012 187.924 189.935 188.22 189.935 188.545ZM189.145 198L197.145 186.364H198.503L190.503 198H189.145Z" fill="white"/>
</svg>
