<svg width="250" height="227" viewBox="0 0 250 227" fill="none" xmlns="http://www.w3.org/2000/svg">
<path d="M235.217 23.6551L235.213 23.6578C235.134 23.7181 235.038 23.7565 234.931 23.7662C234.837 23.772 234.742 23.7537 234.654 23.7113C234.568 23.6612 234.492 23.5922 234.432 23.5084L229.781 14.1604L229.604 13.806L229.276 13.5848L221.185 8.12957C221.09 8.06574 221.014 7.97301 220.969 7.86191C220.925 7.75588 220.913 7.64028 220.932 7.52953C220.961 7.41782 221.018 7.31898 221.096 7.24245C221.178 7.16237 221.279 7.10908 221.387 7.08711L221.414 7.08176L221.44 7.07546L242.821 1.94204C242.926 1.91989 243.036 1.92254 243.142 1.95073C243.224 1.97767 243.301 2.02763 243.362 2.09781L243.37 2.10674L243.378 2.11554C243.446 2.19212 243.494 2.28738 243.515 2.39102C243.534 2.48971 243.527 2.59033 243.497 2.68264L235.422 23.391C235.377 23.4968 235.306 23.5876 235.217 23.6551Z" fill="black" stroke="black" stroke-width="3"/>
<rect x="0.25" y="17.2488" width="223.5" height="209.5" fill="#363636" stroke="#FFFDFD" stroke-width="0.5"/>
<path d="M32.4084 34.4363H29.9198C29.8743 34.1143 29.7815 33.8283 29.6414 33.5783C29.5012 33.3245 29.3213 33.1086 29.1016 32.9306C28.8819 32.7526 28.6281 32.6162 28.3402 32.5215C28.0561 32.4268 27.7474 32.3795 27.4141 32.3795C26.8118 32.3795 26.2872 32.5291 25.8402 32.8283C25.3933 33.1238 25.0467 33.5556 24.8005 34.1238C24.5542 34.6882 24.4311 35.3738 24.4311 36.1806C24.4311 37.0101 24.5542 37.7071 24.8005 38.2715C25.0505 38.8359 25.3989 39.262 25.8459 39.5499C26.2929 39.8378 26.8099 39.9817 27.397 39.9817C27.7266 39.9817 28.0315 39.9382 28.3118 39.8511C28.5959 39.7639 28.8478 39.637 29.0675 39.4704C29.2872 39.2999 29.469 39.0935 29.613 38.8511C29.7607 38.6086 29.863 38.3321 29.9198 38.0215L32.4084 38.0329C32.344 38.567 32.183 39.0821 31.9255 39.5783C31.6717 40.0707 31.3289 40.512 30.897 40.9022C30.469 41.2886 29.9577 41.5954 29.363 41.8226C28.772 42.0461 28.1035 42.1579 27.3573 42.1579C26.3194 42.1579 25.3914 41.923 24.5732 41.4533C23.7588 40.9836 23.1148 40.3037 22.6414 39.4136C22.1717 38.5234 21.9368 37.4457 21.9368 36.1806C21.9368 34.9117 22.1755 33.8321 22.6527 32.942C23.13 32.0518 23.7777 31.3738 24.5959 30.9079C25.4141 30.4382 26.3345 30.2033 27.3573 30.2033C28.0315 30.2033 28.6565 30.298 29.2323 30.4874C29.8118 30.6768 30.3251 30.9533 30.772 31.317C31.219 31.6768 31.5827 32.1181 31.863 32.6408C32.147 33.1636 32.3289 33.762 32.4084 34.4363ZM37.5903 42.1692C36.7078 42.1692 35.9445 41.9817 35.3006 41.6067C34.6604 41.2279 34.1661 40.7014 33.8176 40.0272C33.4691 39.3492 33.2949 38.5632 33.2949 37.6692C33.2949 36.7677 33.4691 35.9798 33.8176 35.3056C34.1661 34.6276 34.6604 34.1011 35.3006 33.7261C35.9445 33.3473 36.7078 33.1579 37.5903 33.1579C38.4729 33.1579 39.2343 33.3473 39.8744 33.7261C40.5184 34.1011 41.0146 34.6276 41.3631 35.3056C41.7116 35.9798 41.8858 36.7677 41.8858 37.6692C41.8858 38.5632 41.7116 39.3492 41.3631 40.0272C41.0146 40.7014 40.5184 41.2279 39.8744 41.6067C39.2343 41.9817 38.4729 42.1692 37.5903 42.1692ZM37.6017 40.2942C38.0032 40.2942 38.3384 40.1806 38.6074 39.9533C38.8763 39.7223 39.079 39.4079 39.2153 39.0101C39.3555 38.6124 39.4256 38.1598 39.4256 37.6522C39.4256 37.1446 39.3555 36.692 39.2153 36.2942C39.079 35.8965 38.8763 35.5821 38.6074 35.3511C38.3384 35.12 38.0032 35.0045 37.6017 35.0045C37.1964 35.0045 36.8555 35.12 36.579 35.3511C36.3063 35.5821 36.0998 35.8965 35.9597 36.2942C35.8233 36.692 35.7551 37.1446 35.7551 37.6522C35.7551 38.1598 35.8233 38.6124 35.9597 39.0101C36.0998 39.4079 36.3063 39.7223 36.579 39.9533C36.8555 40.1806 37.1964 40.2942 37.6017 40.2942ZM45.4001 30.3624V41.9988H42.9797V30.3624H45.4001ZM50.8022 42.1692C49.9196 42.1692 49.1564 41.9817 48.5124 41.6067C47.8723 41.2279 47.378 40.7014 47.0295 40.0272C46.681 39.3492 46.5068 38.5632 46.5068 37.6692C46.5068 36.7677 46.681 35.9798 47.0295 35.3056C47.378 34.6276 47.8723 34.1011 48.5124 33.7261C49.1564 33.3473 49.9196 33.1579 50.8022 33.1579C51.6848 33.1579 52.4462 33.3473 53.0863 33.7261C53.7302 34.1011 54.2265 34.6276 54.5749 35.3056C54.9234 35.9798 55.0977 36.7677 55.0977 37.6692C55.0977 38.5632 54.9234 39.3492 54.5749 40.0272C54.2265 40.7014 53.7302 41.2279 53.0863 41.6067C52.4462 41.9817 51.6848 42.1692 50.8022 42.1692ZM50.8136 40.2942C51.2151 40.2942 51.5503 40.1806 51.8193 39.9533C52.0882 39.7223 52.2909 39.4079 52.4272 39.0101C52.5674 38.6124 52.6374 38.1598 52.6374 37.6522C52.6374 37.1446 52.5674 36.692 52.4272 36.2942C52.2909 35.8965 52.0882 35.5821 51.8193 35.3511C51.5503 35.12 51.2151 35.0045 50.8136 35.0045C50.4083 35.0045 50.0674 35.12 49.7909 35.3511C49.5181 35.5821 49.3117 35.8965 49.1715 36.2942C49.0352 36.692 48.967 37.1446 48.967 37.6522C48.967 38.1598 49.0352 38.6124 49.1715 39.0101C49.3117 39.4079 49.5181 39.7223 49.7909 39.9533C50.0674 40.1806 50.4083 40.2942 50.8136 40.2942ZM56.1915 41.9988V33.2715H58.5381V34.7942H58.629C58.7881 34.2526 59.0552 33.8435 59.4302 33.567C59.8052 33.2867 60.237 33.1465 60.7256 33.1465C60.8468 33.1465 60.9775 33.1541 61.1177 33.1692C61.2578 33.1844 61.3809 33.2052 61.487 33.2317V35.3795C61.3734 35.3454 61.2162 35.3151 61.0154 35.2886C60.8146 35.262 60.6309 35.2488 60.4643 35.2488C60.1082 35.2488 59.79 35.3264 59.5097 35.4817C59.2332 35.6332 59.0135 35.8454 58.8506 36.1181C58.6915 36.3908 58.612 36.7052 58.612 37.0613V41.9988H56.1915ZM65.527 41.9988V30.3624H70.1179C71.0005 30.3624 71.7524 30.531 72.3736 30.8681C72.9948 31.2014 73.4683 31.6654 73.794 32.2601C74.1236 32.8511 74.2884 33.5329 74.2884 34.3056C74.2884 35.0783 74.1217 35.7601 73.7884 36.3511C73.455 36.942 72.9721 37.4022 72.3395 37.7317C71.7107 38.0613 70.9493 38.2261 70.0554 38.2261H67.1293V36.2545H69.6577C70.1312 36.2545 70.5213 36.173 70.8281 36.0101C71.1387 35.8435 71.3698 35.6143 71.5213 35.3226C71.6766 35.0272 71.7543 34.6882 71.7543 34.3056C71.7543 33.9192 71.6766 33.5821 71.5213 33.2942C71.3698 33.0026 71.1387 32.7772 70.8281 32.6181C70.5175 32.4552 70.1236 32.3738 69.6463 32.3738H67.9872V41.9988H65.527ZM77.6152 42.1636C77.0584 42.1636 76.5621 42.067 76.1265 41.8738C75.6909 41.6768 75.3462 41.387 75.0924 41.0045C74.8424 40.6181 74.7174 40.137 74.7174 39.5613C74.7174 39.0764 74.8065 38.6692 74.9845 38.3397C75.1625 38.0101 75.4049 37.745 75.7118 37.5442C76.0186 37.3435 76.3671 37.192 76.7572 37.0897C77.1512 36.9874 77.564 36.9154 77.9959 36.8738C78.5034 36.8207 78.9125 36.7715 79.2231 36.7261C79.5337 36.6768 79.7591 36.6048 79.8993 36.5101C80.0394 36.4154 80.1095 36.2753 80.1095 36.0897V36.0556C80.1095 35.6957 79.9959 35.4173 79.7686 35.2204C79.5451 35.0234 79.2269 34.9249 78.814 34.9249C78.3784 34.9249 78.0318 35.0215 77.7743 35.2147C77.5167 35.4041 77.3462 35.6427 77.2629 35.9306L75.0243 35.7488C75.1379 35.2185 75.3614 34.7601 75.6947 34.3738C76.028 33.9836 76.458 33.6844 76.9845 33.4761C77.5148 33.2639 78.1284 33.1579 78.8254 33.1579C79.3102 33.1579 79.7743 33.2147 80.2174 33.3283C80.6644 33.442 81.0602 33.6181 81.4049 33.8567C81.7534 34.0954 82.028 34.4022 82.2288 34.7772C82.4296 35.1484 82.5299 35.5935 82.5299 36.1124V41.9988H80.2345V40.7886H80.1663C80.0262 41.0613 79.8387 41.3018 79.6038 41.5101C79.369 41.7147 79.0868 41.8757 78.7572 41.9931C78.4277 42.1067 78.047 42.1636 77.6152 42.1636ZM78.3084 40.4931C78.6644 40.4931 78.9788 40.423 79.2515 40.2829C79.5243 40.1389 79.7383 39.9457 79.8936 39.7033C80.0489 39.4609 80.1265 39.1863 80.1265 38.8795V37.9533C80.0508 38.0026 79.9466 38.048 79.814 38.0897C79.6852 38.1276 79.5394 38.1636 79.3765 38.1976C79.2137 38.2279 79.0508 38.2564 78.8879 38.2829C78.725 38.3056 78.5773 38.3264 78.4447 38.3454C78.1606 38.387 77.9125 38.4533 77.7004 38.5442C77.4883 38.6351 77.3235 38.7582 77.2061 38.9136C77.0887 39.0651 77.0299 39.2545 77.0299 39.4817C77.0299 39.8113 77.1493 40.0632 77.3879 40.2374C77.6303 40.4079 77.9371 40.4931 78.3084 40.4931ZM86.3482 30.3624V41.9988H83.9278V30.3624H86.3482ZM91.7844 42.1692C90.8867 42.1692 90.114 41.9874 89.4662 41.6238C88.8223 41.2564 88.3261 40.7374 87.9776 40.067C87.6291 39.3927 87.4549 38.5954 87.4549 37.6749C87.4549 36.7772 87.6291 35.9893 87.9776 35.3113C88.3261 34.6332 88.8166 34.1048 89.4492 33.7261C90.0856 33.3473 90.8318 33.1579 91.6878 33.1579C92.2636 33.1579 92.7996 33.2507 93.2958 33.4363C93.7958 33.6181 94.2314 33.8927 94.6026 34.2601C94.9776 34.6276 95.2693 35.0897 95.4776 35.6465C95.6859 36.1995 95.7901 36.8473 95.7901 37.5897V38.2545H88.4208V36.7545H93.5117C93.5117 36.406 93.4359 36.0973 93.2844 35.8283C93.1329 35.5594 92.9227 35.3492 92.6537 35.1976C92.3886 35.0423 92.0799 34.9647 91.7276 34.9647C91.3602 34.9647 91.0344 35.0499 90.7503 35.2204C90.47 35.387 90.2503 35.6124 90.0912 35.8965C89.9322 36.1768 89.8507 36.4893 89.8469 36.834V38.2601C89.8469 38.692 89.9265 39.0651 90.0856 39.3795C90.2484 39.6939 90.4776 39.9363 90.7731 40.1067C91.0685 40.2772 91.4189 40.3624 91.8242 40.3624C92.0931 40.3624 92.3394 40.3245 92.5628 40.2488C92.7863 40.173 92.9776 40.0594 93.1367 39.9079C93.2958 39.7564 93.417 39.5707 93.5003 39.3511L95.739 39.4988C95.6253 40.0367 95.3924 40.5064 95.0401 40.9079C94.6916 41.3056 94.2409 41.6162 93.6878 41.8397C93.1386 42.0594 92.5041 42.1692 91.7844 42.1692ZM101.532 33.2715V35.0897H96.276V33.2715H101.532ZM97.4692 31.1806H99.8897V39.317C99.8897 39.5404 99.9238 39.7147 99.9919 39.8397C100.06 39.9609 100.155 40.0461 100.276 40.0954C100.401 40.1446 100.545 40.1692 100.708 40.1692C100.821 40.1692 100.935 40.1598 101.049 40.1408C101.162 40.1181 101.25 40.1011 101.31 40.0897L101.691 41.8908C101.57 41.9287 101.399 41.9723 101.179 42.0215C100.96 42.0745 100.693 42.1067 100.378 42.1181C99.795 42.1408 99.2836 42.0632 98.8442 41.8851C98.4086 41.7071 98.0696 41.4306 97.8272 41.0556C97.5847 40.6806 97.4654 40.2071 97.4692 39.6351V31.1806ZM107.27 33.2715V35.0897H102.015V33.2715H107.27ZM103.208 31.1806H105.628V39.317C105.628 39.5404 105.663 39.7147 105.731 39.8397C105.799 39.9609 105.894 40.0461 106.015 40.0954C106.14 40.1446 106.284 40.1692 106.447 40.1692C106.56 40.1692 106.674 40.1598 106.788 40.1408C106.901 40.1181 106.988 40.1011 107.049 40.0897L107.43 41.8908C107.308 41.9287 107.138 41.9723 106.918 42.0215C106.698 42.0745 106.431 42.1067 106.117 42.1181C105.534 42.1408 105.022 42.0632 104.583 41.8851C104.147 41.7071 103.808 41.4306 103.566 41.0556C103.323 40.6806 103.204 40.2071 103.208 39.6351V31.1806ZM112.251 42.1692C111.353 42.1692 110.58 41.9874 109.932 41.6238C109.289 41.2564 108.792 40.7374 108.444 40.067C108.095 39.3927 107.921 38.5954 107.921 37.6749C107.921 36.7772 108.095 35.9893 108.444 35.3113C108.792 34.6332 109.283 34.1048 109.915 33.7261C110.552 33.3473 111.298 33.1579 112.154 33.1579C112.73 33.1579 113.266 33.2507 113.762 33.4363C114.262 33.6181 114.698 33.8927 115.069 34.2601C115.444 34.6276 115.736 35.0897 115.944 35.6465C116.152 36.1995 116.256 36.8473 116.256 37.5897V38.2545H108.887V36.7545H113.978C113.978 36.406 113.902 36.0973 113.751 35.8283C113.599 35.5594 113.389 35.3492 113.12 35.1976C112.855 35.0423 112.546 34.9647 112.194 34.9647C111.826 34.9647 111.501 35.0499 111.217 35.2204C110.936 35.387 110.717 35.6124 110.557 35.8965C110.398 36.1768 110.317 36.4893 110.313 36.834V38.2601C110.313 38.692 110.393 39.0651 110.552 39.3795C110.715 39.6939 110.944 39.9363 111.239 40.1067C111.535 40.2772 111.885 40.3624 112.29 40.3624C112.559 40.3624 112.806 40.3245 113.029 40.2488C113.253 40.173 113.444 40.0594 113.603 39.9079C113.762 39.7564 113.883 39.5707 113.967 39.3511L116.205 39.4988C116.092 40.0367 115.859 40.5064 115.506 40.9079C115.158 41.3056 114.707 41.6162 114.154 41.8397C113.605 42.0594 112.97 42.1692 112.251 42.1692Z" fill="white"/>
<path d="M21 59.9988H46V83.9988H21V59.9988Z" fill="#90BE6D"/>
<path d="M65.3903 66.2033C65.8676 66.2071 66.3449 66.298 66.8222 66.4761C67.2994 66.6541 67.735 66.9495 68.129 67.3624C68.5229 67.7715 68.8392 68.3302 69.0778 69.0386C69.3165 69.7469 69.4358 70.6351 69.4358 71.7033C69.4358 72.7374 69.3373 73.656 69.1403 74.459C68.9472 75.2582 68.6669 75.9325 68.2994 76.4817C67.9358 77.031 67.4926 77.4476 66.9699 77.7317C66.4509 78.0158 65.8638 78.1579 65.2085 78.1579C64.557 78.1579 63.9756 78.0291 63.4642 77.7715C62.9566 77.5101 62.54 77.1484 62.2142 76.6863C61.8922 76.2204 61.6858 75.6806 61.5949 75.067H62.9813C63.1063 75.6011 63.3544 76.0423 63.7256 76.3908C64.1006 76.7355 64.5949 76.9079 65.2085 76.9079C66.1063 76.9079 66.8146 76.5158 67.3335 75.7317C67.8563 74.9476 68.1176 73.8397 68.1176 72.4079H68.0267C67.8146 72.7261 67.5627 73.0007 67.271 73.2317C66.9794 73.4628 66.6555 73.6408 66.2994 73.7658C65.9434 73.8908 65.5646 73.9533 65.1631 73.9533C64.4964 73.9533 63.8847 73.7886 63.3278 73.459C62.7748 73.1257 62.3316 72.6692 61.9983 72.0897C61.6688 71.5064 61.504 70.8397 61.504 70.0897C61.504 69.3776 61.6631 68.7261 61.9813 68.1351C62.3032 67.5404 62.754 67.067 63.3335 66.7147C63.9169 66.3624 64.6025 66.192 65.3903 66.2033ZM65.3903 67.4533C64.9131 67.4533 64.4831 67.5726 64.1006 67.8113C63.7218 68.0461 63.4206 68.3643 63.1972 68.7658C62.9775 69.1636 62.8676 69.6048 62.8676 70.0897C62.8676 70.5745 62.9737 71.0158 63.1858 71.4136C63.4017 71.8075 63.6953 72.1219 64.0665 72.3567C64.4415 72.5878 64.8676 72.7033 65.3449 72.7033C65.7047 72.7033 66.04 72.6332 66.3506 72.4931C66.6612 72.3492 66.932 72.1541 67.1631 71.9079C67.3979 71.6579 67.5816 71.3757 67.7142 71.0613C67.8468 70.7431 67.9131 70.4117 67.9131 70.067C67.9131 69.6124 67.8032 69.1863 67.5835 68.7886C67.3676 68.3908 67.0684 68.0689 66.6858 67.8226C66.307 67.5764 65.8752 67.4533 65.3903 67.4533ZM74.9856 78.1579C74.1296 78.1579 73.4004 77.9249 72.7981 77.459C72.1959 76.9893 71.7356 76.3094 71.4174 75.4192C71.0993 74.5253 70.9402 73.4457 70.9402 72.1806C70.9402 70.923 71.0993 69.8492 71.4174 68.959C71.7394 68.0651 72.2015 67.3832 72.8038 66.9136C73.4099 66.4401 74.1371 66.2033 74.9856 66.2033C75.8341 66.2033 76.5595 66.4401 77.1618 66.9136C77.7678 67.3832 78.2299 68.0651 78.5481 68.959C78.8701 69.8492 79.0311 70.923 79.0311 72.1806C79.0311 73.4457 78.872 74.5253 78.5538 75.4192C78.2356 76.3094 77.7754 76.9893 77.1731 77.459C76.5709 77.9249 75.8417 78.1579 74.9856 78.1579ZM74.9856 76.9079C75.8341 76.9079 76.4932 76.4988 76.9629 75.6806C77.4326 74.8624 77.6674 73.6957 77.6674 72.1806C77.6674 71.173 77.5595 70.3151 77.3436 69.6067C77.1315 68.8984 76.8246 68.3586 76.4231 67.9874C76.0254 67.6162 75.5462 67.4306 74.9856 67.4306C74.1447 67.4306 73.4875 67.8454 73.014 68.6749C72.5406 69.5007 72.3038 70.6692 72.3038 72.1806C72.3038 73.1882 72.4099 74.0442 72.622 74.7488C72.8341 75.4533 73.139 75.9893 73.5368 76.3567C73.9383 76.7242 74.4212 76.9079 74.9856 76.9079ZM80.9147 77.9988V66.3624H84.9829C85.7935 66.3624 86.4621 66.5026 86.9886 66.7829C87.5151 67.0594 87.9071 67.4325 88.1647 67.9022C88.4223 68.3681 88.5511 68.8851 88.5511 69.4533C88.5511 69.9533 88.4621 70.3662 88.284 70.692C88.1098 71.0177 87.8787 71.2753 87.5909 71.4647C87.3068 71.6541 86.9981 71.7942 86.6647 71.8851V71.9988C87.0208 72.0215 87.3787 72.1465 87.7386 72.3738C88.0984 72.6011 88.3996 72.9268 88.642 73.3511C88.8844 73.7753 89.0056 74.2942 89.0056 74.9079C89.0056 75.4912 88.8731 76.0158 88.6079 76.4817C88.3427 76.9476 87.9242 77.317 87.3522 77.5897C86.7802 77.8624 86.0359 77.9988 85.1193 77.9988H80.9147ZM82.3238 76.7488H85.1193C86.0397 76.7488 86.6931 76.5707 87.0795 76.2147C87.4696 75.8548 87.6647 75.4192 87.6647 74.9079C87.6647 74.5139 87.5643 74.1503 87.3636 73.817C87.1628 73.4798 86.8768 73.2109 86.5056 73.0101C86.1344 72.8056 85.695 72.7033 85.1874 72.7033H82.3238V76.7488ZM82.3238 71.4761H84.9374C85.3617 71.4761 85.7443 71.3927 86.0852 71.2261C86.4299 71.0594 86.7026 70.8245 86.9034 70.5215C87.1079 70.2185 87.2102 69.8624 87.2102 69.4533C87.2102 68.942 87.0321 68.5082 86.6761 68.1522C86.32 67.7923 85.7556 67.6124 84.9829 67.6124H82.3238V71.4761ZM90.841 77.9988V66.3624H97.8637V67.6124H92.2501V71.5442H97.5001V72.7942H92.2501V76.7488H97.9546V77.9988H90.841ZM103.583 78.1579C103.105 78.1503 102.628 78.0594 102.151 77.8851C101.673 77.7109 101.238 77.4173 100.844 77.0045C100.45 76.5878 100.134 76.0253 99.8951 75.317C99.6564 74.6048 99.5371 73.7109 99.5371 72.6351C99.5371 71.6048 99.6337 70.692 99.8269 69.8965C100.02 69.0973 100.3 68.4249 100.668 67.8795C101.035 67.3302 101.478 66.9136 101.997 66.6295C102.52 66.3454 103.109 66.2033 103.764 66.2033C104.416 66.2033 104.995 66.334 105.503 66.5954C106.014 66.8529 106.431 67.2128 106.753 67.6749C107.075 68.137 107.283 68.6692 107.378 69.2715H105.992C105.863 68.7488 105.613 68.3151 105.242 67.9704C104.87 67.6257 104.378 67.4533 103.764 67.4533C102.863 67.4533 102.153 67.8454 101.634 68.6295C101.119 69.4136 100.859 70.5139 100.855 71.9306H100.946C101.158 71.6086 101.41 71.334 101.702 71.1067C101.997 70.8757 102.323 70.6976 102.679 70.5726C103.035 70.4476 103.412 70.3851 103.81 70.3851C104.476 70.3851 105.086 70.5518 105.639 70.8851C106.192 71.2147 106.636 71.6711 106.969 72.2545C107.302 72.834 107.469 73.4988 107.469 74.2488C107.469 74.9685 107.308 75.6276 106.986 76.2261C106.664 76.8207 106.211 77.2942 105.628 77.6465C105.048 77.995 104.367 78.1654 103.583 78.1579ZM103.583 76.9079C104.06 76.9079 104.488 76.7886 104.867 76.5499C105.249 76.3113 105.55 75.9912 105.77 75.5897C105.994 75.1882 106.105 74.7412 106.105 74.2488C106.105 73.7677 105.997 73.3302 105.781 72.9363C105.569 72.5386 105.276 72.2223 104.901 71.9874C104.53 71.7526 104.105 71.6351 103.628 71.6351C103.268 71.6351 102.933 71.7071 102.622 71.8511C102.312 71.9912 102.039 72.1844 101.804 72.4306C101.573 72.6768 101.391 72.959 101.259 73.2772C101.126 73.5916 101.06 73.923 101.06 74.2715C101.06 74.7336 101.168 75.1654 101.384 75.567C101.603 75.9685 101.903 76.2923 102.281 76.5386C102.664 76.7848 103.098 76.9079 103.583 76.9079ZM113.019 77.9988H109.428V66.3624H113.178C114.307 66.3624 115.273 66.5954 116.076 67.0613C116.879 67.5234 117.494 68.1882 117.922 69.0556C118.35 69.9192 118.564 70.9533 118.564 72.1579C118.564 73.37 118.348 74.4136 117.916 75.2886C117.485 76.1598 116.856 76.8302 116.03 77.2999C115.204 77.7658 114.201 77.9988 113.019 77.9988ZM110.837 76.7488H112.928C113.89 76.7488 114.687 76.5632 115.32 76.192C115.952 75.8207 116.424 75.2923 116.735 74.6067C117.045 73.9211 117.201 73.1048 117.201 72.1579C117.201 71.2185 117.047 70.4098 116.74 69.7317C116.434 69.0499 115.975 68.5272 115.365 68.1636C114.755 67.7961 113.996 67.6124 113.087 67.6124H110.837V76.7488Z" fill="white"/>
<path d="M166.02 66.3624V77.9988H164.258V68.1238H164.19L161.406 69.942V68.2601L164.309 66.3624H166.02ZM172.739 78.192C171.841 78.1882 171.074 77.9514 170.437 77.4817C169.801 77.012 169.314 76.3283 168.977 75.4306C168.64 74.5329 168.472 73.4514 168.472 72.1863C168.472 70.9249 168.64 69.8473 168.977 68.9533C169.318 68.0594 169.807 67.3776 170.443 66.9079C171.083 66.4382 171.848 66.2033 172.739 66.2033C173.629 66.2033 174.392 66.4401 175.028 66.9136C175.665 67.3832 176.151 68.0651 176.489 68.959C176.829 69.8492 177 70.9249 177 72.1863C177 73.4552 176.831 74.5386 176.494 75.4363C176.157 76.3302 175.67 77.0139 175.034 77.4874C174.398 77.9571 173.633 78.192 172.739 78.192ZM172.739 76.6749C173.526 76.6749 174.142 76.2904 174.585 75.5215C175.032 74.7526 175.256 73.6408 175.256 72.1863C175.256 71.2204 175.153 70.4041 174.949 69.7374C174.748 69.067 174.458 68.5594 174.079 68.2147C173.704 67.8662 173.258 67.692 172.739 67.692C171.954 67.692 171.339 68.0783 170.892 68.8511C170.445 69.6238 170.22 70.7355 170.216 72.1863C170.216 73.156 170.316 73.9761 170.517 74.6465C170.722 75.3132 171.011 75.8189 171.386 76.1636C171.761 76.5045 172.212 76.6749 172.739 76.6749ZM182.587 78.192C181.689 78.1882 180.922 77.9514 180.286 77.4817C179.649 77.012 179.162 76.3283 178.825 75.4306C178.488 74.5329 178.32 73.4514 178.32 72.1863C178.32 70.9249 178.488 69.8473 178.825 68.9533C179.166 68.0594 179.655 67.3776 180.291 66.9079C180.931 66.4382 181.697 66.2033 182.587 66.2033C183.477 66.2033 184.24 66.4401 184.876 66.9136C185.513 67.3832 186 68.0651 186.337 68.959C186.678 69.8492 186.848 70.9249 186.848 72.1863C186.848 73.4552 186.68 74.5386 186.342 75.4363C186.005 76.3302 185.519 77.0139 184.882 77.4874C184.246 77.9571 183.481 78.192 182.587 78.192ZM182.587 76.6749C183.375 76.6749 183.99 76.2904 184.433 75.5215C184.88 74.7526 185.104 73.6408 185.104 72.1863C185.104 71.2204 185.001 70.4041 184.797 69.7374C184.596 69.067 184.306 68.5594 183.928 68.2147C183.553 67.8662 183.106 67.692 182.587 67.692C181.803 67.692 181.187 68.0783 180.74 68.8511C180.293 69.6238 180.068 70.7355 180.064 72.1863C180.064 73.156 180.164 73.9761 180.365 74.6465C180.57 75.3132 180.859 75.8189 181.234 76.1636C181.609 76.5045 182.06 76.6749 182.587 76.6749ZM194.458 75.817V75.2033C194.458 74.7639 194.548 74.3624 194.73 73.9988C194.916 73.6314 195.185 73.3378 195.537 73.1181C195.893 72.8946 196.323 72.7829 196.827 72.7829C197.342 72.7829 197.774 72.8927 198.122 73.1124C198.471 73.3321 198.734 73.6257 198.912 73.9931C199.094 74.3605 199.185 74.7639 199.185 75.2033V75.817C199.185 76.2564 199.094 76.6598 198.912 77.0272C198.73 77.3908 198.463 77.6844 198.111 77.9079C197.762 78.1276 197.334 78.2374 196.827 78.2374C196.316 78.2374 195.884 78.1276 195.531 77.9079C195.179 77.6844 194.912 77.3908 194.73 77.0272C194.548 76.6598 194.458 76.2564 194.458 75.817ZM195.781 75.2033V75.817C195.781 76.1427 195.859 76.4382 196.014 76.7033C196.17 76.9685 196.441 77.1011 196.827 77.1011C197.209 77.1011 197.476 76.9685 197.628 76.7033C197.78 76.4382 197.855 76.1427 197.855 75.817V75.2033C197.855 74.8776 197.781 74.5821 197.634 74.317C197.49 74.0518 197.221 73.9192 196.827 73.9192C196.448 73.9192 196.179 74.0518 196.02 74.317C195.861 74.5821 195.781 74.8776 195.781 75.2033ZM188.605 69.1579V68.5442C188.605 68.1048 188.696 67.7014 188.878 67.334C189.064 66.9666 189.333 66.673 189.685 66.4533C190.041 66.2336 190.471 66.1238 190.975 66.1238C191.49 66.1238 191.922 66.2336 192.27 66.4533C192.619 66.673 192.882 66.9666 193.06 67.334C193.238 67.7014 193.327 68.1048 193.327 68.5442V69.1579C193.327 69.5973 193.236 70.0007 193.054 70.3681C192.876 70.7317 192.611 71.0253 192.259 71.2488C191.91 71.4685 191.482 71.5783 190.975 71.5783C190.459 71.5783 190.026 71.4685 189.673 71.2488C189.325 71.0253 189.06 70.7317 188.878 70.3681C188.696 70.0007 188.605 69.5973 188.605 69.1579ZM189.935 68.5442V69.1579C189.935 69.4836 190.011 69.7791 190.162 70.0442C190.317 70.3094 190.588 70.442 190.975 70.442C191.353 70.442 191.619 70.3094 191.77 70.0442C191.925 69.7791 192.003 69.4836 192.003 69.1579V68.5442C192.003 68.2185 191.929 67.923 191.781 67.6579C191.634 67.3927 191.365 67.2601 190.975 67.2601C190.596 67.2601 190.327 67.3927 190.168 67.6579C190.012 67.923 189.935 68.2185 189.935 68.5442ZM189.145 77.9988L197.145 66.3624H198.503L190.503 77.9988H189.145Z" fill="white"/>
<path d="M21 99.9988H46V123.999H21V99.9988Z" fill="#7EB3D6"/>
<path d="M62.8776 117.999L68.0821 107.703V107.612H62.0821V106.362H69.5366V107.681L64.3548 117.999H62.8776ZM71.3791 117.999V106.362H78.4018V107.612H72.7882V111.544H78.0382V112.794H72.7882V116.749H78.4927V117.999H71.3791ZM80.4616 117.999V106.362H84.5298C85.3404 106.362 86.0089 106.503 86.5355 106.783C87.062 107.059 87.454 107.432 87.7116 107.902C87.9692 108.368 88.098 108.885 88.098 109.453C88.098 109.953 88.0089 110.366 87.8309 110.692C87.6567 111.018 87.4256 111.275 87.1377 111.465C86.8536 111.654 86.5449 111.794 86.2116 111.885V111.999C86.5677 112.022 86.9256 112.147 87.2855 112.374C87.6453 112.601 87.9464 112.927 88.1889 113.351C88.4313 113.775 88.5525 114.294 88.5525 114.908C88.5525 115.491 88.4199 116.016 88.1548 116.482C87.8896 116.948 87.4711 117.317 86.8991 117.59C86.3271 117.862 85.5828 117.999 84.6661 117.999H80.4616ZM81.8707 116.749H84.6661C85.5866 116.749 86.24 116.571 86.6264 116.215C87.0165 115.855 87.2116 115.419 87.2116 114.908C87.2116 114.514 87.1112 114.15 86.9105 113.817C86.7097 113.48 86.4237 113.211 86.0525 113.01C85.6813 112.806 85.2419 112.703 84.7343 112.703H81.8707V116.749ZM81.8707 111.476H84.4843C84.9086 111.476 85.2911 111.393 85.632 111.226C85.9767 111.059 86.2495 110.825 86.4502 110.522C86.6548 110.218 86.757 109.862 86.757 109.453C86.757 108.942 86.579 108.508 86.223 108.152C85.8669 107.792 85.3025 107.612 84.5298 107.612H81.8707V111.476ZM94.1151 118.158C93.3651 118.158 92.6966 118.029 92.1094 117.772C91.5261 117.514 91.0621 117.156 90.7174 116.698C90.3765 116.236 90.1909 115.7 90.1606 115.09H91.5924C91.6227 115.465 91.7515 115.789 91.9788 116.061C92.206 116.33 92.5034 116.539 92.8708 116.686C93.2382 116.834 93.6454 116.908 94.0924 116.908C94.5924 116.908 95.0356 116.821 95.4219 116.647C95.8083 116.472 96.1113 116.23 96.331 115.919C96.5507 115.609 96.6606 115.249 96.6606 114.84C96.6606 114.412 96.5545 114.035 96.3424 113.709C96.1303 113.379 95.8197 113.122 95.4106 112.936C95.0015 112.751 94.5015 112.658 93.9106 112.658H92.9788V111.408H93.9106C94.3727 111.408 94.778 111.325 95.1265 111.158C95.4788 110.991 95.7534 110.756 95.9503 110.453C96.1511 110.15 96.2515 109.794 96.2515 109.385C96.2515 108.991 96.1644 108.648 95.9901 108.357C95.8159 108.065 95.5697 107.838 95.2515 107.675C94.9371 107.512 94.5659 107.431 94.1378 107.431C93.7363 107.431 93.3575 107.504 93.0015 107.652C92.6492 107.796 92.3613 108.006 92.1378 108.283C91.9144 108.556 91.7931 108.885 91.7742 109.272H90.4106C90.4333 108.662 90.617 108.128 90.9617 107.669C91.3064 107.207 91.7572 106.847 92.314 106.59C92.8746 106.332 93.4901 106.203 94.1606 106.203C94.8803 106.203 95.4977 106.349 96.0128 106.641C96.528 106.929 96.9238 107.309 97.2003 107.783C97.4769 108.256 97.6151 108.768 97.6151 109.317C97.6151 109.972 97.4428 110.531 97.0981 110.993C96.7572 111.455 96.2931 111.775 95.706 111.953V112.044C96.4409 112.165 97.0147 112.478 97.4276 112.982C97.8405 113.482 98.0469 114.101 98.0469 114.84C98.0469 115.472 97.8746 116.04 97.5299 116.544C97.189 117.044 96.7231 117.438 96.1322 117.726C95.5413 118.014 94.8689 118.158 94.1151 118.158ZM103.686 117.999H100.095V106.362H103.845C104.974 106.362 105.94 106.595 106.743 107.061C107.546 107.523 108.162 108.188 108.59 109.056C109.018 109.919 109.232 110.953 109.232 112.158C109.232 113.37 109.016 114.414 108.584 115.289C108.152 116.16 107.523 116.83 106.698 117.3C105.872 117.766 104.868 117.999 103.686 117.999ZM101.504 116.749H103.595C104.557 116.749 105.355 116.563 105.987 116.192C106.62 115.821 107.092 115.292 107.402 114.607C107.713 113.921 107.868 113.105 107.868 112.158C107.868 111.218 107.715 110.41 107.408 109.732C107.101 109.05 106.643 108.527 106.033 108.164C105.423 107.796 104.664 107.612 103.754 107.612H101.504V116.749ZM114.774 118.158C114.297 118.15 113.82 118.059 113.343 117.885C112.865 117.711 112.43 117.417 112.036 117.004C111.642 116.588 111.326 116.025 111.087 115.317C110.848 114.605 110.729 113.711 110.729 112.635C110.729 111.605 110.826 110.692 111.019 109.897C111.212 109.097 111.492 108.425 111.86 107.879C112.227 107.33 112.67 106.914 113.189 106.629C113.712 106.345 114.301 106.203 114.956 106.203C115.608 106.203 116.187 106.334 116.695 106.595C117.206 106.853 117.623 107.213 117.945 107.675C118.267 108.137 118.475 108.669 118.57 109.272H117.184C117.055 108.749 116.805 108.315 116.434 107.97C116.062 107.626 115.57 107.453 114.956 107.453C114.055 107.453 113.345 107.845 112.826 108.629C112.31 109.414 112.051 110.514 112.047 111.931H112.138C112.35 111.609 112.602 111.334 112.894 111.107C113.189 110.876 113.515 110.698 113.871 110.573C114.227 110.448 114.604 110.385 115.002 110.385C115.668 110.385 116.278 110.552 116.831 110.885C117.384 111.215 117.827 111.671 118.161 112.254C118.494 112.834 118.661 113.499 118.661 114.249C118.661 114.968 118.5 115.628 118.178 116.226C117.856 116.821 117.403 117.294 116.82 117.647C116.24 117.995 115.559 118.165 114.774 118.158ZM114.774 116.908C115.252 116.908 115.68 116.789 116.059 116.55C116.441 116.311 116.742 115.991 116.962 115.59C117.185 115.188 117.297 114.741 117.297 114.249C117.297 113.768 117.189 113.33 116.973 112.936C116.761 112.539 116.468 112.222 116.093 111.987C115.721 111.753 115.297 111.635 114.82 111.635C114.46 111.635 114.125 111.707 113.814 111.851C113.504 111.991 113.231 112.184 112.996 112.431C112.765 112.677 112.583 112.959 112.451 113.277C112.318 113.592 112.252 113.923 112.252 114.272C112.252 114.734 112.36 115.165 112.576 115.567C112.795 115.968 113.095 116.292 113.473 116.539C113.856 116.785 114.29 116.908 114.774 116.908Z" fill="white"/>
<path d="M166.02 106.362V117.999H164.258V108.124H164.19L161.406 109.942V108.26L164.309 106.362H166.02ZM172.739 118.192C171.841 118.188 171.074 117.951 170.437 117.482C169.801 117.012 169.314 116.328 168.977 115.431C168.64 114.533 168.472 113.451 168.472 112.186C168.472 110.925 168.64 109.847 168.977 108.953C169.318 108.059 169.807 107.378 170.443 106.908C171.083 106.438 171.848 106.203 172.739 106.203C173.629 106.203 174.392 106.44 175.028 106.914C175.665 107.383 176.151 108.065 176.489 108.959C176.829 109.849 177 110.925 177 112.186C177 113.455 176.831 114.539 176.494 115.436C176.157 116.33 175.67 117.014 175.034 117.487C174.398 117.957 173.633 118.192 172.739 118.192ZM172.739 116.675C173.526 116.675 174.142 116.29 174.585 115.522C175.032 114.753 175.256 113.641 175.256 112.186C175.256 111.22 175.153 110.404 174.949 109.737C174.748 109.067 174.458 108.559 174.079 108.215C173.704 107.866 173.258 107.692 172.739 107.692C171.954 107.692 171.339 108.078 170.892 108.851C170.445 109.624 170.22 110.736 170.216 112.186C170.216 113.156 170.316 113.976 170.517 114.647C170.722 115.313 171.011 115.819 171.386 116.164C171.761 116.504 172.212 116.675 172.739 116.675ZM182.587 118.192C181.689 118.188 180.922 117.951 180.286 117.482C179.649 117.012 179.162 116.328 178.825 115.431C178.488 114.533 178.32 113.451 178.32 112.186C178.32 110.925 178.488 109.847 178.825 108.953C179.166 108.059 179.655 107.378 180.291 106.908C180.931 106.438 181.697 106.203 182.587 106.203C183.477 106.203 184.24 106.44 184.876 106.914C185.513 107.383 186 108.065 186.337 108.959C186.678 109.849 186.848 110.925 186.848 112.186C186.848 113.455 186.68 114.539 186.342 115.436C186.005 116.33 185.519 117.014 184.882 117.487C184.246 117.957 183.481 118.192 182.587 118.192ZM182.587 116.675C183.375 116.675 183.99 116.29 184.433 115.522C184.88 114.753 185.104 113.641 185.104 112.186C185.104 111.22 185.001 110.404 184.797 109.737C184.596 109.067 184.306 108.559 183.928 108.215C183.553 107.866 183.106 107.692 182.587 107.692C181.803 107.692 181.187 108.078 180.74 108.851C180.293 109.624 180.068 110.736 180.064 112.186C180.064 113.156 180.164 113.976 180.365 114.647C180.57 115.313 180.859 115.819 181.234 116.164C181.609 116.504 182.06 116.675 182.587 116.675ZM194.458 115.817V115.203C194.458 114.764 194.548 114.362 194.73 113.999C194.916 113.631 195.185 113.338 195.537 113.118C195.893 112.895 196.323 112.783 196.827 112.783C197.342 112.783 197.774 112.893 198.122 113.112C198.471 113.332 198.734 113.626 198.912 113.993C199.094 114.361 199.185 114.764 199.185 115.203V115.817C199.185 116.256 199.094 116.66 198.912 117.027C198.73 117.391 198.463 117.684 198.111 117.908C197.762 118.128 197.334 118.237 196.827 118.237C196.316 118.237 195.884 118.128 195.531 117.908C195.179 117.684 194.912 117.391 194.73 117.027C194.548 116.66 194.458 116.256 194.458 115.817ZM195.781 115.203V115.817C195.781 116.143 195.859 116.438 196.014 116.703C196.17 116.968 196.441 117.101 196.827 117.101C197.209 117.101 197.476 116.968 197.628 116.703C197.78 116.438 197.855 116.143 197.855 115.817V115.203C197.855 114.878 197.781 114.582 197.634 114.317C197.49 114.052 197.221 113.919 196.827 113.919C196.448 113.919 196.179 114.052 196.02 114.317C195.861 114.582 195.781 114.878 195.781 115.203ZM188.605 109.158V108.544C188.605 108.105 188.696 107.701 188.878 107.334C189.064 106.967 189.333 106.673 189.685 106.453C190.041 106.234 190.471 106.124 190.975 106.124C191.49 106.124 191.922 106.234 192.27 106.453C192.619 106.673 192.882 106.967 193.06 107.334C193.238 107.701 193.327 108.105 193.327 108.544V109.158C193.327 109.597 193.236 110.001 193.054 110.368C192.876 110.732 192.611 111.025 192.259 111.249C191.91 111.468 191.482 111.578 190.975 111.578C190.459 111.578 190.026 111.468 189.673 111.249C189.325 111.025 189.06 110.732 188.878 110.368C188.696 110.001 188.605 109.597 188.605 109.158ZM189.935 108.544V109.158C189.935 109.484 190.011 109.779 190.162 110.044C190.317 110.309 190.588 110.442 190.975 110.442C191.353 110.442 191.619 110.309 191.77 110.044C191.925 109.779 192.003 109.484 192.003 109.158V108.544C192.003 108.218 191.929 107.923 191.781 107.658C191.634 107.393 191.365 107.26 190.975 107.26C190.596 107.26 190.327 107.393 190.168 107.658C190.012 107.923 189.935 108.218 189.935 108.544ZM189.145 117.999L197.145 106.362H198.503L190.503 117.999H189.145Z" fill="white"/>
<path d="M21 139.999H46V163.999H21V139.999Z" fill="#F5F2D8"/>
<path d="M62.8278 157.999V146.362H69.8051V147.612H64.2369V151.544H69.2824V152.794H64.2369V157.999H62.8278ZM75.1703 158.158C74.5036 158.158 73.9032 158.025 73.3691 157.76C72.8351 157.495 72.407 157.131 72.0851 156.669C71.7631 156.207 71.587 155.681 71.5566 155.09H72.9203C72.9733 155.616 73.212 156.052 73.6362 156.397C74.0642 156.737 74.5756 156.908 75.1703 156.908C75.6476 156.908 76.0718 156.796 76.443 156.573C76.818 156.349 77.1116 156.042 77.3237 155.652C77.5396 155.258 77.6476 154.813 77.6476 154.317C77.6476 153.809 77.5358 153.357 77.3123 152.959C77.0926 152.557 76.7896 152.241 76.4032 152.01C76.0169 151.779 75.5756 151.662 75.0794 151.658C74.7233 151.654 74.3578 151.709 73.9828 151.823C73.6078 151.932 73.2991 152.075 73.0566 152.249L71.7385 152.09L72.443 146.362H78.4885V147.612H73.6248L73.2157 151.044H73.2839C73.5226 150.855 73.8218 150.698 74.1816 150.573C74.5415 150.448 74.9165 150.385 75.3066 150.385C76.0188 150.385 76.6532 150.556 77.2101 150.897C77.7707 151.234 78.2101 151.696 78.5282 152.283C78.8502 152.87 79.0112 153.54 79.0112 154.294C79.0112 155.037 78.8445 155.7 78.5112 156.283C78.1816 156.862 77.7271 157.321 77.1476 157.658C76.568 157.991 75.9089 158.158 75.1703 158.158ZM80.9928 157.999V146.362H87.9701V147.612H82.4019V151.544H87.4474V152.794H82.4019V157.999H80.9928ZM89.6989 157.999V156.976L93.5398 152.772C93.9906 152.279 94.3618 151.851 94.6535 151.487C94.9451 151.12 95.161 150.775 95.3012 150.453C95.4451 150.128 95.5171 149.787 95.5171 149.431C95.5171 149.022 95.4186 148.667 95.2216 148.368C95.0285 148.069 94.7633 147.838 94.4262 147.675C94.0891 147.512 93.7103 147.431 93.2898 147.431C92.8429 147.431 92.4527 147.523 92.1194 147.709C91.7898 147.891 91.5341 148.147 91.3523 148.476C91.1743 148.806 91.0853 149.192 91.0853 149.635H89.7444C89.7444 148.953 89.9016 148.355 90.216 147.84C90.5304 147.325 90.9584 146.923 91.5001 146.635C92.0455 146.347 92.6573 146.203 93.3353 146.203C94.0171 146.203 94.6213 146.347 95.1478 146.635C95.6743 146.923 96.0872 147.311 96.3864 147.8C96.6857 148.289 96.8353 148.832 96.8353 149.431C96.8353 149.859 96.7576 150.277 96.6023 150.686C96.4508 151.092 96.1857 151.544 95.8069 152.044C95.4319 152.54 94.911 153.147 94.2444 153.862L91.6307 156.658V156.749H97.0398V157.999H89.6989ZM102.702 157.999H99.111V146.362H102.861C103.99 146.362 104.956 146.595 105.759 147.061C106.562 147.523 107.177 148.188 107.605 149.056C108.033 149.919 108.247 150.953 108.247 152.158C108.247 153.37 108.031 154.414 107.6 155.289C107.168 156.16 106.539 156.83 105.713 157.3C104.887 157.766 103.884 157.999 102.702 157.999ZM100.52 156.749H102.611C103.573 156.749 104.37 156.563 105.003 156.192C105.636 155.821 106.107 155.292 106.418 154.607C106.728 153.921 106.884 153.105 106.884 152.158C106.884 151.218 106.73 150.41 106.423 149.732C106.117 149.05 105.658 148.527 105.048 148.164C104.439 147.796 103.679 147.612 102.77 147.612H100.52V156.749ZM113.654 158.158C112.873 158.158 112.184 158.02 111.586 157.743C110.991 157.463 110.527 157.078 110.193 156.59C109.86 156.097 109.695 155.537 109.699 154.908C109.695 154.415 109.792 153.961 109.989 153.544C110.186 153.124 110.455 152.773 110.796 152.493C111.14 152.209 111.525 152.029 111.949 151.953V151.885C111.392 151.741 110.949 151.429 110.62 150.948C110.29 150.463 110.127 149.912 110.131 149.294C110.127 148.703 110.277 148.175 110.58 147.709C110.883 147.243 111.3 146.876 111.83 146.607C112.364 146.338 112.972 146.203 113.654 146.203C114.328 146.203 114.93 146.338 115.461 146.607C115.991 146.876 116.407 147.243 116.711 147.709C117.017 148.175 117.173 148.703 117.176 149.294C117.173 149.912 117.004 150.463 116.671 150.948C116.341 151.429 115.904 151.741 115.358 151.885V151.953C115.779 152.029 116.157 152.209 116.495 152.493C116.832 152.773 117.101 153.124 117.301 153.544C117.502 153.961 117.604 154.415 117.608 154.908C117.604 155.537 117.434 156.097 117.097 156.59C116.764 157.078 116.3 157.463 115.705 157.743C115.114 158.02 114.43 158.158 113.654 158.158ZM113.654 156.908C114.18 156.908 114.635 156.823 115.017 156.652C115.4 156.482 115.695 156.241 115.904 155.931C116.112 155.62 116.218 155.256 116.222 154.84C116.218 154.4 116.104 154.012 115.881 153.675C115.657 153.338 115.353 153.073 114.966 152.879C114.584 152.686 114.146 152.59 113.654 152.59C113.157 152.59 112.714 152.686 112.324 152.879C111.938 153.073 111.633 153.338 111.409 153.675C111.19 154.012 111.082 154.4 111.086 154.84C111.082 155.256 111.182 155.62 111.387 155.931C111.595 156.241 111.892 156.482 112.279 156.652C112.665 156.823 113.123 156.908 113.654 156.908ZM113.654 151.385C114.07 151.385 114.44 151.302 114.762 151.135C115.087 150.968 115.343 150.736 115.529 150.436C115.714 150.137 115.809 149.787 115.813 149.385C115.809 148.991 115.716 148.648 115.534 148.357C115.353 148.061 115.101 147.834 114.779 147.675C114.457 147.512 114.082 147.431 113.654 147.431C113.218 147.431 112.837 147.512 112.512 147.675C112.186 147.834 111.934 148.061 111.756 148.357C111.578 148.648 111.491 148.991 111.495 149.385C111.491 149.787 111.58 150.137 111.762 150.436C111.947 150.736 112.203 150.968 112.529 151.135C112.854 151.302 113.229 151.385 113.654 151.385Z" fill="white"/>
<path d="M166.02 146.362V157.999H164.258V148.124H164.19L161.406 149.942V148.26L164.309 146.362H166.02ZM172.739 158.192C171.841 158.188 171.074 157.951 170.437 157.482C169.801 157.012 169.314 156.328 168.977 155.431C168.64 154.533 168.472 153.451 168.472 152.186C168.472 150.925 168.64 149.847 168.977 148.953C169.318 148.059 169.807 147.378 170.443 146.908C171.083 146.438 171.848 146.203 172.739 146.203C173.629 146.203 174.392 146.44 175.028 146.914C175.665 147.383 176.151 148.065 176.489 148.959C176.829 149.849 177 150.925 177 152.186C177 153.455 176.831 154.539 176.494 155.436C176.157 156.33 175.67 157.014 175.034 157.487C174.398 157.957 173.633 158.192 172.739 158.192ZM172.739 156.675C173.526 156.675 174.142 156.29 174.585 155.522C175.032 154.753 175.256 153.641 175.256 152.186C175.256 151.22 175.153 150.404 174.949 149.737C174.748 149.067 174.458 148.559 174.079 148.215C173.704 147.866 173.258 147.692 172.739 147.692C171.954 147.692 171.339 148.078 170.892 148.851C170.445 149.624 170.22 150.736 170.216 152.186C170.216 153.156 170.316 153.976 170.517 154.647C170.722 155.313 171.011 155.819 171.386 156.164C171.761 156.504 172.212 156.675 172.739 156.675ZM182.587 158.192C181.689 158.188 180.922 157.951 180.286 157.482C179.649 157.012 179.162 156.328 178.825 155.431C178.488 154.533 178.32 153.451 178.32 152.186C178.32 150.925 178.488 149.847 178.825 148.953C179.166 148.059 179.655 147.378 180.291 146.908C180.931 146.438 181.697 146.203 182.587 146.203C183.477 146.203 184.24 146.44 184.876 146.914C185.513 147.383 186 148.065 186.337 148.959C186.678 149.849 186.848 150.925 186.848 152.186C186.848 153.455 186.68 154.539 186.342 155.436C186.005 156.33 185.519 157.014 184.882 157.487C184.246 157.957 183.481 158.192 182.587 158.192ZM182.587 156.675C183.375 156.675 183.99 156.29 184.433 155.522C184.88 154.753 185.104 153.641 185.104 152.186C185.104 151.22 185.001 150.404 184.797 149.737C184.596 149.067 184.306 148.559 183.928 148.215C183.553 147.866 183.106 147.692 182.587 147.692C181.803 147.692 181.187 148.078 180.74 148.851C180.293 149.624 180.068 150.736 180.064 152.186C180.064 153.156 180.164 153.976 180.365 154.647C180.57 155.313 180.859 155.819 181.234 156.164C181.609 156.504 182.06 156.675 182.587 156.675ZM194.458 155.817V155.203C194.458 154.764 194.548 154.362 194.73 153.999C194.916 153.631 195.185 153.338 195.537 153.118C195.893 152.895 196.323 152.783 196.827 152.783C197.342 152.783 197.774 152.893 198.122 153.112C198.471 153.332 198.734 153.626 198.912 153.993C199.094 154.361 199.185 154.764 199.185 155.203V155.817C199.185 156.256 199.094 156.66 198.912 157.027C198.73 157.391 198.463 157.684 198.111 157.908C197.762 158.128 197.334 158.237 196.827 158.237C196.316 158.237 195.884 158.128 195.531 157.908C195.179 157.684 194.912 157.391 194.73 157.027C194.548 156.66 194.458 156.256 194.458 155.817ZM195.781 155.203V155.817C195.781 156.143 195.859 156.438 196.014 156.703C196.17 156.968 196.441 157.101 196.827 157.101C197.209 157.101 197.476 156.968 197.628 156.703C197.78 156.438 197.855 156.143 197.855 155.817V155.203C197.855 154.878 197.781 154.582 197.634 154.317C197.49 154.052 197.221 153.919 196.827 153.919C196.448 153.919 196.179 154.052 196.02 154.317C195.861 154.582 195.781 154.878 195.781 155.203ZM188.605 149.158V148.544C188.605 148.105 188.696 147.701 188.878 147.334C189.064 146.967 189.333 146.673 189.685 146.453C190.041 146.234 190.471 146.124 190.975 146.124C191.49 146.124 191.922 146.234 192.27 146.453C192.619 146.673 192.882 146.967 193.06 147.334C193.238 147.701 193.327 148.105 193.327 148.544V149.158C193.327 149.597 193.236 150.001 193.054 150.368C192.876 150.732 192.611 151.025 192.259 151.249C191.91 151.468 191.482 151.578 190.975 151.578C190.459 151.578 190.026 151.468 189.673 151.249C189.325 151.025 189.06 150.732 188.878 150.368C188.696 150.001 188.605 149.597 188.605 149.158ZM189.935 148.544V149.158C189.935 149.484 190.011 149.779 190.162 150.044C190.317 150.309 190.588 150.442 190.975 150.442C191.353 150.442 191.619 150.309 191.77 150.044C191.925 149.779 192.003 149.484 192.003 149.158V148.544C192.003 148.218 191.929 147.923 191.781 147.658C191.634 147.393 191.365 147.26 190.975 147.26C190.596 147.26 190.327 147.393 190.168 147.658C190.012 147.923 189.935 148.218 189.935 148.544ZM189.145 157.999L197.145 146.362H198.503L190.503 157.999H189.145Z" fill="white"/>
<path d="M21 179.999H46V203.999H21V179.999Z" fill="#151616"/>
<path d="M70.4876 186.362V197.999H69.0786V187.84H69.0104L66.1695 189.726V188.294L69.0786 186.362H70.4876ZM76.9906 198.158C76.3239 198.158 75.7236 198.025 75.1895 197.76C74.6554 197.495 74.2273 197.131 73.9054 196.669C73.5834 196.207 73.4073 195.681 73.377 195.09H74.7406C74.7936 195.616 75.0323 196.052 75.4565 196.397C75.8845 196.737 76.3959 196.908 76.9906 196.908C77.4679 196.908 77.8921 196.796 78.2633 196.573C78.6383 196.349 78.9319 196.042 79.144 195.652C79.3599 195.258 79.4679 194.813 79.4679 194.317C79.4679 193.809 79.3561 193.357 79.1326 192.959C78.9129 192.557 78.6099 192.241 78.2236 192.01C77.8372 191.779 77.3959 191.662 76.8997 191.658C76.5436 191.654 76.1781 191.709 75.8031 191.823C75.4281 191.932 75.1194 192.075 74.877 192.249L73.5588 192.09L74.2633 186.362H80.3088V187.612H75.4451L75.0361 191.044H75.1042C75.3429 190.855 75.6421 190.698 76.002 190.573C76.3618 190.448 76.7368 190.385 77.127 190.385C77.8391 190.385 78.4736 190.556 79.0304 190.897C79.591 191.234 80.0304 191.696 80.3486 192.283C80.6705 192.87 80.8315 193.54 80.8315 194.294C80.8315 195.037 80.6648 195.7 80.3315 196.283C80.002 196.862 79.5474 197.321 78.9679 197.658C78.3883 197.991 77.7292 198.158 76.9906 198.158ZM86.6995 186.362V197.999H85.2904V187.84H85.2222L82.3813 189.726V188.294L85.2904 186.362H86.6995ZM93.4297 198.158C92.9525 198.15 92.4752 198.059 91.9979 197.885C91.5207 197.711 91.085 197.417 90.6911 197.004C90.2972 196.588 89.9809 196.025 89.7422 195.317C89.5036 194.605 89.3843 193.711 89.3843 192.635C89.3843 191.605 89.4809 190.692 89.6741 189.897C89.8672 189.097 90.1475 188.425 90.515 187.879C90.8824 187.33 91.3256 186.914 91.8445 186.629C92.3672 186.345 92.9563 186.203 93.6116 186.203C94.2631 186.203 94.8426 186.334 95.3502 186.595C95.8616 186.853 96.2782 187.213 96.6002 187.675C96.9222 188.137 97.1305 188.669 97.2252 189.272H95.8388C95.71 188.749 95.46 188.315 95.0888 187.97C94.7176 187.626 94.2252 187.453 93.6116 187.453C92.71 187.453 91.9998 187.845 91.4809 188.629C90.9657 189.414 90.7063 190.514 90.7025 191.931H90.7934C91.0055 191.609 91.2574 191.334 91.5491 191.107C91.8445 190.876 92.1703 190.698 92.5263 190.573C92.8824 190.448 93.2593 190.385 93.657 190.385C94.3237 190.385 94.9335 190.552 95.4866 190.885C96.0396 191.215 96.4828 191.671 96.8161 192.254C97.1494 192.834 97.3161 193.499 97.3161 194.249C97.3161 194.968 97.1551 195.628 96.8332 196.226C96.5112 196.821 96.0585 197.294 95.4752 197.647C94.8957 197.995 94.2138 198.165 93.4297 198.158ZM93.4297 196.908C93.907 196.908 94.335 196.789 94.7138 196.55C95.0964 196.311 95.3975 195.991 95.6172 195.59C95.8407 195.188 95.9525 194.741 95.9525 194.249C95.9525 193.768 95.8445 193.33 95.6286 192.936C95.4165 192.539 95.1229 192.222 94.7479 191.987C94.3767 191.753 93.9525 191.635 93.4752 191.635C93.1154 191.635 92.7801 191.707 92.4695 191.851C92.1589 191.991 91.8862 192.184 91.6513 192.431C91.4203 192.677 91.2385 192.959 91.1059 193.277C90.9733 193.592 90.907 193.923 90.907 194.272C90.907 194.734 91.015 195.165 91.2309 195.567C91.4506 195.968 91.7498 196.292 92.1286 196.539C92.5112 196.785 92.9449 196.908 93.4297 196.908ZM103.161 186.362V197.999H101.752V187.84H101.684L98.8432 189.726V188.294L101.752 186.362H103.161ZM109.892 198.158C109.414 198.15 108.937 198.059 108.46 197.885C107.983 197.711 107.547 197.417 107.153 197.004C106.759 196.588 106.443 196.025 106.204 195.317C105.965 194.605 105.846 193.711 105.846 192.635C105.846 191.605 105.943 190.692 106.136 189.897C106.329 189.097 106.609 188.425 106.977 187.879C107.344 187.33 107.787 186.914 108.306 186.629C108.829 186.345 109.418 186.203 110.073 186.203C110.725 186.203 111.304 186.334 111.812 186.595C112.323 186.853 112.74 187.213 113.062 187.675C113.384 188.137 113.592 188.669 113.687 189.272H112.301C112.172 188.749 111.922 188.315 111.551 187.97C111.179 187.626 110.687 187.453 110.073 187.453C109.172 187.453 108.462 187.845 107.943 188.629C107.428 189.414 107.168 190.514 107.164 191.931H107.255C107.467 191.609 107.719 191.334 108.011 191.107C108.306 190.876 108.632 190.698 108.988 190.573C109.344 190.448 109.721 190.385 110.119 190.385C110.786 190.385 111.395 190.552 111.948 190.885C112.501 191.215 112.945 191.671 113.278 192.254C113.611 192.834 113.778 193.499 113.778 194.249C113.778 194.968 113.617 195.628 113.295 196.226C112.973 196.821 112.52 197.294 111.937 197.647C111.358 197.995 110.676 198.165 109.892 198.158ZM109.892 196.908C110.369 196.908 110.797 196.789 111.176 196.55C111.558 196.311 111.859 195.991 112.079 195.59C112.303 195.188 112.414 194.741 112.414 194.249C112.414 193.768 112.306 193.33 112.09 192.936C111.878 192.539 111.585 192.222 111.21 191.987C110.839 191.753 110.414 191.635 109.937 191.635C109.577 191.635 109.242 191.707 108.931 191.851C108.621 191.991 108.348 192.184 108.113 192.431C107.882 192.677 107.7 192.959 107.568 193.277C107.435 193.592 107.369 193.923 107.369 194.272C107.369 194.734 107.477 195.165 107.693 195.567C107.912 195.968 108.212 196.292 108.59 196.539C108.973 196.785 109.407 196.908 109.892 196.908Z" fill="white"/>
<path d="M166.02 186.362V197.999H164.258V188.124H164.19L161.406 189.942V188.26L164.309 186.362H166.02ZM172.739 198.192C171.841 198.188 171.074 197.951 170.437 197.482C169.801 197.012 169.314 196.328 168.977 195.431C168.64 194.533 168.472 193.451 168.472 192.186C168.472 190.925 168.64 189.847 168.977 188.953C169.318 188.059 169.807 187.378 170.443 186.908C171.083 186.438 171.848 186.203 172.739 186.203C173.629 186.203 174.392 186.44 175.028 186.914C175.665 187.383 176.151 188.065 176.489 188.959C176.829 189.849 177 190.925 177 192.186C177 193.455 176.831 194.539 176.494 195.436C176.157 196.33 175.67 197.014 175.034 197.487C174.398 197.957 173.633 198.192 172.739 198.192ZM172.739 196.675C173.526 196.675 174.142 196.29 174.585 195.522C175.032 194.753 175.256 193.641 175.256 192.186C175.256 191.22 175.153 190.404 174.949 189.737C174.748 189.067 174.458 188.559 174.079 188.215C173.704 187.866 173.258 187.692 172.739 187.692C171.954 187.692 171.339 188.078 170.892 188.851C170.445 189.624 170.22 190.736 170.216 192.186C170.216 193.156 170.316 193.976 170.517 194.647C170.722 195.313 171.011 195.819 171.386 196.164C171.761 196.504 172.212 196.675 172.739 196.675ZM182.587 198.192C181.689 198.188 180.922 197.951 180.286 197.482C179.649 197.012 179.162 196.328 178.825 195.431C178.488 194.533 178.32 193.451 178.32 192.186C178.32 190.925 178.488 189.847 178.825 188.953C179.166 188.059 179.655 187.378 180.291 186.908C180.931 186.438 181.697 186.203 182.587 186.203C183.477 186.203 184.24 186.44 184.876 186.914C185.513 187.383 186 188.065 186.337 188.959C186.678 189.849 186.848 190.925 186.848 192.186C186.848 193.455 186.68 194.539 186.342 195.436C186.005 196.33 185.519 197.014 184.882 197.487C184.246 197.957 183.481 198.192 182.587 198.192ZM182.587 196.675C183.375 196.675 183.99 196.29 184.433 195.522C184.88 194.753 185.104 193.641 185.104 192.186C185.104 191.22 185.001 190.404 184.797 189.737C184.596 189.067 184.306 188.559 183.928 188.215C183.553 187.866 183.106 187.692 182.587 187.692C181.803 187.692 181.187 188.078 180.74 188.851C180.293 189.624 180.068 190.736 180.064 192.186C180.064 193.156 180.164 193.976 180.365 194.647C180.57 195.313 180.859 195.819 181.234 196.164C181.609 196.504 182.06 196.675 182.587 196.675ZM194.458 195.817V195.203C194.458 194.764 194.548 194.362 194.73 193.999C194.916 193.631 195.185 193.338 195.537 193.118C195.893 192.895 196.323 192.783 196.827 192.783C197.342 192.783 197.774 192.893 198.122 193.112C198.471 193.332 198.734 193.626 198.912 193.993C199.094 194.361 199.185 194.764 199.185 195.203V195.817C199.185 196.256 199.094 196.66 198.912 197.027C198.73 197.391 198.463 197.684 198.111 197.908C197.762 198.128 197.334 198.237 196.827 198.237C196.316 198.237 195.884 198.128 195.531 197.908C195.179 197.684 194.912 197.391 194.73 197.027C194.548 196.66 194.458 196.256 194.458 195.817ZM195.781 195.203V195.817C195.781 196.143 195.859 196.438 196.014 196.703C196.17 196.968 196.441 197.101 196.827 197.101C197.209 197.101 197.476 196.968 197.628 196.703C197.78 196.438 197.855 196.143 197.855 195.817V195.203C197.855 194.878 197.781 194.582 197.634 194.317C197.49 194.052 197.221 193.919 196.827 193.919C196.448 193.919 196.179 194.052 196.02 194.317C195.861 194.582 195.781 194.878 195.781 195.203ZM188.605 189.158V188.544C188.605 188.105 188.696 187.701 188.878 187.334C189.064 186.967 189.333 186.673 189.685 186.453C190.041 186.234 190.471 186.124 190.975 186.124C191.49 186.124 191.922 186.234 192.27 186.453C192.619 186.673 192.882 186.967 193.06 187.334C193.238 187.701 193.327 188.105 193.327 188.544V189.158C193.327 189.597 193.236 190.001 193.054 190.368C192.876 190.732 192.611 191.025 192.259 191.249C191.91 191.468 191.482 191.578 190.975 191.578C190.459 191.578 190.026 191.468 189.673 191.249C189.325 191.025 189.06 190.732 188.878 190.368C188.696 190.001 188.605 189.597 188.605 189.158ZM189.935 188.544V189.158C189.935 189.484 190.011 189.779 190.162 190.044C190.317 190.309 190.588 190.442 190.975 190.442C191.353 190.442 191.619 190.309 191.77 190.044C191.925 189.779 192.003 189.484 192.003 189.158V188.544C192.003 188.218 191.929 187.923 191.781 187.658C191.634 187.393 191.365 187.26 190.975 187.26C190.596 187.26 190.327 187.393 190.168 187.658C190.012 187.923 189.935 188.218 189.935 188.544ZM189.145 197.999L197.145 186.362H198.503L190.503 197.999H189.145Z" fill="white"/>
</svg>
