<svg width="38" height="55" viewBox="0 0 38 55" fill="none" xmlns="http://www.w3.org/2000/svg">
<g filter="url(#filter0_d_595_1065)">
<path d="M24.8585 41.4227C25.6252 42.2178 26.8913 42.2409 27.6864 41.4743L29.6532 39.5779C30.4478 38.8119 30.4715 37.5469 29.7063 36.7516L17.3026 23.8589C16.5379 23.0641 16.561 21.8003 17.3541 21.034L30.2197 8.60216C31.0134 7.8352 31.0358 6.57026 30.2697 5.77571L28.3734 3.80895C27.6067 3.01378 26.3406 2.99069 25.5454 3.75737L7.80908 20.8584C7.01391 21.625 6.99082 22.8912 7.7575 23.6863L24.8585 41.4227Z" fill="black"/>
<path d="M30.7873 35.7116L29.7063 36.7516L30.7873 35.7116L18.3835 22.8189C18.1924 22.6202 18.1981 22.3043 18.3964 22.1127L31.262 9.68085C32.651 8.33868 32.6902 6.12503 31.3495 4.73457L29.4532 2.7678C28.1115 1.37627 25.8958 1.33586 24.5043 2.67755L6.76793 19.7785C5.3764 21.1202 5.33599 23.3359 6.67767 24.7275L23.7787 42.4638L24.8585 41.4227L23.7787 42.4638C25.1203 43.8553 27.3361 43.8958 28.7276 42.5541L30.6944 40.6578C32.0848 39.3171 32.1264 37.1035 30.7873 35.7116Z" stroke="black" stroke-width="3"/>
</g>
<defs>
<filter id="filter0_d_595_1065" x="0.197266" y="0.197021" width="37.6326" height="53.8374" filterUnits="userSpaceOnUse" color-interpolation-filters="sRGB">
<feFlood flood-opacity="0" result="BackgroundImageFix"/>
<feColorMatrix in="SourceAlpha" type="matrix" values="0 0 0 0 0 0 0 0 0 0 0 0 0 0 0 0 0 0 127 0" result="hardAlpha"/>
<feOffset dy="5"/>
<feGaussianBlur stdDeviation="2"/>
<feComposite in2="hardAlpha" operator="out"/>
<feColorMatrix type="matrix" values="0 0 0 0 0 0 0 0 0 0 0 0 0 0 0 0 0 0 0.25 0"/>
<feBlend mode="normal" in2="BackgroundImageFix" result="effect1_dropShadow_595_1065"/>
<feBlend mode="normal" in="SourceGraphic" in2="effect1_dropShadow_595_1065" result="shape"/>
</filter>
</defs>
</svg>
