<svg width="52" height="48" viewBox="0 0 52 48" fill="none" xmlns="http://www.w3.org/2000/svg">
<g clip-path="url(#clip0_61_12)">
<path d="M8.66669 29C9.52864 29 10.3553 29.3161 10.9648 29.8787C11.5743 30.4413 11.9167 31.2044 11.9167 32V37H19.5C20.362 37 21.1886 37.3161 21.7981 37.8787C22.4076 38.4413 22.75 39.2043 22.75 40C22.75 40.7957 22.4076 41.5587 21.7981 42.1213C21.1886 42.6839 20.362 43 19.5 43H10.8334C9.39676 43 8.01901 42.4732 7.00319 41.5355C5.98737 40.5979 5.41669 39.3261 5.41669 38V32C5.41669 31.2044 5.7591 30.4413 6.36859 29.8787C6.97808 29.3161 7.80473 29 8.66669 29ZM43.3334 29C44.1413 29 44.9202 29.2778 45.5183 29.7792C46.1163 30.2806 46.4906 30.9697 46.5682 31.712L46.5834 32V38C46.5836 39.2694 46.0607 40.4914 45.1208 41.4181C44.1809 42.3448 42.8943 42.9067 41.522 42.99L41.1667 43H32.5C31.6654 42.9996 30.8629 42.7028 30.2589 42.1712C29.6548 41.6395 29.2955 40.9137 29.2554 40.1442C29.2153 39.3746 29.4974 38.6203 30.0434 38.0376C30.5894 37.4549 31.3573 37.0883 32.188 37.014L32.5 37H40.0834V32C40.0834 31.2044 40.4258 30.4413 41.0353 29.8787C41.6448 29.3161 42.4714 29 43.3334 29ZM43.3334 21C44.168 21.0004 44.9705 21.2972 45.5745 21.8288C46.1786 22.3605 46.5379 23.0863 46.578 23.8558C46.6181 24.6254 46.3359 25.3797 45.79 25.9624C45.244 26.5451 44.4761 26.9117 43.6454 26.986L43.3334 27H8.66669C7.83205 26.9996 7.02957 26.7028 6.42552 26.1712C5.82147 25.6395 5.46216 24.9137 5.42205 24.1442C5.38194 23.3746 5.6641 22.6203 6.21007 22.0376C6.75603 21.4549 7.52395 21.0883 8.35469 21.014L8.66669 21H43.3334ZM19.5 5C20.3347 5.00038 21.1371 5.29715 21.7412 5.82882C22.3452 6.36048 22.7045 7.08629 22.7447 7.85583C22.7848 8.62537 22.5026 9.37966 21.9566 9.9624C21.4107 10.5451 20.6428 10.9117 19.812 10.986L19.5 11H11.9167V16C11.9163 16.7704 11.5948 17.5112 11.0188 18.0688C10.4428 18.6264 9.65654 18.958 8.82287 18.995C7.9892 19.0321 7.17205 18.7716 6.54075 18.2676C5.90945 17.7637 5.51239 17.0548 5.43185 16.288L5.41669 16V10C5.41648 8.73056 5.93936 7.50858 6.87927 6.58191C7.81919 5.65524 9.10576 5.09328 10.478 5.01L10.8334 5H19.5ZM41.1667 5C42.5419 4.9998 43.8657 5.48247 44.8696 6.35008C45.8735 7.21769 46.4823 8.4053 46.5725 9.672L46.5834 10V16C46.5829 16.7704 46.2614 17.5112 45.6855 18.0688C45.1095 18.6264 44.3232 18.958 43.4895 18.995C42.6559 19.0321 41.8387 18.7716 41.2074 18.2676C40.5761 17.7637 40.1791 17.0548 40.0985 16.288L40.0834 16V11H32.5C31.6654 10.9996 30.8629 10.7028 30.2589 10.1712C29.6548 9.63952 29.2955 8.91371 29.2554 8.14417C29.2153 7.37463 29.4974 6.62034 30.0434 6.0376C30.5894 5.45486 31.3573 5.08834 32.188 5.014L32.5 5H41.1667Z" fill="black"/>
</g>
<defs>
<clipPath id="clip0_61_12">
<rect width="52" height="48" fill="white"/>
</clipPath>
</defs>
</svg>
