<svg width="294" height="30" viewBox="0 0 294 30" fill="none" xmlns="http://www.w3.org/2000/svg">
<g filter="url(#filter0_b_819_49)">
<g clip-path="url(#clip0_819_49)">
<path d="M25.608 10.76V9.432H28.616V21H27.144V10.76H25.608ZM30.941 19.832C32.2957 18.744 33.357 17.8533 34.125 17.16C34.893 16.456 35.5383 15.7253 36.061 14.968C36.5943 14.2 36.861 13.448 36.861 12.712C36.861 12.0187 36.6903 11.4747 36.349 11.08C36.0183 10.6747 35.4797 10.472 34.733 10.472C34.0077 10.472 33.4423 10.7013 33.037 11.16C32.6423 11.608 32.429 12.2107 32.397 12.968H30.989C31.0317 11.7733 31.3943 10.8507 32.077 10.2C32.7597 9.54933 33.6397 9.224 34.717 9.224C35.8157 9.224 36.685 9.528 37.325 10.136C37.9757 10.744 38.301 11.5813 38.301 12.648C38.301 13.5333 38.0343 14.3973 37.501 15.24C36.9783 16.072 36.381 16.808 35.709 17.448C35.037 18.0773 34.1783 18.8133 33.133 19.656H38.637V20.872H30.941V19.832ZM41.0241 21.096C40.7468 21.096 40.5121 21 40.3201 20.808C40.1281 20.616 40.0321 20.3813 40.0321 20.104C40.0321 19.8267 40.1281 19.592 40.3201 19.4C40.5121 19.208 40.7468 19.112 41.0241 19.112C41.2908 19.112 41.5148 19.208 41.6961 19.4C41.8881 19.592 41.9841 19.8267 41.9841 20.104C41.9841 20.3813 41.8881 20.616 41.6961 20.808C41.5148 21 41.2908 21.096 41.0241 21.096ZM41.0241 14.248C40.7468 14.248 40.5121 14.152 40.3201 13.96C40.1281 13.768 40.0321 13.5333 40.0321 13.256C40.0321 12.9787 40.1281 12.744 40.3201 12.552C40.5121 12.36 40.7468 12.264 41.0241 12.264C41.2908 12.264 41.5148 12.36 41.6961 12.552C41.8881 12.744 41.9841 12.9787 41.9841 13.256C41.9841 13.5333 41.8881 13.768 41.6961 13.96C41.5148 14.152 41.2908 14.248 41.0241 14.248ZM43.7264 15.096C43.7264 13.2613 44.025 11.832 44.6224 10.808C45.2197 9.77333 46.265 9.256 47.7584 9.256C49.241 9.256 50.281 9.77333 50.8784 10.808C51.4757 11.832 51.7744 13.2613 51.7744 15.096C51.7744 16.9627 51.4757 18.4133 50.8784 19.448C50.281 20.4827 49.241 21 47.7584 21C46.265 21 45.2197 20.4827 44.6224 19.448C44.025 18.4133 43.7264 16.9627 43.7264 15.096ZM50.3344 15.096C50.3344 14.168 50.2704 13.384 50.1424 12.744C50.025 12.0933 49.7744 11.5707 49.3904 11.176C49.017 10.7813 48.473 10.584 47.7584 10.584C47.033 10.584 46.4784 10.7813 46.0944 11.176C45.721 11.5707 45.4704 12.0933 45.3424 12.744C45.225 13.384 45.1664 14.168 45.1664 15.096C45.1664 16.056 45.225 16.8613 45.3424 17.512C45.4704 18.1627 45.721 18.6853 46.0944 19.08C46.4784 19.4747 47.033 19.672 47.7584 19.672C48.473 19.672 49.017 19.4747 49.3904 19.08C49.7744 18.6853 50.025 18.1627 50.1424 17.512C50.2704 16.8613 50.3344 16.056 50.3344 15.096ZM53.7733 15.096C53.7733 13.2613 54.0719 11.832 54.6693 10.808C55.2666 9.77333 56.3119 9.256 57.8053 9.256C59.2879 9.256 60.3279 9.77333 60.9253 10.808C61.5226 11.832 61.8212 13.2613 61.8212 15.096C61.8212 16.9627 61.5226 18.4133 60.9253 19.448C60.3279 20.4827 59.2879 21 57.8053 21C56.3119 21 55.2666 20.4827 54.6693 19.448C54.0719 18.4133 53.7733 16.9627 53.7733 15.096ZM60.3813 15.096C60.3813 14.168 60.3173 13.384 60.1893 12.744C60.0719 12.0933 59.8213 11.5707 59.4373 11.176C59.0639 10.7813 58.5199 10.584 57.8053 10.584C57.0799 10.584 56.5253 10.7813 56.1413 11.176C55.7679 11.5707 55.5173 12.0933 55.3893 12.744C55.2719 13.384 55.2133 14.168 55.2133 15.096C55.2133 16.056 55.2719 16.8613 55.3893 17.512C55.5173 18.1627 55.7679 18.6853 56.1413 19.08C56.5253 19.4747 57.0799 19.672 57.8053 19.672C58.5199 19.672 59.0639 19.4747 59.4373 19.08C59.8213 18.6853 60.0719 18.1627 60.1893 17.512C60.3173 16.8613 60.3813 16.056 60.3813 15.096Z" fill="black"/>
</g>
<path d="M222.271 20.9931H223.982C224.419 20.9931 224.714 20.6891 224.714 20.2401V9.75302C224.714 9.30397 224.419 9 223.982 9H222.271C221.834 9 221.531 9.30397 221.531 9.75302V20.2401C221.531 20.6891 221.834 20.9931 222.271 20.9931Z" fill="black"/>
<path d="M217.003 20.9932H218.7C219.137 20.9932 219.44 20.6892 219.44 20.2402V12.482C219.44 12.033 219.137 11.729 218.7 11.729H217.003C216.559 11.729 216.264 12.033 216.264 12.482V20.2402C216.264 20.6892 216.559 20.9932 217.003 20.9932Z" fill="black"/>
<path d="M211.728 20.9929H213.426C213.869 20.9929 214.165 20.6889 214.165 20.2399V14.9825C214.165 14.5335 213.869 14.2295 213.426 14.2295H211.728C211.285 14.2295 210.989 14.5335 210.989 14.9825V20.2399C210.989 20.6889 211.285 20.9929 211.728 20.9929Z" fill="black"/>
<path d="M206.454 20.9931H208.151C208.595 20.9931 208.89 20.6891 208.89 20.2401V17.1382C208.89 16.6891 208.595 16.3921 208.151 16.3921H206.454C206.01 16.3921 205.714 16.6891 205.714 17.1382V20.2401C205.714 20.6891 206.01 20.9931 206.454 20.9931Z" fill="black"/>
<path d="M230.783 14.0584C230.925 14.1955 231.123 14.1955 231.257 14.0512C232.997 12.1679 235.289 11.1721 237.856 11.1721C240.437 11.1721 242.743 12.1751 244.469 14.0584C244.596 14.1883 244.787 14.1811 244.928 14.044L245.904 13.0482C246.032 12.9183 246.025 12.7596 245.926 12.6369C244.264 10.5443 241.138 9.00732 237.856 9.00732C234.581 9.00732 231.441 10.5443 229.786 12.6369C229.687 12.7596 229.687 12.9183 229.807 13.0482L230.783 14.0584Z" fill="black"/>
<path d="M233.718 17.0743C233.874 17.2259 234.065 17.2042 234.206 17.0455C235.055 16.0858 236.441 15.3859 237.856 15.3931C239.284 15.3859 240.671 16.1074 241.533 17.0672C241.661 17.2187 241.838 17.2115 241.993 17.0672L243.089 15.9559C243.203 15.8405 243.217 15.6817 243.111 15.5518C242.043 14.2169 240.062 13.2139 237.856 13.2139C235.649 13.2139 233.669 14.2169 232.601 15.5518C232.495 15.6817 232.502 15.826 232.622 15.9559L233.718 17.0743Z" fill="black"/>
<path d="M237.856 21.0002C238.011 21.0002 238.146 20.9281 238.422 20.6539L240.147 18.9653C240.253 18.8571 240.282 18.6983 240.183 18.5684C239.723 17.9623 238.853 17.4355 237.856 17.4355C236.83 17.4355 235.96 17.984 235.501 18.6117C235.43 18.7272 235.458 18.8571 235.571 18.9653L237.29 20.6539C237.566 20.9208 237.7 21.0002 237.856 21.0002Z" fill="black"/>
<path d="M255.142 21H267.356C268.685 21 269.804 20.8581 270.597 19.9534C271.389 19.0488 271.506 17.7894 271.506 16.2727V13.7273C271.506 12.2106 271.389 10.9512 270.597 10.0466C269.804 9.14191 268.685 9 267.356 9H255.126C253.821 9 252.702 9.14191 251.909 10.0466C251.117 10.9512 251 12.2195 251 13.7007V16.2727C251 17.7894 251.117 19.0488 251.909 19.9534C252.702 20.8581 253.821 21 255.142 21ZM254.932 19.572C254.131 19.572 253.292 19.4479 252.818 18.9158C252.352 18.3748 252.251 17.4257 252.251 16.5122V13.5055C252.251 12.5743 252.352 11.6253 252.818 11.0843C253.292 10.5432 254.139 10.4279 254.955 10.4279H267.574C268.374 10.4279 269.214 10.5521 269.68 11.0843C270.154 11.6253 270.255 12.5654 270.255 13.4789V16.5122C270.255 17.4257 270.154 18.3748 269.68 18.9158C269.214 19.4479 268.374 19.572 267.574 19.572H254.932ZM272.563 17.2927C273.176 17.2483 274 16.3525 274 14.9956C274 13.6475 273.176 12.7517 272.563 12.7073V17.2927Z" fill="black"/>
<path d="M254.52 18.543H267.986C268.522 18.543 268.833 18.4544 269.05 18.206C269.26 17.9576 269.346 17.6029 269.346 16.9909V13.0086C269.346 12.3967 269.26 12.0419 269.05 11.7936C268.833 11.5452 268.514 11.4565 267.986 11.4565H254.543C253.984 11.4565 253.665 11.5452 253.455 11.7936C253.238 12.0419 253.16 12.4055 253.16 13.0264V16.9909C253.16 17.6029 253.238 17.9576 253.455 18.206C253.673 18.4544 253.992 18.543 254.52 18.543Z" fill="black"/>
</g>
<defs>
<filter id="filter0_b_819_49" x="-63" y="-56" width="413" height="142" filterUnits="userSpaceOnUse" color-interpolation-filters="sRGB">
<feFlood flood-opacity="0" result="BackgroundImageFix"/>
<feGaussianBlur in="BackgroundImageFix" stdDeviation="28"/>
<feComposite in2="SourceAlpha" operator="in" result="effect1_backgroundBlur_819_49"/>
<feBlend mode="normal" in="SourceGraphic" in2="effect1_backgroundBlur_819_49" result="shape"/>
</filter>
<clipPath id="clip0_819_49">
<rect width="38" height="24" fill="white" transform="translate(25 3)"/>
</clipPath>
</defs>
</svg>
