<svg width="80" height="86" viewBox="0 0 80 86" fill="none" xmlns="http://www.w3.org/2000/svg">
<g filter="url(#filter0_d_4_294)">
<rect x="3" y="3.89474" width="66" height="68.6316" rx="27" fill="#FFDE2E" stroke="#181818" stroke-width="6"/>
<path d="M14 8.73684C14 12.0982 11.5778 14.4737 9 14.4737C6.4222 14.4737 4 12.0982 4 8.73684C4 5.37544 6.4222 3 9 3C11.5778 3 14 5.37544 14 8.73684Z" fill="#FFFBFB" stroke="black" stroke-width="4"/>
<path d="M70 8.73684C70 12.0982 67.5778 14.4737 65 14.4737C62.4222 14.4737 60 12.0982 60 8.73684C60 5.37544 62.4222 3 65 3C67.5778 3 70 5.37544 70 8.73684Z" fill="#FFFBFB" stroke="black" stroke-width="4"/>
<path d="M70 61.7895C70 65.1509 67.5778 67.5263 65 67.5263C62.4222 67.5263 60 65.1509 60 61.7895C60 58.4281 62.4222 56.0526 65 56.0526C67.5778 56.0526 70 58.4281 70 61.7895Z" fill="#FFFBFB" stroke="black" stroke-width="4"/>
<path d="M14 63.2632C14 66.6246 11.5778 69 9 69C6.4222 69 4 66.6246 4 63.2632C4 59.9018 6.4222 57.5263 9 57.5263C11.5778 57.5263 14 59.9018 14 63.2632Z" fill="#FFFBFB" stroke="black" stroke-width="4"/>
</g>
<g clip-path="url(#clip0_4_294)">
<path d="M52.5556 20.25H18.1111C16.2167 20.25 14.6667 22.0461 14.6667 24.2412V52.1798C14.6667 54.375 16.2167 56.1711 18.1111 56.1711H52.5556C54.45 56.1711 55.9828 54.375 55.9828 52.1798L56 24.2412C56 22.0461 54.45 20.25 52.5556 20.25ZM28.4445 26.2368C31.3034 26.2368 33.6111 28.911 33.6111 32.2237C33.6111 35.5364 31.3034 38.2105 28.4445 38.2105C25.5856 38.2105 23.2778 35.5364 23.2778 32.2237C23.2778 28.911 25.5856 26.2368 28.4445 26.2368ZM38.7778 50.1842H18.1111V48.1886C18.1111 44.1974 25 42.0022 28.4445 42.0022C31.8889 42.0022 38.7778 44.1974 38.7778 48.1886V50.1842ZM45.4084 42.2018H47.8022C48.0778 42.2018 48.3189 42.3414 48.4911 42.6009L50.3856 45.4945C50.6439 45.8936 50.6095 46.4524 50.2995 46.7917L47.9572 49.5057C47.6472 49.8649 47.1306 49.9048 46.8034 49.5855C44.8325 47.6444 43.4055 45.0668 42.7045 42.1818C42.0616 39.5799 42.0616 36.8212 42.7045 34.2193C43.4012 31.332 44.829 28.7531 46.8034 26.8156C47.1478 26.4763 47.6472 26.5362 47.9572 26.8954L50.2995 29.6094C50.6095 29.9686 50.6439 30.5274 50.3856 30.9066L48.4911 33.8002C48.4129 33.9265 48.3093 34.0289 48.1893 34.0984C48.0692 34.168 47.9364 34.2026 47.8022 34.1993H45.4084C45.0295 35.4566 44.8056 36.7936 44.8056 38.1906C44.8056 39.5875 45.0295 40.9445 45.4084 42.2018Z" fill="black"/>
</g>
<defs>
<filter id="filter0_d_4_294" x="0" y="0.894737" width="80" height="84.6316" filterUnits="userSpaceOnUse" color-interpolation-filters="sRGB">
<feFlood flood-opacity="0" result="BackgroundImageFix"/>
<feColorMatrix in="SourceAlpha" type="matrix" values="0 0 0 0 0 0 0 0 0 0 0 0 0 0 0 0 0 0 127 0" result="hardAlpha"/>
<feOffset dx="4" dy="6"/>
<feGaussianBlur stdDeviation="2"/>
<feComposite in2="hardAlpha" operator="out"/>
<feColorMatrix type="matrix" values="0 0 0 0 0.523307 0 0 0 0 0.523307 0 0 0 0 0.523307 0 0 0 0.64 0"/>
<feBlend mode="normal" in2="BackgroundImageFix" result="effect1_dropShadow_4_294"/>
<feBlend mode="normal" in="SourceGraphic" in2="effect1_dropShadow_4_294" result="shape"/>
</filter>
<clipPath id="clip0_4_294">
<rect width="41.3333" height="47.8947" fill="white" transform="translate(14.6667 14.2632)"/>
</clipPath>
</defs>
</svg>
