<?xml version="1.0" encoding="UTF-8"?>
<svg id="Layer_1" data-name="Layer 1" xmlns="http://www.w3.org/2000/svg" xmlns:xlink="http://www.w3.org/1999/xlink" version="1.1" viewBox="0 0 1920 1080">
  <defs>
    <style>
      .cls-1 {
        stroke: #a259ff;
      }

      .cls-1, .cls-2, .cls-3, .cls-4, .cls-5, .cls-6, .cls-7 {
        fill: none;
      }

      .cls-1, .cls-3, .cls-4, .cls-6 {
        stroke-linecap: round;
      }

      .cls-1, .cls-3, .cls-6 {
        stroke-width: 48px;
      }

      .cls-8 {
        clip-path: url(#clippath);
      }

      .cls-2, .cls-9, .cls-10 {
        stroke-width: 0px;
      }

      .cls-3 {
        stroke: #65a90f;
      }

      .cls-3, .cls-4, .cls-6 {
        stroke-linejoin: round;
      }

      .cls-4, .cls-11, .cls-5, .cls-7, .cls-12, .cls-13, .cls-14 {
        stroke: #000;
      }

      .cls-4, .cls-7 {
        stroke-width: 4px;
      }

      .cls-11 {
        stroke-width: 3.75px;
      }

      .cls-11, .cls-9, .cls-12, .cls-13, .cls-14 {
        fill: #fff;
      }

      .cls-11, .cls-12 {
        stroke-miterlimit: 4;
      }

      .cls-5 {
        stroke-dasharray: 0 0 5 5;
      }

      .cls-6 {
        stroke: #699bf7;
      }

      .cls-9, .cls-10 {
        fill-rule: evenodd;
      }

      .cls-12 {
        stroke-width: 4px;
      }

      .cls-13 {
        stroke-miterlimit: 4;
        stroke-width: 4px;
      }

      .cls-14 {
        stroke-miterlimit: 4;
        stroke-width: 4px;
      }

      .cls-10 {
        fill: #000;
      }
    </style>
    <clipPath id="clippath">
      <rect class="cls-2" y="-45" width="1945" height="1125.24"/>
    </clipPath>
  </defs>
  <g class="cls-8">
    <g>
      <line class="cls-5" x1="75.77" y1="-36.27" x2="75.77" y2="1088.97"/>
      <line class="cls-5" x1="143.3" y1="-36.27" x2="143.3" y2="1086.77"/>
      <line class="cls-5" x1="210.84" y1="-36.27" x2="210.84" y2="1088.97"/>
      <line class="cls-5" x1="279.72" y1="-36.27" x2="279.72" y2="1088.97"/>
      <line class="cls-5" x1="347.26" y1="-36.27" x2="347.26" y2="1088.97"/>
      <line class="cls-5" x1="414.79" y1="-36.27" x2="414.79" y2="1086.77"/>
      <line class="cls-5" x1="493.33" y1="-32.27" x2="493.33" y2="1092.97"/>
      <line class="cls-5" x1="562.21" y1="-32.27" x2="562.21" y2="1092.97"/>
      <line class="cls-5" x1="629.75" y1="-32.27" x2="629.75" y2="1092.97"/>
      <line class="cls-5" x1="697.28" y1="-32.27" x2="697.28" y2="1092.97"/>
      <line class="cls-5" x1="764.82" y1="-32.27" x2="764.82" y2="1090.77"/>
      <line class="cls-5" x1="832.35" y1="-32.27" x2="832.35" y2="1092.97"/>
      <line class="cls-5" x1="901.24" y1="-32.27" x2="901.24" y2="1092.97"/>
      <line class="cls-5" x1="968.77" y1="-32.27" x2="968.77" y2="1092.97"/>
      <line class="cls-5" x1="1036.31" y1="-32.27" x2="1036.31" y2="1090.77"/>
      <line class="cls-5" x1="1103.84" y1="-32.27" x2="1103.84" y2="1092.97"/>
      <line class="cls-5" x1="1172.73" y1="-32.27" x2="1172.73" y2="1092.97"/>
      <line class="cls-5" x1="1240.26" y1="-32.27" x2="1240.26" y2="1092.97"/>
      <line class="cls-5" x1="1309.15" y1="-34.47" x2="1309.15" y2="1090.77"/>
      <line class="cls-5" x1="1376.68" y1="-34.47" x2="1376.68" y2="1088.57"/>
      <line class="cls-5" x1="1444.22" y1="-34.47" x2="1444.22" y2="1090.77"/>
      <line class="cls-5" x1="1513.1" y1="-34.47" x2="1513.1" y2="1090.77"/>
      <line class="cls-5" x1="1580.64" y1="-34.47" x2="1580.64" y2="1090.77"/>
      <line class="cls-5" x1="1648.17" y1="-34.47" x2="1648.17" y2="1088.57"/>
      <line class="cls-5" x1="1715.71" y1="-34.47" x2="1715.71" y2="1090.77"/>
      <line class="cls-5" x1="1784.59" y1="-34.47" x2="1784.59" y2="1090.77"/>
      <line class="cls-5" x1="1917.98" y1="-32.54" x2="1917.98" y2="1092.7"/>
      <line class="cls-5" x1="1847.74" y1="-35.84" x2="1847.74" y2="1089.41"/>
      <line class="cls-5" x1="-15.4" y1="17.02" x2="1929.6" y2="17.02"/>
      <line class="cls-5" x1="142.3" y1="16.76" x2="2087.3" y2="16.76"/>
      <line class="cls-5" x1="-15.4" y1="71.96" x2="1929.6" y2="71.96"/>
      <line class="cls-5" x1="-15.4" y1="128.01" x2="1929.6" y2="128.01"/>
      <line class="cls-5" x1="-15.4" y1="182.95" x2="1929.6" y2="182.95"/>
      <line class="cls-5" x1="-15.4" y1="237.89" x2="1929.6" y2="237.89"/>
      <line class="cls-5" x1="-4.4" y1="297.94" x2="1940.6" y2="297.94"/>
      <line class="cls-5" x1="-4.4" y1="352.88" x2="1940.6" y2="352.88"/>
      <line class="cls-5" x1="-4.4" y1="407.82" x2="1940.6" y2="407.82"/>
      <line class="cls-5" x1="-4.4" y1="462.77" x2="1940.6" y2="462.77"/>
      <line class="cls-5" x1="-4.4" y1="517.71" x2="1940.6" y2="517.71"/>
      <line class="cls-5" x1="-4.4" y1="572.65" x2="1940.6" y2="572.65"/>
      <line class="cls-5" x1="-4.4" y1="628.7" x2="1940.6" y2="628.7"/>
      <line class="cls-5" x1="-4.4" y1="683.64" x2="1940.6" y2="683.64"/>
      <line class="cls-5" x1="-4.4" y1="738.58" x2="1940.6" y2="738.58"/>
      <line class="cls-5" x1="-4.4" y1="794.62" x2="1940.6" y2="794.62"/>
      <line class="cls-5" x1="-4.4" y1="849.57" x2="1940.6" y2="849.57"/>
      <line class="cls-5" x1="-4.4" y1="904.51" x2="1940.6" y2="904.51"/>
      <line class="cls-5" x1="-4.4" y1="959.46" x2="1940.6" y2="959.46"/>
      <line class="cls-5" x1="-4.4" y1="1017.4" x2="1940.6" y2="1017.4"/>
      <path class="cls-6" d="M2162.76,919.39c-123.71-7.96-247.42-15.92-371.12-23.89-9.18-.59-10.06-.24-9.14-7.84.84-6.96,3.55-13.59,4.23-20.58.27-2.73-1.8-.45-3.3.79-11.17,9.24-23.21,17.28-36.33,24.66-31.21,17.57-65.81,32.55-103.13,39.3-11.14,2.01-30.4,4-41.61.14-10.28-3.54-.54-42.76.32-51.66.26-2.67,3.58-14.55,1.09-16.45-1.97-1.51-52.41,23.1-56.12,24.59-29.19,11.69-131.81,51.63-131.67-2.13.03-11.29,1.07-22.47,2.16-33.71,1.09-11.31-56.49,12.08-58.31,12.67-41.56,13.36-79.2,23.16-123.94,21.54-8.8-.32-17.65-.57-25.8-3.37"/>
      <path class="cls-4" d="M2162.76,919.39c-39.59-2.55-379.59-17.52-378.75-24.48.85-6.96,2.04-20.84,2.71-27.83.27-2.73-1.8-.45-3.3.79-11.17,9.24-23.21,17.28-36.33,24.66-31.21,17.57-65.81,32.55-103.13,39.3-11.14,2.01-30.4,4-41.61.14-10.28-3.54-.54-42.76.32-51.66.26-2.67,3.58-14.55,1.09-16.45-1.97-1.51-52.41,23.1-56.12,24.59-29.19,11.69-131.81,51.63-131.67-2.13.03-11.29,1.07-22.47,2.16-33.71,1.09-11.31-56.49,12.08-58.31,12.67-41.56,13.36-79.2,23.16-123.94,21.54-8.8-.32-17.65-.57-25.8-3.37"/>
      <ellipse class="cls-12" cx="1210.31" cy="881.15" rx="10.81" ry="8.79"/>
      <ellipse class="cls-12" cx="1415.84" cy="849.08" rx="10.81" ry="8.79"/>
      <ellipse class="cls-12" cx="1426.73" cy="906.21" rx="10.81" ry="8.79"/>
      <ellipse class="cls-12" cx="1603.06" cy="863.85" rx="10.81" ry="8.79"/>
      <ellipse class="cls-12" cx="1602.83" cy="925.65" rx="10.81" ry="8.79"/>
      <ellipse class="cls-11" cx="1787.88" cy="863.79" rx="8.61" ry="7.01"/>
      <ellipse class="cls-11" cx="1786.23" cy="899" rx="8.61" ry="7.01"/>
      <path class="cls-1" d="M-225.99,1158.15c-215.66-144.26-270.7-417.44-122.94-610.17,147.76-192.73,442.38-232.02,658.04-87.76"/>
      <path class="cls-7" d="M-225.99,1158.15c-215.66-144.26-270.7-417.44-122.94-610.17,147.76-192.73,442.38-232.02,658.04-87.76"/>
      <path class="cls-14" d="M307.04,454.04c5.17-.69,10.14,2.64,11.1,7.43s-2.44,9.23-7.61,9.92-10.14-2.64-11.1-7.43,2.44-9.23,7.61-9.92Z"/>
      <path class="cls-9" d="M395.79,424.41c14.37-5.63,22.96-19.86,19.9-35.02-.69-3.45-1.94-6.69-3.64-9.66l13.32-17.41-26.73-17.92-13.22,17.29c-3.67-.6-7.48-.68-11.31-.17-16.93,2.26-28.81,15.31-29.08,30.59l-5.76,56.1,56.53-23.79Z"/>
      <path class="cls-10" d="M336.33,439.73l1.16-1.52.97-.41,50.86-21.4c14.37-5.63,22.96-19.86,19.9-35.02-.69-3.45-1.94-6.69-3.64-9.66l13.32-17.41-22.53-15.1-4.21-2.82-2.88,3.77-10.34,13.52c-3.67-.6-7.48-.68-11.31-.17-16.93,2.26-28.81,15.31-29.08,30.59l-5.23,50.93-.04.38-.11.15-1.43,1.86,1.27.64-.22,2.14,2.43-1.02,1.11.56ZM364.64,394.5l-25.1,32.73,4.4-42.77.02-.15v-.15c.24-13.61,10.73-24.47,24.55-26.31,3.18-.42,6.33-.36,9.38.14l3.67.6,1.98-2.59,9.96-13.02,18.32,12.28-10.82,14.15-1.54,2.02,1.23,2.15c1.49,2.61,2.59,5.47,3.2,8.53,2.73,13.53-5.02,25.69-16.92,30.35l-.07.03-.07.03-43.74,18.41,25.76-33.59c1.62.6,3.41.83,5.22.58,5.45-.73,9.04-5.41,8.02-10.46-1.02-5.05-6.26-8.56-11.71-7.83-5.45.73-9.04,5.41-8.02,10.46.34,1.68,1.15,3.19,2.27,4.43Z"/>
      <path class="cls-3" d="M1905.64,197.41c-97.06,65.83-252.09,53.08-335.42-15.46-16.06-13.21-31.92-36.45-40.28-54.27-2.16-4.61-6.21,1.23-8.39,3.24-7.54,6.97-16.98,11.96-27.69,14.86-41.21,11.14-85.3-34.1-105.07-55.88-31.28-34.47-55.41-73.04-84.62-108.73-5.49-6.71-8.87,2.72-12.76,6.95-17.49,19.03-56.95,18.68-81.41,14.13-28.36-5.28-57.9-13.46-82.1-26.57-8.27-4.48-13.8-10.36-19.5-16.94-2.27-2.61-5.98-10.54-9.83-11.67-3.38-.99-6.43,16.37-7.2,18.47-4.32,11.69-11.9,14.55-26.56,17.41-36.89,7.17-59.63-4.45-89.45-20.22-19.13-10.12-40.84-19.05-52.38-35.83"/>
      <path class="cls-4" d="M1907.64,198.9c-97.06,65.83-252.09,53.08-335.42-15.46-16.06-13.21-31.92-36.45-40.28-54.27-2.16-4.61-6.21,1.23-8.39,3.24-7.54,6.97-16.98,11.96-27.69,14.86-41.21,11.14-85.3-34.1-105.07-55.88-31.28-34.47-55.41-73.04-84.62-108.73-5.49-6.71-8.87,2.72-12.76,6.95-17.49,19.03-56.95,18.68-81.41,14.13-28.36-5.28-57.9-13.46-82.1-26.57-8.27-4.48-13.8-10.36-19.5-16.94-2.27-2.61-5.98-10.54-9.83-11.67-3.38-.99-6.43,16.37-7.2,18.47-4.32,11.69-11.9,14.55-26.56,17.41-36.89,7.17-59.63-4.45-89.45-20.22-19.13-10.12-40.84-19.05-52.38-35.83"/>
      <path class="cls-13" d="M1525.49,140.2c-5.19-2.74-6.51-8.57-2.96-13.01,3.55-4.44,10.63-5.82,15.82-3.08,5.19,2.74,6.51,8.57,2.96,13.01-3.55,4.44-10.63,5.82-15.82,3.08Z"/>
      <path class="cls-13" d="M1299.66-10.71c-5.19-2.74-6.51-8.57-2.96-13.01,3.55-4.44,10.63-5.82,15.82-3.08s6.51,8.57,2.96,13.01-10.63,5.82-15.82,3.08Z"/>
    </g>
  </g>
</svg>