<?xml version="1.0" encoding="UTF-8"?>
<svg id="Layer_1" data-name="Layer 1" xmlns="http://www.w3.org/2000/svg" version="1.1" viewBox="0 0 724 257">
  <defs>
    <style>
      .cls-1, .cls-2 {
        stroke: #000;
        stroke-width: 4px;
      }

      .cls-1, .cls-3 {
        fill: #fff;
      }

      .cls-4 {
        fill: #ff8577;
      }

      .cls-4, .cls-5, .cls-3 {
        stroke-width: 0px;
      }

      .cls-5 {
        fill: #000;
      }

      .cls-2 {
        fill: none;
      }
    </style>
  </defs>
  <rect class="cls-5" x="50.39" y="72.14" width="673.61" height="184.86"/>
  <rect class="cls-4" x="13" y="13" width="686" height="214"/>
  <rect class="cls-2" x="13" y="13" width="686" height="214"/>
  <path class="cls-3" d="M203.24,149v-62.4h22.24c7.95,0,13.73,1.65,17.36,4.96,3.68,3.25,5.52,7.63,5.52,13.12s-1.84,9.89-5.52,13.2c-3.63,3.25-9.41,4.88-17.36,4.88h-13.28v26.24h-8.96ZM212.2,115.56h12.88c5.01,0,8.61-.88,10.8-2.64,2.24-1.76,3.36-4.51,3.36-8.24s-1.12-6.48-3.36-8.24c-2.19-1.76-5.79-2.64-10.8-2.64h-12.88v21.76ZM273.57,150.2c-7.31,0-12.75-2.27-16.32-6.8-3.52-4.59-5.28-10.72-5.28-18.4s1.76-13.79,5.28-18.32c3.57-4.59,9.01-6.88,16.32-6.88s12.72,2.29,16.24,6.88c3.57,4.53,5.36,10.64,5.36,18.32s-1.79,13.81-5.36,18.4c-3.52,4.53-8.93,6.8-16.24,6.8ZM273.57,143.16c4.43,0,7.65-1.63,9.68-4.88,2.08-3.25,3.12-7.68,3.12-13.28s-1.04-10.03-3.12-13.28c-2.03-3.25-5.25-4.88-9.68-4.88s-7.68,1.63-9.76,4.88c-2.03,3.25-3.04,7.68-3.04,13.28s1.01,10.03,3.04,13.28c2.08,3.25,5.33,4.88,9.76,4.88ZM302.97,149v-48h7.68v8.16h1.92c.32-1.33.88-2.67,1.68-4,.8-1.33,2.08-2.43,3.84-3.28,1.76-.91,4.24-1.36,7.44-1.36h1.6v8.16h-2.4c-4.8,0-8.19,1.25-10.16,3.76-1.97,2.45-2.96,6.32-2.96,11.6v24.96h-8.64ZM339.49,149c-1.17-1.44-2.13-3.17-2.88-5.2-.69-2.03-1.04-5.07-1.04-9.12v-26.96h-6.56v-6.72h6.72v-12h8.32v12h8.16v6.72h-8v25.6c0,4.37.45,7.65,1.36,9.84.96,2.13,2.11,3.92,3.44,5.36v.48h-9.52ZM361.21,149v-41.28h-7.04v-6.72h7.04v-3.12c0-2.4.4-4.59,1.2-6.56.8-1.97,2.16-3.55,4.08-4.72,1.92-1.17,4.53-1.76,7.84-1.76,1.17,0,2.19.08,3.04.24v6.88c-.53-.16-1.33-.24-2.4-.24-2.35,0-3.84.59-4.48,1.76-.64,1.12-.96,2.61-.96,4.48v3.04h7.84v6.72h-7.84v41.28h-8.32ZM402.12,150.2c-7.31,0-12.75-2.27-16.32-6.8-3.52-4.59-5.28-10.72-5.28-18.4s1.76-13.79,5.28-18.32c3.57-4.59,9.01-6.88,16.32-6.88s12.72,2.29,16.24,6.88c3.57,4.53,5.36,10.64,5.36,18.32s-1.79,13.81-5.36,18.4c-3.52,4.53-8.93,6.8-16.24,6.8ZM402.12,143.16c4.43,0,7.65-1.63,9.68-4.88,2.08-3.25,3.12-7.68,3.12-13.28s-1.04-10.03-3.12-13.28c-2.03-3.25-5.25-4.88-9.68-4.88s-7.68,1.63-9.76,4.88c-2.03,3.25-3.04,7.68-3.04,13.28s1.01,10.03,3.04,13.28c2.08,3.25,5.33,4.88,9.76,4.88ZM434.87,149c-1.17-1.44-2.13-3.17-2.88-5.2-.69-2.03-1.04-5.07-1.04-9.12v-49.68h8.64v48.56c0,4.27.45,7.47,1.36,9.6.96,2.13,2.11,3.92,3.44,5.36v.48h-9.52ZM450.88,149v-48h8.64v48h-8.64ZM455.2,94.28c-1.65,0-2.96-.48-3.92-1.44-.91-.96-1.36-2.24-1.36-3.84s.45-2.88,1.36-3.84c.96-.96,2.27-1.44,3.92-1.44s3.01.48,3.92,1.44c.91.96,1.36,2.24,1.36,3.84s-.45,2.88-1.36,3.84c-.91.96-2.21,1.44-3.92,1.44ZM488.73,150.2c-7.31,0-12.75-2.27-16.32-6.8-3.52-4.59-5.28-10.72-5.28-18.4s1.76-13.79,5.28-18.32c3.57-4.59,9.01-6.88,16.32-6.88s12.72,2.29,16.24,6.88c3.57,4.53,5.36,10.64,5.36,18.32s-1.79,13.81-5.36,18.4c-3.52,4.53-8.93,6.8-16.24,6.8ZM488.73,143.16c4.43,0,7.65-1.63,9.68-4.88,2.08-3.25,3.12-7.68,3.12-13.28s-1.04-10.03-3.12-13.28c-2.03-3.25-5.25-4.88-9.68-4.88s-7.68,1.63-9.76,4.88c-2.03,3.25-3.04,7.68-3.04,13.28s1.01,10.03,3.04,13.28c2.08,3.25,5.33,4.88,9.76,4.88Z"/>
  <rect class="cls-1" x="688" y="215" width="22" height="22"/>
  <rect class="cls-1" x="2" y="216" width="22" height="22"/>
  <rect class="cls-1" x="688" y="2" width="22" height="22"/>
  <rect class="cls-1" x="2" y="2" width="22" height="22"/>
</svg>