<svg width="80" height="86" viewBox="0 0 80 86" fill="none" xmlns="http://www.w3.org/2000/svg">
<g filter="url(#filter0_d_4_291)">
<rect x="3" y="3.89474" width="66" height="68.6316" rx="27" fill="#9CEB60" stroke="#181818" stroke-width="6"/>
<path d="M14 8.73684C14 12.0982 11.5778 14.4737 9 14.4737C6.4222 14.4737 4 12.0982 4 8.73684C4 5.37544 6.4222 3 9 3C11.5778 3 14 5.37544 14 8.73684Z" fill="#FFFBFB" stroke="black" stroke-width="4"/>
<path d="M70 8.73684C70 12.0982 67.5778 14.4737 65 14.4737C62.4222 14.4737 60 12.0982 60 8.73684C60 5.37544 62.4222 3 65 3C67.5778 3 70 5.37544 70 8.73684Z" fill="#FFFBFB" stroke="black" stroke-width="4"/>
<path d="M70 61.7895C70 65.1509 67.5778 67.5263 65 67.5263C62.4222 67.5263 60 65.1509 60 61.7895C60 58.4281 62.4222 56.0526 65 56.0526C67.5778 56.0526 70 58.4281 70 61.7895Z" fill="#FFFBFB" stroke="black" stroke-width="4"/>
<path d="M14 63.2632C14 66.6246 11.5778 69 9 69C6.4222 69 4 66.6246 4 63.2632C4 59.9018 6.4222 57.5263 9 57.5263C11.5778 57.5263 14 59.9018 14 63.2632Z" fill="#FFFBFB" stroke="black" stroke-width="4"/>
</g>
<g clip-path="url(#clip0_4_291)">
<path d="M34.7333 42.1158H19.2666V54.9368C19.2666 56.0703 19.674 57.1573 20.3992 57.9588C21.1243 58.7603 22.1078 59.2105 23.1333 59.2105H50.2C51.2255 59.2105 52.209 58.7603 52.9341 57.9588C53.6593 57.1573 54.0666 56.0703 54.0666 54.9368V42.1158H38.6V46.3895H34.7333V42.1158ZM34.7333 39.979H17.3333V27.1579C17.3333 24.8074 19.0733 22.8842 21.2 22.8842H28.9333V20.7474C28.9333 19.6139 29.3407 18.5269 30.0658 17.7254C30.791 16.9239 31.7745 16.4737 32.8 16.4737H40.5333C41.5588 16.4737 42.5423 16.9239 43.2675 17.7254C43.9926 18.5269 44.4 19.6139 44.4 20.7474V22.8842H52.1333C53.1588 22.8842 54.1423 23.3345 54.8675 24.1359C55.5926 24.9374 56 26.0244 56 27.1579V39.979H38.6V35.7053H34.7333V39.979ZM40.5333 22.8842V20.7474H32.8V22.8842H40.5333Z" fill="black"/>
</g>
<defs>
<filter id="filter0_d_4_291" x="0" y="0.894737" width="80" height="84.6316" filterUnits="userSpaceOnUse" color-interpolation-filters="sRGB">
<feFlood flood-opacity="0" result="BackgroundImageFix"/>
<feColorMatrix in="SourceAlpha" type="matrix" values="0 0 0 0 0 0 0 0 0 0 0 0 0 0 0 0 0 0 127 0" result="hardAlpha"/>
<feOffset dx="4" dy="6"/>
<feGaussianBlur stdDeviation="2"/>
<feComposite in2="hardAlpha" operator="out"/>
<feColorMatrix type="matrix" values="0 0 0 0 0.523307 0 0 0 0 0.523307 0 0 0 0 0.523307 0 0 0 0.64 0"/>
<feBlend mode="normal" in2="BackgroundImageFix" result="effect1_dropShadow_4_291"/>
<feBlend mode="normal" in="SourceGraphic" in2="effect1_dropShadow_4_291" result="shape"/>
</filter>
<clipPath id="clip0_4_291">
<rect width="38.6667" height="42.7368" fill="white" transform="translate(17.3333 16.4737)"/>
</clipPath>
</defs>
</svg>
