<?xml version="1.0" encoding="UTF-8"?>
<svg id="Layer_1" data-name="Layer 1" xmlns="http://www.w3.org/2000/svg" version="1.1" viewBox="0 0 345 122.13">
  <defs>
    <style>
      .cls-1 {
        fill: #605a5a;
      }

      .cls-1, .cls-2, .cls-3, .cls-4, .cls-5 {
        stroke-width: 0px;
      }

      .cls-6 {
        fill: #fdfdfd;
        stroke: #000;
        stroke-width: 3px;
      }

      .cls-2 {
        fill: #828080;
      }

      .cls-3 {
        fill: #fffcfc;
      }

      .cls-4 {
        fill: #000;
      }

      .cls-7 {
        fill: none;
        stroke: #c2c2c2;
      }

      .cls-5 {
        fill: #fff;
      }
    </style>
  </defs>
  <g>
    <g>
      <path class="cls-3" d="M0,20C0,8.95,8.95,0,20,0h305c11.05,0,20,8.95,20,20v43c0,11.05-8.95,20-20,20H0V20Z"/>
      <path class="cls-7" d="M.5,20C.5,9.23,9.23.5,20,.5h305c10.77,0,19.5,8.73,19.5,19.5v43c0,10.77-8.73,19.5-19.5,19.5H.5V20Z"/>
    </g>
    <path class="cls-4" d="M92.96,44v-15.6h6.04c2,0,3.45.42,4.36,1.26.92.83,1.38,1.94,1.38,3.34s-.46,2.52-1.38,3.36c-.91.84-2.36,1.26-4.36,1.26h-3.26v6.38h-2.78ZM95.74,35.44h2.96c1.08,0,1.89-.19,2.42-.56.53-.37.8-.99.8-1.86s-.27-1.49-.8-1.88c-.53-.39-1.34-.58-2.42-.58h-2.96v4.88ZM110.32,44.26c-1.07,0-1.96-.26-2.68-.78-.72-.53-1.27-1.27-1.64-2.22-.36-.95-.54-2.04-.54-3.28s.18-2.35.54-3.28c.37-.93.92-1.66,1.64-2.18.73-.52,1.63-.78,2.7-.78.87,0,1.57.17,2.1.52.55.35.95.78,1.2,1.3h.48v-1.56h2.46v12h-2.46v-1.56h-.48c-.25.49-.65.92-1.2,1.28-.53.36-1.24.54-2.12.54ZM110.94,42.22c.91,0,1.63-.38,2.16-1.14.53-.77.8-1.8.8-3.08s-.27-2.3-.8-3.06c-.53-.77-1.25-1.16-2.16-1.16-.85,0-1.51.36-1.98,1.08-.47.72-.7,1.77-.7,3.14s.23,2.42.7,3.14c.47.72,1.13,1.08,1.98,1.08ZM123.9,44.3c-1.89,0-3.31-.57-4.26-1.7-.93-1.15-1.4-2.68-1.4-4.6s.47-3.45,1.4-4.58c.95-1.15,2.37-1.72,4.26-1.72s3.35.57,4.28,1.72c.93,1.13,1.4,2.66,1.4,4.58s-.47,3.45-1.4,4.6c-.93,1.13-2.36,1.7-4.28,1.7ZM123.93,42.34c.99,0,1.71-.37,2.16-1.12.47-.76.7-1.83.7-3.22s-.23-2.45-.7-3.2c-.45-.76-1.17-1.14-2.16-1.14s-1.73.38-2.2,1.14c-.45.75-.68,1.81-.68,3.2s.23,2.46.68,3.22c.47.75,1.2,1.12,2.2,1.12ZM132.16,44c-.33-.4-.59-.86-.76-1.38-.16-.52-.24-1.25-.24-2.2v-12.42h2.72v12.1c0,1.04.11,1.84.34,2.4.23.55.52,1.01.88,1.38v.12h-2.94ZM140.49,44.26c-1.07,0-1.96-.26-2.68-.78-.72-.53-1.27-1.27-1.64-2.22-.36-.95-.54-2.04-.54-3.28s.18-2.35.54-3.28c.37-.93.92-1.66,1.64-2.18.73-.52,1.63-.78,2.7-.78.87,0,1.57.17,2.1.52.55.35.95.78,1.2,1.3h.48v-1.56h2.46v12h-2.46v-1.56h-.48c-.25.49-.65.92-1.2,1.28-.53.36-1.24.54-2.12.54ZM141.11,42.22c.91,0,1.63-.38,2.16-1.14.53-.77.8-1.8.8-3.08s-.27-2.3-.8-3.06c-.53-.77-1.25-1.16-2.16-1.16-.85,0-1.51.36-1.98,1.08-.47.72-.7,1.77-.7,3.14s.23,2.42.7,3.14c.47.72,1.13,1.08,1.98,1.08ZM153.37,44v-15.6h5l3.52,13.38h.6l3.56-13.38h5v15.6h-2.68v-13.26h-.5l-3.46,13.26h-4.58l-3.46-13.26h-.5v13.26h-2.5ZM178.39,44.3c-1.83,0-3.22-.57-4.18-1.7-.96-1.15-1.44-2.69-1.44-4.62,0-1.28.21-2.39.64-3.32.43-.93,1.05-1.66,1.88-2.18.84-.52,1.86-.78,3.06-.78,1.72,0,3.03.54,3.94,1.62.91,1.07,1.36,2.63,1.36,4.7v.64h-8.24c.07,1.09.35,1.97.84,2.64.51.67,1.22,1,2.14,1,.69,0,1.25-.2,1.66-.6.43-.4.72-.91.88-1.54h2.58c-.15.77-.43,1.47-.84,2.1-.4.61-.95,1.11-1.66,1.48-.71.37-1.58.56-2.62.56ZM175.43,36.86h5.58c-.05-1.03-.31-1.82-.78-2.38-.45-.56-1.09-.84-1.9-.84s-1.51.27-2,.82c-.49.55-.79,1.35-.9,2.4ZM189.25,44.26c-1.05,0-1.94-.26-2.66-.78-.71-.53-1.25-1.27-1.62-2.22-.36-.95-.54-2.04-.54-3.28s.18-2.35.54-3.28c.37-.93.91-1.66,1.62-2.18.72-.52,1.6-.78,2.64-.78.8,0,1.45.15,1.96.44.51.29.9.69,1.18,1.2h.48v-5.38h2.7v16h-2.46v-1.56h-.48c-.25.49-.65.92-1.2,1.28-.53.36-1.25.54-2.16.54ZM189.91,42.22c.91,0,1.63-.38,2.16-1.14.53-.77.8-1.8.8-3.08s-.27-2.3-.8-3.06c-.53-.77-1.25-1.16-2.16-1.16-.85,0-1.51.36-1.98,1.08-.47.72-.7,1.77-.7,3.14s.23,2.42.7,3.14c.47.72,1.13,1.08,1.98,1.08ZM198.05,44v-12h2.7v12h-2.7ZM199.41,30.48c-.49,0-.87-.13-1.14-.4-.27-.28-.4-.64-.4-1.08s.13-.79.4-1.06c.27-.28.65-.42,1.14-.42s.89.14,1.14.42c.27.27.4.62.4,1.06s-.13.8-.4,1.08c-.25.27-.63.4-1.14.4ZM203.24,44v-12h2.46v1.8h.48c.24-.63.62-1.13,1.14-1.52.53-.39,1.26-.58,2.18-.58,1.37,0,2.38.43,3.02,1.28.65.84.98,1.96.98,3.36v7.66h-2.7v-7.16c0-.93-.17-1.65-.5-2.14-.33-.51-.86-.76-1.58-.76-.88,0-1.57.35-2.06,1.04-.48.68-.72,1.53-.72,2.54v6.48h-2.7ZM219.84,44.26c-1.07,0-1.96-.26-2.68-.78-.72-.53-1.27-1.27-1.64-2.22-.36-.95-.54-2.04-.54-3.28s.18-2.35.54-3.28c.37-.93.92-1.66,1.64-2.18.73-.52,1.63-.78,2.7-.78.87,0,1.57.17,2.1.52.55.35.95.78,1.2,1.3h.48v-1.56h2.46v12h-2.46v-1.56h-.48c-.25.49-.65.92-1.2,1.28-.53.36-1.24.54-2.12.54ZM220.46,42.22c.91,0,1.63-.38,2.16-1.14.53-.77.8-1.8.8-3.08s-.27-2.3-.8-3.06c-.53-.77-1.25-1.16-2.16-1.16-.85,0-1.51.36-1.98,1.08-.47.72-.7,1.77-.7,3.14s.23,2.42.7,3.14c.47.72,1.13,1.08,1.98,1.08Z"/>
    <path class="cls-4" d="M97.55,68.23c-1.78,0-3.08-.48-3.92-1.45-.82-.97-1.23-2.36-1.23-4.17v-7.62h1.9v7.7c0,1.4.26,2.42.78,3.07.53.64,1.37.97,2.5.97s1.96-.32,2.48-.97c.53-.64.8-1.67.8-3.07v-7.7h1.83v7.62c0,1.81-.41,3.2-1.23,4.17-.81.97-2.12,1.45-3.92,1.45ZM103.72,68v-.1l3.25-5.22-2.83-4.58v-.1h1.83l2.07,3.43h.3l2.03-3.43h1.73v.1l-2.8,4.55,3.25,5.25v.1h-1.93l-2.38-4.07h-.3l-2.38,4.07h-1.83ZM117.11,68v-13h4.25c2.25,0,3.87.57,4.87,1.72,1.01,1.13,1.52,2.73,1.52,4.78s-.5,3.66-1.52,4.8c-1,1.13-2.62,1.7-4.87,1.7h-4.25ZM118.99,66.43h2.2c1.12,0,2.02-.18,2.7-.53.69-.37,1.18-.92,1.48-1.65.31-.73.47-1.65.47-2.75s-.15-2.03-.47-2.75c-.3-.73-.79-1.28-1.48-1.63-.68-.37-1.58-.55-2.7-.55h-2.2v9.87ZM133.08,68.25c-1.47,0-2.58-.48-3.35-1.43-.76-.97-1.13-2.24-1.13-3.82,0-1.04.17-1.96.5-2.73.35-.79.85-1.41,1.5-1.85.67-.44,1.49-.67,2.47-.67,1.37,0,2.4.44,3.12,1.33.72.89,1.08,2.18,1.08,3.87v.52h-6.92c.06.98.31,1.78.75,2.42.46.62,1.12.93,2,.93.63,0,1.15-.18,1.53-.53.39-.36.67-.85.83-1.48h1.7c-.14.68-.38,1.28-.72,1.8-.33.51-.78.92-1.33,1.22-.56.29-1.23.43-2.03.43ZM130.36,62.17h5.15c-.03-.97-.27-1.71-.7-2.22s-1.02-.77-1.77-.77c-.79,0-1.41.26-1.87.78-.44.52-.72,1.26-.82,2.2ZM142.12,68.25c-.92,0-1.68-.16-2.28-.48-.6-.33-1.05-.76-1.35-1.28-.3-.53-.47-1.09-.5-1.68h1.77c.03.33.14.66.32.98.18.31.44.57.78.77.35.2.78.3,1.32.3.59,0,1.04-.12,1.37-.37.32-.26.48-.59.48-1,0-.36-.13-.66-.38-.9-.24-.26-.63-.48-1.15-.67l-1.18-.42c-.53-.2-1.02-.42-1.45-.65-.42-.24-.76-.54-1.02-.9-.26-.37-.38-.83-.38-1.38,0-.86.31-1.54.92-2.05.61-.51,1.45-.77,2.52-.77.77,0,1.4.13,1.9.4.51.27.9.63,1.17,1.1.27.46.42.97.47,1.55h-1.7c-.04-.42-.21-.8-.5-1.13-.29-.34-.76-.52-1.42-.52-.52,0-.92.12-1.2.35-.28.22-.42.53-.42.92s.13.69.4.93c.27.24.67.47,1.2.67l1.18.4c.53.2,1.01.42,1.43.67.42.23.75.53.98.88.24.36.37.81.37,1.37,0,.86-.31,1.56-.93,2.1-.62.54-1.52.82-2.7.82ZM147.26,68v-10h1.8v10h-1.8ZM148.15,56.6c-.34,0-.62-.1-.82-.3-.19-.2-.28-.47-.28-.8s.1-.6.28-.8c.2-.2.47-.3.82-.3s.63.1.82.3.28.47.28.8-.09.6-.28.8-.46.3-.82.3ZM155.09,71.57c-.71,0-1.31-.09-1.8-.27-.49-.18-.89-.41-1.2-.7-.31-.28-.54-.58-.7-.92-.16-.33-.26-.66-.3-.98h1.8c.07.38.28.72.63,1.02.36.3.91.45,1.65.45.8,0,1.42-.22,1.85-.67.45-.44.67-1.16.67-2.15v-1.12h-.4c-.18.44-.48.82-.92,1.12-.42.29-1,.43-1.73.43-1.23,0-2.21-.45-2.93-1.35-.71-.9-1.07-2.13-1.07-3.7,0-1.02.15-1.91.47-2.65.32-.74.78-1.32,1.37-1.72.6-.41,1.31-.62,2.13-.62.77,0,1.36.16,1.77.47.42.31.73.67.92,1.08h.4v-1.3h1.6v9.45c0,1.33-.36,2.35-1.08,3.05-.72.71-1.76,1.07-3.12,1.07ZM154.86,66.28c.86,0,1.52-.33,1.98-.98.47-.67.7-1.51.7-2.53s-.24-1.89-.72-2.53c-.47-.66-1.12-.98-1.95-.98-.78,0-1.38.31-1.8.92-.42.61-.63,1.48-.63,2.6s.21,1.99.62,2.6c.42.61,1.02.92,1.8.92ZM161.56,68v-10h1.6v1.5h.4c.19-.56.52-.98.98-1.28.47-.31,1.06-.47,1.78-.47,1.17,0,2.01.36,2.53,1.08.53.71.8,1.63.8,2.75v6.42h-1.8v-6.03c0-.87-.16-1.53-.47-1.98-.31-.47-.79-.7-1.45-.7-.81,0-1.44.32-1.9.97-.46.63-.68,1.42-.68,2.37v5.38h-1.8ZM175.6,68.25c-1.47,0-2.58-.48-3.35-1.43-.76-.97-1.13-2.24-1.13-3.82,0-1.04.17-1.96.5-2.73.34-.79.84-1.41,1.5-1.85.67-.44,1.49-.67,2.47-.67,1.37,0,2.41.44,3.12,1.33.72.89,1.08,2.18,1.08,3.87v.52h-6.92c.06.98.31,1.78.75,2.42.46.62,1.12.93,2,.93.63,0,1.14-.18,1.53-.53.39-.36.67-.85.83-1.48h1.7c-.14.68-.38,1.28-.72,1.8-.33.51-.78.92-1.33,1.22-.56.29-1.23.43-2.03.43ZM172.89,62.17h5.15c-.03-.97-.27-1.71-.7-2.22-.43-.51-1.02-.77-1.77-.77-.79,0-1.41.26-1.87.78-.45.52-.72,1.26-.82,2.2ZM181.41,68v-10h1.6v1.7h.4c.07-.28.18-.56.35-.83.17-.28.43-.51.8-.68.37-.19.88-.28,1.55-.28h.33v1.7h-.5c-1,0-1.71.26-2.12.78-.41.51-.62,1.32-.62,2.42v5.2h-1.8Z"/>
  </g>
  <path class="cls-6" d="M63.17,115.46c.06.31.07.63,0,.94-.07.28-.2.55-.4.8h0s0,.02,0,.02c-.21.26-.47.5-.79.68l-5.1,2.43h-.01c-.4.2-.85.3-1.31.3h0c-.29,0-.57-.04-.84-.11-.72-.21-1.29-.66-1.61-1.21l-6.85-11.9-.91-1.59-1.38,1.21-9.77,8.58c-.4.33-.91.57-1.48.65-.57.08-1.14,0-1.65-.21-.5-.23-.89-.57-1.15-.98-.26-.4-.39-.86-.37-1.3v-.03s0-.03,0-.03v-41.79c0-.41.13-.83.35-1.2.23-.36.58-.68,1.02-.89h.01s.01,0,.01,0c.44-.22.95-.33,1.48-.31.51.02,1,.17,1.42.41l37.46,24.13c.42.28.74.65.93,1.06h0c.19.41.25.84.18,1.28-.07.41-.27.8-.58,1.14-.32.33-.74.59-1.22.75l-13.56,2.35-2.12.37,1.08,1.86,6.83,11.8.03.06.04.05c.16.22.26.46.31.69h0Z"/>
  <path class="cls-1" d="M256.1,43v-1c.58-.46,1.06-.85,1.43-1.16.38-.31.71-.61,1-.88.52-.5.9-.95,1.14-1.34.25-.4.37-.82.37-1.25s-.12-.78-.36-1.05c-.24-.27-.6-.4-1.07-.4-.52,0-.9.16-1.14.49-.24.32-.36.72-.36,1.19h-1.01c0-.49.1-.92.29-1.3.2-.39.49-.69.87-.91.39-.22.85-.33,1.4-.33.75,0,1.34.2,1.79.59.45.39.67.93.67,1.6,0,.63-.18,1.21-.53,1.75-.35.53-.79,1.05-1.33,1.54-.21.19-.46.4-.76.63-.29.23-.64.46-1.03.69v.2h3.83v.94h-5.2ZM264.93,45v-.06c.19-.29.4-.64.61-1.04.21-.39.41-.8.58-1.21l-2.16-5.63v-.06h1.08l1.12,3c.07.17.13.36.19.55.07.19.13.42.2.69h.24c.07-.27.13-.5.19-.69.07-.19.13-.38.2-.55l1.12-3h1v.06l-2.06,5.4c-.2.53-.41,1.01-.62,1.46-.21.45-.4.81-.57,1.08h-1.12ZM272.25,43.15c-.88,0-1.55-.29-2.01-.86-.45-.58-.68-1.34-.68-2.29,0-.63.1-1.17.3-1.64.21-.47.51-.84.9-1.11.4-.27.89-.4,1.48-.4.82,0,1.44.27,1.87.8.43.53.65,1.31.65,2.32v.31h-4.15c.03.59.18,1.07.45,1.45.27.37.67.56,1.2.56.38,0,.69-.11.92-.32.23-.21.4-.51.5-.89h1.02c-.09.41-.23.77-.43,1.08-.2.31-.47.55-.8.73-.33.17-.74.26-1.22.26ZM270.62,39.5h3.09c-.02-.58-.16-1.02-.42-1.33-.26-.31-.61-.46-1.06-.46-.47,0-.85.16-1.12.47-.27.31-.43.75-.49,1.32ZM277.73,43.15c-.51,0-.95-.13-1.31-.39-.36-.26-.64-.62-.83-1.09-.19-.47-.28-1.03-.28-1.67s.09-1.19.28-1.66c.19-.47.47-.84.83-1.1.37-.26.81-.39,1.33-.39.45,0,.81.1,1.08.29.27.19.46.4.57.64h.24v-.78h.96v6h-.96v-.78h-.24c-.11.24-.3.46-.57.65-.27.19-.64.28-1.1.28ZM277.92,42.25c.5,0,.9-.21,1.19-.62s.44-.96.44-1.63-.15-1.22-.44-1.63-.69-.62-1.19-.62-.86.2-1.12.59-.39.95-.39,1.66.13,1.27.39,1.66.63.59,1.12.59ZM281.98,43v-6h.96v1.02h.24c.04-.17.11-.33.21-.5.1-.17.26-.3.48-.41.22-.11.53-.17.93-.17h.2v1.02h-.3c-.6,0-1.02.16-1.27.47-.25.31-.37.79-.37,1.45v3.12h-1.08ZM287.75,43.15c-.55,0-1.01-.1-1.37-.29-.36-.2-.63-.46-.81-.77-.18-.32-.28-.66-.3-1.01h1.06c.02.2.08.4.19.59.11.19.26.34.47.46.21.12.47.18.79.18.35,0,.63-.07.82-.22.19-.15.29-.35.29-.6,0-.21-.08-.39-.23-.54-.15-.15-.38-.29-.69-.4l-.71-.25c-.32-.12-.61-.25-.87-.39-.25-.15-.46-.33-.61-.54-.15-.22-.23-.5-.23-.83,0-.51.18-.92.55-1.23.37-.31.87-.46,1.51-.46.46,0,.84.08,1.14.24.31.16.54.38.7.66.16.27.25.58.28.93h-1.02c-.03-.25-.13-.48-.3-.68-.17-.21-.46-.31-.85-.31-.31,0-.55.07-.72.21-.17.13-.25.32-.25.55s.08.41.24.56c.16.15.4.28.72.4l.71.24c.32.12.61.25.86.4.25.14.45.32.59.53.15.21.22.49.22.82,0,.51-.19.93-.56,1.26-.37.33-.91.49-1.62.49ZM294.89,43.15c-.51,0-.95-.13-1.31-.39-.36-.26-.64-.62-.83-1.09-.19-.47-.28-1.03-.28-1.67s.09-1.19.28-1.66c.19-.47.47-.84.83-1.1.37-.26.81-.39,1.33-.39.45,0,.81.1,1.08.29.27.19.46.4.57.64h.24v-.78h.96v6h-.96v-.78h-.24c-.11.24-.3.46-.57.65-.27.19-.64.28-1.1.28ZM295.08,42.25c.5,0,.9-.21,1.19-.62.29-.41.44-.96.44-1.63s-.15-1.22-.44-1.63c-.29-.41-.69-.62-1.19-.62s-.86.2-1.12.59c-.26.39-.39.95-.39,1.66s.13,1.27.39,1.66c.26.39.63.59,1.12.59ZM301.37,45.14c-.43,0-.79-.05-1.08-.16-.29-.11-.53-.25-.72-.42-.19-.17-.33-.35-.42-.55-.09-.2-.15-.4-.18-.59h1.08c.04.23.17.43.38.61.21.18.54.27.99.27.48,0,.85-.13,1.11-.4.27-.27.4-.7.4-1.29v-.67h-.24c-.11.27-.29.49-.55.67-.25.17-.6.26-1.04.26-.74,0-1.33-.27-1.76-.81-.43-.54-.64-1.28-.64-2.22,0-.61.09-1.14.28-1.59.19-.45.47-.79.82-1.03.36-.25.79-.37,1.28-.37.46,0,.81.09,1.06.28.25.19.44.4.55.65h.24v-.78h.96v5.67c0,.8-.22,1.41-.65,1.83-.43.43-1.06.64-1.87.64ZM301.23,41.97c.51,0,.91-.2,1.19-.59.28-.4.42-.91.42-1.52s-.14-1.13-.43-1.52c-.28-.39-.67-.59-1.17-.59-.47,0-.83.18-1.08.55-.25.37-.38.89-.38,1.56s.12,1.19.37,1.56c.25.37.61.55,1.08.55ZM307.55,43.15c-.91,0-1.59-.28-2.04-.85-.44-.57-.66-1.34-.66-2.3s.22-1.72.66-2.29c.45-.57,1.13-.86,2.04-.86s1.59.29,2.03.86c.45.57.67,1.33.67,2.29s-.22,1.73-.67,2.3c-.44.57-1.12.85-2.03.85ZM307.55,42.27c.55,0,.96-.2,1.21-.61.26-.41.39-.96.39-1.66s-.13-1.25-.39-1.66c-.25-.41-.66-.61-1.21-.61s-.96.2-1.22.61c-.25.41-.38.96-.38,1.66s.13,1.25.38,1.66c.26.41.67.61,1.22.61Z"/>
  <ellipse class="cls-2" cx="59.17" cy="46.5" rx="23.17" ry="23.5"/>
  <path class="cls-5" d="M52.44,57.49v-20.8h7.41c2.65,0,4.58.55,5.79,1.65,1.23,1.08,1.84,2.54,1.84,4.37s-.61,3.3-1.84,4.4c-1.21,1.08-3.14,1.63-5.79,1.63h-4.43v8.75h-2.99ZM55.42,46.34h4.29c1.67,0,2.87-.29,3.6-.88.75-.59,1.12-1.5,1.12-2.75s-.37-2.16-1.12-2.75c-.73-.59-1.93-.88-3.6-.88h-4.29v7.25Z"/>
</svg>