<svg width="353" height="97" viewBox="0 0 353 97" fill="none" xmlns="http://www.w3.org/2000/svg">
<g filter="url(#filter0_d_6_2)">
<g filter="url(#filter1_d_6_2)">
<path d="M4 20C4 8.95431 12.9543 0 24 0H329C340.046 0 349 8.95431 349 20V63C349 74.0457 340.046 83 329 83H4V20Z" fill="#FFFCFC"/>
<path d="M4.5 20C4.5 9.23045 13.2304 0.5 24 0.5H329C339.77 0.5 348.5 9.23045 348.5 20V63C348.5 73.7695 339.77 82.5 329 82.5H4.5V20Z" stroke="#C2C2C2"/>
</g>
<path d="M96.9559 44V28.4H102.996C104.996 28.4 106.449 28.82 107.356 29.66C108.276 30.4867 108.736 31.6 108.736 33C108.736 34.4 108.276 35.52 107.356 36.36C106.449 37.2 104.996 37.62 102.996 37.62H99.7359V44H96.9559ZM99.7359 35.44H102.696C103.776 35.44 104.583 35.2533 105.116 34.88C105.649 34.5067 105.916 33.8867 105.916 33.02C105.916 32.1533 105.649 31.5267 105.116 31.14C104.583 30.7533 103.776 30.56 102.696 30.56H99.7359V35.44ZM114.325 44.26C113.259 44.26 112.365 44 111.645 43.48C110.925 42.9467 110.379 42.2067 110.005 41.26C109.645 40.3133 109.465 39.22 109.465 37.98C109.465 36.7267 109.645 35.6333 110.005 34.7C110.379 33.7667 110.925 33.04 111.645 32.52C112.379 32 113.279 31.74 114.345 31.74C115.212 31.74 115.912 31.9133 116.445 32.26C116.992 32.6067 117.392 33.04 117.645 33.56H118.125V32H120.585V44H118.125V42.44H117.645C117.392 42.9333 116.992 43.36 116.445 43.72C115.912 44.08 115.205 44.26 114.325 44.26ZM114.945 42.22C115.852 42.22 116.572 41.84 117.105 41.08C117.639 40.3067 117.905 39.28 117.905 38C117.905 36.72 117.639 35.7 117.105 34.94C116.572 34.1667 115.852 33.78 114.945 33.78C114.092 33.78 113.432 34.14 112.965 34.86C112.499 35.58 112.265 36.6267 112.265 38C112.265 39.3733 112.499 40.42 112.965 41.14C113.432 41.86 114.092 42.22 114.945 42.22ZM127.905 44.3C126.012 44.3 124.592 43.7333 123.645 42.6C122.712 41.4533 122.245 39.92 122.245 38C122.245 36.08 122.712 34.5533 123.645 33.42C124.592 32.2733 126.012 31.7 127.905 31.7C129.825 31.7 131.252 32.2733 132.185 33.42C133.119 34.5533 133.585 36.08 133.585 38C133.585 39.92 133.119 41.4533 132.185 42.6C131.252 43.7333 129.825 44.3 127.905 44.3ZM127.925 42.34C128.912 42.34 129.632 41.9667 130.085 41.22C130.552 40.46 130.785 39.3867 130.785 38C130.785 36.6133 130.552 35.5467 130.085 34.8C129.632 34.04 128.912 33.66 127.925 33.66C126.925 33.66 126.192 34.04 125.725 34.8C125.272 35.5467 125.045 36.6133 125.045 38C125.045 39.3867 125.272 40.46 125.725 41.22C126.192 41.9667 126.925 42.34 127.925 42.34ZM136.156 44C135.823 43.6 135.569 43.14 135.396 42.62C135.236 42.1 135.156 41.3667 135.156 40.42V28H137.876V40.1C137.876 41.14 137.989 41.94 138.216 42.5C138.443 43.0467 138.736 43.5067 139.096 43.88V44H136.156ZM144.486 44.26C143.419 44.26 142.526 44 141.806 43.48C141.086 42.9467 140.539 42.2067 140.166 41.26C139.806 40.3133 139.626 39.22 139.626 37.98C139.626 36.7267 139.806 35.6333 140.166 34.7C140.539 33.7667 141.086 33.04 141.806 32.52C142.539 32 143.439 31.74 144.506 31.74C145.372 31.74 146.072 31.9133 146.606 32.26C147.152 32.6067 147.552 33.04 147.806 33.56H148.286V32H150.746V44H148.286V42.44H147.806C147.552 42.9333 147.152 43.36 146.606 43.72C146.072 44.08 145.366 44.26 144.486 44.26ZM145.106 42.22C146.012 42.22 146.732 41.84 147.266 41.08C147.799 40.3067 148.066 39.28 148.066 38C148.066 36.72 147.799 35.7 147.266 34.94C146.732 34.1667 146.012 33.78 145.106 33.78C144.252 33.78 143.592 34.14 143.126 34.86C142.659 35.58 142.426 36.6267 142.426 38C142.426 39.3733 142.659 40.42 143.126 41.14C143.592 41.86 144.252 42.22 145.106 42.22ZM157.37 44V28.4H162.37L165.89 41.78H166.49L170.05 28.4H175.05V44H172.37V30.74H171.87L168.41 44H163.83L160.37 30.74H159.87V44H157.37ZM182.39 44.3C180.564 44.3 179.17 43.7333 178.21 42.6C177.25 41.4533 176.77 39.9133 176.77 37.98C176.77 36.7 176.984 35.5933 177.41 34.66C177.837 33.7267 178.464 33 179.29 32.48C180.13 31.96 181.15 31.7 182.35 31.7C184.07 31.7 185.384 32.24 186.29 33.32C187.197 34.3867 187.65 35.9533 187.65 38.02V38.66H179.41C179.477 39.7533 179.757 40.6333 180.25 41.3C180.757 41.9667 181.47 42.3 182.39 42.3C183.084 42.3 183.637 42.1 184.05 41.7C184.477 41.3 184.77 40.7867 184.93 40.16H187.51C187.364 40.9333 187.084 41.6333 186.67 42.26C186.27 42.8733 185.717 43.3667 185.01 43.74C184.304 44.1133 183.43 44.3 182.39 44.3ZM179.43 36.86H185.01C184.957 35.8333 184.697 35.04 184.23 34.48C183.777 33.92 183.144 33.64 182.33 33.64C181.49 33.64 180.824 33.9133 180.33 34.46C179.837 35.0067 179.537 35.8067 179.43 36.86ZM193.249 44.26C192.195 44.26 191.309 44 190.589 43.48C189.882 42.9467 189.342 42.2067 188.969 41.26C188.609 40.3133 188.429 39.22 188.429 37.98C188.429 36.7267 188.609 35.6333 188.969 34.7C189.342 33.7667 189.882 33.04 190.589 32.52C191.309 32 192.189 31.74 193.229 31.74C194.029 31.74 194.682 31.8867 195.189 32.18C195.695 32.4733 196.089 32.8733 196.369 33.38H196.849V28H199.549V44H197.089V42.44H196.609C196.355 42.9333 195.955 43.36 195.409 43.72C194.875 44.08 194.155 44.26 193.249 44.26ZM193.909 42.22C194.815 42.22 195.535 41.84 196.069 41.08C196.602 40.3067 196.869 39.28 196.869 38C196.869 36.72 196.602 35.7 196.069 34.94C195.535 34.1667 194.815 33.78 193.909 33.78C193.055 33.78 192.395 34.14 191.929 34.86C191.462 35.58 191.229 36.6267 191.229 38C191.229 39.3733 191.462 40.42 191.929 41.14C192.395 41.86 193.055 42.22 193.909 42.22ZM202.049 44V32H204.749V44H202.049ZM203.409 30.48C202.915 30.48 202.535 30.3467 202.269 30.08C202.002 29.8 201.869 29.44 201.869 29C201.869 28.56 202.002 28.2067 202.269 27.94C202.535 27.66 202.915 27.52 203.409 27.52C203.915 27.52 204.295 27.66 204.549 27.94C204.815 28.2067 204.949 28.56 204.949 29C204.949 29.44 204.815 29.8 204.549 30.08C204.295 30.3467 203.915 30.48 203.409 30.48ZM207.235 44V32H209.695V33.8H210.175C210.415 33.1733 210.795 32.6667 211.315 32.28C211.848 31.8933 212.575 31.7 213.495 31.7C214.868 31.7 215.875 32.1267 216.515 32.98C217.168 33.82 217.495 34.94 217.495 36.34V44H214.795V36.84C214.795 35.9067 214.628 35.1933 214.295 34.7C213.962 34.1933 213.435 33.94 212.715 33.94C211.835 33.94 211.148 34.2867 210.655 34.98C210.175 35.66 209.935 36.5067 209.935 37.52V44H207.235ZM223.844 44.26C222.777 44.26 221.884 44 221.164 43.48C220.444 42.9467 219.897 42.2067 219.524 41.26C219.164 40.3133 218.984 39.22 218.984 37.98C218.984 36.7267 219.164 35.6333 219.524 34.7C219.897 33.7667 220.444 33.04 221.164 32.52C221.897 32 222.797 31.74 223.864 31.74C224.731 31.74 225.431 31.9133 225.964 32.26C226.511 32.6067 226.911 33.04 227.164 33.56H227.644V32H230.104V44H227.644V42.44H227.164C226.911 42.9333 226.511 43.36 225.964 43.72C225.431 44.08 224.724 44.26 223.844 44.26ZM224.464 42.22C225.371 42.22 226.091 41.84 226.624 41.08C227.157 40.3067 227.424 39.28 227.424 38C227.424 36.72 227.157 35.7 226.624 34.94C226.091 34.1667 225.371 33.78 224.464 33.78C223.611 33.78 222.951 34.14 222.484 34.86C222.017 35.58 221.784 36.6267 221.784 38C221.784 39.3733 222.017 40.42 222.484 41.14C222.951 41.86 223.611 42.22 224.464 42.22Z" fill="black"/>
<path d="M101.546 68.2333C99.7681 68.2333 98.4625 67.75 97.6292 66.7833C96.8069 65.8167 96.3958 64.4278 96.3958 62.6167V55H98.2958V62.7C98.2958 64.1 98.5569 65.1222 99.0792 65.7667C99.6125 66.4111 100.446 66.7333 101.579 66.7333C102.713 66.7333 103.54 66.4111 104.063 65.7667C104.596 65.1222 104.863 64.1 104.863 62.7V55H106.696V62.6167C106.696 64.4278 106.285 65.8167 105.463 66.7833C104.651 67.75 103.346 68.2333 101.546 68.2333ZM107.72 68V67.9L110.97 62.6833L108.137 58.1V58H109.97L112.037 61.4333H112.337L114.37 58H116.104V58.1L113.304 62.65L116.554 67.9V68H114.62L112.237 63.9333H111.937L109.554 68H107.72ZM121.11 68V55H125.36C127.605 55 129.227 55.5722 130.227 56.7167C131.238 57.85 131.743 59.4444 131.743 61.5C131.743 63.5556 131.238 65.1556 130.227 66.3C129.227 67.4333 127.605 68 125.36 68H121.11ZM122.993 66.4333H125.193C126.316 66.4333 127.216 66.2556 127.893 65.9C128.582 65.5333 129.077 64.9833 129.377 64.25C129.688 63.5167 129.843 62.6 129.843 61.5C129.843 60.3889 129.688 59.4722 129.377 58.75C129.077 58.0167 128.582 57.4722 127.893 57.1167C127.216 56.75 126.316 56.5667 125.193 56.5667H122.993V66.4333ZM137.076 68.25C135.609 68.25 134.492 67.7722 133.726 66.8167C132.97 65.85 132.592 64.5778 132.592 63C132.592 61.9556 132.759 61.0444 133.092 60.2667C133.437 59.4778 133.937 58.8611 134.592 58.4167C135.259 57.9722 136.081 57.75 137.059 57.75C138.426 57.75 139.464 58.1944 140.176 59.0833C140.898 59.9722 141.259 61.2611 141.259 62.95V63.4667H134.342C134.398 64.4444 134.648 65.25 135.092 65.8833C135.548 66.5056 136.214 66.8167 137.092 66.8167C137.726 66.8167 138.237 66.6389 138.626 66.2833C139.014 65.9278 139.292 65.4333 139.459 64.8H141.159C141.014 65.4778 140.776 66.0778 140.442 66.6C140.109 67.1111 139.664 67.5167 139.109 67.8167C138.553 68.1056 137.876 68.25 137.076 68.25ZM134.359 62.1667H139.509C139.476 61.2 139.242 60.4611 138.809 59.95C138.376 59.4389 137.787 59.1833 137.042 59.1833C136.253 59.1833 135.631 59.4444 135.176 59.9667C134.731 60.4889 134.459 61.2222 134.359 62.1667ZM146.118 68.25C145.196 68.25 144.435 68.0889 143.835 67.7667C143.235 67.4333 142.785 67.0056 142.485 66.4833C142.185 65.95 142.018 65.3889 141.985 64.8H143.751C143.785 65.1333 143.89 65.4611 144.068 65.7833C144.246 66.0944 144.507 66.35 144.851 66.55C145.196 66.75 145.635 66.85 146.168 66.85C146.757 66.85 147.212 66.7278 147.535 66.4833C147.857 66.2278 148.018 65.8944 148.018 65.4833C148.018 65.1278 147.89 64.8278 147.635 64.5833C147.39 64.3278 147.007 64.1056 146.485 63.9167L145.301 63.5C144.768 63.3 144.285 63.0833 143.851 62.85C143.429 62.6056 143.09 62.3056 142.835 61.95C142.579 61.5833 142.451 61.1222 142.451 60.5667C142.451 59.7111 142.757 59.0278 143.368 58.5167C143.979 58.0056 144.818 57.75 145.885 57.75C146.651 57.75 147.285 57.8833 147.785 58.15C148.296 58.4167 148.685 58.7833 148.951 59.25C149.218 59.7056 149.374 60.2222 149.418 60.8H147.718C147.674 60.3778 147.507 60 147.218 59.6667C146.929 59.3222 146.457 59.15 145.801 59.15C145.279 59.15 144.879 59.2667 144.601 59.5C144.324 59.7222 144.185 60.0278 144.185 60.4167C144.185 60.7944 144.318 61.1056 144.585 61.35C144.851 61.5944 145.251 61.8167 145.785 62.0167L146.968 62.4167C147.501 62.6167 147.979 62.8389 148.401 63.0833C148.824 63.3167 149.151 63.6111 149.385 63.9667C149.629 64.3222 149.751 64.7778 149.751 65.3333C149.751 66.1889 149.44 66.8889 148.818 67.4333C148.196 67.9778 147.296 68.25 146.118 68.25ZM151.255 68V58H153.055V68H151.255ZM152.155 56.6C151.811 56.6 151.539 56.5 151.339 56.3C151.15 56.1 151.055 55.8333 151.055 55.5C151.055 55.1667 151.15 54.9 151.339 54.7C151.539 54.5 151.811 54.4 152.155 54.4C152.511 54.4 152.783 54.5 152.972 54.7C153.161 54.9 153.255 55.1667 153.255 55.5C153.255 55.8333 153.161 56.1 152.972 56.3C152.783 56.5 152.511 56.6 152.155 56.6ZM159.09 71.5667C158.379 71.5667 157.779 71.4778 157.29 71.3C156.801 71.1222 156.401 70.8889 156.09 70.6C155.779 70.3222 155.545 70.0167 155.39 69.6833C155.234 69.35 155.134 69.0222 155.09 68.7H156.89C156.957 69.0778 157.168 69.4167 157.523 69.7167C157.879 70.0167 158.429 70.1667 159.173 70.1667C159.973 70.1667 160.59 69.9444 161.023 69.5C161.468 69.0556 161.69 68.3389 161.69 67.35V66.2333H161.29C161.112 66.6778 160.807 67.05 160.373 67.35C159.951 67.6389 159.373 67.7833 158.64 67.7833C157.407 67.7833 156.429 67.3333 155.707 66.4333C154.995 65.5333 154.64 64.3 154.64 62.7333C154.64 61.7111 154.795 60.8278 155.107 60.0833C155.429 59.3389 155.884 58.7667 156.473 58.3667C157.073 57.9556 157.784 57.75 158.607 57.75C159.373 57.75 159.962 57.9056 160.373 58.2167C160.795 58.5278 161.101 58.8889 161.29 59.3H161.69V58H163.29V67.45C163.29 68.7833 162.929 69.8 162.207 70.5C161.484 71.2111 160.445 71.5667 159.09 71.5667ZM158.857 66.2833C159.712 66.2833 160.373 65.9556 160.84 65.3C161.307 64.6333 161.54 63.7889 161.54 62.7667C161.54 61.7222 161.301 60.8778 160.823 60.2333C160.357 59.5778 159.707 59.25 158.873 59.25C158.095 59.25 157.495 59.5556 157.073 60.1667C156.651 60.7778 156.44 61.6444 156.44 62.7667C156.44 63.8889 156.645 64.7556 157.057 65.3667C157.479 65.9778 158.079 66.2833 158.857 66.2833ZM165.563 68V58H167.163V59.5H167.563C167.752 58.9444 168.08 58.5167 168.546 58.2167C169.013 57.9056 169.607 57.75 170.33 57.75C171.496 57.75 172.341 58.1111 172.863 58.8333C173.396 59.5444 173.663 60.4611 173.663 61.5833V68H171.863V61.9667C171.863 61.1 171.707 60.4389 171.396 59.9833C171.085 59.5167 170.602 59.2833 169.946 59.2833C169.135 59.2833 168.502 59.6056 168.046 60.25C167.591 60.8833 167.363 61.6722 167.363 62.6167V68H165.563ZM179.603 68.25C178.136 68.25 177.02 67.7722 176.253 66.8167C175.497 65.85 175.12 64.5778 175.12 63C175.12 61.9556 175.286 61.0444 175.62 60.2667C175.964 59.4778 176.464 58.8611 177.12 58.4167C177.786 57.9722 178.608 57.75 179.586 57.75C180.953 57.75 181.992 58.1944 182.703 59.0833C183.425 59.9722 183.786 61.2611 183.786 62.95V63.4667H176.87C176.925 64.4444 177.175 65.25 177.62 65.8833C178.075 66.5056 178.742 66.8167 179.62 66.8167C180.253 66.8167 180.764 66.6389 181.153 66.2833C181.542 65.9278 181.82 65.4333 181.986 64.8H183.686C183.542 65.4778 183.303 66.0778 182.97 66.6C182.636 67.1111 182.192 67.5167 181.636 67.8167C181.081 68.1056 180.403 68.25 179.603 68.25ZM176.886 62.1667H182.036C182.003 61.2 181.77 60.4611 181.336 59.95C180.903 59.4389 180.314 59.1833 179.57 59.1833C178.781 59.1833 178.158 59.4444 177.703 59.9667C177.258 60.4889 176.986 61.2222 176.886 62.1667ZM185.412 68V58H187.012V59.7H187.412C187.479 59.4222 187.595 59.1444 187.762 58.8667C187.929 58.5889 188.195 58.3611 188.562 58.1833C188.929 57.9944 189.445 57.9 190.112 57.9H190.445V59.6H189.945C188.945 59.6 188.24 59.8611 187.829 60.3833C187.418 60.8944 187.212 61.7 187.212 62.8V68H185.412Z" fill="black"/>
</g>
<path d="M260.098 43V42C260.678 41.54 261.155 41.1533 261.528 40.84C261.908 40.5267 262.241 40.2333 262.528 39.96C263.048 39.46 263.428 39.0133 263.668 38.62C263.915 38.22 264.038 37.8033 264.038 37.37C264.038 36.9367 263.918 36.5867 263.678 36.32C263.438 36.0533 263.081 35.92 262.608 35.92C262.088 35.92 261.708 36.0833 261.468 36.41C261.228 36.73 261.108 37.1267 261.108 37.6H260.098C260.098 37.1133 260.195 36.68 260.388 36.3C260.588 35.9133 260.878 35.61 261.258 35.39C261.645 35.17 262.111 35.06 262.658 35.06C263.405 35.06 264.001 35.2567 264.448 35.65C264.895 36.0433 265.118 36.5767 265.118 37.25C265.118 37.8767 264.941 38.46 264.588 39C264.241 39.5333 263.798 40.0467 263.258 40.54C263.051 40.7333 262.798 40.9433 262.498 41.17C262.205 41.3967 261.861 41.6267 261.468 41.86V42.06H265.298V43H260.098ZM268.927 45V44.94C269.121 44.6467 269.324 44.3 269.537 43.9C269.751 43.5067 269.944 43.1033 270.117 42.69L267.957 37.06V37H269.037L270.157 40C270.224 40.1733 270.287 40.3567 270.347 40.55C270.414 40.7367 270.481 40.9667 270.547 41.24H270.787C270.854 40.9667 270.917 40.7367 270.977 40.55C271.044 40.3567 271.111 40.1733 271.177 40L272.297 37H273.297V37.06L271.237 42.46C271.037 42.9867 270.831 43.4733 270.617 43.92C270.411 44.3667 270.221 44.7267 270.047 45H268.927ZM276.253 43.15C275.373 43.15 274.703 42.8633 274.243 42.29C273.789 41.71 273.563 40.9467 273.563 40C273.563 39.3733 273.663 38.8267 273.863 38.36C274.069 37.8867 274.369 37.5167 274.763 37.25C275.163 36.9833 275.656 36.85 276.243 36.85C277.063 36.85 277.686 37.1167 278.113 37.65C278.546 38.1833 278.763 38.9567 278.763 39.97V40.28H274.613C274.646 40.8667 274.796 41.35 275.063 41.73C275.336 42.1033 275.736 42.29 276.263 42.29C276.643 42.29 276.949 42.1833 277.183 41.97C277.416 41.7567 277.583 41.46 277.683 41.08H278.703C278.616 41.4867 278.473 41.8467 278.273 42.16C278.073 42.4667 277.806 42.71 277.473 42.89C277.139 43.0633 276.733 43.15 276.253 43.15ZM274.623 39.5H277.713C277.693 38.92 277.553 38.4767 277.293 38.17C277.033 37.8633 276.679 37.71 276.233 37.71C275.759 37.71 275.386 37.8667 275.113 38.18C274.846 38.4933 274.683 38.9333 274.623 39.5ZM281.728 43.15C281.215 43.15 280.778 43.02 280.418 42.76C280.058 42.5 279.781 42.1367 279.588 41.67C279.401 41.1967 279.308 40.64 279.308 40C279.308 39.36 279.401 38.8067 279.588 38.34C279.781 37.8667 280.058 37.5 280.418 37.24C280.785 36.98 281.228 36.85 281.748 36.85C282.201 36.85 282.561 36.9467 282.828 37.14C283.101 37.3267 283.291 37.54 283.398 37.78H283.638V37H284.598V43H283.638V42.22H283.398C283.291 42.46 283.101 42.6767 282.828 42.87C282.555 43.0567 282.188 43.15 281.728 43.15ZM281.918 42.25C282.418 42.25 282.815 42.0433 283.108 41.63C283.401 41.2167 283.548 40.6733 283.548 40C283.548 39.3267 283.401 38.7833 283.108 38.37C282.815 37.9567 282.418 37.75 281.918 37.75C281.431 37.75 281.058 37.9467 280.798 38.34C280.538 38.7333 280.408 39.2867 280.408 40C280.408 40.7133 280.538 41.2667 280.798 41.66C281.058 42.0533 281.431 42.25 281.918 42.25ZM285.976 43V37H286.936V38.02H287.176C287.216 37.8533 287.286 37.6867 287.386 37.52C287.486 37.3533 287.646 37.2167 287.866 37.11C288.086 36.9967 288.396 36.94 288.796 36.94H288.996V37.96H288.696C288.096 37.96 287.672 38.1167 287.426 38.43C287.179 38.7367 287.056 39.22 287.056 39.88V43H285.976ZM291.751 43.15C291.198 43.15 290.741 43.0533 290.381 42.86C290.021 42.66 289.751 42.4033 289.571 42.09C289.391 41.77 289.291 41.4333 289.271 41.08H290.331C290.351 41.28 290.414 41.4767 290.521 41.67C290.628 41.8567 290.784 42.01 290.991 42.13C291.198 42.25 291.461 42.31 291.781 42.31C292.134 42.31 292.408 42.2367 292.601 42.09C292.794 41.9367 292.891 41.7367 292.891 41.49C292.891 41.2767 292.814 41.0967 292.661 40.95C292.514 40.7967 292.284 40.6633 291.971 40.55L291.261 40.3C290.941 40.18 290.651 40.05 290.391 39.91C290.138 39.7633 289.934 39.5833 289.781 39.37C289.628 39.15 289.551 38.8733 289.551 38.54C289.551 38.0267 289.734 37.6167 290.101 37.31C290.468 37.0033 290.971 36.85 291.611 36.85C292.071 36.85 292.451 36.93 292.751 37.09C293.058 37.25 293.291 37.47 293.451 37.75C293.611 38.0233 293.704 38.3333 293.731 38.68H292.711C292.684 38.4267 292.584 38.2 292.411 38C292.238 37.7933 291.954 37.69 291.561 37.69C291.248 37.69 291.008 37.76 290.841 37.9C290.674 38.0333 290.591 38.2167 290.591 38.45C290.591 38.6767 290.671 38.8633 290.831 39.01C290.991 39.1567 291.231 39.29 291.551 39.41L292.261 39.65C292.581 39.77 292.868 39.9033 293.121 40.05C293.374 40.19 293.571 40.3667 293.711 40.58C293.858 40.7933 293.931 41.0667 293.931 41.4C293.931 41.9133 293.744 42.3333 293.371 42.66C292.998 42.9867 292.458 43.15 291.751 43.15ZM298.886 43.15C298.372 43.15 297.936 43.02 297.576 42.76C297.216 42.5 296.939 42.1367 296.746 41.67C296.559 41.1967 296.466 40.64 296.466 40C296.466 39.36 296.559 38.8067 296.746 38.34C296.939 37.8667 297.216 37.5 297.576 37.24C297.942 36.98 298.386 36.85 298.906 36.85C299.359 36.85 299.719 36.9467 299.986 37.14C300.259 37.3267 300.449 37.54 300.556 37.78H300.796V37H301.756V43H300.796V42.22H300.556C300.449 42.46 300.259 42.6767 299.986 42.87C299.712 43.0567 299.346 43.15 298.886 43.15ZM299.076 42.25C299.576 42.25 299.972 42.0433 300.266 41.63C300.559 41.2167 300.706 40.6733 300.706 40C300.706 39.3267 300.559 38.7833 300.266 38.37C299.972 37.9567 299.576 37.75 299.076 37.75C298.589 37.75 298.216 37.9467 297.956 38.34C297.696 38.7333 297.566 39.2867 297.566 40C297.566 40.7133 297.696 41.2667 297.956 41.66C298.216 42.0533 298.589 42.25 299.076 42.25ZM305.373 45.14C304.947 45.14 304.587 45.0867 304.293 44.98C304 44.8733 303.76 44.7333 303.573 44.56C303.387 44.3933 303.247 44.21 303.153 44.01C303.06 43.81 303 43.6133 302.973 43.42H304.053C304.093 43.6467 304.22 43.85 304.433 44.03C304.647 44.21 304.977 44.3 305.423 44.3C305.903 44.3 306.273 44.1667 306.533 43.9C306.8 43.6333 306.933 43.2033 306.933 42.61V41.94H306.693C306.587 42.2067 306.403 42.43 306.143 42.61C305.89 42.7833 305.543 42.87 305.103 42.87C304.363 42.87 303.777 42.6 303.343 42.06C302.917 41.52 302.703 40.78 302.703 39.84C302.703 39.2267 302.797 38.6967 302.983 38.25C303.177 37.8033 303.45 37.46 303.803 37.22C304.163 36.9733 304.59 36.85 305.083 36.85C305.543 36.85 305.897 36.9433 306.143 37.13C306.397 37.3167 306.58 37.5333 306.693 37.78H306.933V37H307.893V42.67C307.893 43.47 307.677 44.08 307.243 44.5C306.81 44.9267 306.187 45.14 305.373 45.14ZM305.233 41.97C305.747 41.97 306.143 41.7733 306.423 41.38C306.703 40.98 306.843 40.4733 306.843 39.86C306.843 39.2333 306.7 38.7267 306.413 38.34C306.133 37.9467 305.743 37.75 305.243 37.75C304.777 37.75 304.417 37.9333 304.163 38.3C303.91 38.6667 303.783 39.1867 303.783 39.86C303.783 40.5333 303.907 41.0533 304.153 41.42C304.407 41.7867 304.767 41.97 305.233 41.97ZM311.547 43.15C310.634 43.15 309.954 42.8667 309.507 42.3C309.067 41.7267 308.847 40.96 308.847 40C308.847 39.04 309.067 38.2767 309.507 37.71C309.954 37.1367 310.634 36.85 311.547 36.85C312.461 36.85 313.137 37.1367 313.577 37.71C314.024 38.2767 314.247 39.04 314.247 40C314.247 40.96 314.024 41.7267 313.577 42.3C313.137 42.8667 312.461 43.15 311.547 43.15ZM311.547 42.27C312.101 42.27 312.504 42.0667 312.757 41.66C313.017 41.2533 313.147 40.7 313.147 40C313.147 39.3 313.017 38.7467 312.757 38.34C312.504 37.9333 312.101 37.73 311.547 37.73C310.994 37.73 310.587 37.9333 310.327 38.34C310.074 38.7467 309.947 39.3 309.947 40C309.947 40.7 310.074 41.2533 310.327 41.66C310.587 42.0667 310.994 42.27 311.547 42.27Z" fill="#605A5A"/>
<ellipse cx="63.1699" cy="46.5" rx="23.1699" ry="23.5" fill="#828080"/>
<path d="M56.4351 57.4889V36.6889H63.8484C66.4973 36.6889 68.4262 37.24 69.6351 38.3422C70.8617 39.4267 71.4751 40.8844 71.4751 42.7156C71.4751 44.5467 70.8617 46.0133 69.6351 47.1156C68.4262 48.2 66.4973 48.7422 63.8484 48.7422H59.4217V57.4889H56.4351ZM59.4217 46.3422H63.7151C65.3862 46.3422 66.5862 46.0489 67.3151 45.4622C68.0617 44.8756 68.4351 43.96 68.4351 42.7156C68.4351 41.4711 68.0617 40.5556 67.3151 39.9689C66.5862 39.3822 65.3862 39.0889 63.7151 39.0889H59.4217V46.3422Z" fill="white"/>
<defs>
<filter id="filter0_d_6_2" x="0" y="0" width="353" height="97" filterUnits="userSpaceOnUse" color-interpolation-filters="sRGB">
<feFlood flood-opacity="0" result="BackgroundImageFix"/>
<feColorMatrix in="SourceAlpha" type="matrix" values="0 0 0 0 0 0 0 0 0 0 0 0 0 0 0 0 0 0 127 0" result="hardAlpha"/>
<feOffset dy="10"/>
<feGaussianBlur stdDeviation="2"/>
<feComposite in2="hardAlpha" operator="out"/>
<feColorMatrix type="matrix" values="0 0 0 0 0 0 0 0 0 0 0 0 0 0 0 0 0 0 0.25 0"/>
<feBlend mode="normal" in2="BackgroundImageFix" result="effect1_dropShadow_6_2"/>
<feBlend mode="normal" in="SourceGraphic" in2="effect1_dropShadow_6_2" result="shape"/>
</filter>
<filter id="filter1_d_6_2" x="0" y="0" width="353" height="91" filterUnits="userSpaceOnUse" color-interpolation-filters="sRGB">
<feFlood flood-opacity="0" result="BackgroundImageFix"/>
<feColorMatrix in="SourceAlpha" type="matrix" values="0 0 0 0 0 0 0 0 0 0 0 0 0 0 0 0 0 0 127 0" result="hardAlpha"/>
<feOffset dy="4"/>
<feGaussianBlur stdDeviation="2"/>
<feComposite in2="hardAlpha" operator="out"/>
<feColorMatrix type="matrix" values="0 0 0 0 0.760784 0 0 0 0 0.760784 0 0 0 0 0.760784 0 0 0 0.25 0"/>
<feBlend mode="normal" in2="BackgroundImageFix" result="effect1_dropShadow_6_2"/>
<feBlend mode="normal" in="SourceGraphic" in2="effect1_dropShadow_6_2" result="shape"/>
</filter>
</defs>
</svg>
