<svg width="346" height="73" viewBox="0 0 346 73" fill="none" xmlns="http://www.w3.org/2000/svg">
<path d="M0 20C0 8.95431 8.9543 0 20 0H326C337.046 0 346 8.95431 346 20V53C346 64.0457 337.046 73 326 73H0V20Z" fill="#FFFCFC"/>
<path d="M88.9559 39V23.4H94.9959C96.9959 23.4 98.4493 23.82 99.3559 24.66C100.276 25.4867 100.736 26.6 100.736 28C100.736 29.4 100.276 30.52 99.3559 31.36C98.4493 32.2 96.9959 32.62 94.9959 32.62H91.7359V39H88.9559ZM91.7359 30.44H94.6959C95.7759 30.44 96.5826 30.2533 97.1159 29.88C97.6493 29.5067 97.9159 28.8867 97.9159 28.02C97.9159 27.1533 97.6493 26.5267 97.1159 26.14C96.5826 25.7533 95.7759 25.56 94.6959 25.56H91.7359V30.44ZM106.325 39.26C105.259 39.26 104.365 39 103.645 38.48C102.925 37.9467 102.379 37.2067 102.005 36.26C101.645 35.3133 101.465 34.22 101.465 32.98C101.465 31.7267 101.645 30.6333 102.005 29.7C102.379 28.7667 102.925 28.04 103.645 27.52C104.379 27 105.279 26.74 106.345 26.74C107.212 26.74 107.912 26.9133 108.445 27.26C108.992 27.6067 109.392 28.04 109.645 28.56H110.125V27H112.585V39H110.125V37.44H109.645C109.392 37.9333 108.992 38.36 108.445 38.72C107.912 39.08 107.205 39.26 106.325 39.26ZM106.945 37.22C107.852 37.22 108.572 36.84 109.105 36.08C109.639 35.3067 109.905 34.28 109.905 33C109.905 31.72 109.639 30.7 109.105 29.94C108.572 29.1667 107.852 28.78 106.945 28.78C106.092 28.78 105.432 29.14 104.965 29.86C104.499 30.58 104.265 31.6267 104.265 33C104.265 34.3733 104.499 35.42 104.965 36.14C105.432 36.86 106.092 37.22 106.945 37.22ZM119.905 39.3C118.012 39.3 116.592 38.7333 115.645 37.6C114.712 36.4533 114.245 34.92 114.245 33C114.245 31.08 114.712 29.5533 115.645 28.42C116.592 27.2733 118.012 26.7 119.905 26.7C121.825 26.7 123.252 27.2733 124.185 28.42C125.119 29.5533 125.585 31.08 125.585 33C125.585 34.92 125.119 36.4533 124.185 37.6C123.252 38.7333 121.825 39.3 119.905 39.3ZM119.925 37.34C120.912 37.34 121.632 36.9667 122.085 36.22C122.552 35.46 122.785 34.3867 122.785 33C122.785 31.6133 122.552 30.5467 122.085 29.8C121.632 29.04 120.912 28.66 119.925 28.66C118.925 28.66 118.192 29.04 117.725 29.8C117.272 30.5467 117.045 31.6133 117.045 33C117.045 34.3867 117.272 35.46 117.725 36.22C118.192 36.9667 118.925 37.34 119.925 37.34ZM128.156 39C127.823 38.6 127.569 38.14 127.396 37.62C127.236 37.1 127.156 36.3667 127.156 35.42V23H129.876V35.1C129.876 36.14 129.989 36.94 130.216 37.5C130.443 38.0467 130.736 38.5067 131.096 38.88V39H128.156ZM136.486 39.26C135.419 39.26 134.526 39 133.806 38.48C133.086 37.9467 132.539 37.2067 132.166 36.26C131.806 35.3133 131.626 34.22 131.626 32.98C131.626 31.7267 131.806 30.6333 132.166 29.7C132.539 28.7667 133.086 28.04 133.806 27.52C134.539 27 135.439 26.74 136.506 26.74C137.372 26.74 138.072 26.9133 138.606 27.26C139.152 27.6067 139.552 28.04 139.806 28.56H140.286V27H142.746V39H140.286V37.44H139.806C139.552 37.9333 139.152 38.36 138.606 38.72C138.072 39.08 137.366 39.26 136.486 39.26ZM137.106 37.22C138.012 37.22 138.732 36.84 139.266 36.08C139.799 35.3067 140.066 34.28 140.066 33C140.066 31.72 139.799 30.7 139.266 29.94C138.732 29.1667 138.012 28.78 137.106 28.78C136.252 28.78 135.592 29.14 135.126 29.86C134.659 30.58 134.426 31.6267 134.426 33C134.426 34.3733 134.659 35.42 135.126 36.14C135.592 36.86 136.252 37.22 137.106 37.22ZM149.37 39V23.4H154.37L157.89 36.78H158.49L162.05 23.4H167.05V39H164.37V25.74H163.87L160.41 39H155.83L152.37 25.74H151.87V39H149.37ZM174.39 39.3C172.564 39.3 171.17 38.7333 170.21 37.6C169.25 36.4533 168.77 34.9133 168.77 32.98C168.77 31.7 168.984 30.5933 169.41 29.66C169.837 28.7267 170.464 28 171.29 27.48C172.13 26.96 173.15 26.7 174.35 26.7C176.07 26.7 177.384 27.24 178.29 28.32C179.197 29.3867 179.65 30.9533 179.65 33.02V33.66H171.41C171.477 34.7533 171.757 35.6333 172.25 36.3C172.757 36.9667 173.47 37.3 174.39 37.3C175.084 37.3 175.637 37.1 176.05 36.7C176.477 36.3 176.77 35.7867 176.93 35.16H179.51C179.364 35.9333 179.084 36.6333 178.67 37.26C178.27 37.8733 177.717 38.3667 177.01 38.74C176.304 39.1133 175.43 39.3 174.39 39.3ZM171.43 31.86H177.01C176.957 30.8333 176.697 30.04 176.23 29.48C175.777 28.92 175.144 28.64 174.33 28.64C173.49 28.64 172.824 28.9133 172.33 29.46C171.837 30.0067 171.537 30.8067 171.43 31.86ZM185.249 39.26C184.195 39.26 183.309 39 182.589 38.48C181.882 37.9467 181.342 37.2067 180.969 36.26C180.609 35.3133 180.429 34.22 180.429 32.98C180.429 31.7267 180.609 30.6333 180.969 29.7C181.342 28.7667 181.882 28.04 182.589 27.52C183.309 27 184.189 26.74 185.229 26.74C186.029 26.74 186.682 26.8867 187.189 27.18C187.695 27.4733 188.089 27.8733 188.369 28.38H188.849V23H191.549V39H189.089V37.44H188.609C188.355 37.9333 187.955 38.36 187.409 38.72C186.875 39.08 186.155 39.26 185.249 39.26ZM185.909 37.22C186.815 37.22 187.535 36.84 188.069 36.08C188.602 35.3067 188.869 34.28 188.869 33C188.869 31.72 188.602 30.7 188.069 29.94C187.535 29.1667 186.815 28.78 185.909 28.78C185.055 28.78 184.395 29.14 183.929 29.86C183.462 30.58 183.229 31.6267 183.229 33C183.229 34.3733 183.462 35.42 183.929 36.14C184.395 36.86 185.055 37.22 185.909 37.22ZM194.049 39V27H196.749V39H194.049ZM195.409 25.48C194.915 25.48 194.535 25.3467 194.269 25.08C194.002 24.8 193.869 24.44 193.869 24C193.869 23.56 194.002 23.2067 194.269 22.94C194.535 22.66 194.915 22.52 195.409 22.52C195.915 22.52 196.295 22.66 196.549 22.94C196.815 23.2067 196.949 23.56 196.949 24C196.949 24.44 196.815 24.8 196.549 25.08C196.295 25.3467 195.915 25.48 195.409 25.48ZM199.235 39V27H201.695V28.8H202.175C202.415 28.1733 202.795 27.6667 203.315 27.28C203.848 26.8933 204.575 26.7 205.495 26.7C206.868 26.7 207.875 27.1267 208.515 27.98C209.168 28.82 209.495 29.94 209.495 31.34V39H206.795V31.84C206.795 30.9067 206.628 30.1933 206.295 29.7C205.962 29.1933 205.435 28.94 204.715 28.94C203.835 28.94 203.148 29.2867 202.655 29.98C202.175 30.66 201.935 31.5067 201.935 32.52V39H199.235ZM215.844 39.26C214.777 39.26 213.884 39 213.164 38.48C212.444 37.9467 211.897 37.2067 211.524 36.26C211.164 35.3133 210.984 34.22 210.984 32.98C210.984 31.7267 211.164 30.6333 211.524 29.7C211.897 28.7667 212.444 28.04 213.164 27.52C213.897 27 214.797 26.74 215.864 26.74C216.731 26.74 217.431 26.9133 217.964 27.26C218.511 27.6067 218.911 28.04 219.164 28.56H219.644V27H222.104V39H219.644V37.44H219.164C218.911 37.9333 218.511 38.36 217.964 38.72C217.431 39.08 216.724 39.26 215.844 39.26ZM216.464 37.22C217.371 37.22 218.091 36.84 218.624 36.08C219.157 35.3067 219.424 34.28 219.424 33C219.424 31.72 219.157 30.7 218.624 29.94C218.091 29.1667 217.371 28.78 216.464 28.78C215.611 28.78 214.951 29.14 214.484 29.86C214.017 30.58 213.784 31.6267 213.784 33C213.784 34.3733 214.017 35.42 214.484 36.14C214.951 36.86 215.611 37.22 216.464 37.22Z" fill="black"/>
<path d="M93.5458 63.2333C91.7681 63.2333 90.4625 62.75 89.6292 61.7833C88.8069 60.8167 88.3958 59.4278 88.3958 57.6167V50H90.2958V57.7C90.2958 59.1 90.5569 60.1222 91.0792 60.7667C91.6125 61.4111 92.4458 61.7333 93.5792 61.7333C94.7125 61.7333 95.5403 61.4111 96.0625 60.7667C96.5958 60.1222 96.8625 59.1 96.8625 57.7V50H98.6958V57.6167C98.6958 59.4278 98.2847 60.8167 97.4625 61.7833C96.6514 62.75 95.3458 63.2333 93.5458 63.2333ZM99.7203 63V62.9L102.97 57.6833L100.137 53.1V53H101.97L104.037 56.4333H104.337L106.37 53H108.104V53.1L105.304 57.65L108.554 62.9V63H106.62L104.237 58.9333H103.937L101.554 63H99.7203ZM113.11 63V50H117.36C119.605 50 121.227 50.5722 122.227 51.7167C123.238 52.85 123.743 54.4444 123.743 56.5C123.743 58.5556 123.238 60.1556 122.227 61.3C121.227 62.4333 119.605 63 117.36 63H113.11ZM114.993 61.4333H117.193C118.316 61.4333 119.216 61.2556 119.893 60.9C120.582 60.5333 121.077 59.9833 121.377 59.25C121.688 58.5167 121.843 57.6 121.843 56.5C121.843 55.3889 121.688 54.4722 121.377 53.75C121.077 53.0167 120.582 52.4722 119.893 52.1167C119.216 51.75 118.316 51.5667 117.193 51.5667H114.993V61.4333ZM129.076 63.25C127.609 63.25 126.492 62.7722 125.726 61.8167C124.97 60.85 124.592 59.5778 124.592 58C124.592 56.9556 124.759 56.0444 125.092 55.2667C125.437 54.4778 125.937 53.8611 126.592 53.4167C127.259 52.9722 128.081 52.75 129.059 52.75C130.426 52.75 131.464 53.1944 132.176 54.0833C132.898 54.9722 133.259 56.2611 133.259 57.95V58.4667H126.342C126.398 59.4444 126.648 60.25 127.092 60.8833C127.548 61.5056 128.214 61.8167 129.092 61.8167C129.726 61.8167 130.237 61.6389 130.626 61.2833C131.014 60.9278 131.292 60.4333 131.459 59.8H133.159C133.014 60.4778 132.776 61.0778 132.442 61.6C132.109 62.1111 131.664 62.5167 131.109 62.8167C130.553 63.1056 129.876 63.25 129.076 63.25ZM126.359 57.1667H131.509C131.476 56.2 131.242 55.4611 130.809 54.95C130.376 54.4389 129.787 54.1833 129.042 54.1833C128.253 54.1833 127.631 54.4444 127.176 54.9667C126.731 55.4889 126.459 56.2222 126.359 57.1667ZM138.118 63.25C137.196 63.25 136.435 63.0889 135.835 62.7667C135.235 62.4333 134.785 62.0056 134.485 61.4833C134.185 60.95 134.018 60.3889 133.985 59.8H135.751C135.785 60.1333 135.89 60.4611 136.068 60.7833C136.246 61.0944 136.507 61.35 136.851 61.55C137.196 61.75 137.635 61.85 138.168 61.85C138.757 61.85 139.212 61.7278 139.535 61.4833C139.857 61.2278 140.018 60.8944 140.018 60.4833C140.018 60.1278 139.89 59.8278 139.635 59.5833C139.39 59.3278 139.007 59.1056 138.485 58.9167L137.301 58.5C136.768 58.3 136.285 58.0833 135.851 57.85C135.429 57.6056 135.09 57.3056 134.835 56.95C134.579 56.5833 134.451 56.1222 134.451 55.5667C134.451 54.7111 134.757 54.0278 135.368 53.5167C135.979 53.0056 136.818 52.75 137.885 52.75C138.651 52.75 139.285 52.8833 139.785 53.15C140.296 53.4167 140.685 53.7833 140.951 54.25C141.218 54.7056 141.374 55.2222 141.418 55.8H139.718C139.674 55.3778 139.507 55 139.218 54.6667C138.929 54.3222 138.457 54.15 137.801 54.15C137.279 54.15 136.879 54.2667 136.601 54.5C136.324 54.7222 136.185 55.0278 136.185 55.4167C136.185 55.7944 136.318 56.1056 136.585 56.35C136.851 56.5944 137.251 56.8167 137.785 57.0167L138.968 57.4167C139.501 57.6167 139.979 57.8389 140.401 58.0833C140.824 58.3167 141.151 58.6111 141.385 58.9667C141.629 59.3222 141.751 59.7778 141.751 60.3333C141.751 61.1889 141.44 61.8889 140.818 62.4333C140.196 62.9778 139.296 63.25 138.118 63.25ZM143.255 63V53H145.055V63H143.255ZM144.155 51.6C143.811 51.6 143.539 51.5 143.339 51.3C143.15 51.1 143.055 50.8333 143.055 50.5C143.055 50.1667 143.15 49.9 143.339 49.7C143.539 49.5 143.811 49.4 144.155 49.4C144.511 49.4 144.783 49.5 144.972 49.7C145.161 49.9 145.255 50.1667 145.255 50.5C145.255 50.8333 145.161 51.1 144.972 51.3C144.783 51.5 144.511 51.6 144.155 51.6ZM151.09 66.5667C150.379 66.5667 149.779 66.4778 149.29 66.3C148.801 66.1222 148.401 65.8889 148.09 65.6C147.779 65.3222 147.545 65.0167 147.39 64.6833C147.234 64.35 147.134 64.0222 147.09 63.7H148.89C148.957 64.0778 149.168 64.4167 149.523 64.7167C149.879 65.0167 150.429 65.1667 151.173 65.1667C151.973 65.1667 152.59 64.9444 153.023 64.5C153.468 64.0556 153.69 63.3389 153.69 62.35V61.2333H153.29C153.112 61.6778 152.807 62.05 152.373 62.35C151.951 62.6389 151.373 62.7833 150.64 62.7833C149.407 62.7833 148.429 62.3333 147.707 61.4333C146.995 60.5333 146.64 59.3 146.64 57.7333C146.64 56.7111 146.795 55.8278 147.107 55.0833C147.429 54.3389 147.884 53.7667 148.473 53.3667C149.073 52.9556 149.784 52.75 150.607 52.75C151.373 52.75 151.962 52.9056 152.373 53.2167C152.795 53.5278 153.101 53.8889 153.29 54.3H153.69V53H155.29V62.45C155.29 63.7833 154.929 64.8 154.207 65.5C153.484 66.2111 152.445 66.5667 151.09 66.5667ZM150.857 61.2833C151.712 61.2833 152.373 60.9556 152.84 60.3C153.307 59.6333 153.54 58.7889 153.54 57.7667C153.54 56.7222 153.301 55.8778 152.823 55.2333C152.357 54.5778 151.707 54.25 150.873 54.25C150.095 54.25 149.495 54.5556 149.073 55.1667C148.651 55.7778 148.44 56.6444 148.44 57.7667C148.44 58.8889 148.645 59.7556 149.057 60.3667C149.479 60.9778 150.079 61.2833 150.857 61.2833ZM157.563 63V53H159.163V54.5H159.563C159.752 53.9444 160.08 53.5167 160.546 53.2167C161.013 52.9056 161.607 52.75 162.33 52.75C163.496 52.75 164.341 53.1111 164.863 53.8333C165.396 54.5444 165.663 55.4611 165.663 56.5833V63H163.863V56.9667C163.863 56.1 163.707 55.4389 163.396 54.9833C163.085 54.5167 162.602 54.2833 161.946 54.2833C161.135 54.2833 160.502 54.6056 160.046 55.25C159.591 55.8833 159.363 56.6722 159.363 57.6167V63H157.563ZM171.603 63.25C170.136 63.25 169.02 62.7722 168.253 61.8167C167.497 60.85 167.12 59.5778 167.12 58C167.12 56.9556 167.286 56.0444 167.62 55.2667C167.964 54.4778 168.464 53.8611 169.12 53.4167C169.786 52.9722 170.608 52.75 171.586 52.75C172.953 52.75 173.992 53.1944 174.703 54.0833C175.425 54.9722 175.786 56.2611 175.786 57.95V58.4667H168.87C168.925 59.4444 169.175 60.25 169.62 60.8833C170.075 61.5056 170.742 61.8167 171.62 61.8167C172.253 61.8167 172.764 61.6389 173.153 61.2833C173.542 60.9278 173.82 60.4333 173.986 59.8H175.686C175.542 60.4778 175.303 61.0778 174.97 61.6C174.636 62.1111 174.192 62.5167 173.636 62.8167C173.081 63.1056 172.403 63.25 171.603 63.25ZM168.886 57.1667H174.036C174.003 56.2 173.77 55.4611 173.336 54.95C172.903 54.4389 172.314 54.1833 171.57 54.1833C170.781 54.1833 170.158 54.4444 169.703 54.9667C169.258 55.4889 168.986 56.2222 168.886 57.1667ZM177.412 63V53H179.012V54.7H179.412C179.479 54.4222 179.595 54.1444 179.762 53.8667C179.929 53.5889 180.195 53.3611 180.562 53.1833C180.929 52.9944 181.445 52.9 182.112 52.9H182.445V54.6H181.945C180.945 54.6 180.24 54.8611 179.829 55.3833C179.418 55.8944 179.212 56.7 179.212 57.8V63H177.412Z" fill="black"/>
<path d="M245.098 38V37C245.678 36.54 246.155 36.1533 246.528 35.84C246.908 35.5267 247.241 35.2333 247.528 34.96C248.048 34.46 248.428 34.0133 248.668 33.62C248.915 33.22 249.038 32.8033 249.038 32.37C249.038 31.9367 248.918 31.5867 248.678 31.32C248.438 31.0533 248.081 30.92 247.608 30.92C247.088 30.92 246.708 31.0833 246.468 31.41C246.228 31.73 246.108 32.1267 246.108 32.6H245.098C245.098 32.1133 245.195 31.68 245.388 31.3C245.588 30.9133 245.878 30.61 246.258 30.39C246.645 30.17 247.111 30.06 247.658 30.06C248.405 30.06 249.001 30.2567 249.448 30.65C249.895 31.0433 250.118 31.5767 250.118 32.25C250.118 32.8767 249.941 33.46 249.588 34C249.241 34.5333 248.798 35.0467 248.258 35.54C248.051 35.7333 247.798 35.9433 247.498 36.17C247.205 36.3967 246.861 36.6267 246.468 36.86V37.06H250.298V38H245.098ZM253.927 40V39.94C254.121 39.6467 254.324 39.3 254.537 38.9C254.751 38.5067 254.944 38.1033 255.117 37.69L252.957 32.06V32H254.037L255.157 35C255.224 35.1733 255.287 35.3567 255.347 35.55C255.414 35.7367 255.481 35.9667 255.547 36.24H255.787C255.854 35.9667 255.917 35.7367 255.977 35.55C256.044 35.3567 256.111 35.1733 256.177 35L257.297 32H258.297V32.06L256.237 37.46C256.037 37.9867 255.831 38.4733 255.617 38.92C255.411 39.3667 255.221 39.7267 255.047 40H253.927ZM261.253 38.15C260.373 38.15 259.703 37.8633 259.243 37.29C258.789 36.71 258.563 35.9467 258.563 35C258.563 34.3733 258.663 33.8267 258.863 33.36C259.069 32.8867 259.369 32.5167 259.763 32.25C260.163 31.9833 260.656 31.85 261.243 31.85C262.063 31.85 262.686 32.1167 263.113 32.65C263.546 33.1833 263.763 33.9567 263.763 34.97V35.28H259.613C259.646 35.8667 259.796 36.35 260.063 36.73C260.336 37.1033 260.736 37.29 261.263 37.29C261.643 37.29 261.949 37.1833 262.183 36.97C262.416 36.7567 262.583 36.46 262.683 36.08H263.703C263.616 36.4867 263.473 36.8467 263.273 37.16C263.073 37.4667 262.806 37.71 262.473 37.89C262.139 38.0633 261.733 38.15 261.253 38.15ZM259.623 34.5H262.713C262.693 33.92 262.553 33.4767 262.293 33.17C262.033 32.8633 261.679 32.71 261.233 32.71C260.759 32.71 260.386 32.8667 260.113 33.18C259.846 33.4933 259.683 33.9333 259.623 34.5ZM266.728 38.15C266.215 38.15 265.778 38.02 265.418 37.76C265.058 37.5 264.781 37.1367 264.588 36.67C264.401 36.1967 264.308 35.64 264.308 35C264.308 34.36 264.401 33.8067 264.588 33.34C264.781 32.8667 265.058 32.5 265.418 32.24C265.785 31.98 266.228 31.85 266.748 31.85C267.201 31.85 267.561 31.9467 267.828 32.14C268.101 32.3267 268.291 32.54 268.398 32.78H268.638V32H269.598V38H268.638V37.22H268.398C268.291 37.46 268.101 37.6767 267.828 37.87C267.555 38.0567 267.188 38.15 266.728 38.15ZM266.918 37.25C267.418 37.25 267.815 37.0433 268.108 36.63C268.401 36.2167 268.548 35.6733 268.548 35C268.548 34.3267 268.401 33.7833 268.108 33.37C267.815 32.9567 267.418 32.75 266.918 32.75C266.431 32.75 266.058 32.9467 265.798 33.34C265.538 33.7333 265.408 34.2867 265.408 35C265.408 35.7133 265.538 36.2667 265.798 36.66C266.058 37.0533 266.431 37.25 266.918 37.25ZM270.976 38V32H271.936V33.02H272.176C272.216 32.8533 272.286 32.6867 272.386 32.52C272.486 32.3533 272.646 32.2167 272.866 32.11C273.086 31.9967 273.396 31.94 273.796 31.94H273.996V32.96H273.696C273.096 32.96 272.672 33.1167 272.426 33.43C272.179 33.7367 272.056 34.22 272.056 34.88V38H270.976ZM276.751 38.15C276.198 38.15 275.741 38.0533 275.381 37.86C275.021 37.66 274.751 37.4033 274.571 37.09C274.391 36.77 274.291 36.4333 274.271 36.08H275.331C275.351 36.28 275.414 36.4767 275.521 36.67C275.628 36.8567 275.784 37.01 275.991 37.13C276.198 37.25 276.461 37.31 276.781 37.31C277.134 37.31 277.408 37.2367 277.601 37.09C277.794 36.9367 277.891 36.7367 277.891 36.49C277.891 36.2767 277.814 36.0967 277.661 35.95C277.514 35.7967 277.284 35.6633 276.971 35.55L276.261 35.3C275.941 35.18 275.651 35.05 275.391 34.91C275.138 34.7633 274.934 34.5833 274.781 34.37C274.628 34.15 274.551 33.8733 274.551 33.54C274.551 33.0267 274.734 32.6167 275.101 32.31C275.468 32.0033 275.971 31.85 276.611 31.85C277.071 31.85 277.451 31.93 277.751 32.09C278.058 32.25 278.291 32.47 278.451 32.75C278.611 33.0233 278.704 33.3333 278.731 33.68H277.711C277.684 33.4267 277.584 33.2 277.411 33C277.238 32.7933 276.954 32.69 276.561 32.69C276.248 32.69 276.008 32.76 275.841 32.9C275.674 33.0333 275.591 33.2167 275.591 33.45C275.591 33.6767 275.671 33.8633 275.831 34.01C275.991 34.1567 276.231 34.29 276.551 34.41L277.261 34.65C277.581 34.77 277.868 34.9033 278.121 35.05C278.374 35.19 278.571 35.3667 278.711 35.58C278.858 35.7933 278.931 36.0667 278.931 36.4C278.931 36.9133 278.744 37.3333 278.371 37.66C277.998 37.9867 277.458 38.15 276.751 38.15ZM283.886 38.15C283.372 38.15 282.936 38.02 282.576 37.76C282.216 37.5 281.939 37.1367 281.746 36.67C281.559 36.1967 281.466 35.64 281.466 35C281.466 34.36 281.559 33.8067 281.746 33.34C281.939 32.8667 282.216 32.5 282.576 32.24C282.942 31.98 283.386 31.85 283.906 31.85C284.359 31.85 284.719 31.9467 284.986 32.14C285.259 32.3267 285.449 32.54 285.556 32.78H285.796V32H286.756V38H285.796V37.22H285.556C285.449 37.46 285.259 37.6767 284.986 37.87C284.712 38.0567 284.346 38.15 283.886 38.15ZM284.076 37.25C284.576 37.25 284.972 37.0433 285.266 36.63C285.559 36.2167 285.706 35.6733 285.706 35C285.706 34.3267 285.559 33.7833 285.266 33.37C284.972 32.9567 284.576 32.75 284.076 32.75C283.589 32.75 283.216 32.9467 282.956 33.34C282.696 33.7333 282.566 34.2867 282.566 35C282.566 35.7133 282.696 36.2667 282.956 36.66C283.216 37.0533 283.589 37.25 284.076 37.25ZM290.373 40.14C289.947 40.14 289.587 40.0867 289.293 39.98C289 39.8733 288.76 39.7333 288.573 39.56C288.387 39.3933 288.247 39.21 288.153 39.01C288.06 38.81 288 38.6133 287.973 38.42H289.053C289.093 38.6467 289.22 38.85 289.433 39.03C289.647 39.21 289.977 39.3 290.423 39.3C290.903 39.3 291.273 39.1667 291.533 38.9C291.8 38.6333 291.933 38.2033 291.933 37.61V36.94H291.693C291.587 37.2067 291.403 37.43 291.143 37.61C290.89 37.7833 290.543 37.87 290.103 37.87C289.363 37.87 288.777 37.6 288.343 37.06C287.917 36.52 287.703 35.78 287.703 34.84C287.703 34.2267 287.797 33.6967 287.983 33.25C288.177 32.8033 288.45 32.46 288.803 32.22C289.163 31.9733 289.59 31.85 290.083 31.85C290.543 31.85 290.897 31.9433 291.143 32.13C291.397 32.3167 291.58 32.5333 291.693 32.78H291.933V32H292.893V37.67C292.893 38.47 292.677 39.08 292.243 39.5C291.81 39.9267 291.187 40.14 290.373 40.14ZM290.233 36.97C290.747 36.97 291.143 36.7733 291.423 36.38C291.703 35.98 291.843 35.4733 291.843 34.86C291.843 34.2333 291.7 33.7267 291.413 33.34C291.133 32.9467 290.743 32.75 290.243 32.75C289.777 32.75 289.417 32.9333 289.163 33.3C288.91 33.6667 288.783 34.1867 288.783 34.86C288.783 35.5333 288.907 36.0533 289.153 36.42C289.407 36.7867 289.767 36.97 290.233 36.97ZM296.547 38.15C295.634 38.15 294.954 37.8667 294.507 37.3C294.067 36.7267 293.847 35.96 293.847 35C293.847 34.04 294.067 33.2767 294.507 32.71C294.954 32.1367 295.634 31.85 296.547 31.85C297.461 31.85 298.137 32.1367 298.577 32.71C299.024 33.2767 299.247 34.04 299.247 35C299.247 35.96 299.024 36.7267 298.577 37.3C298.137 37.8667 297.461 38.15 296.547 38.15ZM296.547 37.27C297.101 37.27 297.504 37.0667 297.757 36.66C298.017 36.2533 298.147 35.7 298.147 35C298.147 34.3 298.017 33.7467 297.757 33.34C297.504 32.9333 297.101 32.73 296.547 32.73C295.994 32.73 295.587 32.9333 295.327 33.34C295.074 33.7467 294.947 34.3 294.947 35C294.947 35.7 295.074 36.2533 295.327 36.66C295.587 37.0667 295.994 37.27 296.547 37.27Z" fill="#605A5A"/>
<ellipse cx="48.1699" cy="37.5" rx="23.1699" ry="23.5" fill="#828080"/>
<path d="M41.4351 48V27.2H48.8484C51.4973 27.2 53.4262 27.7511 54.6351 28.8533C55.8617 29.9378 56.4751 31.3956 56.4751 33.2267C56.4751 35.0578 55.8617 36.5244 54.6351 37.6267C53.4262 38.7111 51.4973 39.2533 48.8484 39.2533H44.4217V48H41.4351ZM44.4217 36.8533H48.7151C50.3862 36.8533 51.5862 36.56 52.3151 35.9733C53.0617 35.3867 53.4351 34.4711 53.4351 33.2267C53.4351 31.9822 53.0617 31.0667 52.3151 30.48C51.5862 29.8933 50.3862 29.6 48.7151 29.6H44.4217V36.8533Z" fill="white"/>
</svg>
