<?xml version="1.0" encoding="UTF-8"?>
<svg id="Layer_1" data-name="Layer 1" xmlns="http://www.w3.org/2000/svg" xmlns:xlink="http://www.w3.org/1999/xlink" version="1.1" viewBox="0 0 1440 960">
  <defs>
    <style>
      .cls-1 {
        stroke: #a259ff;
      }

      .cls-1, .cls-2, .cls-3, .cls-4, .cls-5, .cls-6, .cls-7 {
        fill: none;
      }

      .cls-1, .cls-3, .cls-4, .cls-6 {
        stroke-linecap: round;
      }

      .cls-1, .cls-3, .cls-6 {
        stroke-width: 48px;
      }

      .cls-8 {
        clip-path: url(#clippath);
      }

      .cls-2, .cls-9, .cls-10 {
        stroke-width: 0px;
      }

      .cls-3 {
        stroke: #65a90f;
      }

      .cls-3, .cls-4, .cls-6 {
        stroke-linejoin: round;
      }

      .cls-4, .cls-11, .cls-5, .cls-7, .cls-12, .cls-13, .cls-14 {
        stroke: #000;
      }

      .cls-4, .cls-7 {
        stroke-width: 4px;
      }

      .cls-11 {
        stroke-width: 3.75px;
      }

      .cls-11, .cls-9, .cls-12, .cls-13, .cls-14 {
        fill: #fff;
      }

      .cls-11, .cls-12 {
        stroke-miterlimit: 4;
      }

      .cls-5 {
        stroke-dasharray: 0 0 5 5;
      }

      .cls-6 {
        stroke: #699bf7;
      }

      .cls-9, .cls-10 {
        fill-rule: evenodd;
      }

      .cls-12 {
        stroke-width: 4px;
      }

      .cls-13 {
        stroke-miterlimit: 4;
        stroke-width: 4px;
      }

      .cls-14 {
        stroke-miterlimit: 4;
        stroke-width: 4px;
      }

      .cls-10 {
        fill: #000;
      }
    </style>
    <clipPath id="clippath">
      <rect class="cls-2" y="1.5" width="1440" height="955"/>
    </clipPath>
  </defs>
  <g class="cls-8">
    <line class="cls-5" x1="67.41" y1="3.62" x2="67.41" y2="1027.62"/>
    <line class="cls-5" x1="117.41" y1="3.62" x2="117.41" y2="1025.62"/>
    <line class="cls-5" x1="167.41" y1="3.62" x2="167.41" y2="1027.62"/>
    <line class="cls-5" x1="218.41" y1="3.62" x2="218.41" y2="1027.62"/>
    <line class="cls-5" x1="268.41" y1="3.62" x2="268.41" y2="1027.62"/>
    <line class="cls-5" x1="318.41" y1="3.62" x2="318.41" y2="1025.62"/>
    <line class="cls-5" x1="368.41" y1="3.62" x2="368.41" y2="1027.62"/>
    <line class="cls-5" x1="419.41" y1="3.62" x2="419.41" y2="1027.62"/>
    <line class="cls-5" x1="469.41" y1="3.62" x2="469.41" y2="1027.62"/>
    <line class="cls-5" x1="519.41" y1="3.62" x2="519.41" y2="1027.62"/>
    <line class="cls-5" x1="569.41" y1="3.62" x2="569.41" y2="1025.62"/>
    <line class="cls-5" x1="619.41" y1="3.62" x2="619.41" y2="1027.62"/>
    <line class="cls-5" x1="670.41" y1="3.62" x2="670.41" y2="1027.62"/>
    <line class="cls-5" x1="720.41" y1="3.62" x2="720.41" y2="1027.62"/>
    <line class="cls-5" x1="770.41" y1="3.62" x2="770.41" y2="1025.62"/>
    <line class="cls-5" x1="820.41" y1="3.62" x2="820.41" y2="1027.62"/>
    <line class="cls-5" x1="871.41" y1="3.62" x2="871.41" y2="1027.62"/>
    <line class="cls-5" x1="921.41" y1="3.62" x2="921.41" y2="1027.62"/>
    <line class="cls-5" x1="972.41" y1="1.62" x2="972.41" y2="1025.62"/>
    <line class="cls-5" x1="1022.41" y1="1.62" x2="1022.41" y2="1023.62"/>
    <line class="cls-5" x1="1072.41" y1="1.62" x2="1072.41" y2="1025.62"/>
    <line class="cls-5" x1="1123.41" y1="1.62" x2="1123.41" y2="1025.62"/>
    <line class="cls-5" x1="1173.41" y1="1.62" x2="1173.41" y2="1025.62"/>
    <line class="cls-5" x1="1223.41" y1="1.62" x2="1223.41" y2="1023.62"/>
    <line class="cls-5" x1="1273.41" y1="1.62" x2="1273.41" y2="1025.62"/>
    <line class="cls-5" x1="1324.41" y1="1.62" x2="1324.41" y2="1025.62"/>
    <line class="cls-5" x1="1374.41" y1="1.62" x2="1374.41" y2="1025.62"/>
    <line class="cls-5" x1="-.09" y1="52.12" x2="1439.91" y2="52.12"/>
    <line class="cls-5" x1="-.09" y1="102.12" x2="1439.91" y2="102.12"/>
    <line class="cls-5" x1="-.09" y1="153.12" x2="1439.91" y2="153.12"/>
    <line class="cls-5" x1="-.09" y1="203.12" x2="1439.91" y2="203.12"/>
    <line class="cls-5" x1="-.09" y1="253.12" x2="1439.91" y2="253.12"/>
    <line class="cls-5" x1="-.09" y1="304.12" x2="1439.91" y2="304.12"/>
    <line class="cls-5" x1="-.09" y1="354.12" x2="1439.91" y2="354.12"/>
    <line class="cls-5" x1="-.09" y1="404.12" x2="1439.91" y2="404.12"/>
    <line class="cls-5" x1="-.09" y1="454.12" x2="1439.91" y2="454.12"/>
    <line class="cls-5" x1="-.09" y1="504.12" x2="1439.91" y2="504.12"/>
    <line class="cls-5" x1="-.09" y1="554.12" x2="1439.91" y2="554.12"/>
    <line class="cls-5" x1="-.09" y1="605.12" x2="1439.91" y2="605.12"/>
    <line class="cls-5" x1="-.09" y1="655.12" x2="1439.91" y2="655.12"/>
    <line class="cls-5" x1="-.09" y1="705.12" x2="1439.91" y2="705.12"/>
    <line class="cls-5" x1="-.09" y1="756.12" x2="1439.91" y2="756.12"/>
    <line class="cls-5" x1="-.09" y1="806.12" x2="1439.91" y2="806.12"/>
    <line class="cls-5" x1="-.09" y1="856.12" x2="1439.91" y2="856.12"/>
    <line class="cls-5" x1="-.09" y1="906.12" x2="1439.91" y2="906.12"/>
    <line class="cls-5" x1="-.09" y1="956.12" x2="1439.91" y2="956.12"/>
    <path class="cls-6" d="M1626.39,925.99c-91.59-7.25-183.18-14.49-274.76-21.74-6.8-.54-7.45-.22-6.77-7.14.62-6.33,2.63-12.36,3.13-18.73.2-2.48-1.33-.41-2.44.72-8.27,8.41-17.18,15.72-26.9,22.44-23.11,15.99-48.72,29.62-76.35,35.76-8.25,1.83-22.51,3.64-30.81.13-7.61-3.23-.4-38.92.24-47.01.19-2.43,2.65-13.24.81-14.97-1.46-1.37-38.8,21.02-41.55,22.38-21.61,10.64-97.59,46.98-97.48-1.94.02-10.27.79-20.45,1.6-30.67.81-10.29-41.82,10.99-43.17,11.53-30.77,12.16-58.64,21.07-91.76,19.6-6.52-.29-13.07-.51-19.1-3.07"/>
    <path class="cls-4" d="M1626.39,925.99c-29.31-2.32-281.03-15.94-280.41-22.28.63-6.33,1.51-18.96,2.01-25.33.2-2.48-1.33-.41-2.44.72-8.27,8.41-17.18,15.72-26.9,22.44-23.11,15.99-48.72,29.62-76.35,35.76-8.25,1.83-22.51,3.64-30.81.13-7.61-3.23-.4-38.92.24-47.01.19-2.43,2.65-13.24.81-14.97-1.46-1.37-38.8,21.02-41.55,22.38-21.61,10.64-97.59,46.98-97.48-1.94.02-10.27.79-20.45,1.6-30.67.81-10.29-41.82,10.99-43.17,11.53-30.77,12.16-58.64,21.07-91.76,19.6-6.52-.29-13.07-.51-19.1-3.07"/>
    <circle class="cls-12" cx="921.23" cy="893.84" r="8"/>
    <circle class="cls-12" cx="1072.4" cy="865.93" r="8"/>
    <circle class="cls-12" cx="1108.79" cy="919.46" r="8"/>
    <circle class="cls-12" cx="1214.01" cy="873.37" r="8"/>
    <circle class="cls-12" cx="1214.84" cy="938.89" r="8"/>
    <circle class="cls-11" cx="1347.36" cy="882.04" r="6.38"/>
    <circle class="cls-11" cx="1344.88" cy="913.44" r="6.38"/>
    <path class="cls-1" d="M-20.97,910.11c-159.67-131.28-200.42-379.89-91.02-555.27C-2.59,179.45,215.53,143.7,375.2,274.98"/>
    <path class="cls-7" d="M-20.97,910.11c-159.67-131.28-200.42-379.89-91.02-555.27C-2.59,179.45,215.53,143.7,375.2,274.98"/>
    <ellipse class="cls-14" cx="374.92" cy="274.6" rx="7.02" ry="8" transform="translate(-39.48 64.26) rotate(-9.31)"/>
    <path class="cls-9" d="M427.59,243.08c10.64-5.13,17-18.07,14.74-31.87-.51-3.14-1.44-6.09-2.69-8.79l9.86-15.85-19.79-16.31-9.79,15.73c-2.72-.54-5.53-.62-8.38-.15-12.54,2.05-21.33,13.93-21.53,27.83l-4.27,51.05,41.85-21.65Z"/>
    <path class="cls-10" d="M388.36,264.31l.86-1.38.71-.37,37.65-19.47c10.64-5.13,17-18.07,14.74-31.87-.51-3.14-1.44-6.09-2.69-8.79l9.86-15.85-16.68-13.74-3.11-2.57-2.13,3.43-7.66,12.31c-2.72-.54-5.53-.62-8.38-.15-12.54,2.05-21.33,13.93-21.53,27.83l-3.88,46.35-.03.34-.08.13-1.06,1.7.94.58-.16,1.95,1.8-.93.82.51ZM409.33,223.14l-18.58,29.79,3.25-38.93v-.14s.01-.14.01-.14c.18-12.39,7.94-22.27,18.18-23.94,2.35-.39,4.69-.33,6.94.13l2.72.54,1.46-2.35,7.38-11.85,13.56,11.18-8.01,12.87-1.14,1.84.91,1.96c1.1,2.38,1.92,4.98,2.37,7.76,2.02,12.32-3.71,23.38-12.52,27.62l-.05.02-.05.03-32.39,16.75,19.07-30.57c1.2.54,2.52.75,3.87.53,4.03-.66,6.69-4.92,5.94-9.52-.75-4.6-4.63-7.79-8.67-7.13-4.03.66-6.69,4.92-5.94,9.52.25,1.53.85,2.91,1.68,4.03Z"/>
    <path class="cls-3" d="M1439.91,138.62c-71.86,59.9-186.64,48.31-248.33-14.07-11.89-12.02-23.63-33.17-29.82-49.38-1.6-4.19-4.6,1.12-6.21,2.95-5.58,6.34-12.57,10.88-20.5,13.52-30.51,10.14-63.15-31.03-77.79-50.85-23.16-31.36-41.02-66.47-62.65-98.94-4.07-6.11-6.57,2.48-9.45,6.32-12.95,17.32-42.16,17-60.27,12.86-21-4.8-42.86-12.25-60.78-24.18-6.12-4.08-10.22-9.43-14.44-15.41-1.68-2.38-4.43-9.59-7.28-10.62-2.5-.9-4.76,14.9-5.33,16.81-3.2,10.64-8.81,13.25-19.67,15.84-27.31,6.53-44.15-4.05-66.23-18.4-14.16-9.21-30.24-17.34-38.78-32.61"/>
    <path class="cls-4" d="M1439.91,138.62c-71.86,59.9-186.64,48.31-248.33-14.07-11.89-12.02-23.63-33.17-29.82-49.38-1.6-4.19-4.6,1.12-6.21,2.95-5.58,6.34-12.57,10.88-20.5,13.52-30.51,10.14-63.15-31.03-77.79-50.85-23.16-31.36-41.02-66.47-62.65-98.94-4.07-6.11-6.57,2.48-9.45,6.32-12.95,17.32-42.16,17-60.27,12.86-21-4.8-42.86-12.25-60.78-24.18-6.12-4.08-10.22-9.43-14.44-15.41-1.68-2.38-4.43-9.59-7.28-10.62-2.5-.9-4.76,14.9-5.33,16.81-3.2,10.64-8.81,13.25-19.67,15.84-27.31,6.53-44.15-4.05-66.23-18.4-14.16-9.21-30.24-17.34-38.78-32.61"/>
    <ellipse class="cls-13" cx="1272.48" cy="169.88" rx="8.73" ry="8.29" transform="translate(436.46 1144.11) rotate(-56.97)"/>
    <ellipse class="cls-13" cx="1161.03" cy="74.64" rx="8.73" ry="8.29" transform="translate(465.6 1007.34) rotate(-56.97)"/>
    <ellipse class="cls-13" cx="1059.4" cy="42.72" rx="8.73" ry="8.29" transform="translate(446.12 907.62) rotate(-56.97)"/>
  </g>
</svg>