<svg width="30" height="30" viewBox="0 0 30 30" fill="none" xmlns="http://www.w3.org/2000/svg">
<path d="M15.1367 0.604004C23.2953 0.604004 29.9087 7.11126 29.9087 15.1389C29.9087 23.1664 23.2953 29.6737 15.1367 29.6737C12.5261 29.6778 9.96153 28.9981 7.70635 27.7042L0.370554 29.6737L2.36773 22.4528C1.05168 20.2331 0.360283 17.7086 0.364645 15.1389C0.364645 7.11126 6.97809 0.604004 15.1367 0.604004ZM10.1024 8.30747L9.80693 8.3191C9.61566 8.33056 9.42874 8.38 9.25741 8.46445C9.09717 8.55374 8.95089 8.66536 8.82311 8.79584C8.64585 8.96009 8.5454 9.10253 8.43756 9.24061C7.89118 9.9396 7.59699 10.7977 7.60147 11.6796C7.60442 12.3918 7.7935 13.0851 8.08894 13.7333C8.69312 15.0444 9.68728 16.4325 10.999 17.7188C11.3152 18.0284 11.6254 18.3394 11.9592 18.6287C13.5891 20.0407 15.5315 21.059 17.6317 21.6025L18.4707 21.729C18.744 21.7435 19.0173 21.7231 19.2921 21.7101C19.7223 21.6882 20.1424 21.5736 20.5226 21.3743C20.716 21.2763 20.9048 21.1696 21.0883 21.0545C21.0883 21.0545 21.1519 21.0138 21.273 20.9237C21.4724 20.7784 21.595 20.6752 21.7605 20.5051C21.8831 20.3801 21.9894 20.2333 22.0707 20.0662C22.1859 19.8292 22.3011 19.3772 22.3484 19.0008C22.3838 18.713 22.3735 18.556 22.3691 18.4586C22.3632 18.3031 22.2317 18.1418 22.0884 18.0734L21.2287 17.6941C21.2287 17.6941 19.9435 17.1432 19.1576 16.7915C19.0754 16.7561 18.9873 16.7359 18.8976 16.7319C18.7966 16.7217 18.6945 16.7328 18.5981 16.7647C18.5018 16.7965 18.4136 16.8483 18.3393 16.9165C18.3319 16.9136 18.2329 16.9964 17.1649 18.2697C17.1036 18.3507 17.0191 18.412 16.9223 18.4456C16.8255 18.4793 16.7207 18.4838 16.6213 18.4586C16.525 18.4332 16.4308 18.4012 16.3391 18.3627C16.156 18.2871 16.0924 18.258 15.9669 18.2057C15.1191 17.8417 14.3341 17.3498 13.6403 16.7479C13.4541 16.588 13.2813 16.4136 13.104 16.245C12.5229 15.6973 12.0164 15.0778 11.5973 14.4019L11.5101 14.2639C11.4475 14.1711 11.3969 14.071 11.3595 13.9659C11.3033 13.7522 11.4496 13.5807 11.4496 13.5807C11.4496 13.5807 11.8085 13.1941 11.9755 12.9848C12.138 12.7813 12.2753 12.5836 12.364 12.4426C12.5383 12.1665 12.5929 11.883 12.5013 11.6636C12.0877 10.6694 11.6593 9.67956 11.2191 8.69701C11.132 8.50224 10.8735 8.36271 10.6386 8.33509C10.5588 8.32637 10.4791 8.31765 10.3993 8.31183C10.2009 8.30214 10.0021 8.30408 9.80398 8.31765L10.1024 8.30747Z" fill="black"/>
</svg>
